<svg width="20" height="20" viewBox="0 0 20 20" fill="none" xmlns="http://www.w3.org/2000/svg">
<path d="M17.0711 2.92891C15.1823 1.04021 12.6711 0 10 0C7.32891 0 4.81769 1.04021 2.92891 2.92891C1.04021 4.81769 0 7.32891 0 10C0 12.6711 1.04021 15.1823 2.92891 17.0711C4.81769 18.9598 7.32891 20 10 20C12.6711 20 15.1823 18.9598 17.0711 17.0711C18.9598 15.1823 20 12.6711 20 10C20 7.32891 18.9598 4.81769 17.0711 2.92891ZM10 18.7629C5.16812 18.7629 1.23711 14.8319 1.23711 10C1.23711 5.16812 5.16812 1.23711 10 1.23711C14.8319 1.23711 18.7629 5.16812 18.7629 10C18.7629 14.8319 14.8319 18.7629 10 18.7629Z" fill="#00AEFF"/>
<path d="M7.9683 5.5913L12.3627 10L7.9683 14.4087L8.84451 15.282L14.1093 10L8.84451 4.71798L7.9683 5.5913Z" fill="#00AEFF"/>
</svg>
