<svg width="77" height="77" viewBox="0 0 77 77" fill="none" xmlns="http://www.w3.org/2000/svg">
<circle opacity="0.1" cx="38.5" cy="38.5" r="38.5" fill="#00AEFF"/>
<g clip-path="url(#clip0)">
<path d="M58.5119 20.1135H18.5733C17.7059 20.1135 17.0001 20.8193 17.0001 21.6867V55.4922C17.0001 56.3597 17.7059 57.0654 18.5733 57.0654H58.5119C59.3794 57.0654 60.0851 56.3597 60.0851 55.4922V21.6867C60.0851 20.8193 59.3794 20.1135 58.5119 20.1135ZM57.5606 22.638V24.5232L42.8027 24.559C42.4086 24.56 42.0326 24.7086 41.7436 24.9778L39.6675 26.9156H19.5246V22.638H57.5606ZM19.5246 54.5409V29.4398H40.0491C40.4449 29.4398 40.8222 29.2912 41.1115 29.021L43.1886 27.0826L57.5609 27.0474V54.5409H19.5246Z" fill="#00AEFF"/>
<path d="M25.1779 25.0538C25.1855 25.0939 25.1956 25.1343 25.2081 25.1741C25.22 25.2126 25.2344 25.2523 25.2496 25.2901C25.2653 25.3279 25.2831 25.3657 25.3025 25.4019C25.3219 25.4381 25.3429 25.4736 25.3656 25.5081C25.3883 25.5426 25.4136 25.5761 25.4396 25.6073C25.4659 25.6392 25.4935 25.6705 25.523 25.7C25.5516 25.7293 25.5825 25.7572 25.6148 25.7832C25.6466 25.8092 25.6802 25.8338 25.7147 25.8565C25.7485 25.8792 25.7847 25.9009 25.8209 25.9203C25.857 25.9397 25.8948 25.9574 25.9326 25.9725C25.9704 25.9886 26.0092 26.0028 26.049 26.0146C26.0884 26.0265 26.1289 26.0366 26.1683 26.0449C26.2087 26.0534 26.2502 26.0593 26.2912 26.0633C26.3323 26.0675 26.3744 26.0692 26.4148 26.0692C26.4559 26.0692 26.498 26.0675 26.5394 26.0633C26.5799 26.0593 26.6209 26.0534 26.6614 26.0449C26.7018 26.0366 26.7422 26.0265 26.7817 26.0146C26.8205 26.0028 26.8602 25.9886 26.8977 25.9725C26.9359 25.9574 26.9737 25.9397 27.0098 25.9203C27.046 25.9009 27.0815 25.8792 27.116 25.8565C27.1502 25.8338 27.184 25.8092 27.2153 25.7832C27.2481 25.7572 27.2784 25.7293 27.3076 25.7C27.3372 25.6705 27.3652 25.6392 27.3911 25.6073C27.4171 25.5761 27.4414 25.5426 27.4651 25.5081C27.4871 25.4736 27.5088 25.4381 27.5282 25.4019C27.5476 25.3657 27.5653 25.3279 27.5805 25.2901C27.5962 25.2523 27.6107 25.2126 27.6225 25.1741C27.6344 25.1343 27.6442 25.0939 27.6528 25.0538C27.6613 25.0134 27.6669 24.9719 27.6712 24.9315C27.6755 24.8904 27.6771 24.8483 27.6771 24.8073C27.6771 24.7658 27.6755 24.7247 27.6712 24.6833C27.6669 24.6422 27.6613 24.6008 27.6528 24.5604C27.6442 24.5203 27.634 24.4799 27.6225 24.4411C27.6107 24.4016 27.5962 24.3628 27.5805 24.325C27.5653 24.2862 27.5476 24.2491 27.5282 24.2129C27.5088 24.1768 27.4871 24.1406 27.4651 24.1071C27.4414 24.0726 27.4171 24.0387 27.3911 24.0068C27.3648 23.975 27.3372 23.9437 27.3076 23.9151C27.2784 23.8855 27.2481 23.8579 27.2153 23.832C27.184 23.8057 27.1502 23.7804 27.116 23.7577C27.0815 23.735 27.046 23.714 27.0098 23.6946C26.9737 23.6752 26.9359 23.6577 26.8977 23.6416C26.8602 23.6265 26.8205 23.6121 26.7817 23.6006C26.7422 23.5877 26.7018 23.5779 26.6614 23.57C26.6209 23.5618 26.5799 23.5558 26.5394 23.5516C26.4569 23.5434 26.3738 23.5434 26.2912 23.5516C26.2502 23.5558 26.2087 23.5618 26.1683 23.57C26.1289 23.5779 26.0884 23.5877 26.049 23.6006C26.0092 23.6121 25.9704 23.6265 25.9326 23.6416C25.8948 23.6577 25.857 23.6752 25.8209 23.6946C25.7847 23.714 25.7485 23.735 25.7147 23.7577C25.6802 23.7804 25.6466 23.8057 25.6148 23.832C25.5825 23.8579 25.5516 23.8855 25.523 23.9151C25.4935 23.9437 25.4659 23.975 25.4396 24.0068C25.4136 24.0387 25.3883 24.0726 25.3656 24.1071C25.3429 24.1406 25.3219 24.1768 25.3025 24.2129C25.2831 24.2491 25.2657 24.2862 25.2496 24.325C25.2344 24.3628 25.22 24.4016 25.2081 24.4411C25.1956 24.4799 25.1855 24.5203 25.1779 24.5604C25.1694 24.6008 25.1638 24.6422 25.1595 24.6833C25.1552 24.7247 25.1526 24.7658 25.1526 24.8073C25.1526 24.8483 25.1552 24.8904 25.1595 24.9315C25.1638 24.9723 25.1697 25.0134 25.1779 25.0538Z" fill="#00AEFF"/>
<path d="M21.5755 25.7832C21.6077 25.8095 21.6412 25.8338 21.6757 25.8565C21.7093 25.8792 21.7458 25.9012 21.7819 25.9206C21.8181 25.9397 21.8559 25.9574 21.8937 25.9725C21.9315 25.9886 21.9703 26.0028 22.0097 26.0146C22.0495 26.0265 22.0889 26.0366 22.1294 26.0449C22.1698 26.0534 22.2109 26.0593 22.2523 26.0636C22.2934 26.0675 22.3345 26.0695 22.3759 26.0695C22.417 26.0695 22.4591 26.0675 22.5005 26.0636C22.5409 26.0593 22.582 26.0534 22.6224 26.0449C22.6629 26.0366 22.7033 26.0265 22.7427 26.0146C22.7815 26.0028 22.821 25.9886 22.8588 25.9725C22.8966 25.9574 22.9347 25.9397 22.9709 25.9206C23.007 25.9012 23.0425 25.8792 23.077 25.8565C23.1112 25.8338 23.1451 25.8095 23.1763 25.7832C23.2082 25.7572 23.2394 25.7293 23.2687 25.7C23.2983 25.6705 23.3259 25.6396 23.3522 25.6073C23.3781 25.5764 23.4025 25.5426 23.4252 25.5081C23.4478 25.4736 23.4699 25.4384 23.4893 25.4022C23.5086 25.3661 23.5261 25.3279 23.5415 25.2901C23.5573 25.2523 23.5718 25.2129 23.5836 25.1741C23.5951 25.1347 23.6053 25.0942 23.6138 25.0538C23.6221 25.0134 23.628 24.9723 23.6322 24.9318C23.6365 24.8904 23.6382 24.8483 23.6382 24.8073C23.6382 24.7658 23.6365 24.7247 23.6322 24.6833C23.628 24.6422 23.6221 24.6012 23.6138 24.5607C23.6053 24.5203 23.5951 24.4808 23.5836 24.4411C23.5718 24.4016 23.5573 24.3628 23.5415 24.325C23.5261 24.2862 23.5086 24.2494 23.4893 24.2133C23.4699 24.1768 23.4478 24.1406 23.4252 24.1071C23.4025 24.0726 23.3781 24.0391 23.3522 24.0068C23.3259 23.975 23.2983 23.9437 23.2687 23.9151C23.2394 23.8859 23.2082 23.8579 23.1763 23.831C23.1451 23.806 23.1112 23.7807 23.077 23.758C23.0425 23.735 23.007 23.714 22.9709 23.6949C22.9347 23.6755 22.8966 23.6577 22.8588 23.6416C22.821 23.6265 22.7815 23.6124 22.7427 23.6006C22.7033 23.5881 22.6629 23.5779 22.6224 23.5703C22.582 23.5618 22.5409 23.5558 22.5005 23.5516C22.418 23.5434 22.3345 23.5434 22.2523 23.5516C22.2109 23.5558 22.1698 23.5618 22.1294 23.5703C22.0889 23.5779 22.0495 23.5881 22.0097 23.6006C21.9703 23.6124 21.9315 23.6265 21.8937 23.6416C21.8559 23.6577 21.8181 23.6755 21.7819 23.6949C21.7458 23.714 21.7096 23.735 21.6757 23.758C21.6412 23.7807 21.6077 23.806 21.5755 23.831C21.5436 23.8579 21.5124 23.8859 21.4838 23.9151C21.4545 23.9437 21.4266 23.975 21.4006 24.0068C21.3746 24.0391 21.3493 24.0726 21.3267 24.1071C21.304 24.1406 21.2829 24.1768 21.2635 24.2133C21.2441 24.2494 21.2264 24.2862 21.2103 24.325C21.1952 24.3628 21.181 24.4016 21.1692 24.4411C21.1567 24.4808 21.1465 24.5203 21.139 24.5607C21.1304 24.6012 21.1248 24.6422 21.1206 24.6833C21.1163 24.7247 21.1136 24.7658 21.1136 24.8073C21.1136 25.1396 21.2484 25.4644 21.4838 25.7C21.5124 25.7293 21.5436 25.7572 21.5755 25.7832Z" fill="#00AEFF"/>
<path d="M29.3016 25.0538C29.3091 25.0939 29.319 25.1343 29.3318 25.1741C29.3436 25.2126 29.3578 25.2523 29.3729 25.2901C29.389 25.3279 29.4064 25.3657 29.4258 25.4019C29.4452 25.4381 29.4662 25.4736 29.4889 25.5081C29.5119 25.5426 29.5369 25.5761 29.5632 25.6073C29.5892 25.6392 29.6171 25.6705 29.6464 25.7C29.675 25.7293 29.7062 25.7572 29.7381 25.7832C29.7703 25.8092 29.8038 25.8338 29.8383 25.8565C29.8719 25.8792 29.908 25.9009 29.9442 25.9203C29.9807 25.9397 30.0181 25.9574 30.0563 25.9725C30.0941 25.9886 30.1329 26.0028 30.1723 26.0146C30.2121 26.0265 30.2522 26.0366 30.2916 26.0449C30.3321 26.0534 30.3735 26.0593 30.4146 26.0633C30.456 26.0675 30.4981 26.0692 30.5385 26.0692C30.5796 26.0692 30.6217 26.0675 30.6628 26.0633C30.7042 26.0593 30.7446 26.0534 30.7857 26.0449C30.8255 26.0366 30.8656 26.0265 30.9053 26.0146C30.9448 26.0028 30.9836 25.9886 31.0214 25.9725C31.0592 25.9574 31.097 25.9397 31.1331 25.9203C31.1696 25.9009 31.2055 25.8792 31.2393 25.8565C31.2738 25.8338 31.3074 25.8092 31.3396 25.7832C31.3715 25.7572 31.4027 25.7293 31.4313 25.7C31.4605 25.6705 31.4885 25.6392 31.5144 25.6073C31.5407 25.5761 31.5651 25.5426 31.5884 25.5081C31.6104 25.4736 31.6325 25.4381 31.6515 25.4019C31.6709 25.3657 31.6887 25.3279 31.7038 25.2901C31.7199 25.2523 31.734 25.2126 31.7459 25.1741C31.7577 25.1343 31.7676 25.0939 31.7761 25.0538C31.7847 25.0134 31.7906 24.9719 31.7945 24.9315C31.7988 24.8904 31.8004 24.8483 31.8004 24.8073C31.8004 24.7658 31.7988 24.7247 31.7945 24.6833C31.7906 24.6422 31.7847 24.6008 31.7761 24.5604C31.7676 24.5203 31.7577 24.4805 31.7459 24.4411C31.734 24.4016 31.7199 24.3628 31.7038 24.325C31.6887 24.2872 31.6709 24.2491 31.6515 24.2129C31.6325 24.1768 31.6104 24.1406 31.5884 24.1071C31.5651 24.0726 31.5407 24.0387 31.5144 24.0068C31.4885 23.975 31.4605 23.9437 31.4313 23.9151C31.4027 23.8855 31.3715 23.8579 31.3396 23.832C31.3074 23.8057 31.2738 23.7804 31.2393 23.7577C31.2058 23.735 31.1696 23.714 31.1331 23.6946C31.097 23.6752 31.0592 23.6577 31.0214 23.6416C30.9836 23.6265 30.9448 23.6121 30.9053 23.6006C30.8656 23.5887 30.8255 23.5779 30.7857 23.57C30.7446 23.5618 30.7042 23.5558 30.6628 23.5516C30.5806 23.5434 30.4971 23.5434 30.4146 23.5516C30.3735 23.5558 30.3324 23.5618 30.2916 23.57C30.2522 23.5779 30.2121 23.5887 30.1723 23.6006C30.1329 23.6121 30.0941 23.6265 30.0563 23.6416C30.0181 23.6577 29.9807 23.6752 29.9442 23.6946C29.908 23.714 29.8719 23.735 29.8383 23.7577C29.8038 23.7804 29.77 23.8057 29.7381 23.832C29.7062 23.8579 29.675 23.8855 29.6464 23.9151C29.6168 23.9437 29.5892 23.975 29.5632 24.0068C29.5369 24.0387 29.5119 24.0726 29.4889 24.1071C29.4662 24.1406 29.4452 24.1768 29.4258 24.2129C29.4067 24.2491 29.389 24.2872 29.3729 24.325C29.3578 24.3628 29.3433 24.4016 29.3318 24.4411C29.319 24.4805 29.3091 24.5203 29.3016 24.5604C29.293 24.6008 29.2871 24.6422 29.2828 24.6833C29.2785 24.7247 29.2762 24.7658 29.2762 24.8073C29.2762 24.8483 29.2785 24.8904 29.2828 24.9315C29.2871 24.9723 29.293 25.0134 29.3016 25.0538Z" fill="#00AEFF"/>
<path d="M33.281 35.9562C32.8027 35.4493 32.0039 35.4256 31.4967 35.9039L26.1762 40.9204C25.9132 41.1689 25.7623 41.5193 25.7623 41.8812C25.7627 42.2431 25.9139 42.5932 26.1772 42.8414L31.4967 47.8572C31.7406 48.087 32.0516 48.201 32.3622 48.201C32.6978 48.201 33.0325 48.0679 33.281 47.8046C33.7592 47.2977 33.7356 46.4986 33.2284 46.0204L28.8378 41.8806L33.2284 37.7408C33.7359 37.2625 33.7592 36.4634 33.281 35.9562Z" fill="#00AEFF"/>
<path d="M41.2554 35.6692C40.6183 35.3855 39.8725 35.6719 39.5888 36.3089L35.0838 46.4254C34.8001 47.0624 35.0864 47.8083 35.7235 48.0919C35.8901 48.1662 36.0647 48.2014 36.2362 48.2014C36.7195 48.2014 37.1806 47.9223 37.39 47.4523L41.895 37.3358C42.1787 36.6988 41.8921 35.9529 41.2554 35.6692Z" fill="#00AEFF"/>
<path d="M45.588 35.9039C45.0808 35.4256 44.282 35.4493 43.8038 35.9562C43.3255 36.4634 43.3492 37.2625 43.8564 37.7404L48.247 41.8806L43.8564 46.0204C43.3492 46.4986 43.3255 47.2974 43.8038 47.8046C44.0523 48.0679 44.3869 48.201 44.7225 48.201C45.0328 48.201 45.3441 48.087 45.588 47.8572L50.9076 42.8414C51.1709 42.5932 51.3221 42.2431 51.3224 41.8812C51.3224 41.519 51.1715 41.1689 50.9076 40.9197L45.588 35.9039Z" fill="#00AEFF"/>
</g>
<defs>
<clipPath id="clip0">
<rect width="43.085" height="43.085" fill="white" transform="translate(17 17)"/>
</clipPath>
</defs>
</svg>
