<svg width="45" height="84" viewBox="0 0 60 84" fill="none" xmlns="http://www.w3.org/2000/svg">
<mask id="mask0" mask-type="alpha" maskUnits="userSpaceOnUse" x="0" y="15" width="61" height="69">
<path d="M0 16.3716C0 16.1663 0.166377 16 0.371613 16H59.6284C59.8336 16 60 16.1663 60 16.3716V83.6284C60 83.8336 59.8336 84 59.6284 84H0.371611C0.166375 84 0 83.8336 0 83.6284V16.3716Z" fill="white"/>
</mask>
<g mask="url(#mask0)">
<rect y="16" width="60" height="76" fill="white"/>
<path d="M60 84H52V76H60V84Z" fill="#C13765"/>
<path opacity="0.5" d="M52 84H45V76H52V84Z" fill="#F499BA"/>
<path d="M45 84H37V76H45V84Z" fill="#C13765"/>
<path opacity="0.5" d="M37 84H30V76H37V84Z" fill="#F499BA"/>
<path d="M30 84H22V76H30V84Z" fill="#C13765"/>
<path opacity="0.5" d="M22 84H15V76H22V84Z" fill="#F499BA"/>
<path d="M15 84H7V76H15V84Z" fill="#C13765"/>
<path opacity="0.5" d="M7 84H-2.1855e-07V76H7V84Z" fill="#F499BA"/>
<path opacity="0.5" d="M7 76H15V69H7V76Z" fill="#F499BA"/>
<path opacity="0.5" d="M22 76H30V69H22V76Z" fill="#F499BA"/>
<path opacity="0.5" d="M37 76H45V69H37V76Z" fill="#F499BA"/>
<path opacity="0.5" d="M52 76H60V69H52V76Z" fill="#F499BA"/>
<path d="M60 69H52V61H60V69Z" fill="#C13765"/>
<path opacity="0.5" d="M52 69H45V61H52V69Z" fill="#F499BA"/>
<path d="M45 69H37V61H45V69Z" fill="#C13765"/>
<path opacity="0.5" d="M37 69H30V61H37V69Z" fill="#F499BA"/>
<path d="M30 69H22V61H30V69Z" fill="#C13765"/>
<path opacity="0.5" d="M22 69H15V61H22V69Z" fill="#F499BA"/>
<path d="M15 69H7V61H15V69Z" fill="#C13765"/>
<path opacity="0.5" d="M7 69H-2.1855e-07V61H7V69Z" fill="#F499BA"/>
<path opacity="0.5" d="M7 61H15V54H7V61Z" fill="#F499BA"/>
<path opacity="0.5" d="M22 61H30V54H22V61Z" fill="#F499BA"/>
<path opacity="0.5" d="M37 61H45V54H37V61Z" fill="#F499BA"/>
<path opacity="0.5" d="M52 61H60V54H52V61Z" fill="#F499BA"/>
<path d="M60 54H52V46H60V54Z" fill="#C13765"/>
<path opacity="0.5" d="M52 54H45V46H52V54Z" fill="#F499BA"/>
<path d="M45 54H37V46H45V54Z" fill="#C13765"/>
<path opacity="0.5" d="M37 54H30V46H37V54Z" fill="#F499BA"/>
<path d="M30 54H22V46H30V54Z" fill="#C13765"/>
<path opacity="0.5" d="M22 54H15V46H22V54Z" fill="#F499BA"/>
<path d="M15 54H7V46H15V54Z" fill="#C13765"/>
<path opacity="0.5" d="M7 54H-2.1855e-07V46H7V54Z" fill="#F499BA"/>
<path opacity="0.5" d="M7 46H15V39H7V46Z" fill="#F499BA"/>
<path opacity="0.5" d="M22 46H30V39H22V46Z" fill="#F499BA"/>
<path opacity="0.5" d="M37 46H45V39H37V46Z" fill="#F499BA"/>
<path opacity="0.5" d="M52 46H60V39H52V46Z" fill="#F499BA"/>
<path d="M60 39H52V31H60V39Z" fill="#C13765"/>
<path opacity="0.5" d="M52 39H45V31H52V39Z" fill="#F499BA"/>
<path d="M45 39H37V31H45V39Z" fill="#C13765"/>
<path opacity="0.5" d="M37 39H30V31H37V39Z" fill="#F499BA"/>
<path d="M30 39H22V31H30V39Z" fill="#C13765"/>
<path opacity="0.5" d="M22 39H15V31H22V39Z" fill="#F499BA"/>
<path d="M15 39H7V31H15V39Z" fill="#C13765"/>
<path opacity="0.5" d="M7 39H-2.1855e-07V31H7V39Z" fill="#F499BA"/>
<path opacity="0.5" d="M7 31H15V24H7V31Z" fill="#F499BA"/>
<path opacity="0.5" d="M22 31H30V24H22V31Z" fill="#F499BA"/>
<path opacity="0.5" d="M37 31H45V24H37V31Z" fill="#F499BA"/>
<path opacity="0.5" d="M52 31H60V24H52V31Z" fill="#F499BA"/>
<path d="M60 24H52V16H60V24Z" fill="#C13765"/>
<path opacity="0.5" d="M52 24H45V16H52V24Z" fill="#F499BA"/>
<path d="M45 24H37V16H45V24Z" fill="#C13765"/>
<path opacity="0.5" d="M37 24H30V16H37V24Z" fill="#F499BA"/>
<path d="M30 24H22V16H30V24Z" fill="#C13765"/>
<path opacity="0.5" d="M22 24H15V16H22V24Z" fill="#F499BA"/>
<path d="M15 24H7V16H15V24Z" fill="#C13765"/>
<path opacity="0.5" d="M7 24H-2.1855e-07V16H7V24Z" fill="#F499BA"/>
<path d="M0.232258 16.3716C0.232258 16.2946 0.29465 16.2322 0.371613 16.2322H59.6284C59.7054 16.2322 59.7677 16.2946 59.7677 16.3716V83.6284C59.7677 83.7053 59.7054 83.7677 59.6284 83.7677H0.371611C0.294648 83.7677 0.232258 83.7053 0.232258 83.6284V16.3716Z" stroke="#7C032B" stroke-width="0.464516"/>
</g>
<path d="M20.7819 10.6756C20.7819 5.73469 24.909 1.72956 29.9999 1.72956C35.0908 1.72956 39.218 5.73469 39.218 10.6756V19.1352C39.218 19.6128 39.6168 20 40.1089 20C40.6011 20 41 19.6128 41 19.1352V10.6756C41 4.77955 36.0751 0 29.9999 0C23.9247 0 19 4.77955 19 10.6756V19.1352C19 19.6128 19.3989 20 19.8908 20C20.383 20 20.7819 19.6128 20.7819 19.1352V10.6756Z" fill="#C13765"/>
<path d="M36.8879 3.4783C36.8878 3.50946 36.8764 3.53816 36.8575 3.56046C36.8388 3.58312 36.8124 3.59913 36.7817 3.60467L36.276 3.69607L36.0158 4.00534C35.9504 3.94918 35.8843 3.89388 35.8173 3.83968L36.108 3.49431C36.1273 3.47116 36.1543 3.45564 36.184 3.45022L36.6294 3.36979L36.6318 2.91801C36.6318 2.88783 36.6425 2.85876 36.6619 2.83573L36.9631 2.4778C37.0297 2.53236 37.0961 2.58767 37.1614 2.64383L36.8905 2.96604L36.8879 3.4783ZM37.516 4.10597C37.5131 4.13689 37.4992 4.1646 37.4785 4.18517C37.4578 4.20599 37.43 4.21991 37.399 4.22262L36.8873 4.26979L36.6014 4.5548C36.5411 4.49322 36.48 4.4325 36.4182 4.37251L36.7374 4.05412C36.7589 4.03281 36.7869 4.01963 36.817 4.01692L37.2679 3.97529L37.3096 3.5256C37.3124 3.49555 37.3255 3.46734 37.3469 3.44616L37.6786 3.11557C37.7402 3.17555 37.8012 3.2364 37.8617 3.29798L37.5631 3.59568L37.516 4.10597ZM31.3217 1.05359L30.9603 1.4178L30.9246 1.82315C30.839 1.81465 30.7528 1.80751 30.6665 1.80135L30.706 1.3487C30.7088 1.31865 30.722 1.29045 30.7432 1.26901L31.0619 0.948281L30.804 0.576925C30.7867 0.552168 30.7788 0.522115 30.7814 0.492185L30.8219 0.0302997C30.9082 0.0367045 30.994 0.0440947 31.0798 0.0524702L31.0433 0.46829L31.3359 0.88916C31.354 0.914779 31.3611 0.944955 31.3585 0.974023C31.3558 1.00321 31.3435 1.03167 31.3217 1.05359ZM39.4146 7.08507C39.4013 7.11315 39.3786 7.13459 39.3521 7.14678C39.3256 7.15922 39.2947 7.16279 39.2646 7.15491L38.7677 7.02447L38.4058 7.19272C38.3704 7.11439 38.3336 7.03642 38.2959 6.95907L38.7007 6.77074C38.728 6.75793 38.759 6.7551 38.7882 6.76298L39.2262 6.87778L39.4197 6.46935C39.4325 6.442 39.4544 6.4202 39.482 6.40739L39.9115 6.20761C39.9491 6.28509 39.9856 6.36305 40.0214 6.44151L39.6339 6.62171L39.4146 7.08507ZM39.0398 6.28115C39.0288 6.31009 39.0082 6.33349 38.9831 6.34803C38.9575 6.36268 38.9272 6.36884 38.8963 6.36355L38.39 6.27696L38.043 6.47674C38.0008 6.4016 37.9573 6.32721 37.9131 6.25343L38.3011 6.03C38.3271 6.01485 38.3579 6.00943 38.3878 6.01461L38.834 6.09097L38.9908 5.66715C39.0012 5.63882 39.0215 5.61517 39.0476 5.60027L39.4568 5.36452C39.5008 5.43842 39.5442 5.51294 39.5866 5.58795L39.2177 5.80042L39.0398 6.28115ZM38.5961 5.51269C38.5877 5.54262 38.5692 5.5675 38.5451 5.58438C38.5211 5.60113 38.4912 5.61 38.4603 5.60741L37.9484 5.56504L37.6189 5.79524C37.5703 5.72393 37.5205 5.6536 37.4699 5.58388L37.838 5.32683C37.8629 5.30946 37.8931 5.30146 37.9232 5.3038L38.3743 5.34112L38.4937 4.90534C38.5016 4.87628 38.5196 4.8509 38.5442 4.83366L38.93 4.56429C38.9804 4.63412 39.0301 4.70445 39.0788 4.7754L38.7313 5.01829L38.5961 5.51269ZM34.7102 1.95421C34.7181 1.98414 34.7149 2.01493 34.7026 2.04153C34.69 2.06801 34.6686 2.09043 34.6406 2.10373L34.1758 2.32248L34.0047 2.68829C33.9271 2.65085 33.849 2.61464 33.77 2.57929L33.961 2.17111C33.9736 2.14364 33.9957 2.12172 34.0231 2.10891L34.4324 1.91602L34.3176 1.47914C34.3097 1.44995 34.3127 1.41903 34.3253 1.39181L34.5236 0.967742C34.6023 1.00321 34.6805 1.03955 34.758 1.07687L34.5798 1.45869L34.7102 1.95421ZM36.2075 2.90766C36.2101 2.93857 36.2013 2.96826 36.1846 2.99228C36.1675 3.01629 36.1427 3.03465 36.1125 3.0429L35.6171 3.17789L35.3846 3.50873C35.3147 3.45835 35.2439 3.40896 35.1724 3.36055L35.4319 2.99141C35.4493 2.96678 35.4747 2.9488 35.5039 2.94104L35.9406 2.82206L35.9032 2.37187C35.9007 2.3417 35.9089 2.31177 35.9262 2.28713L36.195 1.90444C36.2663 1.95297 36.3368 2.00236 36.4068 2.05249L36.1651 2.397L36.2075 2.90766ZM33.027 1.43394L32.6076 1.72979L32.5025 2.12061C32.4198 2.0972 32.3363 2.07503 32.2526 2.0541L32.3698 1.61795C32.3775 1.58864 32.3952 1.56327 32.42 1.5459L32.7896 1.28515L32.6003 0.874749C32.5877 0.847405 32.585 0.81649 32.5929 0.787299L32.7138 0.336622C32.7978 0.35793 32.8811 0.380224 32.964 0.403257L32.8551 0.8091L33.0698 1.27443C33.0829 1.30276 33.0849 1.33355 33.0775 1.36176C33.0696 1.39021 33.0524 1.41595 33.027 1.43394ZM32.1827 1.20669L31.791 1.53789L31.72 1.93733C31.6355 1.92144 31.5503 1.90678 31.465 1.89324L31.5438 1.44712C31.549 1.41743 31.5646 1.39046 31.5877 1.371L31.9332 1.07909L31.7087 0.686669C31.6937 0.660557 31.6885 0.630011 31.6937 0.600328L31.7747 0.142261C31.8599 0.155932 31.9449 0.170836 32.0297 0.186478L31.9567 0.599219L32.2115 1.04411C32.2268 1.07108 32.2313 1.10163 32.2265 1.13045C32.2212 1.15939 32.2065 1.18661 32.1827 1.20669ZM33.8484 1.73373L33.4047 1.99202L33.2664 2.3715C33.1856 2.34108 33.1045 2.31164 33.0226 2.28344L33.1775 1.85973C33.1876 1.83153 33.2076 1.80776 33.2339 1.79248L33.6249 1.56487L33.4721 1.13969C33.4618 1.11123 33.462 1.0802 33.4723 1.05187L33.6325 0.612521C33.7142 0.640973 33.7952 0.670411 33.8758 0.70071L33.7315 1.09621L33.9052 1.57854C33.9156 1.60785 33.9147 1.63877 33.9048 1.66624C33.8947 1.69383 33.8753 1.71797 33.8484 1.73373ZM35.4799 2.39823C35.4851 2.42878 35.479 2.45932 35.4642 2.4847C35.4495 2.51007 35.4263 2.53051 35.3972 2.54135L34.9152 2.71884L34.7127 3.06852C34.6385 3.02442 34.5639 2.98131 34.4886 2.93931L34.7143 2.54924C34.7295 2.523 34.7532 2.50305 34.7815 2.4927L35.2064 2.33628L35.1299 1.8909C35.1248 1.86121 35.1303 1.83079 35.1454 1.80455L35.3798 1.3997C35.455 1.44182 35.5298 1.48481 35.6041 1.52878L35.3931 1.89324L35.4799 2.39823ZM39.7178 7.91868C39.7019 7.94541 39.6777 7.96475 39.6502 7.97472C39.6226 7.98482 39.5918 7.98556 39.5621 7.97509L39.0787 7.80204L38.7043 7.93802C38.6757 7.8566 38.6461 7.7758 38.6155 7.69537L39.034 7.54338C39.0626 7.53316 39.0935 7.53304 39.122 7.54326L39.5483 7.69575L39.7766 7.30567C39.7921 7.27956 39.8156 7.25973 39.844 7.24938L40.2907 7.08741C40.3211 7.16772 40.3508 7.24852 40.3795 7.32993L39.9767 7.47601L39.7178 7.91868ZM38.0867 4.78575C38.0812 4.81629 38.065 4.84277 38.0425 4.8615C38.0201 4.88046 37.9913 4.89179 37.96 4.89192L37.4462 4.89438L37.1371 5.15291C37.0824 5.0864 37.0271 5.02038 36.9704 4.95523L37.3157 4.66639C37.3387 4.64706 37.3681 4.63634 37.3981 4.63622L37.8511 4.63425L37.9319 4.18961C37.9373 4.15992 37.953 4.13319 37.9761 4.11386L38.3359 3.81283C38.3921 3.87786 38.4477 3.94376 38.5022 4.01027L38.1785 4.28161L38.0867 4.78575ZM40.1763 17.12C40.1524 17.1396 40.1228 17.1496 40.0935 17.1496C40.0641 17.1496 40.0346 17.1398 40.0108 17.1199L39.6156 16.7924H39.218V16.5341H39.6623C39.6926 16.5341 39.7219 16.5447 39.7451 16.5639L40.0932 16.8526L40.4417 16.5639C40.4649 16.5447 40.4941 16.5341 40.5245 16.5341H41V16.7924H40.5714L40.1763 17.12ZM40.1763 16.1698C40.1524 16.1894 40.1228 16.1994 40.0935 16.1994C40.0641 16.1994 40.0346 16.1896 40.0108 16.1697L39.6156 15.8422H39.218V15.5839H39.6623C39.6926 15.5839 39.7219 15.5945 39.7451 15.6138L40.0932 15.9025L40.4417 15.6138C40.4649 15.5945 40.4941 15.5839 40.5245 15.5839L41 15.584V15.8422H40.5714L40.1763 16.1698ZM40.1763 19.0203C40.1524 19.04 40.1228 19.0499 40.0935 19.0499C40.0641 19.05 40.0346 19.0401 40.0108 19.0203L39.6156 18.6927L39.218 18.6926V18.4345H39.6623C39.6926 18.4345 39.7219 18.445 39.7451 18.4642L40.0932 18.753L40.4417 18.4642C40.4649 18.445 40.4941 18.4345 40.5245 18.4345H41V18.6927H40.5714L40.1763 19.0203ZM40.1763 18.0702C40.1524 18.0899 40.1228 18.0997 40.0935 18.0997C40.0641 18.0997 40.0346 18.09 40.0108 18.0701L39.6156 17.7425H39.218V17.4844H39.6623C39.6926 17.4843 39.7219 17.4949 39.7451 17.5141L40.0932 17.8029L40.4417 17.5141C40.4649 17.4949 40.4941 17.4844 40.5245 17.4844H41V17.7425H40.5714L40.1763 18.0702ZM40.5714 19.6428L40.1763 19.9703C40.1524 19.9903 40.1228 20.0001 40.0935 20C40.0641 20.0002 40.0346 19.9903 40.0108 19.9703L39.6156 19.6428L39.218 19.6427V19.3846H39.6623C39.6926 19.3846 39.7219 19.3951 39.7451 19.4144L40.0932 19.7032L40.4417 19.4144C40.4649 19.3951 40.4941 19.3846 40.5245 19.3846L41 19.3848V19.6427L40.5714 19.6428ZM40.1763 15.2197C40.1524 15.2393 40.1228 15.2492 40.0935 15.2492C40.0641 15.2494 40.0346 15.2394 40.0108 15.2195L39.6156 14.892H39.218V14.6338H39.6623C39.6926 14.6338 39.7219 14.6442 39.7451 14.6637L40.0932 14.9523L40.4417 14.6637C40.4649 14.6442 40.4941 14.6338 40.5245 14.6338L41 14.6339V14.892H40.5714L40.1763 15.2197ZM40.1763 11.419C40.1524 11.4387 40.1228 11.4486 40.0935 11.4486C40.0641 11.4486 40.0346 11.4389 40.0108 11.4189L39.6156 11.0914H39.218V10.9719C39.218 10.9256 39.2175 10.8794 39.2169 10.8332H39.6623C39.6926 10.8332 39.7219 10.8437 39.7451 10.863L40.0932 11.1518L40.4417 10.863C40.4649 10.8437 40.4941 10.8332 40.5245 10.8332H40.9991C40.9998 10.8794 41 10.9256 41 10.9719V11.0914H40.5714L40.1763 11.419ZM40.1772 10.5323C40.1549 10.554 40.1266 10.5665 40.0973 10.5689C40.068 10.5716 40.038 10.5642 40.0122 10.5466L39.5899 10.2547L39.1929 10.2893C39.1865 10.2032 39.1792 10.1174 39.1702 10.0321L39.614 9.99335C39.6444 9.99064 39.6741 9.99864 39.6991 10.0159L40.0713 10.2732L40.3931 9.95529C40.4146 9.9341 40.4427 9.92105 40.4726 9.91846L40.9458 9.8772C40.9543 9.96268 40.9617 10.0484 40.9685 10.1344L40.5421 10.1716L40.1772 10.5323ZM40.1005 9.64896C40.0803 9.67237 40.053 9.68727 40.024 9.69232C39.9954 9.69749 39.9644 9.69294 39.9375 9.67742L39.4912 9.42332L39.099 9.49229C39.0852 9.40718 39.0704 9.32232 39.0542 9.23795L39.4925 9.16084C39.5222 9.15567 39.5529 9.16097 39.5793 9.17599L39.9725 9.39992L40.2653 9.05529C40.2848 9.03226 40.3118 9.01686 40.3413 9.01169L40.8096 8.92941C40.8255 9.01378 40.8406 9.09852 40.8544 9.18351L40.4325 9.2579L40.1005 9.64896ZM40.1763 12.3693C40.1524 12.3889 40.1228 12.3988 40.0935 12.3987C40.0641 12.3988 40.0346 12.389 40.0108 12.3692L39.6156 12.0415L39.218 12.0414V11.7834H39.6623C39.6926 11.7834 39.7219 11.7938 39.7451 11.8132L40.0932 12.102L40.4417 11.8132C40.4649 11.7938 40.4941 11.7834 40.5245 11.7834H41V12.0415H40.5714L40.1763 12.3693ZM40.1763 13.3192C40.1524 13.3391 40.1228 13.349 40.0935 13.3488C40.0641 13.3491 40.0346 13.3391 40.0108 13.3192L39.6156 12.9918L39.218 12.9917V12.7335H39.6623C39.6926 12.7335 39.7219 12.744 39.7451 12.7634L40.0932 13.0521L40.4417 12.7634C40.4649 12.744 40.4941 12.7336 40.5245 12.7336H41V12.9918H40.5714L40.1763 13.3192ZM40.1763 14.2694C40.1524 14.2891 40.1228 14.2992 40.0935 14.2991C40.0641 14.2992 40.0346 14.2892 40.0108 14.2694L39.6156 13.9419L39.218 13.9418V13.6836L39.6623 13.6835C39.6926 13.6835 39.7219 13.6941 39.7451 13.7136L40.0932 14.0021L40.4417 13.7136C40.4649 13.6941 40.4941 13.6836 40.5245 13.6836H41V13.9419H40.5714L40.1763 14.2694ZM39.947 8.77545C39.9289 8.8007 39.9031 8.81794 39.8748 8.82545C39.8464 8.83309 39.8154 8.831 39.7871 8.81806L39.3205 8.60363L38.9358 8.70647C38.9147 8.62296 38.8923 8.5397 38.869 8.45706L39.2987 8.34214C39.328 8.33438 39.359 8.33697 39.3864 8.34965L39.7977 8.53859L40.0592 8.16982C40.0767 8.14519 40.1021 8.12758 40.1315 8.11982L40.5908 7.99702C40.614 8.07966 40.6365 8.16268 40.6578 8.24631L40.2438 8.35704L39.947 8.77545ZM19.8155 17.1629C19.8392 17.143 19.8687 17.133 19.8981 17.133C19.9275 17.133 19.9569 17.143 19.9807 17.1629L20.3758 17.4904H20.7818V17.7486H20.3292C20.2988 17.7486 20.2696 17.738 20.2463 17.7187L19.8981 17.4299L19.5499 17.7187C19.5267 17.738 19.4974 17.7486 19.467 17.7486H19V17.4904H19.4205L19.8155 17.1629ZM19.8155 11.4619C19.8392 11.4419 19.8687 11.4321 19.8981 11.4321C19.9275 11.4321 19.9569 11.4419 19.9807 11.4619L20.3758 11.7895H20.7818V12.0476H20.3292C20.2988 12.0476 20.2696 12.0371 20.2463 12.0178L19.8981 11.729L19.5499 12.0178C19.5267 12.0371 19.4974 12.0476 19.467 12.0476H19V11.7895H19.4205L19.8155 11.4619ZM19.8155 12.412C19.8392 12.3922 19.8687 12.3822 19.8981 12.3822C19.9275 12.3822 19.9569 12.3922 19.9807 12.412L20.3758 12.7395H20.7818V12.9978H20.3292C20.2988 12.9978 20.2696 12.9872 20.2463 12.968L19.8981 12.6793L19.5499 12.968C19.5267 12.9872 19.4974 12.9978 19.467 12.9978H19V12.7395H19.4205L19.8155 12.412ZM19.8155 10.5118C19.8392 10.4918 19.8687 10.482 19.8981 10.482C19.9275 10.482 19.9569 10.4918 19.9807 10.5118L20.3758 10.8393H20.7828C20.7822 10.8834 20.7818 10.9275 20.7818 10.9719V11.0974H20.3292C20.2988 11.0974 20.2696 11.0868 20.2463 11.0676L19.8981 10.7789L19.5499 11.0676C19.5267 11.0868 19.4974 11.0974 19.467 11.0974H19V10.9719C19 10.9275 19.0002 10.8834 19.0006 10.8393H19.4205L19.8155 10.5118ZM20.2801 7.89922C20.3083 7.88604 20.3392 7.88407 20.3677 7.89171C20.396 7.89922 20.4218 7.91646 20.4399 7.94184L20.7365 8.36012L21.1287 8.46494C21.1051 8.54758 21.0832 8.63085 21.0617 8.71448L20.6241 8.59759C20.5951 8.58971 20.5695 8.57185 20.5521 8.54734L20.2904 8.17857L19.8792 8.36751C19.8517 8.3802 19.8207 8.38266 19.7915 8.3749L19.34 8.2542C19.3613 8.17069 19.3837 8.08755 19.4068 8.00478L19.8134 8.11341L20.2801 7.89922ZM20.5848 7.06623C20.6143 7.05563 20.6453 7.05637 20.6727 7.06635C20.7005 7.07645 20.7245 7.09579 20.7404 7.12264L20.9992 7.56506L21.3813 7.70375C21.3506 7.78406 21.3211 7.86498 21.2927 7.94639L20.8667 7.79182C20.8382 7.78159 20.8146 7.76164 20.7992 7.73553L20.5709 7.34545L20.1447 7.49794C20.1162 7.50816 20.0853 7.50804 20.0568 7.49769L19.6176 7.33831C19.6462 7.25689 19.6757 7.17597 19.7061 7.09566L20.1014 7.23916L20.5848 7.06623ZM19.8937 9.62852C19.9194 9.61078 19.9495 9.60339 19.9786 9.60598C20.008 9.60857 20.0364 9.62101 20.0587 9.64293L20.4236 10.0034L20.8287 10.0388C20.8201 10.1242 20.8128 10.21 20.8064 10.2961L20.3544 10.2566C20.3243 10.254 20.296 10.2409 20.2745 10.2197L19.9528 9.90183L19.5806 10.1591C19.5559 10.1764 19.5257 10.1843 19.4957 10.1817L19.0309 10.1411C19.0375 10.0551 19.0451 9.96933 19.0535 9.88385L19.4717 9.92043L19.8937 9.62852ZM20.0491 8.75549C20.0761 8.73998 20.1066 8.73529 20.1356 8.74047C20.1645 8.74552 20.1918 8.7603 20.212 8.78395L20.544 9.17489L20.9443 9.24522C20.928 9.32971 20.9133 9.41445 20.8995 9.49968L20.4531 9.42122C20.4233 9.41593 20.3964 9.40041 20.3766 9.37762L20.0841 9.03287L19.6907 9.25679C19.6644 9.27182 19.6337 9.27699 19.6041 9.27182L19.1441 9.19102C19.1579 9.10579 19.173 9.02105 19.1889 8.93655L19.6029 9.00947L20.0491 8.75549ZM19.8155 19.0632C19.8392 19.0433 19.8687 19.0334 19.8981 19.0334C19.9275 19.0334 19.9569 19.0433 19.9807 19.0632L20.3758 19.3906H20.7818V19.6488H20.3292C20.2988 19.6488 20.2696 19.6384 20.2463 19.6192L19.8981 19.3304L19.5499 19.6192C19.5267 19.6384 19.4974 19.6488 19.467 19.6488H19V19.3906H19.4205L19.8155 19.0632ZM19.8155 13.3623C19.8392 13.3423 19.8687 13.3325 19.8981 13.3325C19.9275 13.3325 19.9569 13.3423 19.9807 13.3623L20.3758 13.6897H20.7818V13.9479H20.3292C20.2988 13.9479 20.2696 13.9374 20.2463 13.9181L19.8981 13.6294L19.5499 13.9181C19.5267 13.9374 19.4974 13.9479 19.467 13.9479H19V13.6897H19.4205L19.8155 13.3623ZM19.8155 18.113C19.8392 18.0931 19.8687 18.0831 19.8981 18.0831C19.9275 18.0831 19.9569 18.0931 19.9807 18.113L20.3758 18.4405H20.7818V18.6987H20.3292C20.2988 18.6987 20.2696 18.6881 20.2463 18.6689L19.8981 18.3802L19.5499 18.6689C19.5267 18.6881 19.4974 18.6987 19.467 18.6987H19V18.4405H19.4205L19.8155 18.113ZM19.8155 14.3124C19.8392 14.2926 19.8687 14.2826 19.8981 14.2826C19.9275 14.2826 19.9569 14.2926 19.9807 14.3124L20.3758 14.6398H20.7818V14.8981H20.3292C20.2988 14.8981 20.2696 14.8875 20.2463 14.8684L19.8981 14.5797L19.5499 14.8684C19.5267 14.8875 19.4974 14.8981 19.467 14.8981H19V14.6398H19.4205L19.8155 14.3124ZM19.8155 15.2625C19.8392 15.2427 19.8687 15.2328 19.8981 15.2328C19.9275 15.2328 19.9569 15.2427 19.9807 15.2625L20.3758 15.59H20.7818V15.8483H20.3292C20.2988 15.8483 20.2696 15.8377 20.2463 15.8184L19.8981 15.5298L19.5499 15.8184C19.5267 15.8377 19.4974 15.8483 19.467 15.8483H19V15.59H19.4205L19.8155 15.2625ZM19.8155 16.2128C19.8392 16.1928 19.8687 16.1829 19.8981 16.1829C19.9275 16.1829 19.9569 16.1928 19.9807 16.2128L20.3758 16.5402H20.7818V16.7985H20.3292C20.2988 16.7985 20.2696 16.788 20.2463 16.7685L19.8981 16.4799L19.5499 16.7685C19.5267 16.788 19.4974 16.7985 19.467 16.7985H19V16.5402H19.4205L19.8155 16.2128ZM23.1983 3.5017C23.2192 3.5224 23.2329 3.55023 23.2356 3.58115L23.2829 4.09144L23.5731 4.38077C23.5111 4.44075 23.4501 4.50172 23.3898 4.56342L23.0668 4.24097C23.0454 4.21978 23.0321 4.19158 23.0294 4.16165L22.9879 3.71183L22.5369 3.6702C22.5068 3.66749 22.4785 3.65431 22.4574 3.633L22.1296 3.30636C22.1902 3.24477 22.251 3.18393 22.3129 3.1237L22.6072 3.41733L23.1186 3.46451C23.1496 3.46734 23.1774 3.48089 23.1983 3.5017ZM26.8245 1.90568L26.9639 2.28799C26.8824 2.3162 26.801 2.34576 26.7205 2.37643L26.565 1.95026C26.5547 1.92181 26.5547 1.89077 26.5648 1.86257L26.7178 1.43726L26.3267 1.20965C26.3007 1.19437 26.2806 1.1706 26.2703 1.14227L26.1111 0.705391C26.1915 0.675091 26.2725 0.645531 26.3541 0.617079L26.4975 1.00999L26.9411 1.26827C26.968 1.28404 26.9874 1.30818 26.9975 1.33565C27.0076 1.36324 27.0082 1.39415 26.9977 1.42335L26.8245 1.90568ZM26.1675 1.6331C26.1799 1.65946 26.1833 1.69025 26.1756 1.72043L26.0447 2.21594L26.2172 2.58471C26.1385 2.62018 26.0603 2.65676 25.9827 2.69433L25.7903 2.28282C25.7776 2.25535 25.7747 2.22444 25.7825 2.19537L25.8977 1.75861L25.4882 1.56573C25.4608 1.5528 25.439 1.53075 25.4262 1.50353L25.2294 1.08278C25.307 1.04534 25.3854 1.00888 25.4638 0.973407L25.641 1.35191L26.1055 1.57078C26.1336 1.58408 26.1549 1.6065 26.1675 1.6331ZM20.9612 6.26279C20.9915 6.25503 21.0225 6.25836 21.049 6.2708C21.0756 6.28312 21.0979 6.30455 21.1112 6.33275L21.3307 6.79612L21.6997 6.96757C21.662 7.04504 21.6254 7.12301 21.5903 7.20159L21.1789 7.01031C21.1514 6.9975 21.1295 6.97582 21.1164 6.94848L20.9232 6.53992L20.4852 6.65472C20.456 6.66248 20.425 6.65964 20.3975 6.64696L19.9743 6.45013C20.01 6.37167 20.0467 6.29359 20.0841 6.21624L20.4647 6.39311L20.9612 6.26279ZM27.6281 1.66439L27.7337 2.05754C27.6497 2.07873 27.5665 2.10078 27.4834 2.1243L27.366 1.68619C27.3581 1.65712 27.3608 1.62621 27.3734 1.59874L27.5627 1.18858L27.1931 0.927712C27.1683 0.910222 27.1505 0.884849 27.1428 0.855781L27.0222 0.406828C27.1052 0.383796 27.1885 0.361379 27.2721 0.340071L27.3807 0.74382L27.8 1.03955C27.8255 1.05766 27.8428 1.0834 27.8504 1.1116C27.8579 1.13993 27.8558 1.17097 27.8429 1.19905L27.6281 1.66439ZM29.2833 1.39576L29.3189 1.80234C29.2327 1.80862 29.1466 1.81601 29.0611 1.82463L29.0213 1.37174C29.0185 1.34168 29.0266 1.31163 29.0438 1.28687L29.3019 0.915764L28.9831 0.594785C28.9618 0.573353 28.9488 0.545271 28.9461 0.515218L28.9056 0.0537017C28.9913 0.0453262 29.0772 0.0376898 29.1634 0.031285L29.2 0.446119L29.5614 0.810085C29.5835 0.832378 29.5959 0.860584 29.5984 0.889775C29.601 0.918966 29.5937 0.949143 29.5759 0.974639L29.2833 1.39576ZM28.4498 1.49417L28.5207 1.89533C28.4354 1.90913 28.3502 1.92391 28.2658 1.94004L28.1867 1.49306C28.1815 1.46325 28.1867 1.43271 28.2017 1.40659L28.4265 1.0143L28.0808 0.722265C28.0576 0.702804 28.0423 0.67583 28.0371 0.64627L27.9564 0.189188C28.0408 0.173299 28.1259 0.158396 28.2111 0.144478L28.284 0.555371L28.6758 0.886573C28.6995 0.90665 28.7144 0.93387 28.7196 0.962692C28.7248 0.991637 28.7199 1.02218 28.7044 1.04916L28.4498 1.49417ZM25.3666 2.00126C25.3813 2.02663 25.3875 2.05705 25.3822 2.08772L25.2953 2.59272L25.4997 2.94584C25.4245 2.98797 25.3498 3.03107 25.2757 3.07529L25.0476 2.68127C25.0326 2.65529 25.0271 2.62462 25.0323 2.59506L25.1086 2.1498L24.6838 1.99325C24.6554 1.98278 24.6317 1.96283 24.6167 1.93659L24.3846 1.53568C24.4587 1.49158 24.5333 1.44847 24.6086 1.40622L24.8176 1.76711L25.2994 1.94472C25.3287 1.95544 25.3518 1.97588 25.3666 2.00126ZM22.0021 4.7924C22.0263 4.80939 22.0447 4.83427 22.0527 4.8642L22.1882 5.35848L22.5233 5.59263C22.4731 5.66234 22.4234 5.7328 22.3749 5.80411L22.0013 5.54336C21.9766 5.52599 21.9587 5.50062 21.9508 5.47155L21.8313 5.0359L21.3801 5.07298C21.3501 5.07556 21.3199 5.06731 21.2952 5.05007L20.9147 4.78439C20.9637 4.71332 21.0131 4.64287 21.0636 4.57303L21.4053 4.81173L21.9174 4.76949C21.9482 4.76702 21.9781 4.77565 22.0021 4.7924ZM24.6007 2.43789C24.6179 2.46179 24.6265 2.49147 24.6239 2.52251L24.5817 3.03317L24.8166 3.36782C24.7452 3.41635 24.6746 3.46574 24.6046 3.51624L24.3426 3.14304C24.3254 3.1184 24.3171 3.08835 24.3198 3.05842L24.3571 2.60823L23.9201 2.48925C23.8912 2.48125 23.8656 2.46339 23.8482 2.43875L23.5823 2.05988C23.6524 2.00975 23.723 1.96036 23.7942 1.91159L24.0334 2.2524L24.529 2.38739C24.5591 2.39552 24.5839 2.41375 24.6007 2.43789ZM21.4933 5.51084C21.5188 5.5255 21.5391 5.54878 21.55 5.57797L21.7279 6.05858L22.0817 6.26218C22.0374 6.33595 21.9941 6.41047 21.9517 6.48573L21.558 6.25885C21.5318 6.24382 21.5117 6.22018 21.5013 6.19172L21.3445 5.76814L20.898 5.84439C20.8681 5.84944 20.8377 5.84402 20.8114 5.82899L20.4082 5.59669C20.4505 5.52168 20.4937 5.44717 20.5379 5.37326L20.9002 5.58191L21.4068 5.49532C21.4374 5.49015 21.4678 5.49619 21.4933 5.51084ZM22.5718 4.12112C22.5946 4.13985 22.6107 4.16645 22.6163 4.19687L22.7077 4.70113L23.0218 4.96397C22.9655 5.02901 22.9101 5.09515 22.8553 5.16178L22.5057 4.86888C22.4824 4.84967 22.4668 4.8227 22.4615 4.79301L22.3807 4.34849L21.9277 4.3464C21.8975 4.34628 21.8683 4.33556 21.8453 4.31635L21.4901 4.01914C21.5448 3.95263 21.6004 3.88649 21.6568 3.82133L21.9757 4.08836L22.4894 4.09095C22.5207 4.09107 22.5495 4.10216 22.5718 4.12112ZM23.8764 2.93931C23.8951 2.96173 23.9065 2.99055 23.9067 3.02159L23.909 3.53398L24.1727 3.84744C24.1058 3.90176 24.0397 3.95719 23.9745 4.01347L23.6808 3.66429C23.6614 3.64113 23.6506 3.61206 23.6504 3.58189L23.6483 3.13023L23.2026 3.04967C23.173 3.04425 23.1462 3.02861 23.1267 3.00546L22.8289 2.65171C22.8944 2.59555 22.9603 2.54024 23.0273 2.48568L23.295 2.8037L23.8003 2.89522C23.8309 2.90076 23.8575 2.91665 23.8764 2.93931ZM30.1222 1.37014L30.1221 1.7782C30.0816 1.7777 30.0408 1.77746 29.9999 1.77746C29.9542 1.77746 29.9087 1.77783 29.8634 1.77857V1.32358C29.863 1.2934 29.8737 1.26421 29.8931 1.24093L30.1826 0.893717L29.8931 0.546256C29.8737 0.5231 29.8634 0.493909 29.8634 0.463609V0.000862182C29.9087 0.000369504 29.9542 0 29.9999 0C30.0408 0 30.0816 0.000369504 30.1221 0.000862182V0.417051L30.4505 0.811193C30.4704 0.834965 30.4803 0.864279 30.4803 0.893594C30.4803 0.922908 30.4705 0.952222 30.4505 0.976117L30.1222 1.37014Z" fill="#E7E8E9"/>
</svg>
