<svg width="88" height="244" viewBox="0 0 108 244" fill="none" xmlns="http://www.w3.org/2000/svg">
<path d="M56.0235 63.0617C55.9202 63.0615 55.8163 63.026 55.7317 62.954C55.5408 62.7921 55.5177 62.5063 55.6794 62.3155C57.093 60.65 55.9857 57.5032 54.8073 55.1568C53.752 53.0549 54.4763 50.7101 55.1771 48.4423C55.5597 47.2043 55.9552 45.924 56.067 44.6859C56.382 41.1985 54.2319 39.0015 52.5584 38.7564C50.805 38.4993 49.4949 40.0338 49.4818 40.0492C49.3207 40.2405 49.0354 40.265 48.8438 40.1038C48.6523 39.9425 48.6279 39.657 48.7893 39.4654C48.8558 39.3861 50.4468 37.5315 52.6898 37.8598C55.0269 38.2019 57.3042 41.0595 56.9692 44.7674C56.8487 46.1004 56.439 47.427 56.0425 48.7098C55.365 50.9027 54.7249 52.974 55.6165 54.7502C57.5089 58.5187 57.7622 61.2614 56.3697 62.9018C56.2802 63.0076 56.1523 63.062 56.0235 63.0617Z" fill="#212120"/>
<path d="M52.7461 66.7464C52.6044 66.7461 52.4658 66.6743 52.3849 66.5434C52.2591 66.3407 52.3193 66.0729 52.5191 65.9453C55.1494 64.2669 54.8104 59.6741 53.7301 56.9489C52.9691 55.0309 53.0521 54.0432 53.1778 52.5488C53.2632 51.5325 53.3695 50.2677 53.2651 48.2377C53.0268 43.5976 49.7885 43.0078 49.651 42.9849C49.4189 42.9466 49.2598 42.7246 49.2969 42.4886C49.3338 42.253 49.5492 42.0915 49.7836 42.1279C49.8239 42.1343 53.8433 42.8267 54.1189 48.1926C54.2262 50.2822 54.1171 51.5796 54.0295 52.6224C53.9061 54.09 53.8381 54.8985 54.5231 56.6249C55.9139 60.1327 55.8438 64.8487 52.9743 66.6797C52.9029 66.7252 52.8241 66.7466 52.7461 66.7464Z" fill="#212120"/>
<path d="M52.476 69.2075C52.3201 69.2072 52.1677 69.1336 52.0784 68.9995C51.9403 68.7915 52.0065 68.517 52.2262 68.3861C55.1192 66.6664 54.746 61.9589 53.5567 59.1656C52.7194 57.1993 52.8104 56.1872 52.9484 54.6552C53.0423 53.6135 53.159 52.3171 53.044 50.2367C52.7811 45.4799 49.2189 44.8753 49.0676 44.8518C48.8121 44.8123 48.6373 44.5849 48.678 44.3432C48.7184 44.1014 48.9546 43.9353 49.2133 43.9733C49.2577 43.9798 53.6791 44.69 53.9831 50.1906C54.1015 52.3322 53.9816 53.6623 53.8854 54.7308C53.7501 56.2352 53.6753 57.0641 54.4291 58.8338C55.9596 62.4292 55.8834 67.2629 52.727 69.1394C52.6487 69.1859 52.5618 69.2077 52.476 69.2075Z" fill="#212120"/>
<path d="M53.7052 68.5947C53.5607 68.5944 53.4188 68.5233 53.3338 68.3925C53.1999 68.1864 53.2576 67.9099 53.4631 67.7755C54.846 66.8702 54.512 65.049 54.1585 63.1207C53.8625 61.5066 53.5831 59.982 54.3812 58.9753C55.5496 57.5009 55.2832 56.9236 54.1618 54.4944C53.9866 54.1144 53.7931 53.6956 53.5854 53.2281C52.7758 51.4073 53.0524 49.8619 53.2962 48.4987C53.543 47.1205 53.7559 45.93 52.9148 44.5966C52.3749 43.7405 51.7433 43.2263 51.0378 43.0684C50.1258 42.8647 49.3657 43.3287 49.3582 43.3334C49.1511 43.4663 48.8766 43.4046 48.7451 43.1973C48.6131 42.9898 48.6739 42.7142 48.8807 42.582C48.9236 42.5543 49.9483 41.911 51.2311 42.1984C52.1757 42.4096 52.9945 43.0563 53.6655 44.12C54.6914 45.7463 54.4267 47.2255 54.1704 48.6562C53.9384 49.9533 53.6982 51.2949 54.3963 52.8649C54.6024 53.3284 54.794 53.7434 54.9678 54.1199C56.1123 56.5991 56.586 57.6253 55.0763 59.5305C54.5299 60.2197 54.7737 61.5505 55.0323 62.9596C55.4044 64.9907 55.8266 67.2924 53.9488 68.5225C53.8733 68.5716 53.7886 68.5949 53.7052 68.5947Z" fill="black"/>
<path d="M53.0855 70.4397C52.941 70.4394 52.799 70.3666 52.7141 70.2328C52.5801 70.0219 52.6378 69.7393 52.8434 69.6016C54.2265 68.6749 53.8925 66.8112 53.539 64.8383C53.2432 63.1865 52.9638 61.6263 53.762 60.5962C54.9306 59.0876 54.6642 58.4969 53.5428 56.0113C53.3676 55.6225 53.1741 55.1938 52.9665 54.7156C52.1569 52.8523 52.4336 51.271 52.6774 49.8758C52.9244 48.4655 53.1374 47.2473 52.2962 45.883C50.7632 43.3962 48.9403 44.4622 48.7373 44.5921C48.5299 44.7251 48.2562 44.6608 48.1259 44.4489C47.9956 44.2366 48.0556 43.9569 48.2618 43.822C48.3044 43.7938 49.3305 43.1364 50.6125 43.4292C51.5572 43.6454 52.376 44.307 53.047 45.3952C54.0729 47.0594 53.8081 48.5731 53.5517 50.0373C53.3196 51.3647 53.0794 52.7376 53.7775 54.344C53.9836 54.8181 54.1751 55.243 54.3489 55.6281C55.4934 58.1649 55.9671 59.2152 54.4572 61.1644C53.9106 61.8697 54.1545 63.2318 54.413 64.6735C54.785 66.7517 55.2072 69.1071 53.3289 70.3659C53.2538 70.416 53.1691 70.4399 53.0855 70.4397Z" fill="black"/>
<path d="M58.1903 63.682C58.0607 63.6817 57.9316 63.6292 57.8405 63.5274C57.6749 63.3421 57.6973 63.0634 57.8912 62.9049C60.5264 60.7486 60.7191 57.9789 58.4639 54.673C56.97 52.4837 56.4446 51.1055 57.0575 48.237C57.6282 45.5635 58.1211 43.2544 55.7759 41.462C53.4642 39.695 49.9719 41.066 49.9367 41.08C49.702 41.1743 49.4311 41.0688 49.3324 40.8443C49.2335 40.6196 49.3432 40.3613 49.5777 40.2662C49.7408 40.2004 53.6075 38.6742 56.3521 40.7722C59.1386 42.902 58.5404 45.704 57.9619 48.414C57.4222 50.94 57.8268 52.1234 59.2371 54.1904C61.7504 57.8746 61.4927 61.1199 58.4914 63.5757C58.4039 63.6472 58.2968 63.6822 58.1903 63.682Z" fill="black"/>
<path d="M55.0536 67.3669C54.9719 67.3667 54.8892 67.3451 54.8153 67.2998C54.0697 66.8446 53.5857 66.0174 53.452 64.9708C53.2403 63.3102 53.9525 61.4261 55.311 60.0542C57.2255 58.1207 56.2604 56.145 54.5695 53.3516C53.7704 52.0316 53.9727 50.6155 54.1868 49.1163C54.3926 47.6746 54.6056 46.1837 53.9192 44.6605C52.6268 41.7913 49.2489 42.4184 49.2141 42.4251C48.9731 42.4727 48.7359 42.3223 48.6865 42.0898C48.6372 41.8575 48.7932 41.6301 49.0351 41.5826C49.0758 41.5747 53.1619 40.8164 54.7399 44.3188C55.5256 46.0626 55.285 47.7471 55.0728 49.2334C54.8718 50.6403 54.6982 51.8552 55.3425 52.9192C56.8128 55.3482 58.4792 58.1013 55.9586 60.647C54.5496 62.0701 54.1985 63.7595 54.3399 64.8662C54.4401 65.6528 54.7794 66.2595 55.2945 66.5743C55.503 66.7015 55.5648 66.9672 55.4323 67.1675C55.3471 67.2967 55.2017 67.3672 55.0536 67.3669Z" fill="#212120"/>
<path d="M59.0321 62.4522C58.8963 62.4519 58.7625 62.3893 58.6758 62.2709C58.5304 62.0725 58.5722 61.7929 58.7694 61.6465C60.1825 60.5962 60.5779 59.3697 60.6607 58.5255C60.762 57.4937 60.4501 56.4653 59.8267 55.7752C59.6742 55.6063 59.5318 55.4552 59.3989 55.3141C58.257 54.1009 57.7833 53.4746 57.5329 50.1187L57.5162 49.8966C57.2505 46.327 57.1044 44.3606 54.9255 43.0479C52.7425 41.7321 50.5807 42.8628 50.5592 42.8746C50.343 42.9908 50.0744 42.9082 49.9593 42.6906C49.8442 42.473 49.926 42.2026 50.1422 42.0866C50.2482 42.0295 52.7724 40.7095 55.381 42.2813C57.9542 43.8321 58.1224 46.0896 58.4007 49.8297L58.4173 50.0517C58.6543 53.2246 59.0609 53.6563 60.0426 54.6997C60.1794 54.8448 60.3258 55.0004 60.4827 55.1744C61.2724 56.0483 61.6689 57.3341 61.5432 58.613C61.4012 60.061 60.6031 61.3934 59.2961 62.3647C59.2163 62.4239 59.1236 62.4524 59.0321 62.4522Z" fill="#212120"/>
<path d="M58.9888 64.2987C58.8488 64.2984 58.7102 64.2387 58.6181 64.1255C57.018 62.1541 56.9072 59.7729 58.3132 57.5927C59.5604 55.6592 60.0709 54.6194 58.066 52.1342C56.0093 49.5848 55.6521 46.6563 55.2742 43.5554C55.2396 43.2729 55.2052 42.9895 55.169 42.7045C54.8024 39.812 53.4307 38.1309 51.4055 38.092C49.7857 38.0522 49.6221 38.7901 49.6154 38.8213C49.5805 39.064 49.345 39.2264 49.0891 39.1952C48.8328 39.1622 48.6542 38.9322 48.6891 38.6894C48.6979 38.6279 48.9312 37.1981 51.3199 37.2033C51.3542 37.2034 51.3891 37.2039 51.4244 37.2044C53.9297 37.2523 55.6771 39.2691 56.0993 42.5989C56.1356 42.885 56.1702 43.1698 56.2046 43.4534C56.5676 46.4293 56.9103 49.2401 58.8103 51.5952C61.1271 54.4666 60.47 55.9514 59.1127 58.0556C57.92 59.9052 58.0102 61.9204 59.3609 63.5844C59.5185 63.7788 59.48 64.0576 59.275 64.2068C59.1896 64.2691 59.089 64.2989 58.9888 64.2987Z" fill="#212120"/>
<path d="M55.4049 66.1368C55.289 66.1365 55.1736 66.088 55.089 65.9921C54.9288 65.8103 54.9407 65.5285 55.1155 65.3623C57.0373 63.5354 56.4903 60.3958 55.4377 58.2627C54.1755 55.7045 54.4858 53.646 54.9556 50.5299L54.9816 50.3579C55.4438 47.2863 55.6141 43.9446 53.3689 42.4491C51.221 41.0187 50.0559 42.3466 50.0443 42.3601C49.8875 42.5447 49.6166 42.5629 49.4383 42.4002C49.2603 42.2373 49.243 41.9557 49.3998 41.7712C49.4163 41.7517 51.0717 39.8602 53.8324 41.699C56.4927 43.4709 56.3351 47.1402 55.8298 50.4956L55.8039 50.6676C55.3443 53.7161 55.0669 55.5562 56.202 57.8562C57.3922 60.2686 57.9736 63.8539 55.6955 66.0196C55.6131 66.0982 55.5086 66.137 55.4049 66.1368Z" fill="black"/>
<path d="M54.1684 68.5958C54.0525 68.5956 53.9371 68.5469 53.8525 68.4512C53.6923 68.2695 53.7042 67.9875 53.8791 67.8213C55.8011 65.9946 55.2539 62.855 54.2012 60.722C52.9389 58.163 53.2493 56.104 53.7193 52.9872L53.7451 52.8169C54.2077 49.7453 54.3776 46.4037 52.1323 44.9082C50.0109 43.495 48.8535 44.7672 48.805 44.8218C48.6462 45.0027 48.3755 45.018 48.1998 44.8549C48.0245 44.6915 48.0072 44.4137 48.163 44.2301C48.1796 44.211 49.8352 42.3191 52.5961 44.1581C55.2564 45.93 55.0988 49.5991 54.5935 52.9545L54.5677 53.1249C54.108 56.1742 53.8304 58.0147 54.9657 60.3155C56.1559 62.7278 56.7375 66.3131 54.4592 68.4786C54.3766 68.5572 54.2721 68.596 54.1684 68.5958Z" fill="black"/>
<path d="M57.4759 66.1413C57.3457 66.1411 57.2163 66.0925 57.1223 65.9971C55.3852 64.2393 56.8687 60.4266 57.9522 57.6432C58.5409 56.1307 57.7016 55.0579 56.7297 53.8158C56.1652 53.0941 55.5813 52.3477 55.2351 51.4581C54.8077 50.3592 55.1777 49.2855 55.5692 48.1486C56.0964 46.6183 56.6416 45.0357 55.3023 43.1408C53.0874 40.0064 49.5086 41.4645 49.3573 41.5278C49.1178 41.6291 48.8336 41.5327 48.7232 41.3128C48.6127 41.0931 48.7179 40.8333 48.9579 40.7325C49.0026 40.7135 53.4458 38.9026 56.1049 42.6658C57.6888 44.9066 57.0191 46.8503 56.481 48.4121C56.1242 49.448 55.8159 50.3427 56.1355 51.1649C56.4365 51.9387 56.9805 52.6342 57.5067 53.3067C58.5403 54.6279 59.609 55.9938 58.8527 57.9373C57.9067 60.3678 56.4774 64.0407 57.831 65.4109C58.0079 65.5901 57.9928 65.8667 57.7972 66.0289C57.7057 66.1041 57.5906 66.1416 57.4759 66.1413Z" fill="black"/>
<path d="M58.7117 66.1448C58.5908 66.1446 58.4703 66.0978 58.3821 66.0056C57.7653 65.3605 56.9111 63.6436 58.0954 61.7612C59.3082 59.8336 59.0269 58.1124 57.1243 55.8208C55.02 53.2859 55.666 50.6969 56.7283 47.5759C57.7038 44.7116 56.3038 41.9455 54.3871 40.9259C52.4283 39.8841 49.9997 41.2405 49.9752 41.2543C49.7616 41.3758 49.4864 41.3091 49.3592 41.1056C49.2322 40.9019 49.3012 40.6385 49.5138 40.5167C49.6309 40.4494 52.4078 38.8893 54.8235 40.1746C57.4157 41.5532 58.6018 44.8496 57.5831 47.8419C56.5721 50.8103 55.9983 53.0818 57.828 55.286C59.9485 57.8404 60.2685 59.9737 58.8654 62.2043C57.7376 63.9967 58.9925 65.369 59.0465 65.4264C59.2117 65.6026 59.1979 65.874 59.0146 66.0329C58.9282 66.1081 58.8195 66.1451 58.7117 66.1448Z" fill="black"/>
<path d="M60.5085 64.917C60.4413 64.9172 60.3731 64.9032 60.3089 64.8739C58.979 64.2713 58.9118 62.6218 60.0769 59.1803C61.2531 55.7054 60.4927 54.3613 58.6611 51.6525C57.7675 50.331 57.6423 48.9025 57.521 47.5211C57.3778 45.8861 57.2425 44.3422 55.8111 43.1264C53.2726 40.97 50.6781 42.0463 50.5688 42.0933C50.3356 42.1934 50.0581 42.0962 49.9515 41.8743C49.8444 41.6526 49.9461 41.3909 50.1794 41.2887C50.3102 41.2313 53.4258 39.9124 56.4333 42.4669C58.1415 43.9177 58.2989 45.7124 58.4508 47.4479C58.5676 48.7801 58.6778 50.0386 59.446 51.1749C61.3379 53.9727 62.2647 55.6113 60.965 59.451C59.5738 63.5602 60.4294 63.9477 60.7104 64.0752C60.943 64.1805 61.0413 64.4448 60.9305 64.6652C60.8507 64.8247 60.6829 64.9174 60.5085 64.917Z" fill="#212120"/>
<path d="M52.7934 45.2067C52.5556 45.2062 52.3634 45.0034 52.364 44.7619C52.3641 44.6958 52.3754 44.6113 52.4146 44.3286C52.5783 43.1468 53.0764 39.5509 52.3976 37.1489C52.3319 36.9168 52.464 36.6744 52.6926 36.6078C52.9207 36.5415 53.1599 36.6749 53.2255 36.9076C53.9549 39.4884 53.4375 43.223 53.2678 44.4505C53.2447 44.6166 53.2283 44.7294 53.2252 44.7766C53.2247 45.018 53.0314 45.2072 52.7934 45.2067Z" fill="black"/>
<path d="M53.4921 45.2082C53.3184 45.2078 53.1662 45.0455 53.14 44.819C53.1183 44.6337 52.6228 40.2409 53.5316 36.9005C53.5963 36.6623 53.7997 36.5356 53.9867 36.6185C54.1732 36.7009 54.2718 36.9611 54.207 37.1994C53.3553 40.3301 53.8424 44.641 53.8474 44.6843C53.8763 44.9335 53.7414 45.1661 53.546 45.2033C53.528 45.2067 53.5099 45.2082 53.4921 45.2082Z" fill="black"/>
<path d="M52.0355 45.2051C51.9979 45.205 51.9602 45.1975 51.9226 45.182C51.7355 45.1038 51.6346 44.8507 51.6975 44.6165C52.1293 43.0045 52.9047 38.5693 51.3277 37.4209C51.1571 37.2965 51.0996 37.0231 51.1989 36.8098C51.2988 36.5967 51.518 36.5249 51.6879 36.6484C54.0884 38.3962 52.4463 44.6354 52.3751 44.9002C52.325 45.0873 52.1852 45.2054 52.0355 45.2051Z" fill="black"/>
<path d="M54.0465 45.2094C53.9008 45.2091 53.7724 45.0638 53.7466 44.857C53.7239 44.6773 53.2079 40.4214 54.2612 37.448C54.3361 37.2368 54.5192 37.1499 54.6708 37.2539C54.8221 37.3579 54.8843 37.6133 54.8094 37.8247C53.8436 40.5506 54.3435 44.668 54.3487 44.7092C54.3777 44.9411 54.2665 45.1621 54.1001 45.2026C54.0822 45.2073 54.0641 45.2095 54.0465 45.2094Z" fill="black"/>
<path d="M68.73 161.95C68.73 161.95 73.4538 218.851 72.9093 236.486C72.9093 236.486 83.4436 237.033 83.9882 239.941C84.5338 242.849 66.0073 246.016 66.3692 241.251C66.7322 236.486 57.6499 173.767 52.7458 161.95C47.8416 150.133 68.73 161.95 68.73 161.95Z" fill="#8E5F51"/>
<path d="M46.7861 163.235C46.7861 163.235 42.988 212.853 41.9038 221.63C40.8185 230.407 38.2875 236.676 41.9038 237.931C45.5212 239.185 49.7597 240.08 49.9912 241.871C50.2216 243.662 45.9097 243.81 38.1204 243.648C30.3311 243.483 31.596 241.513 33.2223 236.497C34.8509 231.482 31.7778 166.996 33.0427 162.518C34.3076 158.039 46.7861 163.235 46.7861 163.235Z" fill="#8E5F51"/>
<path d="M73.5091 239.539C76.1147 239.054 77.2903 237.885 77.792 236.698C80.6484 237.214 83.7001 238.132 83.988 239.732C84.544 242.802 65.6659 246.146 66.0347 241.114C66.0578 240.812 66.0439 240.28 66 239.557C68.1605 239.887 70.8273 240.04 73.5091 239.539Z" fill="#212120"/>
<path d="M40.999 241.005C42.9858 240.692 44.2035 240.22 44.9456 239.7C47.5559 240.398 49.8229 241.09 49.9912 242.171C50.2216 243.668 45.9091 243.792 38.1187 243.656C31.7289 243.544 31.4341 242.413 32.4315 239.698C34.4805 240.611 37.2094 241.602 40.999 241.005Z" fill="#212120"/>
<path d="M65.0167 84.6976C65.0167 84.6976 75.8333 114.154 98.8844 84.6976L107 86.0787C107 86.0787 98.6091 102.742 82.9674 105.395C67.3258 108.049 59 92.3918 59 92.3918L65.0167 84.6976Z" fill="#8E5F51"/>
<path d="M66.9629 75.3776C66.9629 75.3776 66.2589 72.0536 66.3481 69.358C66.4394 66.6623 61.472 55.073 51.2653 54.7128C41.0585 54.3537 34.6448 60.3733 28.0516 73.8503C28.0516 73.8503 35.8203 78.1619 36.6326 80.7677C37.4461 83.3736 35.0972 82.5656 34.9167 85.6192C34.7361 88.675 36.5412 106.285 36.9948 109.519C36.9948 109.519 30.6713 113.921 29.5871 122.367C28.504 130.813 22 163.698 22 163.698H78L70.2324 125.766C70.2324 125.766 68.4273 115.719 63.188 111.407L64.9717 88.0454C64.9717 88.0454 73.0867 82.1155 66.9629 75.3776Z" fill="#1400F9"/>
<path d="M78 163.698H22C22 163.698 22.5099 161.308 23.2658 157.698H76.6766L78 163.698Z" fill="#0E0572"/>
<path d="M77 154.698H24C24.376 152.523 24.7843 150.157 25.2051 147.698H75.7144L77 154.698Z" fill="#0E0572"/>
<path d="M75 142.698H26C26.4009 140.681 26.7959 138.66 27.1771 136.698H73.7047L75 142.698Z" fill="#0E0572"/>
<path d="M72 132.698H28C28.4098 130.119 28.7764 127.735 29.0727 125.698H70.7298L72 132.698Z" fill="#0E0572"/>
<path d="M98 83.6976C98 86.459 100.24 88.6976 102.999 88.6976C105.762 88.6976 108 86.459 108 83.6976C108 80.9363 105.762 78.6976 102.999 78.6976C100.24 78.6976 98 80.9363 98 83.6976Z" fill="#8E5F51"/>
<path d="M46 41.6976V56.1553L58 71.6976L54.5965 57.2095V42.6005L46 41.6976Z" fill="#74483C"/>
<path d="M27.8484 73.6976C27.8484 73.6976 13.7254 102.436 26.0419 141.811C26.0419 141.811 29.0566 151.824 35.0104 149.285C40.963 146.746 36.6833 138.226 33.7093 132.065C30.7306 125.902 27.3245 90.4372 37.1201 81.9763C37.1201 81.9763 37.7997 78.5926 27.8484 73.6976Z" fill="#8E5F51"/>
<path d="M25.8566 140.698C25.552 139.453 25.2654 138.219 25 136.994L33.6665 132.698C34.1085 133.814 34.5632 134.98 35 136.166L25.8566 140.698Z" fill="#603E1C"/>
<path d="M47.6384 65.891C47.5089 65.9498 47.3531 65.9491 47.2109 65.8753C45.0031 64.7295 43.9127 61.6383 43.971 56.6881C43.9983 54.3554 42.3376 52.3993 40.5792 50.3284C39.5505 49.1168 38.4868 47.8642 37.7112 46.4725C35.5546 42.602 36.4477 38.465 38.6351 37.0299C40.7334 35.6517 43.2469 36.9408 43.353 36.9965C43.6093 37.1311 43.7248 37.4519 43.6111 37.714C43.4972 37.9757 43.1982 38.0792 42.9425 37.9458C42.9216 37.9349 40.8336 36.8758 39.207 37.9428C37.6411 38.9705 36.552 42.3328 38.5803 45.9733C39.3007 47.2661 40.3273 48.4751 41.32 49.6442C43.1381 51.7856 45.0184 54 44.9858 56.7607C44.9495 59.8429 45.3772 63.7614 47.6188 64.9248C47.8755 65.0581 47.9923 65.3788 47.8795 65.6413C47.8297 65.7578 47.7424 65.8437 47.6384 65.891Z" fill="#212120"/>
<path d="M52.7149 68.4132C52.6219 68.4554 52.5173 68.4746 52.4101 68.4639C48.0885 68.025 45.6935 62.9452 45.6341 58.3882C45.6051 56.1453 45.1279 55.3049 44.2611 53.7789C43.6455 52.6945 42.8794 51.3451 41.9832 49.0196C39.6818 43.0481 44.1388 40.128 44.1842 40.0991C44.4446 39.9336 44.7845 39.9919 44.9439 40.2292C45.1027 40.4663 45.0212 40.7922 44.7621 40.9579C44.6058 41.0593 41.0351 43.4466 43.0242 48.6081C43.8948 50.8675 44.6415 52.1825 45.2414 53.2394C46.124 54.7932 46.7069 55.8201 46.7391 58.312C46.7853 61.8524 48.632 67.0191 52.5932 67.4215C52.894 67.452 53.0973 67.7101 53.0465 67.9982C53.0141 68.1839 52.8838 68.3364 52.7149 68.4132Z" fill="#212120"/>
<path d="M52.2941 71.0193C52.2037 71.0604 52.1004 71.0766 51.9947 71.0599C49.3539 70.6463 48.6833 67.9415 48.0912 65.5552C47.6808 63.8995 47.2926 62.3359 46.3622 61.856C43.7893 60.529 43.8001 59.1828 43.8265 55.9307C43.8307 55.4373 43.8349 54.893 43.8314 54.2897C43.8188 52.244 42.9005 50.9062 42.0125 49.6124C41.0332 48.1857 40.0208 46.7107 40.3361 44.4427C40.5422 42.9597 41.1138 41.8565 42.0351 41.164C43.2859 40.2231 44.7133 40.4189 44.7738 40.4276C45.0628 40.4696 45.264 40.7388 45.2224 41.0288C45.1815 41.3179 44.9151 41.5178 44.6268 41.4776C44.3442 41.4395 41.8554 41.2043 41.3842 44.5918C41.1253 46.4511 41.9405 47.6383 42.8838 49.0128C43.8171 50.3724 44.8749 51.9137 44.8894 54.2863C44.8931 54.8949 44.8887 55.4441 44.8848 55.942C44.859 59.1286 44.853 59.8857 46.8442 60.9131C48.2034 61.6141 48.648 63.4052 49.1184 65.3017C49.6802 67.5674 50.211 69.7073 52.1554 70.0115C52.4442 70.0566 52.6425 70.3282 52.5983 70.6176C52.57 70.8012 52.4511 70.9479 52.2941 71.0193Z" fill="black"/>
<path d="M52.5973 71.6865C52.5069 71.7276 52.4035 71.7438 52.2978 71.7271C49.6574 71.3133 48.9865 68.6087 48.3946 66.2222C47.984 64.5666 47.5963 63.003 46.6654 62.5229C44.0927 61.1964 44.1034 59.8504 44.1297 56.5985C44.1337 56.105 44.1379 55.5607 44.1346 54.957C44.1219 52.9113 43.2037 51.5735 42.3156 50.2795C41.3363 48.8528 40.3237 47.3775 40.6392 45.1093C40.8453 43.6262 41.4172 42.5233 42.3382 41.8306C43.5899 40.8911 45.0168 41.0857 45.0767 41.0946C45.3659 41.1366 45.5672 41.4058 45.5256 41.6958C45.4844 41.9849 45.2173 42.1853 44.9293 42.1445C44.6426 42.1054 42.1579 41.8739 41.6873 45.2584C41.4285 47.1183 42.2434 48.305 43.1869 49.6798C44.1202 51.0398 45.1779 52.581 45.1925 54.9533C45.1962 55.5623 45.1917 56.1118 45.188 56.6098C45.1622 59.7959 45.1562 60.553 47.1471 61.5795C48.5068 62.2805 48.9512 64.0721 49.4216 65.9686C49.9835 68.2341 50.5142 70.3739 52.4585 70.6785C52.7475 70.724 52.9457 70.9952 52.9014 71.2846C52.8731 71.4685 52.7543 71.6151 52.5973 71.6865Z" fill="black"/>
<path d="M53.2039 73.0207C53.1134 73.0618 53.0098 73.0774 52.9036 73.0595C50.2487 72.6147 49.5516 69.8518 48.9363 67.4144C48.5096 65.7234 48.1062 64.1259 47.1678 63.6286C44.5732 62.2535 44.5723 60.8818 44.5702 57.5669C44.5701 57.064 44.5696 56.5093 44.5607 55.8946C44.5301 53.8093 43.5966 52.4375 42.6934 51.111C41.698 49.6483 40.6684 48.1355 40.9649 45.8265C41.1591 44.3168 41.7233 43.1975 42.6421 42.4996C43.8907 41.5527 45.325 41.7639 45.3852 41.7732C45.676 41.8186 45.8803 42.0949 45.8412 42.3899C45.8025 42.684 45.537 42.8859 45.247 42.8421C44.9635 42.8005 42.4622 42.5386 42.0186 45.9879C41.7751 47.8806 42.6038 49.098 43.5629 50.5072C44.5119 51.9014 45.5876 53.4816 45.6229 55.9003C45.6321 56.5206 45.6324 57.0806 45.6329 57.5878C45.635 60.8357 45.6354 61.6074 47.6436 62.6716C49.0144 63.3981 49.4762 65.2277 49.9652 67.1651C50.5491 69.4792 51.1008 71.665 53.0558 71.9924C53.3463 72.0411 53.5476 72.3193 53.5057 72.6139C53.479 72.8008 53.3607 72.9494 53.2039 73.0207Z" fill="black"/>
<path d="M54.3306 72.5085C54.2477 72.5462 54.1521 72.5591 54.0531 72.5392C51.5817 72.0487 50.8725 69.3615 50.2464 66.9906C49.8123 65.3456 49.4019 63.7922 48.5207 63.2899C46.0837 61.901 46.0516 60.5745 45.9739 57.3697C45.9622 56.8835 45.9491 56.3471 45.9268 55.7522C45.851 53.7352 44.9541 52.3876 44.0868 51.0844C43.1304 49.6473 42.1413 48.1614 42.3639 45.9356C42.5093 44.4801 43.0071 43.4107 43.8427 42.7571C44.9784 41.869 46.3128 42.1066 46.369 42.1171C46.6396 42.1677 46.8352 42.4394 46.8056 42.724C46.7764 43.0077 46.534 43.1969 46.2645 43.1475C45.9967 43.1007 43.6764 42.793 43.3443 46.1157C43.1618 47.9402 43.9576 49.1362 44.8791 50.5205C45.7906 51.8902 46.8238 53.4425 46.9117 55.782C46.9344 56.3819 46.9474 56.9234 46.9594 57.4141C47.0356 60.554 47.0537 61.3002 48.9397 62.3752C50.227 63.1089 50.6972 64.8886 51.1945 66.7729C51.7887 69.0238 52.35 71.1499 54.1698 71.5108C54.4401 71.5643 54.6332 71.8381 54.6011 72.1221C54.5807 72.3024 54.4745 72.4431 54.3306 72.5085Z" fill="black"/>
<path d="M45.529 67.6548C45.4197 67.7045 45.2924 67.7164 45.1676 67.6795C40.8774 66.4085 39.0208 63.0069 39.7974 57.8425C40.2332 54.9445 40.0687 53.4726 38.275 50.9826C36.3507 48.3115 34.361 45.5493 36.1814 41.9434C37.9743 38.3928 42.6977 38.2525 42.8972 38.2482C43.1853 38.2422 43.4253 38.4723 43.4336 38.7621C43.4415 39.0518 43.2149 39.2909 42.9274 39.2978C42.8847 39.2989 38.6226 39.433 37.1121 42.4242C35.5798 45.4591 37.2196 47.735 39.118 50.3705C41.1548 53.198 41.2905 54.9373 40.8291 58.0069C40.1318 62.641 41.6885 65.5569 45.4557 66.6729C45.7325 66.7549 45.8925 67.0469 45.813 67.3249C45.7693 67.4773 45.6622 67.5943 45.529 67.6548Z" fill="black"/>
<path d="M50.7274 70.1215C50.5782 70.1894 50.3974 70.1789 50.2478 70.0775C50.0163 69.9203 49.9481 69.6039 50.0956 69.3712C50.4606 68.7952 50.5046 67.9828 50.2199 67.0832C49.8192 65.8183 48.6366 64.1449 46.5187 63.2424C42.7306 61.6281 43.0591 57.882 43.3489 54.5774C43.4759 53.1296 42.7053 51.8905 41.8126 50.4554C40.8698 48.9395 39.801 47.2214 39.7374 44.9717C39.6092 40.4535 44.0987 39.4162 44.1436 39.4063C44.4107 39.3477 44.6794 39.5232 44.7437 39.7979C44.8079 40.0725 44.643 40.3418 44.3776 40.4018C44.2241 40.4355 40.6273 41.2843 40.7321 44.9689C40.7875 46.9342 41.7334 48.4547 42.6478 49.9253C43.599 51.4545 44.4974 52.8988 44.3397 54.6947C44.0064 58.4954 44.0031 61.0783 46.8803 62.3045C48.9223 63.1746 50.5642 64.8943 51.1654 66.7928C51.5444 67.9893 51.4624 69.1071 50.9344 69.9402C50.8822 70.023 50.8095 70.0842 50.7274 70.1215Z" fill="#212120"/>
<path d="M44.1585 66.6678C44.0593 66.7129 43.9455 66.7272 43.8304 66.7022C41.9418 66.2872 40.4264 65.2319 39.5631 63.7308C38.8005 62.4049 38.599 60.817 39.0237 59.4836C39.1079 59.2184 39.19 58.978 39.2667 58.7538C39.8165 57.1427 40.0444 56.4761 38.7449 52.9193L38.6541 52.6704C37.1217 48.4781 36.1969 45.9476 38.2176 43.0091C40.263 40.0359 43.6631 40.1699 43.8076 40.177C44.0982 40.1916 44.3239 40.4406 44.3119 40.7332C44.2998 41.0254 44.0549 41.2508 43.7649 41.2367C43.6428 41.2315 40.7936 41.1345 39.0858 43.618C37.3746 46.1057 38.1803 48.3097 39.6428 52.3109L39.7337 52.56C41.1077 56.3219 40.9031 57.2321 40.2637 59.1057C40.1893 59.3236 40.1095 59.5573 40.0274 59.8148C39.692 60.8679 39.8587 62.1354 40.4741 63.2049C40.9773 64.0798 42.0057 65.2171 44.0476 65.666C44.3322 65.7286 44.5147 66.0113 44.4546 66.2976C44.4188 66.4678 44.3051 66.6012 44.1585 66.6678Z" fill="#212120"/>
<path d="M45.046 68.6792C44.9432 68.726 44.8249 68.7405 44.7066 68.7127C44.4225 68.6459 44.2465 68.3613 44.3133 68.0772C44.8855 65.6446 43.9898 63.4161 41.8561 61.9631C39.429 60.3105 38.0255 59.0044 38.9982 54.8129C39.7963 51.3757 38.7703 48.1672 37.684 44.7699C37.5802 44.4457 37.4761 44.1198 37.3729 43.7923C36.1732 39.9833 36.9806 36.9836 39.5328 35.768C42.0672 34.5702 43.0332 36.0451 43.073 36.1089C43.228 36.3562 43.1532 36.6825 42.9059 36.8376C42.6606 36.9887 42.3418 36.9199 42.1841 36.6808C42.1501 36.6342 41.6288 35.9751 40.0773 36.6803C40.0477 36.6938 40.0179 36.7077 39.9876 36.7223C37.9245 37.7051 37.3387 40.1662 38.381 43.475C38.4837 43.8013 38.5875 44.1255 38.6907 44.4478C39.8225 47.9876 40.8916 51.3309 40.0283 55.0517C39.1859 58.6795 40.2207 59.5706 42.4513 61.0893C44.9661 62.8019 46.02 65.437 45.3423 68.319C45.3031 68.485 45.1898 68.6139 45.046 68.6792Z" fill="#212120"/>
<path d="M48.8841 69.3495C48.7543 69.4085 48.6048 69.4255 48.4624 69.3871C44.5498 68.3262 43.5207 64.1064 43.8282 60.8146C44.122 57.675 42.8727 55.835 40.8027 52.786L40.6875 52.6159C38.4108 49.2604 36.4155 45.3678 38.8775 41.9387C41.4324 38.3801 44.4319 39.4955 44.462 39.5073C44.7488 39.6187 44.8653 39.9341 44.722 40.2118C44.5796 40.4879 44.2334 40.622 43.9476 40.5128C43.8494 40.4772 41.7842 39.763 39.8254 42.4904C37.7478 45.3845 39.5982 48.9148 41.682 51.9864L41.7974 52.1564C43.9132 55.273 45.3108 57.3318 44.9844 60.8232C44.7119 63.7342 45.5654 67.4508 48.8665 68.3456C49.1669 68.4271 49.3198 68.7261 49.2083 69.0141C49.1499 69.1656 49.029 69.2837 48.8841 69.3495Z" fill="black"/>
<path d="M53.4297 71.3081C53.3172 71.3593 53.1847 71.3672 53.0552 71.3205C49.4955 70.0304 48.3253 65.7602 48.4046 62.4955C48.4806 59.3815 47.2547 57.4721 45.2241 54.3079L45.1105 54.1313C42.8766 50.6494 40.8622 46.6485 42.8586 43.3746C44.9302 39.9767 47.6772 41.2679 47.7048 41.2813C47.9677 41.4096 48.0906 41.7311 47.9789 41.9994C47.868 42.2662 47.5668 42.3798 47.3048 42.2536C47.2151 42.2126 45.3268 41.3771 43.7385 43.9813C42.0538 46.7443 43.9169 50.3752 45.9618 53.5625L46.0753 53.7392C48.1511 56.9731 49.5224 59.1095 49.4383 62.5727C49.3677 65.4597 50.3512 69.2176 53.3544 70.3057C53.6276 70.4047 53.7822 70.7123 53.6996 70.9928C53.6563 71.1401 53.5555 71.251 53.4297 71.3081Z" fill="#212120"/>
<path d="M47.5648 69.9492C47.4479 70.0023 47.3118 70.0149 47.1811 69.9749C46.9016 69.8893 46.7506 69.596 46.8436 69.3198C47.5537 67.2092 44.2923 63.8833 42.134 61.6826C40.4081 59.923 40.8296 57.9479 41.237 56.0376C41.4447 55.0651 41.6593 54.0594 41.5872 53.0809C41.5106 52.0413 40.757 51.2126 39.8842 50.2534C38.5685 48.8071 36.9314 47.0071 37.4496 43.8454C38.32 38.536 43.7459 38.4503 43.8005 38.4503C44.0951 38.449 44.33 38.6823 44.325 38.9717C44.3203 39.2604 44.0783 39.4957 43.784 39.4975C43.5983 39.4995 39.224 39.5889 38.5023 43.9905C38.0643 46.6642 39.3975 48.1297 40.6862 49.5466C41.6437 50.5994 42.5483 51.5941 42.6506 52.9837C42.7337 54.1087 42.5031 55.1879 42.2802 56.2315C41.8973 58.0276 41.566 59.5787 42.9094 60.9477C45.3813 63.4685 48.7666 66.9207 47.855 69.6289C47.8061 69.7762 47.6976 69.8889 47.5648 69.9492Z" fill="black"/>
<path d="M46.3263 70.5121C46.2086 70.5656 46.0719 70.5785 45.941 70.5388C45.6636 70.4546 45.5168 70.166 45.6127 69.8938C45.6422 69.8073 46.3311 67.7028 44.2286 66.3109C41.6125 64.5787 40.913 62.1066 41.9617 58.2956C42.8663 55.006 41.1294 52.8233 38.5771 50.0982C36.0045 47.351 35.6754 43.1929 37.8114 40.4258C39.8033 37.8453 43.5807 38.1776 43.7409 38.1931C44.0316 38.221 44.236 38.4732 44.1974 38.7569C44.1593 39.0404 43.8922 39.2471 43.6018 39.2196C43.5615 39.216 40.2671 38.9379 38.6531 41.0268C37.0736 43.0729 36.9112 46.7607 39.3739 49.3903C42.0573 52.2555 44.0277 54.7478 42.9873 58.5307C42.0466 61.9498 42.5853 63.9551 44.8467 65.4525C47.0547 66.9143 46.9699 69.196 46.6167 70.1985C46.5661 70.3417 46.4581 70.4522 46.3263 70.5121Z" fill="black"/>
<path d="M43.7167 70.0885C43.5376 70.1699 43.3202 70.147 43.1593 70.0114C42.9371 69.8237 42.9089 69.4913 43.096 69.269C43.3222 69.0002 44.0114 68.1823 40.5664 64.3697C37.3471 60.8075 37.4956 58.599 38.0683 54.6846C38.3004 53.0949 37.7967 51.6781 37.2631 50.1785C36.5684 48.2247 35.8499 46.2044 36.8939 43.837C38.7327 39.6693 42.5821 39.653 42.7448 39.6542C43.0355 39.6568 43.2696 39.8944 43.2675 40.1857C43.2653 40.4762 43.0282 40.7093 42.7393 40.7081C42.6038 40.7076 39.409 40.7447 37.8571 44.2636C36.982 46.2475 37.6003 47.9855 38.2548 49.826C38.8079 51.3815 39.3797 52.9894 39.1093 54.8381C38.5555 58.6282 38.4332 60.4399 41.3467 63.6634C44.2319 66.8563 44.972 68.6775 43.9011 69.9488C43.8491 70.0106 43.7857 70.0571 43.7167 70.0885Z" fill="#212120"/>
<path d="M43.735 19.8498C43.735 19.8498 63.0001 13.6976 65.0572 22.7213L67.7326 32.5933C69.7495 40.0402 64.773 47.7931 56.6179 49.9128C48.4595 52.0303 40.2137 47.7132 38.1957 40.2673L35.9245 31.8847C44.0883 30.4072 43.735 19.8498 43.735 19.8498Z" fill="#8E5F51"/>
<path d="M58.3733 39.2083C58.3733 39.2083 39.1082 45.3605 37.0511 36.3369L34.3756 26.4649C32.3588 19.018 37.3353 11.2651 45.4904 9.14536C53.6487 7.02788 61.8945 11.345 63.9125 18.7909L66.1837 27.1734C58.02 28.651 58.3733 39.2083 58.3733 39.2083Z" fill="#8E5F51"/>
<path d="M37.5713 32.525C36.7731 32.0784 35.7572 31.9043 34.7394 32.1428C32.8724 32.5814 31.7374 34.2052 32.206 35.769C32.6755 37.3349 34.5699 38.2481 36.438 37.8105C37.4547 37.572 38.2412 36.977 38.683 36.2384L37.5713 32.525Z" fill="#8E5F51"/>
<path d="M51.1267 30.4181C51.5533 30.3084 51.8817 30.0639 52.076 29.7114C52.4814 28.9745 52.1634 28.0196 52.1268 27.9138C52.0332 27.6507 51.7444 27.5117 51.4675 27.5964C51.1957 27.6866 51.0499 27.9717 51.1413 28.2357C51.198 28.4014 51.3219 28.9373 51.157 29.2353C51.1171 29.3051 51.0482 29.3926 50.8585 29.4411C50.1194 29.6307 49.602 28.527 49.596 28.5162C49.4792 28.2617 49.1743 28.1451 48.9091 28.2577C48.6483 28.3704 48.529 28.6673 48.6447 28.9218C48.9648 29.6316 49.8493 30.7461 51.1267 30.4181Z" fill="#212120"/>
<path d="M62.2959 27.9594C62.7235 27.85 63.0508 27.6061 63.2451 27.2544C63.6515 26.5192 63.3323 25.5653 63.2957 25.4607C63.2043 25.1984 62.9097 25.0415 62.6374 25.1451C62.3658 25.2329 62.2199 25.5185 62.3102 25.7829C62.3669 25.9471 62.4909 26.4819 62.326 26.7792C62.2872 26.85 62.2183 26.9362 62.0286 26.9846C61.2896 27.1737 60.7709 26.0734 60.7649 26.0616C60.6481 25.8076 60.3422 25.6891 60.0802 25.8047C59.8173 25.916 59.6991 26.2122 59.8137 26.4662C60.1349 27.1745 61.0196 28.2856 62.2959 27.9594Z" fill="#212120"/>
<path d="M61.7266 32.0757L58.0518 33.0152L56.0976 25.9153L57.2948 25.6075L61.7266 32.0757Z" fill="#74483C"/>
<path d="M60.623 42.5588C59.0117 43.0492 57.3652 41.9778 56.9467 40.1625L62.7861 38.3852C63.2036 40.1993 62.2354 42.0672 60.623 42.5588Z" fill="#1400F9"/>
<path d="M40.7816 31.6391C40.7816 31.6391 45.0001 29.5804 47.5 23.5805C50.0001 20.0804 51.0001 17.0804 51.0001 17.0804C54.5001 21.5804 56 21.0805 62.5 25.0805L66 25.0805C66 25.0805 65.6365 24.3096 64.7767 18.5491C63.9163 12.789 57.4934 0.523287 43.498 5.23973C29.5028 9.95634 30.1536 24.5902 38.0001 33.0804L40.7816 31.6391Z" fill="#3C3C3C"/>
<path d="M37.5489 30.3615C34.5029 31.228 32.5831 30.0054 32.4656 29.9274C32.1016 29.6864 31.9741 29.1815 32.1804 28.7998C32.385 28.4209 32.843 28.3051 33.2067 28.5412C33.3607 28.6386 36.6841 30.6332 41.7599 25.9229C47.1298 20.9392 49.473 9.11675 49.496 8.99791C49.5547 8.69679 49.7659 8.47432 50.047 8.40141C50.326 8.33795 50.6223 8.45263 50.8102 8.69746C53.1215 11.7006 59.8965 19.088 63.4398 17.227C63.8118 17.036 64.2674 17.207 64.4647 17.6148C64.6617 18.0224 64.5227 18.51 64.1538 18.7039C59.7502 21.0142 53.1906 13.962 50.6429 10.9193C49.8065 14.3971 47.3713 22.9213 42.7782 27.1842C40.8164 29.0043 39.0463 29.9356 37.5489 30.3615Z" fill="#212120"/>
<path d="M36.7124 27.3516C34.5666 27.962 33.2363 27.723 33.1452 27.7049C32.7353 27.6254 32.4559 27.215 32.5215 26.7898C32.5868 26.3635 32.9745 26.0827 33.3824 26.1628C33.4099 26.1677 36.6063 26.6907 41.1805 23.3143C45.8594 19.8611 49.4137 7.97383 49.4485 7.85387C49.5706 7.44302 49.9901 7.2215 50.3875 7.35874C50.7846 7.49665 51.008 7.94071 50.8869 8.35187C50.7364 8.86057 47.1466 20.8561 42.0703 24.603C39.9981 26.1327 38.1676 26.9376 36.7124 27.3516Z" fill="#212120"/>
<path d="M33.3368 27.2292C33.2578 27.2517 33.173 27.2605 33.086 27.254C32.678 27.2229 32.3659 26.8575 32.3889 26.438C32.6365 21.9243 34.9905 13.5165 40.4621 8.85473C45.9144 4.20908 50.7617 8.08828 50.8101 8.1284C51.1324 8.39297 51.1892 8.8726 50.9376 9.19946C50.6866 9.5267 50.2229 9.5757 49.9006 9.31304C49.7314 9.17649 45.9257 6.1937 41.4173 10.0351C36.3031 14.393 34.0992 22.2995 33.8664 26.551C33.8482 26.881 33.6282 27.1463 33.3368 27.2292Z" fill="#212120"/>
<path d="M33.8052 24.9307C33.4018 25.0454 32.979 24.8231 32.8548 24.4265C32.7283 24.0228 32.9577 23.592 33.3672 23.4642C42.6022 20.576 48.6686 9.14352 48.7286 9.02879C48.9263 8.65084 49.3949 8.50164 49.775 8.69246C50.1559 8.88415 50.3041 9.34554 50.1073 9.72269C49.8489 10.2161 43.6752 21.8442 33.8254 24.9244C33.8189 24.9268 33.8119 24.9288 33.8052 24.9307Z" fill="#212120"/>
<path d="M37.8919 20.5202C37.7062 20.573 37.4971 20.5393 37.3147 20.4079C36.972 20.1607 36.8532 19.6622 37.0492 19.2945C39.2738 15.1272 47.7305 9.24216 48.0894 8.99355C48.4129 8.76836 48.8593 8.89495 49.0844 9.27739C49.309 9.65883 49.2269 10.1507 48.9019 10.3758C48.8167 10.4345 40.3544 16.3229 38.2908 20.1885C38.1992 20.3608 38.0549 20.4738 37.8919 20.5202Z" fill="#212120"/>
<path d="M64.3403 20.5748C57.8902 22.4097 50.1905 12.1615 49.863 11.7202C49.6058 11.3735 49.677 10.8838 50.022 10.6268C50.3662 10.3697 50.8554 10.441 51.113 10.7878C51.1867 10.8871 58.493 20.6124 63.9096 19.0716C63.9551 19.0586 63.9993 19.0452 64.0441 19.0308C64.0525 19.0281 64.0611 19.0257 64.0696 19.0233C64.4724 18.9087 64.8963 19.1342 65.0252 19.5373C65.1573 19.9487 64.9319 20.3886 64.5222 20.5203C64.462 20.5391 64.401 20.5576 64.3403 20.5748Z" fill="#212120"/>
<path d="M61.9549 15.8402C56.31 17.446 50.2581 8.77856 49.9847 8.38127C49.7456 8.03438 49.8356 7.56022 50.1847 7.32106C50.5358 7.08132 51.0116 7.16994 51.2504 7.51616C51.3148 7.60928 57.7049 16.7621 62.4453 13.9811C62.8124 13.7644 63.2808 13.886 63.4948 14.2486C63.7097 14.6108 63.5874 15.0786 63.2222 15.2931C62.8043 15.5396 62.3807 15.7191 61.9549 15.8402Z" fill="#212120"/>
<path d="M60.7732 15.0937C60.4826 15.1764 60.1551 15.0801 59.9444 14.8208C57.7008 12.0619 51.3586 8.47836 51.2946 8.44263C50.9052 8.22373 50.7532 7.72237 50.955 7.32286C51.1579 6.92394 51.6365 6.7777 52.0261 6.99624C52.2979 7.14897 58.7071 10.7716 61.1488 13.7744C61.4347 14.1265 61.3971 14.6462 61.0645 14.9353C60.977 15.0114 60.8774 15.0641 60.7732 15.0937Z" fill="#212120"/>
<path d="M36.383 32.8585C35.9345 32.9861 35.4762 33.0987 35.0041 33.1955C34.5892 33.281 34.1843 33.015 34.1 32.6026C34.0155 32.1897 34.2767 31.7832 34.6979 31.7009C47.7207 29.0221 50.7848 13.1182 50.8142 12.9578C50.8901 12.5433 51.2876 12.2664 51.7056 12.3419C52.1219 12.4157 52.3984 12.812 52.3225 13.2273C52.2928 13.3914 49.2673 29.1933 36.383 32.8585Z" fill="black"/>
<path d="M35.6671 31.9795C34.792 32.2285 34.0817 32.2441 33.5261 32.0303C32.7879 31.746 32.6047 31.1704 32.5759 31.058C32.4699 30.6518 32.7173 30.221 33.1173 30.1328C33.489 30.0358 33.8686 30.2343 34.0093 30.5822C34.1175 30.648 35.2007 31.1372 39.323 28.404C44.8236 24.7579 49.939 12.0572 50.2433 11.0024C50.2691 10.767 50.4039 10.5474 50.6259 10.4229C50.9892 10.2202 51.4519 10.3494 51.6567 10.7158C51.8432 11.0498 51.8996 11.1508 50.807 13.719C50.2878 14.9397 49.4292 16.8504 48.2881 19.0219C46.3519 22.706 43.3702 27.5436 40.1597 29.6715C38.3442 30.8753 36.8541 31.6419 35.6671 31.9795Z" fill="black"/>
<path d="M33.9091 21.6531C33.8198 21.6785 33.724 21.6866 33.6254 21.6741C33.2223 21.624 32.9302 21.2486 32.9737 20.836C33.013 20.4593 34.0055 11.5595 40.1153 6.73429C42.3017 5.00778 44.4443 4.28669 46.4852 4.59015C49.0871 4.97722 50.5211 6.91048 50.5809 6.99261C50.8253 7.32783 50.7612 7.79866 50.4375 8.04365C50.1142 8.28908 49.6564 8.2164 49.4119 7.88282C49.3929 7.85825 48.2546 6.36044 46.2739 6.07579C44.6446 5.84138 42.8788 6.46555 41.0224 7.93148C35.3941 12.3763 34.4421 20.9328 34.433 21.0188C34.4002 21.3305 34.186 21.5741 33.9091 21.6531Z" fill="black"/>
<path d="M33.3513 27.2251C33.2181 27.263 33.0727 27.2629 32.9288 27.2166C32.5264 27.087 32.2931 26.644 32.4067 26.2275C32.5013 25.8819 34.7782 17.6914 39.8199 11.4109C45.1778 4.7378 50.7795 8.37438 50.8359 8.41204C51.1915 8.65068 51.3023 9.13993 51.0835 9.5056C50.8644 9.86995 50.4 9.97336 50.0443 9.73618C49.8491 9.60845 45.4799 6.85197 40.9914 12.4444C36.1468 18.4788 33.8857 26.6165 33.8634 26.6979C33.7899 26.9654 33.5909 27.1569 33.3513 27.2251Z" fill="black"/>
<path d="M33.665 28.2185C33.56 28.2483 33.4472 28.2567 33.3319 28.2394C32.9056 28.1748 32.613 27.7803 32.6789 27.3561C32.7037 27.1955 33.3374 23.3398 37.6084 16.3007C42.0171 9.03454 50.1353 8.65064 50.4785 8.63855C50.9115 8.62211 51.2732 8.95733 51.2878 9.38683C51.3025 9.81658 50.9635 10.1766 50.5318 10.1936C50.4437 10.1969 42.9065 10.5799 38.9491 17.0998C34.8651 23.831 34.2326 27.552 34.2268 27.5888C34.1774 27.8982 33.9501 28.1374 33.665 28.2185Z" fill="black"/>
<path d="M35.4948 26.6153C35.0914 26.7301 34.682 26.8233 34.2633 26.8948C33.8526 26.9647 33.4492 26.6524 33.3619 26.1968C33.2745 25.7416 33.5284 25.3158 33.9465 25.2462C43.1807 23.6696 48.7022 9.23238 48.7567 9.08646C48.9133 8.66936 49.3566 8.49023 49.7446 8.68675C50.1342 8.88284 50.3232 9.37934 50.1671 9.79629C49.9414 10.3972 44.7534 23.9815 35.4948 26.6153Z" fill="black"/>
<path d="M35.2347 22.3587C34.9186 22.4486 34.5677 22.3294 34.3781 22.0417C34.1451 21.6877 34.246 21.2111 34.603 20.9781C41.3781 16.5585 48.7935 8.9222 48.8675 8.84558C49.1632 8.53918 49.6523 8.52908 49.9589 8.82257C50.2661 9.11591 50.2746 9.60205 49.9785 9.90827C49.9032 9.98609 42.3662 17.7477 35.4466 22.2618C35.3795 22.3054 35.3084 22.3377 35.2347 22.3587Z" fill="black"/>
<path d="M66.9142 25.2559C66.6586 25.3286 66.3757 25.2845 66.173 25.1158C66.1558 25.1022 64.0389 23.4373 58.4541 22.6929C52.1332 21.8505 49.6835 15.0112 49.5821 14.7204C49.4536 14.3513 49.6845 13.9398 50.0981 13.801C50.507 13.6624 50.9517 13.8482 51.0808 14.2172C51.1033 14.2803 53.3628 20.5584 58.7695 21.2786C64.8645 22.0912 67.1708 23.9557 67.2661 24.0346C67.5769 24.2925 67.584 24.7436 67.2827 25.0422C67.1779 25.1459 67.0497 25.2173 66.9142 25.2559Z" fill="black"/>
<path d="M66.385 23.2411C66.3298 23.2568 66.2718 23.2668 66.2116 23.2698C66.1223 23.2741 63.9572 23.3568 58.5146 21.554C52.8876 19.6895 50.4201 13.7414 50.3177 13.4893C50.1668 13.1167 50.3565 12.6908 50.7415 12.5378C51.1295 12.3875 51.5606 12.5628 51.7116 12.9348C51.7488 13.0259 54.0573 18.5294 59.0173 20.1727C64.1164 21.8618 66.1461 21.8143 66.1663 21.8135C66.5774 21.7995 66.9208 22.1105 66.9311 22.5108C66.9411 22.852 66.7091 23.1489 66.385 23.2411Z" fill="black"/>
<path d="M65.4808 21.333C58.045 23.4483 50.4469 13.1074 50.1225 12.6596C49.879 12.3228 49.9725 11.8537 50.3322 11.6115C50.6907 11.368 51.1809 11.4443 51.4248 11.7812C51.4985 11.8833 58.8983 21.9584 65.3265 19.8154C65.7398 19.6812 66.1832 19.8815 66.3166 20.273C66.4495 20.6645 66.2225 21.0934 65.8088 21.232C65.6998 21.268 65.5903 21.3019 65.4808 21.333Z" fill="black"/>
<path d="M61.7878 14.8051C61.7666 14.8111 61.7447 14.8166 61.7228 14.8209C56.4487 15.8642 50.2811 8.71939 50.021 8.41448C49.7512 8.0987 49.8028 7.62562 50.1359 7.3584C50.4707 7.09205 50.9582 7.1309 51.228 7.44644C52.8397 9.33228 57.8164 14.0698 61.4424 13.3524C61.8642 13.2694 62.2689 13.5305 62.3465 13.9355C62.4194 14.3196 62.1725 14.6957 61.7878 14.8051Z" fill="black"/>
<path d="M61.4835 13.8091C61.1647 13.8997 60.8127 13.7959 60.6183 13.5268C56.6521 8.0393 51.7413 8.39201 51.692 8.39662C51.254 8.43401 50.8785 8.12797 50.8526 7.7125C50.8272 7.29744 51.1605 6.93133 51.5999 6.89299C51.8375 6.87278 57.4706 6.46612 61.9377 12.6458C62.1824 12.9842 62.0852 13.4557 61.721 13.6992C61.646 13.7491 61.566 13.7856 61.4835 13.8091Z" fill="black"/>
<path d="M32.7854 25.2208C32.7683 25.2256 32.751 25.2297 32.7334 25.2337C32.3243 25.3203 31.9249 25.0655 31.8414 24.6642C30.3459 17.5114 30.7164 12.9564 36.89 7.912C42.507 3.32231 48.2935 5.22253 49.3963 5.65017C50.1025 5.92404 50.4481 6.13169 50.4988 6.56942C50.5468 6.97655 50.2483 7.34827 49.8337 7.39844C49.6042 7.42679 49.387 7.35088 49.2311 7.20835C48.3007 6.66388 42.8827 4.93744 37.849 9.05046C32.204 13.663 31.8902 17.4985 33.3227 24.3507C33.4025 24.7342 33.1641 25.113 32.7854 25.2208Z" fill="black"/>
<path d="M65.2406 19.2361C65.2391 19.2365 65.2371 19.2371 65.2359 19.2374C64.8356 19.3484 64.4145 19.0901 64.2951 18.6607C62.7575 13.1297 60.2885 9.3128 56.9566 7.31707C52.9325 4.90642 49.0278 6.03862 48.9899 6.0494C48.5737 6.16781 48.1667 5.92025 48.0388 5.49324C47.9114 5.06609 48.1299 4.62296 48.5271 4.50303C48.718 4.45335 53.0759 3.17807 57.6616 5.92473C61.3663 8.14449 64.0857 12.2945 65.744 18.2592C65.8632 18.687 65.6376 19.1232 65.2406 19.2361Z" fill="black"/>
<path d="M37.2653 33.6901C36.246 33.9801 35.1852 34.153 34.0858 34.2055C33.66 34.226 33.3048 33.9097 33.2928 33.4981C33.2806 33.0869 33.6173 32.7357 34.0415 32.7168C46.4127 32.1195 49.0491 14.7348 49.0743 14.5593C49.1332 14.1505 49.5232 13.8579 49.9444 13.9064C50.3666 13.9541 50.6608 14.3248 50.602 14.7338C50.5749 14.9242 49.9059 19.45 47.5815 24.1279C45.0479 29.2262 41.5211 32.4795 37.2653 33.6901Z" fill="black"/>
<path d="M34.9436 31.1027C34.4053 31.2558 33.8663 31.3629 33.3262 31.4242C32.9206 31.4706 32.5498 31.1683 32.4977 30.7498C32.4459 30.3313 32.7321 29.9525 33.1382 29.909C37.9869 29.357 42.8975 24.4907 47.7263 15.4416C48.1889 14.5747 48.2601 14.4416 48.4571 14.3059C48.7941 14.0744 49.2558 14.171 49.4865 14.5224C49.6838 14.8215 49.6505 15.2095 49.4276 15.4607C49.3612 15.5681 49.1914 15.8859 49.0274 16.1935C44.4702 24.7337 39.7395 29.7381 34.9436 31.1027Z" fill="black"/>
<path d="M65.9421 25.5324C65.8938 25.5462 65.8426 25.5559 65.7905 25.5603C57.7009 26.2694 51.4667 17.6584 49.7482 15.0022L49.684 14.9038C49.4406 14.5916 49.5261 14.1534 49.865 13.9123C50.2035 13.6726 50.6846 13.7397 50.928 14.0518C50.9413 14.0686 50.982 14.1276 51.0457 14.2261C52.6536 16.7118 58.4622 24.7722 65.7032 24.1376C66.1199 24.1009 66.4776 24.3898 66.5015 24.7829C66.5226 25.1269 66.2816 25.4358 65.9421 25.5324Z" fill="black"/>
</svg>
