<svg width="215" height="43" viewBox="0 0 165 33" fill="none" xmlns="http://www.w3.org/2000/svg">
<path d="M20.742 5.148V18H23.568V12.456H28.77V18H31.596V5.148H28.77V10.08H23.568V5.148H20.742ZM34.0838 5.148V18H36.7298V9.396H36.7658L42.1118 18H44.9378V5.148H42.2918V13.77H42.2558L36.8918 5.148H34.0838ZM56.7136 16.542L57.0016 18H58.8016V11.052H53.4016V13.158H56.2456C56.1616 14.058 55.8616 14.748 55.3456 15.228C54.8416 15.696 54.1216 15.93 53.1856 15.93C52.5496 15.93 52.0096 15.81 51.5656 15.57C51.1216 15.318 50.7616 14.988 50.4856 14.58C50.2096 14.172 50.0056 13.716 49.8736 13.212C49.7536 12.696 49.6936 12.168 49.6936 11.628C49.6936 11.064 49.7536 10.518 49.8736 9.99C50.0056 9.462 50.2096 8.994 50.4856 8.586C50.7616 8.166 51.1216 7.836 51.5656 7.596C52.0096 7.344 52.5496 7.218 53.1856 7.218C53.8696 7.218 54.4516 7.398 54.9316 7.758C55.4116 8.118 55.7356 8.658 55.9036 9.378H58.6036C58.5316 8.646 58.3336 7.998 58.0096 7.434C57.6856 6.87 57.2716 6.396 56.7676 6.012C56.2756 5.628 55.7176 5.34 55.0936 5.148C54.4816 4.944 53.8456 4.842 53.1856 4.842C52.2016 4.842 51.3136 5.016 50.5216 5.364C49.7416 5.712 49.0816 6.192 48.5416 6.804C48.0016 7.416 47.5876 8.136 47.2996 8.964C47.0116 9.78 46.8676 10.668 46.8676 11.628C46.8676 12.564 47.0116 13.44 47.2996 14.256C47.5876 15.06 48.0016 15.762 48.5416 16.362C49.0816 16.962 49.7416 17.436 50.5216 17.784C51.3136 18.12 52.2016 18.288 53.1856 18.288C53.8096 18.288 54.4276 18.162 55.0396 17.91C55.6516 17.646 56.2096 17.19 56.7136 16.542ZM66.0936 5.148V18H68.9196V5.148H66.0936ZM71.1322 8.694V18H73.6882V13.122C73.6882 12.174 73.8442 11.496 74.1562 11.088C74.4682 10.668 74.9722 10.458 75.6682 10.458C76.2802 10.458 76.7062 10.65 76.9462 11.034C77.1862 11.406 77.3062 11.976 77.3062 12.744V18H79.8622V12.276C79.8622 11.7 79.8082 11.178 79.7002 10.71C79.6042 10.23 79.4302 9.828 79.1782 9.504C78.9262 9.168 78.5782 8.91 78.1342 8.73C77.7022 8.538 77.1442 8.442 76.4602 8.442C75.9202 8.442 75.3922 8.568 74.8762 8.82C74.3602 9.06 73.9402 9.45 73.6162 9.99H73.5622V8.694H71.1322ZM85.0421 8.694V5.904H82.4861V8.694H80.9381V10.404H82.4861V15.894C82.4861 16.362 82.5641 16.74 82.7201 17.028C82.8761 17.316 83.0861 17.538 83.3501 17.694C83.6261 17.85 83.9381 17.952 84.2861 18C84.6461 18.06 85.0241 18.09 85.4201 18.09C85.6721 18.09 85.9301 18.084 86.1941 18.072C86.4581 18.06 86.6981 18.036 86.9141 18V16.02C86.7941 16.044 86.6681 16.062 86.5361 16.074C86.4041 16.086 86.2661 16.092 86.1221 16.092C85.6901 16.092 85.4021 16.02 85.2581 15.876C85.1141 15.732 85.0421 15.444 85.0421 15.012V10.404H86.9141V8.694H85.0421ZM94.3942 12.348H90.2362C90.2482 12.168 90.2842 11.964 90.3442 11.736C90.4162 11.508 90.5302 11.292 90.6862 11.088C90.8542 10.884 91.0702 10.716 91.3342 10.584C91.6102 10.44 91.9522 10.368 92.3602 10.368C92.9842 10.368 93.4462 10.536 93.7462 10.872C94.0582 11.208 94.2742 11.7 94.3942 12.348ZM90.2362 13.968H96.9502C96.9982 13.248 96.9382 12.558 96.7702 11.898C96.6022 11.238 96.3262 10.65 95.9422 10.134C95.5702 9.618 95.0902 9.21 94.5022 8.91C93.9142 8.598 93.2242 8.442 92.4322 8.442C91.7242 8.442 91.0762 8.568 90.4882 8.82C89.9122 9.072 89.4142 9.42 88.9942 9.864C88.5742 10.296 88.2502 10.812 88.0222 11.412C87.7942 12.012 87.6802 12.66 87.6802 13.356C87.6802 14.076 87.7882 14.736 88.0042 15.336C88.2322 15.936 88.5502 16.452 88.9582 16.884C89.3662 17.316 89.8642 17.652 90.4522 17.892C91.0402 18.12 91.7002 18.234 92.4322 18.234C93.4882 18.234 94.3882 17.994 95.1322 17.514C95.8762 17.034 96.4282 16.236 96.7882 15.12H94.5382C94.4542 15.408 94.2262 15.684 93.8542 15.948C93.4822 16.2 93.0382 16.326 92.5222 16.326C91.8022 16.326 91.2502 16.14 90.8662 15.768C90.4822 15.396 90.2722 14.796 90.2362 13.968ZM98.4661 8.694V18H101.022V13.806C101.022 13.386 101.064 12.996 101.148 12.636C101.232 12.276 101.37 11.964 101.562 11.7C101.766 11.424 102.03 11.208 102.354 11.052C102.678 10.896 103.074 10.818 103.542 10.818C103.698 10.818 103.86 10.83 104.028 10.854C104.196 10.866 104.34 10.884 104.46 10.908V8.532C104.256 8.472 104.07 8.442 103.902 8.442C103.578 8.442 103.266 8.49 102.966 8.586C102.666 8.682 102.384 8.82 102.12 9C101.856 9.168 101.622 9.378 101.418 9.63C101.214 9.87 101.052 10.134 100.932 10.422H100.896V8.694H98.4661ZM105.779 8.694V18H108.335V13.122C108.335 12.174 108.491 11.496 108.803 11.088C109.115 10.668 109.619 10.458 110.315 10.458C110.927 10.458 111.353 10.65 111.593 11.034C111.833 11.406 111.953 11.976 111.953 12.744V18H114.509V12.276C114.509 11.7 114.455 11.178 114.347 10.71C114.251 10.23 114.077 9.828 113.825 9.504C113.573 9.168 113.225 8.91 112.781 8.73C112.349 8.538 111.791 8.442 111.107 8.442C110.567 8.442 110.039 8.568 109.523 8.82C109.007 9.06 108.587 9.45 108.263 9.99H108.209V8.694H105.779ZM118.429 14.976H115.999C116.023 15.6 116.161 16.122 116.413 16.542C116.677 16.95 117.007 17.28 117.403 17.532C117.811 17.784 118.273 17.964 118.789 18.072C119.305 18.18 119.833 18.234 120.373 18.234C120.901 18.234 121.417 18.18 121.921 18.072C122.437 17.976 122.893 17.802 123.289 17.55C123.685 17.298 124.003 16.968 124.243 16.56C124.495 16.14 124.621 15.624 124.621 15.012C124.621 14.58 124.537 14.22 124.369 13.932C124.201 13.632 123.979 13.386 123.703 13.194C123.427 12.99 123.109 12.828 122.749 12.708C122.401 12.588 122.041 12.486 121.669 12.402C121.309 12.318 120.955 12.24 120.607 12.168C120.259 12.096 119.947 12.018 119.671 11.934C119.407 11.838 119.191 11.718 119.023 11.574C118.855 11.43 118.771 11.244 118.771 11.016C118.771 10.824 118.819 10.674 118.915 10.566C119.011 10.446 119.125 10.356 119.257 10.296C119.401 10.236 119.557 10.2 119.725 10.188C119.893 10.164 120.049 10.152 120.193 10.152C120.649 10.152 121.045 10.242 121.381 10.422C121.717 10.59 121.903 10.92 121.939 11.412H124.369C124.321 10.836 124.171 10.362 123.919 9.99C123.679 9.606 123.373 9.3 123.001 9.072C122.629 8.844 122.203 8.682 121.723 8.586C121.255 8.49 120.769 8.442 120.265 8.442C119.761 8.442 119.269 8.49 118.789 8.586C118.309 8.67 117.877 8.826 117.493 9.054C117.109 9.27 116.797 9.57 116.557 9.954C116.329 10.338 116.215 10.83 116.215 11.43C116.215 11.838 116.299 12.186 116.467 12.474C116.635 12.75 116.857 12.984 117.133 13.176C117.409 13.356 117.721 13.506 118.069 13.626C118.429 13.734 118.795 13.83 119.167 13.914C120.079 14.106 120.787 14.298 121.291 14.49C121.807 14.682 122.065 14.97 122.065 15.354C122.065 15.582 122.011 15.774 121.903 15.93C121.795 16.074 121.657 16.194 121.489 16.29C121.333 16.374 121.153 16.44 120.949 16.488C120.757 16.524 120.571 16.542 120.391 16.542C120.139 16.542 119.893 16.512 119.653 16.452C119.425 16.392 119.221 16.302 119.041 16.182C118.861 16.05 118.711 15.888 118.591 15.696C118.483 15.492 118.429 15.252 118.429 14.976ZM126.117 5.148V18H128.673V13.122C128.673 12.174 128.829 11.496 129.141 11.088C129.453 10.668 129.957 10.458 130.653 10.458C131.265 10.458 131.691 10.65 131.931 11.034C132.171 11.406 132.291 11.976 132.291 12.744V18H134.847V12.276C134.847 11.7 134.793 11.178 134.685 10.71C134.589 10.23 134.415 9.828 134.163 9.504C133.911 9.168 133.563 8.91 133.119 8.73C132.687 8.538 132.129 8.442 131.445 8.442C130.965 8.442 130.473 8.568 129.969 8.82C129.465 9.06 129.051 9.45 128.727 9.99H128.673V5.148H126.117ZM139.414 7.254V5.148H136.858V7.254H139.414ZM136.858 8.694V18H139.414V8.694H136.858ZM146.125 16.326C145.717 16.326 145.369 16.242 145.081 16.074C144.793 15.906 144.559 15.69 144.379 15.426C144.211 15.15 144.085 14.832 144.001 14.472C143.929 14.112 143.893 13.746 143.893 13.374C143.893 12.99 143.929 12.618 144.001 12.258C144.073 11.898 144.193 11.58 144.361 11.304C144.541 11.028 144.769 10.806 145.045 10.638C145.333 10.458 145.687 10.368 146.107 10.368C146.515 10.368 146.857 10.458 147.133 10.638C147.421 10.806 147.655 11.034 147.835 11.322C148.015 11.598 148.141 11.916 148.213 12.276C148.297 12.636 148.339 13.002 148.339 13.374C148.339 13.746 148.303 14.112 148.231 14.472C148.159 14.832 148.033 15.15 147.853 15.426C147.685 15.69 147.457 15.906 147.169 16.074C146.893 16.242 146.545 16.326 146.125 16.326ZM141.427 8.694V21.258H143.983V16.848H144.019C144.331 17.304 144.727 17.652 145.207 17.892C145.699 18.12 146.233 18.234 146.809 18.234C147.493 18.234 148.087 18.102 148.591 17.838C149.107 17.574 149.533 17.22 149.869 16.776C150.217 16.332 150.475 15.822 150.643 15.246C150.811 14.67 150.895 14.07 150.895 13.446C150.895 12.786 150.811 12.156 150.643 11.556C150.475 10.944 150.217 10.41 149.869 9.954C149.521 9.498 149.083 9.132 148.555 8.856C148.027 8.58 147.397 8.442 146.665 8.442C146.089 8.442 145.561 8.556 145.081 8.784C144.601 9.012 144.205 9.378 143.893 9.882H143.857V8.694H141.427Z" fill="#333333"/>
<path d="M25.14 27.008H25.9C25.8573 26.704 25.7667 26.4373 25.628 26.208C25.4893 25.9733 25.316 25.7787 25.108 25.624C24.9 25.4693 24.6627 25.352 24.396 25.272C24.1293 25.192 23.8467 25.152 23.548 25.152C23.1107 25.152 22.7213 25.232 22.38 25.392C22.044 25.5467 21.7613 25.76 21.532 26.032C21.308 26.304 21.1373 26.624 21.02 26.992C20.9027 27.3547 20.844 27.744 20.844 28.16C20.844 28.576 20.8973 28.9653 21.004 29.328C21.116 29.6907 21.2813 30.0053 21.5 30.272C21.7187 30.5387 21.9933 30.7493 22.324 30.904C22.6547 31.0533 23.0413 31.128 23.484 31.128C24.2147 31.128 24.7907 30.928 25.212 30.528C25.6333 30.128 25.8813 29.568 25.956 28.848H25.196C25.18 29.0827 25.132 29.3013 25.052 29.504C24.972 29.7067 24.86 29.8827 24.716 30.032C24.5773 30.176 24.4093 30.2907 24.212 30.376C24.02 30.456 23.7987 30.496 23.548 30.496C23.2067 30.496 22.9133 30.432 22.668 30.304C22.4227 30.176 22.22 30.0053 22.06 29.792C21.9053 29.5733 21.7907 29.32 21.716 29.032C21.6413 28.7387 21.604 28.4293 21.604 28.104C21.604 27.8053 21.6413 27.5173 21.716 27.24C21.7907 26.9627 21.9053 26.7173 22.06 26.504C22.22 26.2853 22.42 26.112 22.66 25.984C22.9053 25.856 23.1987 25.792 23.54 25.792C23.94 25.792 24.284 25.8933 24.572 26.096C24.8653 26.2987 25.0547 26.6027 25.14 27.008ZM26.7854 25.288V31H27.4654V28.664C27.4654 28.4773 27.4894 28.3067 27.5374 28.152C27.5908 27.992 27.6681 27.8533 27.7694 27.736C27.8708 27.6187 27.9961 27.528 28.1454 27.464C28.3001 27.4 28.4814 27.368 28.6894 27.368C28.9508 27.368 29.1561 27.4427 29.3054 27.592C29.4548 27.7413 29.5294 27.944 29.5294 28.2V31H30.2094V28.28C30.2094 28.056 30.1854 27.8533 30.1374 27.672C30.0948 27.4853 30.0174 27.3253 29.9054 27.192C29.7934 27.0587 29.6468 26.9547 29.4654 26.88C29.2841 26.8053 29.0574 26.768 28.7854 26.768C28.6628 26.768 28.5348 26.7813 28.4014 26.808C28.2734 26.8347 28.1481 26.8773 28.0254 26.936C27.9081 26.9893 27.8014 27.0613 27.7054 27.152C27.6094 27.2373 27.5348 27.344 27.4814 27.472H27.4654V25.288H26.7854ZM34.8948 30.984C34.7774 31.0533 34.6148 31.088 34.4068 31.088C34.2308 31.088 34.0894 31.04 33.9828 30.944C33.8814 30.8427 33.8308 30.68 33.8308 30.456C33.6441 30.68 33.4254 30.8427 33.1748 30.944C32.9294 31.04 32.6628 31.088 32.3748 31.088C32.1881 31.088 32.0094 31.0667 31.8388 31.024C31.6734 30.9813 31.5294 30.9147 31.4068 30.824C31.2841 30.7333 31.1854 30.616 31.1108 30.472C31.0414 30.3227 31.0068 30.144 31.0068 29.936C31.0068 29.7013 31.0468 29.5093 31.1268 29.36C31.2068 29.2107 31.3108 29.0907 31.4388 29C31.5721 28.904 31.7214 28.832 31.8868 28.784C32.0574 28.736 32.2308 28.696 32.4068 28.664C32.5934 28.6267 32.7694 28.6 32.9348 28.584C33.1054 28.5627 33.2548 28.536 33.3828 28.504C33.5108 28.4667 33.6121 28.416 33.6868 28.352C33.7614 28.2827 33.7988 28.184 33.7988 28.056C33.7988 27.9067 33.7694 27.7867 33.7108 27.696C33.6574 27.6053 33.5854 27.536 33.4948 27.488C33.4094 27.44 33.3108 27.408 33.1988 27.392C33.0921 27.376 32.9854 27.368 32.8788 27.368C32.5908 27.368 32.3508 27.424 32.1588 27.536C31.9668 27.6427 31.8628 27.848 31.8468 28.152H31.1668C31.1774 27.896 31.2308 27.68 31.3268 27.504C31.4228 27.328 31.5508 27.1867 31.7108 27.08C31.8708 26.968 32.0521 26.888 32.2548 26.84C32.4628 26.792 32.6841 26.768 32.9188 26.768C33.1054 26.768 33.2894 26.7813 33.4708 26.808C33.6574 26.8347 33.8254 26.8907 33.9748 26.976C34.1241 27.056 34.2441 27.1707 34.3348 27.32C34.4254 27.4693 34.4708 27.664 34.4708 27.904V30.032C34.4708 30.192 34.4788 30.3093 34.4948 30.384C34.5161 30.4587 34.5801 30.496 34.6868 30.496C34.7454 30.496 34.8148 30.4827 34.8948 30.456V30.984ZM33.7908 28.864C33.7054 28.928 33.5934 28.976 33.4548 29.008C33.3161 29.0347 33.1694 29.0587 33.0148 29.08C32.8654 29.096 32.7134 29.1173 32.5588 29.144C32.4041 29.1653 32.2654 29.2027 32.1428 29.256C32.0201 29.3093 31.9188 29.3867 31.8388 29.488C31.7641 29.584 31.7268 29.7173 31.7268 29.888C31.7268 30 31.7481 30.096 31.7908 30.176C31.8388 30.2507 31.8974 30.312 31.9668 30.36C32.0414 30.408 32.1268 30.4427 32.2228 30.464C32.3188 30.4853 32.4201 30.496 32.5268 30.496C32.7508 30.496 32.9428 30.4667 33.1028 30.408C33.2628 30.344 33.3934 30.2667 33.4948 30.176C33.5961 30.08 33.6708 29.9787 33.7188 29.872C33.7668 29.76 33.7908 29.656 33.7908 29.56V28.864ZM35.5276 26.864V31H36.2076V28.664C36.2076 28.4773 36.2316 28.3067 36.2796 28.152C36.333 27.992 36.4103 27.8533 36.5116 27.736C36.613 27.6187 36.7383 27.528 36.8876 27.464C37.0423 27.4 37.2236 27.368 37.4316 27.368C37.693 27.368 37.8983 27.4427 38.0476 27.592C38.197 27.7413 38.2716 27.944 38.2716 28.2V31H38.9516V28.28C38.9516 28.056 38.9276 27.8533 38.8796 27.672C38.837 27.4853 38.7596 27.3253 38.6476 27.192C38.5356 27.0587 38.389 26.9547 38.2076 26.88C38.0263 26.8053 37.7996 26.768 37.5276 26.768C36.9143 26.768 36.4663 27.0187 36.1836 27.52H36.1676V26.864H35.5276ZM43.5409 30.648V26.864H42.9009V27.456H42.8929C42.7703 27.2267 42.5996 27.056 42.3809 26.944C42.1623 26.8267 41.9223 26.768 41.6609 26.768C41.3036 26.768 41.0023 26.8373 40.7569 26.976C40.5116 27.1093 40.3143 27.2827 40.1649 27.496C40.0156 27.704 39.9089 27.9387 39.8449 28.2C39.7809 28.456 39.7489 28.7067 39.7489 28.952C39.7489 29.2347 39.7863 29.504 39.8609 29.76C39.9409 30.0107 40.0583 30.232 40.2129 30.424C40.3676 30.6107 40.5596 30.76 40.7889 30.872C41.0183 30.984 41.2876 31.04 41.5969 31.04C41.8636 31.04 42.1143 30.9813 42.3489 30.864C42.5889 30.7413 42.7676 30.552 42.8849 30.296H42.9009V30.568C42.9009 30.7973 42.8769 31.008 42.8289 31.2C42.7863 31.392 42.7143 31.5547 42.6129 31.688C42.5116 31.8267 42.3836 31.9333 42.2289 32.008C42.0743 32.088 41.8849 32.128 41.6609 32.128C41.5489 32.128 41.4316 32.1147 41.3089 32.088C41.1863 32.0667 41.0716 32.0293 40.9649 31.976C40.8636 31.9227 40.7756 31.8533 40.7009 31.768C40.6316 31.6827 40.5943 31.5787 40.5889 31.456H39.9089C39.9196 31.68 39.9783 31.8693 40.0849 32.024C40.1916 32.1787 40.3249 32.304 40.4849 32.4C40.6503 32.496 40.8316 32.5653 41.0289 32.608C41.2316 32.6507 41.4289 32.672 41.6209 32.672C42.2823 32.672 42.7676 32.504 43.0769 32.168C43.3863 31.832 43.5409 31.3253 43.5409 30.648ZM41.6369 30.448C41.4129 30.448 41.2263 30.4027 41.0769 30.312C40.9276 30.216 40.8076 30.0933 40.7169 29.944C40.6263 29.7893 40.5623 29.6187 40.5249 29.432C40.4876 29.2453 40.4689 29.0587 40.4689 28.872C40.4689 28.6747 40.4903 28.4853 40.5329 28.304C40.5809 28.1227 40.6529 27.9627 40.7489 27.824C40.8503 27.6853 40.9783 27.576 41.1329 27.496C41.2876 27.4107 41.4743 27.368 41.6929 27.368C41.9063 27.368 42.0876 27.4107 42.2369 27.496C42.3863 27.5813 42.5063 27.696 42.5969 27.84C42.6929 27.9787 42.7623 28.136 42.8049 28.312C42.8476 28.488 42.8689 28.6667 42.8689 28.848C42.8689 29.04 42.8449 29.232 42.7969 29.424C42.7543 29.616 42.6849 29.7893 42.5889 29.944C42.4929 30.0933 42.3649 30.216 42.2049 30.312C42.0503 30.4027 41.8609 30.448 41.6369 30.448ZM45.2867 26.12V25.288H44.6067V26.12H45.2867ZM44.6067 26.864V31H45.2867V26.864H44.6067ZM46.3401 26.864V31H47.0201V28.664C47.0201 28.4773 47.0441 28.3067 47.0921 28.152C47.1455 27.992 47.2228 27.8533 47.3241 27.736C47.4255 27.6187 47.5508 27.528 47.7001 27.464C47.8548 27.4 48.0361 27.368 48.2441 27.368C48.5055 27.368 48.7108 27.4427 48.8601 27.592C49.0095 27.7413 49.0841 27.944 49.0841 28.2V31H49.7641V28.28C49.7641 28.056 49.7401 27.8533 49.6921 27.672C49.6495 27.4853 49.5721 27.3253 49.4601 27.192C49.3481 27.0587 49.2015 26.9547 49.0201 26.88C48.8388 26.8053 48.6121 26.768 48.3401 26.768C47.7268 26.768 47.2788 27.0187 46.9961 27.52H46.9801V26.864H46.3401ZM54.3534 30.648V26.864H53.7134V27.456H53.7054C53.5828 27.2267 53.4121 27.056 53.1934 26.944C52.9748 26.8267 52.7348 26.768 52.4734 26.768C52.1161 26.768 51.8148 26.8373 51.5694 26.976C51.3241 27.1093 51.1268 27.2827 50.9774 27.496C50.8281 27.704 50.7214 27.9387 50.6574 28.2C50.5934 28.456 50.5614 28.7067 50.5614 28.952C50.5614 29.2347 50.5988 29.504 50.6734 29.76C50.7534 30.0107 50.8708 30.232 51.0254 30.424C51.1801 30.6107 51.3721 30.76 51.6014 30.872C51.8308 30.984 52.1001 31.04 52.4094 31.04C52.6761 31.04 52.9268 30.9813 53.1614 30.864C53.4014 30.7413 53.5801 30.552 53.6974 30.296H53.7134V30.568C53.7134 30.7973 53.6894 31.008 53.6414 31.2C53.5988 31.392 53.5268 31.5547 53.4254 31.688C53.3241 31.8267 53.1961 31.9333 53.0414 32.008C52.8868 32.088 52.6974 32.128 52.4734 32.128C52.3614 32.128 52.2441 32.1147 52.1214 32.088C51.9988 32.0667 51.8841 32.0293 51.7774 31.976C51.6761 31.9227 51.5881 31.8533 51.5134 31.768C51.4441 31.6827 51.4068 31.5787 51.4014 31.456H50.7214C50.7321 31.68 50.7908 31.8693 50.8974 32.024C51.0041 32.1787 51.1374 32.304 51.2974 32.4C51.4628 32.496 51.6441 32.5653 51.8414 32.608C52.0441 32.6507 52.2414 32.672 52.4334 32.672C53.0948 32.672 53.5801 32.504 53.8894 32.168C54.1988 31.832 54.3534 31.3253 54.3534 30.648ZM52.4494 30.448C52.2254 30.448 52.0388 30.4027 51.8894 30.312C51.7401 30.216 51.6201 30.0933 51.5294 29.944C51.4388 29.7893 51.3748 29.6187 51.3374 29.432C51.3001 29.2453 51.2814 29.0587 51.2814 28.872C51.2814 28.6747 51.3028 28.4853 51.3454 28.304C51.3934 28.1227 51.4654 27.9627 51.5614 27.824C51.6628 27.6853 51.7908 27.576 51.9454 27.496C52.1001 27.4107 52.2868 27.368 52.5054 27.368C52.7188 27.368 52.9001 27.4107 53.0494 27.496C53.1988 27.5813 53.3188 27.696 53.4094 27.84C53.5054 27.9787 53.5748 28.136 53.6174 28.312C53.6601 28.488 53.6814 28.6667 53.6814 28.848C53.6814 29.04 53.6574 29.232 53.6094 29.424C53.5668 29.616 53.4974 29.7893 53.4014 29.944C53.3054 30.0933 53.1774 30.216 53.0174 30.312C52.8628 30.4027 52.6734 30.448 52.4494 30.448ZM58.5498 26.864V25.624H57.8698V26.864H57.1658V27.464H57.8698V30.096C57.8698 30.288 57.8884 30.4427 57.9258 30.56C57.9631 30.6773 58.0191 30.768 58.0938 30.832C58.1738 30.896 58.2751 30.9413 58.3978 30.968C58.5258 30.9893 58.6778 31 58.8538 31H59.3738V30.4H59.0618C58.9551 30.4 58.8671 30.3973 58.7978 30.392C58.7338 30.3813 58.6831 30.3627 58.6458 30.336C58.6084 30.3093 58.5818 30.272 58.5658 30.224C58.5551 30.176 58.5498 30.112 58.5498 30.032V27.464H59.3738V26.864H58.5498ZM60.1292 25.288V31H60.8092V28.664C60.8092 28.4773 60.8332 28.3067 60.8812 28.152C60.9345 27.992 61.0119 27.8533 61.1132 27.736C61.2145 27.6187 61.3399 27.528 61.4892 27.464C61.6439 27.4 61.8252 27.368 62.0332 27.368C62.2945 27.368 62.4999 27.4427 62.6492 27.592C62.7985 27.7413 62.8732 27.944 62.8732 28.2V31H63.5532V28.28C63.5532 28.056 63.5292 27.8533 63.4812 27.672C63.4385 27.4853 63.3612 27.3253 63.2492 27.192C63.1372 27.0587 62.9905 26.9547 62.8092 26.88C62.6279 26.8053 62.4012 26.768 62.1292 26.768C62.0065 26.768 61.8785 26.7813 61.7452 26.808C61.6172 26.8347 61.4919 26.8773 61.3692 26.936C61.2519 26.9893 61.1452 27.0613 61.0492 27.152C60.9532 27.2373 60.8785 27.344 60.8252 27.472H60.8092V25.288H60.1292ZM67.4465 28.536H65.0705C65.0812 28.376 65.1158 28.2267 65.1745 28.088C65.2332 27.944 65.3132 27.8187 65.4145 27.712C65.5158 27.6053 65.6358 27.5227 65.7745 27.464C65.9185 27.4 66.0785 27.368 66.2545 27.368C66.4252 27.368 66.5798 27.4 66.7185 27.464C66.8625 27.5227 66.9852 27.6053 67.0865 27.712C67.1932 27.8133 67.2758 27.936 67.3345 28.08C67.3985 28.224 67.4358 28.376 67.4465 28.536ZM68.1025 29.688H67.4305C67.3718 29.96 67.2492 30.1627 67.0625 30.296C66.8812 30.4293 66.6465 30.496 66.3585 30.496C66.1345 30.496 65.9398 30.4587 65.7745 30.384C65.6092 30.3093 65.4732 30.2107 65.3665 30.088C65.2598 29.96 65.1825 29.816 65.1345 29.656C65.0865 29.4907 65.0652 29.3173 65.0705 29.136H68.1665C68.1772 28.8853 68.1532 28.6213 68.0945 28.344C68.0412 28.0667 67.9398 27.8107 67.7905 27.576C67.6465 27.3413 67.4518 27.1493 67.2065 27C66.9665 26.8453 66.6625 26.768 66.2945 26.768C66.0118 26.768 65.7505 26.8213 65.5105 26.928C65.2758 27.0347 65.0705 27.184 64.8945 27.376C64.7238 27.568 64.5905 27.7947 64.4945 28.056C64.3985 28.3173 64.3505 28.6053 64.3505 28.92C64.3612 29.2347 64.4065 29.5253 64.4865 29.792C64.5718 30.0587 64.6972 30.288 64.8625 30.48C65.0278 30.672 65.2305 30.8213 65.4705 30.928C65.7158 31.0347 66.0038 31.088 66.3345 31.088C66.8038 31.088 67.1932 30.9707 67.5025 30.736C67.8118 30.5013 68.0118 30.152 68.1025 29.688ZM75.1939 31L76.5139 26.864H75.8099L74.8819 30.248H74.8659L74.0019 26.864H73.2579L72.4259 30.248H72.4099L71.4739 26.864H70.7219L72.0499 31H72.7859L73.6179 27.712H73.6339L74.4739 31H75.1939ZM77.6564 28.936C77.6564 28.6853 77.6884 28.464 77.7524 28.272C77.8218 28.0747 77.9151 27.9093 78.0324 27.776C78.1498 27.6427 78.2858 27.5413 78.4404 27.472C78.6004 27.4027 78.7684 27.368 78.9444 27.368C79.1204 27.368 79.2858 27.4027 79.4404 27.472C79.6004 27.5413 79.7391 27.6427 79.8564 27.776C79.9738 27.9093 80.0644 28.0747 80.1284 28.272C80.1978 28.464 80.2324 28.6853 80.2324 28.936C80.2324 29.1867 80.1978 29.4107 80.1284 29.608C80.0644 29.8 79.9738 29.9627 79.8564 30.096C79.7391 30.224 79.6004 30.3227 79.4404 30.392C79.2858 30.4613 79.1204 30.496 78.9444 30.496C78.7684 30.496 78.6004 30.4613 78.4404 30.392C78.2858 30.3227 78.1498 30.224 78.0324 30.096C77.9151 29.9627 77.8218 29.8 77.7524 29.608C77.6884 29.4107 77.6564 29.1867 77.6564 28.936ZM76.9364 28.936C76.9364 29.24 76.9791 29.5227 77.0644 29.784C77.1498 30.0453 77.2778 30.2747 77.4484 30.472C77.6191 30.664 77.8298 30.816 78.0804 30.928C78.3311 31.0347 78.6191 31.088 78.9444 31.088C79.2751 31.088 79.5631 31.0347 79.8084 30.928C80.0591 30.816 80.2698 30.664 80.4404 30.472C80.6111 30.2747 80.7391 30.0453 80.8244 29.784C80.9098 29.5227 80.9524 29.24 80.9524 28.936C80.9524 28.632 80.9098 28.3493 80.8244 28.088C80.7391 27.8213 80.6111 27.592 80.4404 27.4C80.2698 27.2027 80.0591 27.048 79.8084 26.936C79.5631 26.824 79.2751 26.768 78.9444 26.768C78.6191 26.768 78.3311 26.824 78.0804 26.936C77.8298 27.048 77.6191 27.2027 77.4484 27.4C77.2778 27.592 77.1498 27.8213 77.0644 28.088C76.9791 28.3493 76.9364 28.632 76.9364 28.936ZM81.7302 26.864V31H82.4102V29.16C82.4102 28.8933 82.4369 28.6587 82.4902 28.456C82.5435 28.248 82.6289 28.072 82.7462 27.928C82.8635 27.784 83.0182 27.6747 83.2102 27.6C83.4022 27.5253 83.6342 27.488 83.9062 27.488V26.768C83.5382 26.7573 83.2342 26.832 82.9942 26.992C82.7542 27.152 82.5515 27.4 82.3862 27.736H82.3702V26.864H81.7302ZM84.4583 25.288V31H85.1383V25.288H84.4583ZM86.6877 28.968C86.6877 28.7653 86.709 28.568 86.7517 28.376C86.7944 28.184 86.8637 28.0133 86.9597 27.864C87.0557 27.7147 87.1837 27.5947 87.3437 27.504C87.5037 27.4133 87.6984 27.368 87.9277 27.368C88.1624 27.368 88.3624 27.4133 88.5277 27.504C88.693 27.5893 88.8264 27.704 88.9277 27.848C89.0344 27.992 89.1117 28.16 89.1597 28.352C89.2077 28.5387 89.2317 28.7333 89.2317 28.936C89.2317 29.128 89.2077 29.3173 89.1597 29.504C89.117 29.6907 89.045 29.8587 88.9437 30.008C88.8424 30.152 88.7117 30.2693 88.5517 30.36C88.3917 30.4507 88.197 30.496 87.9677 30.496C87.749 30.496 87.557 30.4533 87.3917 30.368C87.2317 30.2827 87.0984 30.168 86.9917 30.024C86.8904 29.88 86.813 29.7173 86.7597 29.536C86.7117 29.3493 86.6877 29.16 86.6877 28.968ZM89.8877 31V25.288H89.2077V27.416H89.1917C89.117 27.2933 89.0237 27.192 88.9117 27.112C88.805 27.0267 88.6904 26.96 88.5677 26.912C88.445 26.8587 88.3224 26.8213 88.1997 26.8C88.077 26.7787 87.9624 26.768 87.8557 26.768C87.541 26.768 87.2637 26.8267 87.0237 26.944C86.789 27.056 86.5917 27.2107 86.4317 27.408C86.277 27.6 86.1597 27.8267 86.0797 28.088C86.005 28.3493 85.9677 28.6267 85.9677 28.92C85.9677 29.2133 86.0077 29.4907 86.0877 29.752C86.1677 30.0133 86.285 30.2427 86.4397 30.44C86.5997 30.6373 86.797 30.7947 87.0317 30.912C87.2717 31.0293 87.5517 31.088 87.8717 31.088C88.1597 31.088 88.4237 31.0373 88.6637 30.936C88.9037 30.8347 89.0797 30.6693 89.1917 30.44H89.2077V31H89.8877ZM91.0859 30.112V31H91.5579C91.5632 31.064 91.5579 31.1333 91.5419 31.208C91.5312 31.2827 91.5072 31.3547 91.4699 31.424C91.4325 31.4987 91.3819 31.5653 91.3179 31.624C91.2592 31.688 91.1845 31.736 91.0939 31.768V32.168C91.4032 32.0773 91.6272 31.9227 91.7659 31.704C91.9045 31.4853 91.9739 31.224 91.9739 30.92V30.112H91.0859ZM95.883 28.936C95.883 28.6853 95.915 28.464 95.979 28.272C96.0483 28.0747 96.1417 27.9093 96.259 27.776C96.3763 27.6427 96.5123 27.5413 96.667 27.472C96.827 27.4027 96.995 27.368 97.171 27.368C97.347 27.368 97.5123 27.4027 97.667 27.472C97.827 27.5413 97.9657 27.6427 98.083 27.776C98.2003 27.9093 98.291 28.0747 98.355 28.272C98.4243 28.464 98.459 28.6853 98.459 28.936C98.459 29.1867 98.4243 29.4107 98.355 29.608C98.291 29.8 98.2003 29.9627 98.083 30.096C97.9657 30.224 97.827 30.3227 97.667 30.392C97.5123 30.4613 97.347 30.496 97.171 30.496C96.995 30.496 96.827 30.4613 96.667 30.392C96.5123 30.3227 96.3763 30.224 96.259 30.096C96.1417 29.9627 96.0483 29.8 95.979 29.608C95.915 29.4107 95.883 29.1867 95.883 28.936ZM95.163 28.936C95.163 29.24 95.2057 29.5227 95.291 29.784C95.3763 30.0453 95.5043 30.2747 95.675 30.472C95.8457 30.664 96.0563 30.816 96.307 30.928C96.5577 31.0347 96.8457 31.088 97.171 31.088C97.5017 31.088 97.7897 31.0347 98.035 30.928C98.2857 30.816 98.4963 30.664 98.667 30.472C98.8377 30.2747 98.9657 30.0453 99.051 29.784C99.1363 29.5227 99.179 29.24 99.179 28.936C99.179 28.632 99.1363 28.3493 99.051 28.088C98.9657 27.8213 98.8377 27.592 98.667 27.4C98.4963 27.2027 98.2857 27.048 98.035 26.936C97.7897 26.824 97.5017 26.768 97.171 26.768C96.8457 26.768 96.5577 26.824 96.307 26.936C96.0563 27.048 95.8457 27.2027 95.675 27.4C95.5043 27.592 95.3763 27.8213 95.291 28.088C95.2057 28.3493 95.163 28.632 95.163 28.936ZM99.9808 26.864V31H100.661V28.664C100.661 28.4773 100.685 28.3067 100.733 28.152C100.786 27.992 100.863 27.8533 100.965 27.736C101.066 27.6187 101.191 27.528 101.341 27.464C101.495 27.4 101.677 27.368 101.885 27.368C102.146 27.368 102.351 27.4427 102.501 27.592C102.65 27.7413 102.725 27.944 102.725 28.2V31H103.405V28.28C103.405 28.056 103.381 27.8533 103.333 27.672C103.29 27.4853 103.213 27.3253 103.101 27.192C102.989 27.0587 102.842 26.9547 102.661 26.88C102.479 26.8053 102.253 26.768 101.981 26.768C101.367 26.768 100.919 27.0187 100.637 27.52H100.621V26.864H99.9808ZM107.298 28.536H104.922C104.933 28.376 104.967 28.2267 105.026 28.088C105.085 27.944 105.165 27.8187 105.266 27.712C105.367 27.6053 105.487 27.5227 105.626 27.464C105.77 27.4 105.93 27.368 106.106 27.368C106.277 27.368 106.431 27.4 106.57 27.464C106.714 27.5227 106.837 27.6053 106.938 27.712C107.045 27.8133 107.127 27.936 107.186 28.08C107.25 28.224 107.287 28.376 107.298 28.536ZM107.954 29.688H107.282C107.223 29.96 107.101 30.1627 106.914 30.296C106.733 30.4293 106.498 30.496 106.21 30.496C105.986 30.496 105.791 30.4587 105.626 30.384C105.461 30.3093 105.325 30.2107 105.218 30.088C105.111 29.96 105.034 29.816 104.986 29.656C104.938 29.4907 104.917 29.3173 104.922 29.136H108.018C108.029 28.8853 108.005 28.6213 107.946 28.344C107.893 28.0667 107.791 27.8107 107.642 27.576C107.498 27.3413 107.303 27.1493 107.058 27C106.818 26.8453 106.514 26.768 106.146 26.768C105.863 26.768 105.602 26.8213 105.362 26.928C105.127 27.0347 104.922 27.184 104.746 27.376C104.575 27.568 104.442 27.7947 104.346 28.056C104.25 28.3173 104.202 28.6053 104.202 28.92C104.213 29.2347 104.258 29.5253 104.338 29.792C104.423 30.0587 104.549 30.288 104.714 30.48C104.879 30.672 105.082 30.8213 105.322 30.928C105.567 31.0347 105.855 31.088 106.186 31.088C106.655 31.088 107.045 30.9707 107.354 30.736C107.663 30.5013 107.863 30.152 107.954 29.688ZM111.67 26.12V25.288H110.99V26.12H111.67ZM110.99 26.864V31H111.67V26.864H110.99ZM112.723 26.864V31H113.403V28.664C113.403 28.4773 113.427 28.3067 113.475 28.152C113.528 27.992 113.606 27.8533 113.707 27.736C113.808 27.6187 113.934 27.528 114.083 27.464C114.238 27.4 114.419 27.368 114.627 27.368C114.888 27.368 115.094 27.4427 115.243 27.592C115.392 27.7413 115.467 27.944 115.467 28.2V31H116.147V28.28C116.147 28.056 116.123 27.8533 116.075 27.672C116.032 27.4853 115.955 27.3253 115.843 27.192C115.731 27.0587 115.584 26.9547 115.403 26.88C115.222 26.8053 114.995 26.768 114.723 26.768C114.11 26.768 113.662 27.0187 113.379 27.52H113.363V26.864H112.723ZM118.112 26.864V25.624H117.432V26.864H116.728V27.464H117.432V30.096C117.432 30.288 117.451 30.4427 117.488 30.56C117.526 30.6773 117.582 30.768 117.656 30.832C117.736 30.896 117.838 30.9413 117.96 30.968C118.088 30.9893 118.24 31 118.416 31H118.936V30.4H118.624C118.518 30.4 118.43 30.3973 118.36 30.392C118.296 30.3813 118.246 30.3627 118.208 30.336C118.171 30.3093 118.144 30.272 118.128 30.224C118.118 30.176 118.112 30.112 118.112 30.032V27.464H118.936V26.864H118.112ZM122.564 28.536H120.188C120.198 28.376 120.233 28.2267 120.292 28.088C120.35 27.944 120.43 27.8187 120.532 27.712C120.633 27.6053 120.753 27.5227 120.892 27.464C121.036 27.4 121.196 27.368 121.372 27.368C121.542 27.368 121.697 27.4 121.836 27.464C121.98 27.5227 122.102 27.6053 122.204 27.712C122.31 27.8133 122.393 27.936 122.452 28.08C122.516 28.224 122.553 28.376 122.564 28.536ZM123.22 29.688H122.548C122.489 29.96 122.366 30.1627 122.18 30.296C121.998 30.4293 121.764 30.496 121.476 30.496C121.252 30.496 121.057 30.4587 120.892 30.384C120.726 30.3093 120.59 30.2107 120.484 30.088C120.377 29.96 120.3 29.816 120.252 29.656C120.204 29.4907 120.182 29.3173 120.188 29.136H123.284C123.294 28.8853 123.27 28.6213 123.212 28.344C123.158 28.0667 123.057 27.8107 122.908 27.576C122.764 27.3413 122.569 27.1493 122.324 27C122.084 26.8453 121.78 26.768 121.412 26.768C121.129 26.768 120.868 26.8213 120.628 26.928C120.393 27.0347 120.188 27.184 120.012 27.376C119.841 27.568 119.708 27.7947 119.612 28.056C119.516 28.3173 119.468 28.6053 119.468 28.92C119.478 29.2347 119.524 29.5253 119.604 29.792C119.689 30.0587 119.814 30.288 119.98 30.48C120.145 30.672 120.348 30.8213 120.588 30.928C120.833 31.0347 121.121 31.088 121.452 31.088C121.921 31.088 122.31 30.9707 122.62 30.736C122.929 30.5013 123.129 30.152 123.22 29.688ZM123.965 26.864V31H124.645V29.16C124.645 28.8933 124.671 28.6587 124.725 28.456C124.778 28.248 124.863 28.072 124.981 27.928C125.098 27.784 125.253 27.6747 125.445 27.6C125.637 27.5253 125.869 27.488 126.141 27.488V26.768C125.773 26.7573 125.469 26.832 125.229 26.992C124.989 27.152 124.786 27.4 124.621 27.736H124.605V26.864H123.965ZM126.793 26.864V31H127.473V28.664C127.473 28.4773 127.497 28.3067 127.545 28.152C127.599 27.992 127.676 27.8533 127.777 27.736C127.879 27.6187 128.004 27.528 128.153 27.464C128.308 27.4 128.489 27.368 128.697 27.368C128.959 27.368 129.164 27.4427 129.313 27.592C129.463 27.7413 129.537 27.944 129.537 28.2V31H130.217V28.28C130.217 28.056 130.193 27.8533 130.145 27.672C130.103 27.4853 130.025 27.3253 129.913 27.192C129.801 27.0587 129.655 26.9547 129.473 26.88C129.292 26.8053 129.065 26.768 128.793 26.768C128.18 26.768 127.732 27.0187 127.449 27.52H127.433V26.864H126.793ZM137.129 30.984C137.012 31.0533 136.849 31.088 136.641 31.088C136.465 31.088 136.324 31.04 136.217 30.944C136.116 30.8427 136.065 30.68 136.065 30.456C135.878 30.68 135.66 30.8427 135.409 30.944C135.164 31.04 134.897 31.088 134.609 31.088C134.422 31.088 134.244 31.0667 134.073 31.024C133.908 30.9813 133.764 30.9147 133.641 30.824C133.518 30.7333 133.42 30.616 133.345 30.472C133.276 30.3227 133.241 30.144 133.241 29.936C133.241 29.7013 133.281 29.5093 133.361 29.36C133.441 29.2107 133.545 29.0907 133.673 29C133.806 28.904 133.956 28.832 134.121 28.784C134.292 28.736 134.465 28.696 134.641 28.664C134.828 28.6267 135.004 28.6 135.169 28.584C135.34 28.5627 135.489 28.536 135.617 28.504C135.745 28.4667 135.846 28.416 135.921 28.352C135.996 28.2827 136.033 28.184 136.033 28.056C136.033 27.9067 136.004 27.7867 135.945 27.696C135.892 27.6053 135.82 27.536 135.729 27.488C135.644 27.44 135.545 27.408 135.433 27.392C135.326 27.376 135.22 27.368 135.113 27.368C134.825 27.368 134.585 27.424 134.393 27.536C134.201 27.6427 134.097 27.848 134.081 28.152H133.401C133.412 27.896 133.465 27.68 133.561 27.504C133.657 27.328 133.785 27.1867 133.945 27.08C134.105 26.968 134.286 26.888 134.489 26.84C134.697 26.792 134.918 26.768 135.153 26.768C135.34 26.768 135.524 26.7813 135.705 26.808C135.892 26.8347 136.06 26.8907 136.209 26.976C136.358 27.056 136.478 27.1707 136.569 27.32C136.66 27.4693 136.705 27.664 136.705 27.904V30.032C136.705 30.192 136.713 30.3093 136.729 30.384C136.75 30.4587 136.814 30.496 136.921 30.496C136.98 30.496 137.049 30.4827 137.129 30.456V30.984ZM136.025 28.864C135.94 28.928 135.828 28.976 135.689 29.008C135.55 29.0347 135.404 29.0587 135.249 29.08C135.1 29.096 134.948 29.1173 134.793 29.144C134.638 29.1653 134.5 29.2027 134.377 29.256C134.254 29.3093 134.153 29.3867 134.073 29.488C133.998 29.584 133.961 29.7173 133.961 29.888C133.961 30 133.982 30.096 134.025 30.176C134.073 30.2507 134.132 30.312 134.201 30.36C134.276 30.408 134.361 30.4427 134.457 30.464C134.553 30.4853 134.654 30.496 134.761 30.496C134.985 30.496 135.177 30.4667 135.337 30.408C135.497 30.344 135.628 30.2667 135.729 30.176C135.83 30.08 135.905 29.9787 135.953 29.872C136.001 29.76 136.025 29.656 136.025 29.56V28.864ZM138.706 26.864V25.624H138.026V26.864H137.322V27.464H138.026V30.096C138.026 30.288 138.045 30.4427 138.082 30.56C138.119 30.6773 138.175 30.768 138.25 30.832C138.33 30.896 138.431 30.9413 138.554 30.968C138.682 30.9893 138.834 31 139.01 31H139.53V30.4H139.218C139.111 30.4 139.023 30.3973 138.954 30.392C138.89 30.3813 138.839 30.3627 138.802 30.336C138.765 30.3093 138.738 30.272 138.722 30.224C138.711 30.176 138.706 30.112 138.706 30.032V27.464H139.53V26.864H138.706ZM146.176 30.984C146.059 31.0533 145.896 31.088 145.688 31.088C145.512 31.088 145.371 31.04 145.264 30.944C145.163 30.8427 145.112 30.68 145.112 30.456C144.925 30.68 144.707 30.8427 144.456 30.944C144.211 31.04 143.944 31.088 143.656 31.088C143.469 31.088 143.291 31.0667 143.12 31.024C142.955 30.9813 142.811 30.9147 142.688 30.824C142.565 30.7333 142.467 30.616 142.392 30.472C142.323 30.3227 142.288 30.144 142.288 29.936C142.288 29.7013 142.328 29.5093 142.408 29.36C142.488 29.2107 142.592 29.0907 142.72 29C142.853 28.904 143.003 28.832 143.168 28.784C143.339 28.736 143.512 28.696 143.688 28.664C143.875 28.6267 144.051 28.6 144.216 28.584C144.387 28.5627 144.536 28.536 144.664 28.504C144.792 28.4667 144.893 28.416 144.968 28.352C145.043 28.2827 145.08 28.184 145.08 28.056C145.08 27.9067 145.051 27.7867 144.992 27.696C144.939 27.6053 144.867 27.536 144.776 27.488C144.691 27.44 144.592 27.408 144.48 27.392C144.373 27.376 144.267 27.368 144.16 27.368C143.872 27.368 143.632 27.424 143.44 27.536C143.248 27.6427 143.144 27.848 143.128 28.152H142.448C142.459 27.896 142.512 27.68 142.608 27.504C142.704 27.328 142.832 27.1867 142.992 27.08C143.152 26.968 143.333 26.888 143.536 26.84C143.744 26.792 143.965 26.768 144.2 26.768C144.387 26.768 144.571 26.7813 144.752 26.808C144.939 26.8347 145.107 26.8907 145.256 26.976C145.405 27.056 145.525 27.1707 145.616 27.32C145.707 27.4693 145.752 27.664 145.752 27.904V30.032C145.752 30.192 145.76 30.3093 145.776 30.384C145.797 30.4587 145.861 30.496 145.968 30.496C146.027 30.496 146.096 30.4827 146.176 30.456V30.984ZM145.072 28.864C144.987 28.928 144.875 28.976 144.736 29.008C144.597 29.0347 144.451 29.0587 144.296 29.08C144.147 29.096 143.995 29.1173 143.84 29.144C143.685 29.1653 143.547 29.2027 143.424 29.256C143.301 29.3093 143.2 29.3867 143.12 29.488C143.045 29.584 143.008 29.7173 143.008 29.888C143.008 30 143.029 30.096 143.072 30.176C143.12 30.2507 143.179 30.312 143.248 30.36C143.323 30.408 143.408 30.4427 143.504 30.464C143.6 30.4853 143.701 30.496 143.808 30.496C144.032 30.496 144.224 30.4667 144.384 30.408C144.544 30.344 144.675 30.2667 144.776 30.176C144.877 30.08 144.952 29.9787 145 29.872C145.048 29.76 145.072 29.656 145.072 29.56V28.864ZM149.979 26.864V25.624H149.299V26.864H148.595V27.464H149.299V30.096C149.299 30.288 149.318 30.4427 149.355 30.56C149.393 30.6773 149.449 30.768 149.523 30.832C149.603 30.896 149.705 30.9413 149.827 30.968C149.955 30.9893 150.107 31 150.283 31H150.803V30.4H150.491C150.385 30.4 150.297 30.3973 150.227 30.392C150.163 30.3813 150.113 30.3627 150.075 30.336C150.038 30.3093 150.011 30.272 149.995 30.224C149.985 30.176 149.979 30.112 149.979 30.032V27.464H150.803V26.864H149.979ZM152.279 26.12V25.288H151.599V26.12H152.279ZM151.599 26.864V31H152.279V26.864H151.599ZM153.332 26.864V31H154.012V28.424C154.012 28.344 154.031 28.2453 154.068 28.128C154.111 28.0053 154.175 27.888 154.26 27.776C154.351 27.664 154.466 27.568 154.604 27.488C154.748 27.408 154.919 27.368 155.116 27.368C155.271 27.368 155.396 27.392 155.492 27.44C155.594 27.4827 155.674 27.5467 155.732 27.632C155.791 27.712 155.831 27.808 155.852 27.92C155.879 28.032 155.892 28.1547 155.892 28.288V31H156.572V28.424C156.572 28.104 156.668 27.848 156.86 27.656C157.052 27.464 157.316 27.368 157.652 27.368C157.818 27.368 157.951 27.392 158.052 27.44C158.159 27.488 158.242 27.5547 158.3 27.64C158.359 27.72 158.399 27.816 158.42 27.928C158.442 28.04 158.452 28.16 158.452 28.288V31H159.132V27.968C159.132 27.7547 159.098 27.5733 159.028 27.424C158.964 27.2693 158.871 27.144 158.748 27.048C158.631 26.952 158.487 26.8827 158.316 26.84C158.151 26.792 157.964 26.768 157.756 26.768C157.484 26.768 157.234 26.8293 157.004 26.952C156.78 27.0747 156.599 27.248 156.46 27.472C156.375 27.216 156.228 27.0347 156.02 26.928C155.812 26.8213 155.58 26.768 155.324 26.768C154.743 26.768 154.298 27.0027 153.988 27.472H153.972V26.864H153.332ZM163.025 28.536H160.649C160.659 28.376 160.694 28.2267 160.753 28.088C160.811 27.944 160.891 27.8187 160.993 27.712C161.094 27.6053 161.214 27.5227 161.353 27.464C161.497 27.4 161.657 27.368 161.833 27.368C162.003 27.368 162.158 27.4 162.297 27.464C162.441 27.5227 162.563 27.6053 162.665 27.712C162.771 27.8133 162.854 27.936 162.913 28.08C162.977 28.224 163.014 28.376 163.025 28.536ZM163.681 29.688H163.009C162.95 29.96 162.827 30.1627 162.641 30.296C162.459 30.4293 162.225 30.496 161.937 30.496C161.713 30.496 161.518 30.4587 161.353 30.384C161.187 30.3093 161.051 30.2107 160.945 30.088C160.838 29.96 160.761 29.816 160.713 29.656C160.665 29.4907 160.643 29.3173 160.649 29.136H163.745C163.755 28.8853 163.731 28.6213 163.673 28.344C163.619 28.0667 163.518 27.8107 163.369 27.576C163.225 27.3413 163.03 27.1493 162.785 27C162.545 26.8453 162.241 26.768 161.873 26.768C161.59 26.768 161.329 26.8213 161.089 26.928C160.854 27.0347 160.649 27.184 160.473 27.376C160.302 27.568 160.169 27.7947 160.073 28.056C159.977 28.3173 159.929 28.6053 159.929 28.92C159.939 29.2347 159.985 29.5253 160.065 29.792C160.15 30.0587 160.275 30.288 160.441 30.48C160.606 30.672 160.809 30.8213 161.049 30.928C161.294 31.0347 161.582 31.088 161.913 31.088C162.382 31.088 162.771 30.9707 163.081 30.736C163.39 30.5013 163.59 30.152 163.681 29.688Z" fill="#4F4F4F"/>
<path d="M5.5 4H2V19H5.5" stroke="#00AEFF" stroke-width="3"/>
<path d="M10 4H13.5V19H10" stroke="#00AEFF" stroke-width="3"/>
</svg>
