<svg width="1439" height="700" viewBox="0 0 1439 700" fill="none" xmlns="http://www.w3.org/2000/svg">
<rect x="-1" width="1440" height="100" fill="#CB8434"/>
<rect x="-1" y="10" width="1440" height="2" fill="#BB7226"/>
<rect x="-1" y="31" width="1440" height="2" fill="#BB7226"/>
<rect x="-1" y="52" width="1440" height="2" fill="#BB7226"/>
<rect x="-1" y="73" width="1440" height="2" fill="#BB7226"/>
<rect x="-1" y="94" width="1440" height="2" fill="#BB7226"/>
<rect x="-1" y="100" width="1440" height="100" fill="#CB8434"/>
<rect x="-1" y="110" width="1440" height="2" fill="#BB7226"/>
<rect x="-1" y="131" width="1440" height="2" fill="#BB7226"/>
<rect x="-1" y="152" width="1440" height="2" fill="#BB7226"/>
<rect x="-1" y="173" width="1440" height="2" fill="#BB7226"/>
<rect x="-1" y="194" width="1440" height="2" fill="#BB7226"/>
<rect x="-1" y="200" width="1440" height="100" fill="#CB8434"/>
<rect x="-1" y="210" width="1440" height="2" fill="#BB7226"/>
<rect x="-1" y="231" width="1440" height="2" fill="#BB7226"/>
<rect x="-1" y="252" width="1440" height="2" fill="#BB7226"/>
<rect x="-1" y="273" width="1440" height="2" fill="#BB7226"/>
<rect x="-1" y="294" width="1440" height="2" fill="#BB7226"/>
<rect x="-1" y="300" width="1440" height="100" fill="#CB8434"/>
<rect x="-1" y="310" width="1440" height="2" fill="#BB7226"/>
<rect x="-1" y="331" width="1440" height="2" fill="#BB7226"/>
<rect x="-1" y="352" width="1440" height="2" fill="#BB7226"/>
<rect x="-1" y="373" width="1440" height="2" fill="#BB7226"/>
<rect x="-1" y="394" width="1440" height="2" fill="#BB7226"/>
<rect x="-1" y="400" width="1440" height="100" fill="#CB8434"/>
<rect x="-1" y="410" width="1440" height="2" fill="#BB7226"/>
<rect x="-1" y="431" width="1440" height="2" fill="#BB7226"/>
<rect x="-1" y="452" width="1440" height="2" fill="#BB7226"/>
<rect x="-1" y="473" width="1440" height="2" fill="#BB7226"/>
<rect x="-1" y="494" width="1440" height="2" fill="#BB7226"/>
<rect x="-1" y="500" width="1440" height="100" fill="#CB8434"/>
<rect x="-1" y="510" width="1440" height="2" fill="#BB7226"/>
<rect x="-1" y="531" width="1440" height="2" fill="#BB7226"/>
<rect x="-1" y="552" width="1440" height="2" fill="#BB7226"/>
<rect x="-1" y="573" width="1440" height="2" fill="#BB7226"/>
<rect x="-1" y="594" width="1440" height="2" fill="#BB7226"/>
<rect x="-1" y="600" width="1440" height="100" fill="#CB8434"/>
<rect x="-1" y="610" width="1440" height="2" fill="#BB7226"/>
<rect x="-1" y="631" width="1440" height="2" fill="#BB7226"/>
<rect x="-1" y="652" width="1440" height="2" fill="#BB7226"/>
<rect x="-1" y="673" width="1440" height="2" fill="#BB7226"/>
<rect x="-1" y="694" width="1440" height="2" fill="#BB7226"/>
</svg>
