<svg width="63" height="55" viewBox="0 0 63 55" fill="none" xmlns="http://www.w3.org/2000/svg">
<path d="M60.6996 0.552734H2.3004C1.03196 0.552734 0 1.58469 0 2.85313V52.2843C0 53.5528 1.03196 54.5847 2.3004 54.5847H60.6996C61.968 54.5847 63 53.5528 63 52.2843V2.85313C63 1.58469 61.968 0.552734 60.6996 0.552734ZM59.3086 4.24414V7.00068L37.7292 7.05307C37.1529 7.05451 36.6031 7.27177 36.1806 7.66542L33.1448 10.4989H3.69141V4.24414H59.3086ZM3.69141 50.8933V14.1898H33.7028C34.2815 14.1898 34.8333 13.9725 35.2563 13.5774L38.2935 10.743L59.3091 10.6916V50.8933H3.69141Z" fill="#00AEFF"/>
<path d="M11.9586 7.77639C11.9697 7.83503 11.9846 7.89415 12.0028 7.95231C12.0201 8.00855 12.0413 8.06671 12.0634 8.12198C12.0865 8.17726 12.1124 8.23253 12.1408 8.2854C12.1691 8.33827 12.1999 8.39018 12.2331 8.44065C12.2662 8.49112 12.3032 8.54015 12.3412 8.58581C12.3797 8.63243 12.42 8.67809 12.4633 8.72135C12.5051 8.76413 12.5503 8.80499 12.5974 8.84296C12.644 8.88093 12.693 8.91698 12.7435 8.95014C12.793 8.98331 12.8459 9.01503 12.8988 9.04339C12.9516 9.07175 13.0069 9.0977 13.0622 9.11981C13.1175 9.14337 13.1742 9.16403 13.2323 9.18134C13.29 9.19864 13.3491 9.21354 13.4068 9.22556C13.4659 9.23805 13.5265 9.24671 13.5866 9.25247C13.6467 9.25872 13.7082 9.26113 13.7673 9.26113C13.8274 9.26113 13.8889 9.25872 13.9495 9.25247C14.0086 9.24671 14.0687 9.23805 14.1278 9.22556C14.1869 9.21354 14.246 9.19864 14.3037 9.18134C14.3604 9.16403 14.4186 9.14337 14.4734 9.11981C14.5291 9.0977 14.5844 9.07175 14.6373 9.04339C14.6902 9.01503 14.7421 8.98331 14.7925 8.95014C14.8425 8.91698 14.892 8.88093 14.9377 8.84296C14.9858 8.80499 15.03 8.76413 15.0728 8.72135C15.116 8.67809 15.1569 8.63243 15.1948 8.58581C15.2328 8.54015 15.2684 8.49112 15.303 8.44065C15.3352 8.39018 15.3669 8.33827 15.3953 8.2854C15.4236 8.23253 15.4496 8.17726 15.4717 8.12198C15.4948 8.06671 15.5159 8.00855 15.5332 7.95231C15.5505 7.89415 15.5649 7.83503 15.5774 7.77639C15.5899 7.71727 15.5981 7.65671 15.6044 7.59759C15.6106 7.53751 15.613 7.47598 15.613 7.4159C15.613 7.35534 15.6106 7.29526 15.6044 7.2347C15.5981 7.17462 15.5899 7.11405 15.5774 7.05493C15.5649 6.99629 15.55 6.93717 15.5332 6.88046C15.5159 6.82278 15.4948 6.76606 15.4717 6.71079C15.4496 6.65407 15.4236 6.59976 15.3953 6.54688C15.3669 6.49401 15.3352 6.44114 15.303 6.39211C15.2684 6.34165 15.2328 6.29214 15.1948 6.24552C15.1564 6.19889 15.116 6.15323 15.0728 6.11141C15.03 6.06816 14.9858 6.02778 14.9377 5.98981C14.892 5.95136 14.8425 5.91435 14.7925 5.88118C14.7421 5.84802 14.6902 5.81726 14.6373 5.7889C14.5844 5.76054 14.5291 5.73506 14.4734 5.71151C14.4186 5.6894 14.3604 5.66825 14.3037 5.65143C14.246 5.63268 14.1869 5.61827 14.1278 5.60673C14.0687 5.59471 14.0086 5.58606 13.9495 5.57981C13.8288 5.5678 13.7072 5.5678 13.5866 5.57981C13.5265 5.58606 13.4659 5.59471 13.4068 5.60673C13.3491 5.61827 13.29 5.63268 13.2323 5.65143C13.1742 5.66825 13.1175 5.6894 13.0622 5.71151C13.0069 5.73506 12.9516 5.76054 12.8988 5.7889C12.8459 5.81726 12.793 5.84802 12.7435 5.88118C12.693 5.91435 12.644 5.95136 12.5974 5.98981C12.5503 6.02778 12.5051 6.06816 12.4633 6.11141C12.42 6.15323 12.3797 6.19889 12.3412 6.24552C12.3032 6.29214 12.2662 6.34165 12.2331 6.39211C12.1999 6.44114 12.1691 6.49401 12.1408 6.54688C12.1124 6.59976 12.0869 6.65407 12.0634 6.71079C12.0413 6.76606 12.0201 6.82278 12.0028 6.88046C11.9846 6.93717 11.9697 6.99629 11.9586 7.05493C11.9461 7.11405 11.9379 7.17462 11.9317 7.2347C11.9254 7.29526 11.9216 7.35534 11.9216 7.4159C11.9216 7.47598 11.9254 7.53751 11.9317 7.59759C11.9379 7.65719 11.9466 7.71727 11.9586 7.77639Z" fill="#00AEFF"/>
<path d="M6.69115 8.84296C6.73826 8.88141 6.78728 8.91698 6.83775 8.95014C6.88678 8.98331 6.94013 9.01551 6.993 9.04387C7.04588 9.07175 7.10115 9.0977 7.15643 9.11981C7.2117 9.14337 7.26842 9.16403 7.3261 9.18134C7.38425 9.19864 7.44193 9.21354 7.50105 9.22556C7.56017 9.23805 7.62025 9.24671 7.68082 9.25295C7.7409 9.25872 7.80098 9.26161 7.86154 9.26161C7.92162 9.26161 7.98315 9.25872 8.04371 9.25295C8.10283 9.24671 8.16291 9.23805 8.22203 9.22556C8.28115 9.21354 8.34027 9.19864 8.39795 9.18134C8.45467 9.16403 8.51234 9.14337 8.56762 9.11981C8.62289 9.0977 8.67865 9.07175 8.73152 9.04387C8.78439 9.01551 8.8363 8.98331 8.88677 8.95014C8.93676 8.91698 8.98627 8.88141 9.03193 8.84296C9.07855 8.80499 9.12421 8.76413 9.16699 8.72135C9.21025 8.67809 9.25063 8.63291 9.28908 8.58581C9.32705 8.54063 9.36262 8.49112 9.39578 8.44065C9.42895 8.39018 9.46115 8.33875 9.48951 8.28588C9.51787 8.23301 9.54334 8.17726 9.56593 8.12198C9.589 8.06671 9.61015 8.00903 9.62746 7.95231C9.64428 7.89463 9.65918 7.83551 9.67168 7.77639C9.68369 7.71727 9.69234 7.65719 9.69859 7.59807C9.70484 7.53751 9.70724 7.47598 9.70724 7.4159C9.70724 7.35534 9.70484 7.29526 9.69859 7.2347C9.69234 7.17462 9.68369 7.11453 9.67168 7.05541C9.65918 6.99629 9.64428 6.93862 9.62746 6.88046C9.61015 6.82278 9.589 6.76606 9.56593 6.71079C9.54334 6.65407 9.51787 6.60024 9.48951 6.54737C9.46115 6.49401 9.42895 6.44114 9.39578 6.39211C9.36262 6.34165 9.32705 6.29262 9.28908 6.24552C9.25063 6.19889 9.21025 6.15323 9.16699 6.11141C9.12421 6.06864 9.07855 6.02778 9.03193 5.98837C8.98627 5.95184 8.93676 5.91483 8.88677 5.88166C8.8363 5.84802 8.78439 5.81726 8.73152 5.78938C8.67865 5.76102 8.62289 5.73506 8.56762 5.71151C8.51234 5.6894 8.45467 5.66873 8.39795 5.65143C8.34027 5.63317 8.28115 5.61827 8.22203 5.60721C8.16291 5.59471 8.10283 5.58606 8.04371 5.57981C7.92307 5.5678 7.80098 5.5678 7.68082 5.57981C7.62025 5.58606 7.56017 5.59471 7.50105 5.60721C7.44193 5.61827 7.38425 5.63317 7.3261 5.65143C7.26842 5.66873 7.2117 5.6894 7.15643 5.71151C7.10115 5.73506 7.04588 5.76102 6.993 5.78938C6.94013 5.81726 6.88726 5.84802 6.83775 5.88166C6.78728 5.91483 6.73826 5.95184 6.69115 5.98837C6.64453 6.02778 6.59887 6.06864 6.55705 6.11141C6.51427 6.15323 6.47342 6.19889 6.43545 6.24552C6.39748 6.29262 6.36047 6.34165 6.3273 6.39211C6.29414 6.44114 6.26337 6.49401 6.23502 6.54737C6.20666 6.60024 6.1807 6.65407 6.15715 6.71079C6.13504 6.76606 6.11437 6.82278 6.09707 6.88046C6.0788 6.93862 6.0639 6.99629 6.05285 7.05541C6.04035 7.11453 6.03218 7.17462 6.02593 7.2347C6.01968 7.29526 6.01584 7.35534 6.01584 7.4159C6.01584 7.90184 6.21291 8.37673 6.55705 8.72135C6.59887 8.76413 6.64453 8.80499 6.69115 8.84296Z" fill="#00AEFF"/>
<path d="M17.9879 7.77639C17.999 7.83503 18.0134 7.89415 18.0322 7.95231C18.0495 8.00855 18.0701 8.06671 18.0922 8.12198C18.1158 8.17726 18.1413 8.23253 18.1696 8.2854C18.198 8.33827 18.2287 8.39018 18.2619 8.44065C18.2956 8.49112 18.3321 8.54015 18.3705 8.58581C18.4085 8.63243 18.4494 8.67809 18.4921 8.72135C18.534 8.76413 18.5796 8.80499 18.6262 8.84296C18.6733 8.88093 18.7224 8.91698 18.7728 8.95014C18.8219 8.98331 18.8747 9.01503 18.9276 9.04339C18.981 9.07175 19.0358 9.0977 19.0915 9.11981C19.1468 9.14337 19.2035 9.16403 19.2612 9.18134C19.3193 9.19864 19.378 9.21354 19.4357 9.22556C19.4948 9.23805 19.5553 9.24671 19.6154 9.25247C19.676 9.25872 19.7375 9.26113 19.7966 9.26113C19.8567 9.26113 19.9182 9.25872 19.9783 9.25247C20.0389 9.24671 20.098 9.23805 20.1581 9.22556C20.2162 9.21354 20.2749 9.19864 20.333 9.18134C20.3907 9.16403 20.4474 9.14337 20.5027 9.11981C20.558 9.0977 20.6133 9.07175 20.6661 9.04339C20.7195 9.01503 20.7719 8.98331 20.8214 8.95014C20.8718 8.91698 20.9209 8.88093 20.968 8.84296C21.0146 8.80499 21.0603 8.76413 21.1021 8.72135C21.1449 8.67809 21.1857 8.63243 21.2237 8.58581C21.2621 8.54015 21.2977 8.49112 21.3318 8.44065C21.364 8.39018 21.3962 8.33827 21.4241 8.2854C21.4525 8.23253 21.4784 8.17726 21.5005 8.12198C21.5241 8.06671 21.5448 8.00855 21.5621 7.95231C21.5794 7.89415 21.5938 7.83503 21.6063 7.77639C21.6188 7.71727 21.6274 7.65671 21.6332 7.59759C21.6395 7.53751 21.6419 7.47598 21.6419 7.4159C21.6419 7.35534 21.6395 7.29526 21.6332 7.2347C21.6274 7.17462 21.6188 7.11405 21.6063 7.05493C21.5938 6.99629 21.5794 6.93814 21.5621 6.88046C21.5448 6.82278 21.5241 6.76606 21.5005 6.71079C21.4784 6.65551 21.4525 6.59976 21.4241 6.54688C21.3962 6.49401 21.364 6.44114 21.3318 6.39211C21.2977 6.34165 21.2621 6.29214 21.2237 6.24552C21.1857 6.19889 21.1449 6.15323 21.1021 6.11141C21.0603 6.06816 21.0146 6.02778 20.968 5.98981C20.9209 5.95136 20.8718 5.91435 20.8214 5.88118C20.7724 5.84802 20.7195 5.81726 20.6661 5.7889C20.6133 5.76054 20.558 5.73506 20.5027 5.71151C20.4474 5.6894 20.3907 5.66825 20.333 5.65143C20.2749 5.63413 20.2162 5.61827 20.1581 5.60673C20.098 5.59471 20.0389 5.58606 19.9783 5.57981C19.8582 5.5678 19.7361 5.5678 19.6154 5.57981C19.5553 5.58606 19.4953 5.59471 19.4357 5.60673C19.378 5.61827 19.3193 5.63413 19.2612 5.65143C19.2035 5.66825 19.1468 5.6894 19.0915 5.71151C19.0358 5.73506 18.981 5.76054 18.9276 5.7889C18.8747 5.81726 18.8219 5.84802 18.7728 5.88118C18.7224 5.91435 18.6729 5.95136 18.6262 5.98981C18.5796 6.02778 18.534 6.06816 18.4921 6.11141C18.4489 6.15323 18.4085 6.19889 18.3705 6.24552C18.3321 6.29214 18.2956 6.34165 18.2619 6.39211C18.2287 6.44114 18.198 6.49401 18.1696 6.54688C18.1417 6.59976 18.1158 6.65551 18.0922 6.71079C18.0701 6.76606 18.049 6.82278 18.0322 6.88046C18.0134 6.93814 17.999 6.99629 17.9879 7.05493C17.9754 7.11405 17.9668 7.17462 17.9605 7.2347C17.9543 7.29526 17.9509 7.35534 17.9509 7.4159C17.9509 7.47598 17.9543 7.53751 17.9605 7.59759C17.9668 7.65719 17.9754 7.71727 17.9879 7.77639Z" fill="#00AEFF"/>
<path d="M23.8062 23.7184C23.1069 22.9772 21.9389 22.9426 21.1972 23.6419L13.4174 30.9772C13.0329 31.3405 12.8123 31.8529 12.8123 32.3821C12.8127 32.9113 13.0338 33.4232 13.4188 33.7861L21.1972 41.1204C21.5539 41.4563 22.0086 41.6231 22.4628 41.6231C22.9535 41.6231 23.4428 41.4285 23.8062 41.0435C24.5056 40.3023 24.4709 39.1338 23.7293 38.4345L17.3092 32.3812L23.7293 26.3278C24.4714 25.6285 24.5056 24.46 23.8062 23.7184Z" fill="#00AEFF"/>
<path d="M35.4673 23.2986C34.5358 22.8838 33.4452 23.3024 33.0304 24.2339L26.4431 39.0265C26.0283 39.958 26.4469 41.0486 27.3784 41.4634C27.6221 41.572 27.8773 41.6234 28.1282 41.6234C28.8348 41.6234 29.5091 41.2154 29.8153 40.528L36.4027 25.7355C36.8175 24.804 36.3983 23.7134 35.4673 23.2986Z" fill="#00AEFF"/>
<path d="M41.8027 23.6419C41.0611 22.9426 39.8931 22.9772 39.1938 23.7184C38.4944 24.46 38.529 25.6285 39.2707 26.3273L45.6907 32.3812L39.2707 38.4345C38.529 39.1338 38.4944 40.3018 39.1938 41.0435C39.5571 41.4285 40.0464 41.6231 40.5372 41.6231C40.9909 41.6231 41.4461 41.4563 41.8027 41.1204L49.5811 33.7861C49.9661 33.4232 50.1872 32.9113 50.1877 32.3821C50.1877 31.8524 49.9671 31.3405 49.5811 30.9762L41.8027 23.6419Z" fill="#00AEFF"/>
</svg>
