<svg width="136" height="86" viewBox="0 0 136 86" fill="none" xmlns="http://www.w3.org/2000/svg">
<path d="M49.242 36.306V49.158H52.068V43.614H57.27V49.158H60.096V36.306H57.27V41.238H52.068V36.306H49.242Z" fill="#333333"/>
<path d="M63.1238 36.306V49.158H65.7698V40.554H65.8058L71.1518 49.158H73.9778V36.306H71.3318V44.928H71.2958L65.9318 36.306H63.1238Z" fill="#333333"/>
<path d="M86.2936 47.7L86.5816 49.158H88.3816V42.21H82.9816V44.316H85.8256C85.7416 45.216 85.4416 45.906 84.9256 46.386C84.4216 46.854 83.7016 47.088 82.7656 47.088C82.1296 47.088 81.5896 46.968 81.1456 46.728C80.7016 46.476 80.3416 46.146 80.0656 45.738C79.7896 45.33 79.5856 44.874 79.4536 44.37C79.3336 43.854 79.2736 43.326 79.2736 42.786C79.2736 42.222 79.3336 41.676 79.4536 41.148C79.5856 40.62 79.7896 40.152 80.0656 39.744C80.3416 39.324 80.7016 38.994 81.1456 38.754C81.5896 38.502 82.1296 38.376 82.7656 38.376C83.4496 38.376 84.0316 38.556 84.5116 38.916C84.9916 39.276 85.3156 39.816 85.4836 40.536H88.1836C88.1116 39.804 87.9136 39.156 87.5896 38.592C87.2656 38.028 86.8516 37.554 86.3476 37.17C85.8556 36.786 85.2976 36.498 84.6736 36.306C84.0616 36.102 83.4256 36 82.7656 36C81.7816 36 80.8936 36.174 80.1016 36.522C79.3216 36.87 78.6616 37.35 78.1216 37.962C77.5816 38.574 77.1676 39.294 76.8796 40.122C76.5916 40.938 76.4476 41.826 76.4476 42.786C76.4476 43.722 76.5916 44.598 76.8796 45.414C77.1676 46.218 77.5816 46.92 78.1216 47.52C78.6616 48.12 79.3216 48.594 80.1016 48.942C80.8936 49.278 81.7816 49.446 82.7656 49.446C83.3896 49.446 84.0076 49.32 84.6196 49.068C85.2316 48.804 85.7896 48.348 86.2936 47.7Z" fill="#333333"/>
<path d="M105.322 40.626H108.058C107.974 39.882 107.77 39.222 107.446 38.646C107.122 38.07 106.708 37.59 106.204 37.206C105.712 36.81 105.148 36.51 104.512 36.306C103.888 36.102 103.222 36 102.514 36C101.53 36 100.642 36.174 99.8496 36.522C99.0696 36.87 98.4096 37.35 97.8696 37.962C97.3296 38.574 96.9156 39.294 96.6276 40.122C96.3396 40.938 96.1956 41.826 96.1956 42.786C96.1956 43.722 96.3396 44.598 96.6276 45.414C96.9156 46.218 97.3296 46.92 97.8696 47.52C98.4096 48.12 99.0696 48.594 99.8496 48.942C100.642 49.278 101.53 49.446 102.514 49.446C103.306 49.446 104.032 49.326 104.692 49.086C105.352 48.846 105.928 48.498 106.42 48.042C106.912 47.586 107.308 47.034 107.608 46.386C107.908 45.738 108.094 45.012 108.166 44.208H105.43C105.322 45.072 105.022 45.768 104.53 46.296C104.05 46.824 103.378 47.088 102.514 47.088C101.878 47.088 101.338 46.968 100.894 46.728C100.45 46.476 100.09 46.146 99.8136 45.738C99.5376 45.33 99.3336 44.874 99.2016 44.37C99.0816 43.854 99.0216 43.326 99.0216 42.786C99.0216 42.222 99.0816 41.676 99.2016 41.148C99.3336 40.62 99.5376 40.152 99.8136 39.744C100.09 39.324 100.45 38.994 100.894 38.754C101.338 38.502 101.878 38.376 102.514 38.376C102.862 38.376 103.192 38.436 103.504 38.556C103.828 38.664 104.116 38.82 104.368 39.024C104.62 39.228 104.83 39.468 104.998 39.744C105.166 40.008 105.274 40.302 105.322 40.626Z" fill="#333333"/>
<path d="M112.633 44.514C112.633 44.142 112.669 43.776 112.741 43.416C112.813 43.056 112.933 42.738 113.101 42.462C113.281 42.186 113.515 41.964 113.803 41.796C114.091 41.616 114.451 41.526 114.883 41.526C115.315 41.526 115.675 41.616 115.963 41.796C116.263 41.964 116.497 42.186 116.665 42.462C116.845 42.738 116.971 43.056 117.043 43.416C117.115 43.776 117.151 44.142 117.151 44.514C117.151 44.886 117.115 45.252 117.043 45.612C116.971 45.96 116.845 46.278 116.665 46.566C116.497 46.842 116.263 47.064 115.963 47.232C115.675 47.4 115.315 47.484 114.883 47.484C114.451 47.484 114.091 47.4 113.803 47.232C113.515 47.064 113.281 46.842 113.101 46.566C112.933 46.278 112.813 45.96 112.741 45.612C112.669 45.252 112.633 44.886 112.633 44.514ZM110.077 44.514C110.077 45.258 110.191 45.93 110.419 46.53C110.647 47.13 110.971 47.646 111.391 48.078C111.811 48.498 112.315 48.822 112.903 49.05C113.491 49.278 114.151 49.392 114.883 49.392C115.615 49.392 116.275 49.278 116.863 49.05C117.463 48.822 117.973 48.498 118.393 48.078C118.813 47.646 119.137 47.13 119.365 46.53C119.593 45.93 119.707 45.258 119.707 44.514C119.707 43.77 119.593 43.098 119.365 42.498C119.137 41.886 118.813 41.37 118.393 40.95C117.973 40.518 117.463 40.188 116.863 39.96C116.275 39.72 115.615 39.6 114.883 39.6C114.151 39.6 113.491 39.72 112.903 39.96C112.315 40.188 111.811 40.518 111.391 40.95C110.971 41.37 110.647 41.886 110.419 42.498C110.191 43.098 110.077 43.77 110.077 44.514Z" fill="#333333"/>
<path d="M124.537 38.412V36.306H121.981V38.412H124.537ZM121.981 39.852V49.158H124.537V39.852H121.981Z" fill="#333333"/>
<path d="M127.09 39.852V49.158H129.646V44.28C129.646 43.332 129.802 42.654 130.114 42.246C130.426 41.826 130.93 41.616 131.626 41.616C132.238 41.616 132.664 41.808 132.904 42.192C133.144 42.564 133.264 43.134 133.264 43.902V49.158H135.82V43.434C135.82 42.858 135.766 42.336 135.658 41.868C135.562 41.388 135.388 40.986 135.136 40.662C134.884 40.326 134.536 40.068 134.092 39.888C133.66 39.696 133.102 39.6 132.418 39.6C131.878 39.6 131.35 39.726 130.834 39.978C130.318 40.218 129.898 40.608 129.574 41.148H129.52V39.852H127.09Z" fill="#333333"/>
<path d="M2 42.5L0.64799 41.8503L0.116732 42.9559L1.09484 43.6961L2 42.5ZM20.5 4L21.852 3.35033L20.5 0.536689L19.148 3.35033L20.5 4ZM39 42.5L39.9052 43.6961L40.8833 42.9559L40.352 41.8503L39 42.5ZM20.5 56.5L19.5948 57.6961L20.5 58.3811L21.4052 57.6961L20.5 56.5ZM2 48L2.96333 46.8502L0.682417 48.7169L2 48ZM20.5 82L19.1824 82.7169L20.5 85.1384L21.8176 82.7169L20.5 82ZM39 48L40.3176 48.7169L38.0367 46.8502L39 48ZM3.35201 43.1497L21.852 4.64967L19.148 3.35033L0.64799 41.8503L3.35201 43.1497ZM19.148 4.64967L37.648 43.1497L40.352 41.8503L21.852 3.35033L19.148 4.64967ZM38.0948 41.3039L19.5948 55.3039L21.4052 57.6961L39.9052 43.6961L38.0948 41.3039ZM21.4052 55.3039L2.90516 41.3039L1.09484 43.6961L19.5948 57.6961L21.4052 55.3039ZM22 56.5V30.25H19V56.5H22ZM22 30.25V4H19V30.25H22ZM39.8281 41.2493L21.3281 28.9993L19.6719 31.5007L38.1719 43.7507L39.8281 41.2493ZM2.82815 43.7507L21.3281 31.5007L19.6719 28.9993L1.17185 41.2493L2.82815 43.7507ZM0.682417 48.7169L19.1824 82.7169L21.8176 81.2831L3.31758 47.2831L0.682417 48.7169ZM21.8176 82.7169L40.3176 48.7169L37.6824 47.2831L19.1824 81.2831L21.8176 82.7169ZM38.0367 46.8502L19.5367 62.3502L21.4633 64.6498L39.9633 49.1498L38.0367 46.8502ZM21.4633 62.3502L2.96333 46.8502L1.03667 49.1498L19.5367 64.6498L21.4633 62.3502ZM19 63.5V82H22V63.5H19Z" fill="#00AEFF"/>
</svg>
