<svg width="170" height="123" viewBox="0 0 212 144" fill="none" xmlns="http://www.w3.org/2000/svg">
<path d="M23.5 30C29.8513 30 35 25.0751 35 19C35 12.9249 29.8513 8 23.5 8C17.1487 8 12 12.9249 12 19C12 25.0751 17.1487 30 23.5 30Z" fill="white"/>
<path d="M21.4505 48.617C22.7251 45.5576 23.9325 42.6662 25.3067 40.2123C26.2522 38.5219 26.148 36.9403 25.4898 35.6726C24.1225 33.6956 21.6081 32.5662 19.3508 33.1568C18.549 33.5127 17.8051 34.1626 17.2211 35.208C15.7681 37.7979 13.3834 43.4447 13.3579 43.5015L7.51327 56.6338L6.10658 55.8133L10.5723 42.0237C10.6001 41.9471 11.5248 39.7576 12.5908 37.4445C10.0787 38.428 7.47851 39.8539 4.85747 41.8878C4.85747 41.8878 -2.65573 48.7925 1.00585 62.5302C1.96296 67.8187 7.99299 66.9463 7.99299 66.9463C14.7461 64.6629 18.1527 56.5201 21.4505 48.617Z" fill="white"/>
<path d="M38.5126 39.1365C38.1159 38.8518 37.7193 38.6352 37.3227 38.4722C36.2905 37.9272 33.8821 36.7811 30.5347 36C30.8477 37.6936 30.5873 39.5648 29.481 41.4457C28.1621 43.694 26.9555 46.451 25.682 49.3733C24.5758 51.9088 23.4169 54.5441 22.1004 57.0455C22.9773 56.8265 23.9187 56.7365 24.9294 56.8387C27.2996 57.0723 29.4595 57.2061 31.531 57.245L32.1618 57.2572C33.1558 57.2791 35.8915 57.3399 37.1363 57.1988C37.3824 55.6439 36.3264 53.6583 35.0266 52.247C33.6886 50.7919 32.611 49.7383 31.5239 48.8356C31.4092 48.7407 31.261 48.6166 31.1057 48.4633C30.9958 48.3976 30.8883 48.327 30.7784 48.2516L30.831 48.1689C30.3842 47.6238 30.0616 46.8549 30.7306 45.9886L31.7508 44.6674L33.1653 45.7453C33.2896 45.8402 33.3947 45.9424 33.4855 46.0495C33.5309 46.0884 33.5906 46.1346 33.6479 46.1882C34.8545 47.1931 36.0349 48.3416 37.4804 49.916C39.6403 52.2762 41.4466 55.9602 40.0226 59.2087C39.3894 60.6443 37.7791 60.8146 32.0806 60.6832L31.4617 60.6686C29.3018 60.6297 27.0535 60.4886 24.5973 60.2477C20.7553 59.8778 20.1245 63.1238 20.0289 64.1312C19.7589 66.9709 21.3789 70.1804 24.9222 70.5308C34.0876 71.4384 42.9304 71.4603 47.3028 66.5767C47.3172 66.5718 47.3219 66.5621 47.3267 66.5548C47.5131 66.3528 47.6612 66.1192 47.8261 65.9002C48.4377 65.0023 48.9491 63.9755 49.2812 62.7661C52.1005 52.7897 46.2348 44.6138 38.5126 39.1365Z" fill="white"/>
<path d="M23.9591 74.0956C18.8317 73.5928 15.9989 69.2537 15.9337 65C13.7742 67.1769 11.2189 68.8462 8.06997 69.6295L8 105.433V137.709C8 141.179 10.5143 144 14.042 144C17.5745 144 20.4387 141.179 20.4387 137.709V91.5668H26.0874C26.0874 102.38 26.0874 127.044 26.0874 137.857C26.0874 145.381 37.6308 145.381 37.6308 137.857C37.6308 127.044 37.6308 116.245 37.6308 105.436L38 74.264C36.1541 74.5178 34.2889 74.6203 32.484 74.6203C29.27 74.6178 26.2611 74.325 23.9591 74.0956Z" fill="white"/>
<path d="M74.867 8.18318C74.0945 7.96662 73.2243 7.82306 72.332 7.71356C74.1043 -5.47962 50.6661 1.4479 44.2858 5.19756C38.3529 8.68687 41.3646 14.2858 46.1485 17.1327C47.3195 17.8335 48.5637 18.4053 49.8471 18.8823C49.8251 19.8604 50.0623 20.8654 50.5756 21.8362C50.7761 22.902 51.0841 23.9435 51.5485 24.8924C51.6634 25.1236 51.8028 25.3475 51.9543 25.5664C50.3312 26.7904 49.1944 28.2795 49.4047 29.8612C49.3753 34.37 57.1539 34.4771 59.2684 37.3483C60.4149 38.8983 63.0452 37.397 61.8865 35.8251C60.8476 34.4138 59.2122 33.5281 57.5303 32.747C59.3637 32.1606 60.7498 31.0413 60.5909 29.5181C62.4659 29.4889 64.2137 28.9341 65.3944 27.6664C65.6486 27.389 65.8687 27.0751 66.0398 26.7442C67.284 26.6347 68.455 26.4814 69.445 26.2843C72.7256 25.6297 73.3074 23.2402 72.7305 20.6999C74.8694 20.1476 76.83 19.2108 78.3162 17.6583C81.9586 13.8624 79.1767 9.38522 74.867 8.18318ZM50.9765 15.6387C50.8958 15.7458 50.8201 15.8577 50.7418 15.9721C50.446 15.8553 50.1405 15.7604 49.8545 15.629C47.8133 14.697 45.6841 13.5972 44.3371 11.7504C42.4768 9.21002 46.0434 7.5919 47.8255 6.74025C51.5119 4.9737 55.7507 4.12692 59.75 3.37748C64.1379 2.5526 69.929 2.24357 69.2739 7.55783C66.47 7.6503 63.6295 8.36081 61.5834 9.87674C59.0875 9.26355 56.5061 9.48498 54.2204 11.1566C52.6535 12.3003 51.5925 13.8795 50.9765 15.6387ZM62.2703 13.512C62.2947 13.4488 62.3167 13.3831 62.3436 13.3222C62.659 13.4658 62.9792 13.6215 63.2897 13.7919C62.9499 13.6897 62.6125 13.5996 62.2703 13.512ZM66.0593 18.3518C64.8322 18.2691 63.7028 17.7776 62.9597 16.8626C64.0646 17.252 65.1182 17.7484 66.0593 18.3518ZM59.1657 16.0086C59.3808 16.7069 59.7255 17.3736 60.1729 17.9893C59.6448 17.926 59.1046 17.87 58.5888 17.7995C57.0879 17.5926 55.5331 17.3444 54.0053 16.9892C54.7631 16.4052 55.7507 16.0013 56.7774 15.9307C57.5328 15.8796 58.3395 15.9185 59.1657 16.0086ZM57.0365 12.9281C57.7674 12.602 58.5399 12.4828 59.3344 12.5266C59.2708 12.6774 59.2293 12.8283 59.1804 12.9792C58.4495 12.9135 57.7332 12.8989 57.0365 12.9281ZM55.516 30.214C54.0737 30.3308 53.3257 29.9439 53.2157 29.3575C53.7364 29.1604 54.57 29.0874 55.4036 29.1239C56.9485 29.192 57.4961 30.0558 55.516 30.214ZM68.6383 23.3741C67.7216 23.632 66.7242 23.7123 65.7171 23.7342C65.7024 23.722 65.6975 23.7099 65.6878 23.6977C63.8739 21.8533 61.0994 22.1088 58.7599 22.4908C58.293 22.5687 57.7088 22.722 57.0781 22.9312C56.3667 22.7487 55.6627 22.5273 54.988 22.2012C54.2962 21.8654 53.7951 21.4932 53.4186 21.1063C53.3673 20.7169 53.3477 20.3203 53.3551 19.9213C56.2763 20.622 59.3124 20.9676 62.2361 21.206C63.2823 21.2912 64.4166 21.352 65.5704 21.3764C65.9493 21.4445 66.3282 21.4907 66.7047 21.4956C67.0934 21.5005 67.4747 21.4396 67.8561 21.3569C68.5576 21.3277 69.2543 21.2717 69.9559 21.1914C70.1026 22.1793 69.8288 23.0383 68.6383 23.3741ZM71.6207 17.7727C70.9264 16.4295 70.0537 15.2226 69.2568 14.4318C68.1005 13.2833 66.7218 12.2102 65.2331 11.361C65.4873 11.2856 65.7391 11.2175 65.9787 11.1591C67.0983 10.8914 68.3572 10.704 69.6332 10.6456C70.1319 10.9328 70.7724 10.9571 71.2662 10.6529C72.9407 10.7357 74.5761 11.0788 75.9304 11.8185C79.9565 14.023 73.6765 17.1546 71.6207 17.7727Z" fill="white"/>
<path d="M108 43.9999C115.18 43.9999 121 38.6273 121 31.9999C121 25.3725 115.18 19.9999 108 19.9999C100.82 19.9999 95 25.3725 95 31.9999C95 38.6273 100.82 43.9999 108 43.9999Z" fill="white"/>
<path d="M152.608 134.862L145.451 115V138.912C145.451 140.708 144.921 142.386 144 143.816C145.337 144.113 146.723 144.05 148.031 143.63C151.862 142.401 153.91 138.476 152.608 134.862Z" fill="white"/>
<path d="M203.21 75.276L203.234 49.5762L211.844 28.8273C212.285 27.7646 211.759 26.5547 210.67 26.1245L203.143 23.1522C202.054 22.7221 200.814 23.2348 200.373 24.2972L184.816 61.7854C184.375 62.8482 184.9 64.0581 185.989 64.4883L193.516 67.4608C194.562 67.874 195.746 67.4159 196.229 66.4376L196.224 71.8638H184.797C183.936 71.8638 183.238 72.5445 183.238 73.384V77.162C183.238 77.8757 183.743 78.4728 184.423 78.6362H165.819C166.993 78.3641 167.997 77.5816 168.515 76.4826L178.663 54.9578C179.582 53.0096 178.707 50.7044 176.71 49.8081C174.714 48.9126 172.35 49.7651 171.431 51.7133L162.349 70.9777H145.243C145.859 69.6988 146.011 68.2024 145.558 66.7439C144.586 63.6101 141.194 61.8379 137.981 62.7868L117.277 68.8988L108.169 59.2255L115.867 63.9902L117.048 63.4826L117.31 58.9942C117.594 54.1202 113.775 49.9445 108.778 49.6669L100.1 49.185C91.2134 48.6913 83.7637 55.6969 83.9562 64.3876L84.3902 83.9953L80.0215 50.3452C79.6726 47.6564 77.1557 45.7533 74.3989 46.0934C71.6426 46.4338 69.6913 48.8896 70.0404 51.5783L77.1127 106.057C77.4311 108.509 79.5694 110.348 82.1032 110.348H97.0188V131.288H91.9029C91.0135 131.288 90.1603 131.633 89.5313 132.247L83.4403 138.188C82.1307 139.466 82.1307 141.537 83.4403 142.815C84.7502 144.093 86.8735 144.093 88.1832 142.815L93.2918 137.831H107.018L112.127 142.815C113.436 144.092 115.56 144.093 116.869 142.815C118.179 141.537 118.179 139.466 116.869 138.188L110.778 132.247C110.15 131.633 109.297 131.288 108.407 131.288H103.726V110.348H118.692C121.653 110.348 123.994 107.859 123.697 104.949L126.231 105.587V97.1915H125.694C122.017 97.1915 119.026 94.2736 119.026 90.6869V89.0779L115.604 88.2162L115.69 86.7398C112.375 87.3137 108.961 85.706 107.404 82.6726L99.8871 67.9576L110.909 79.6622C112.487 81.3391 114.911 81.9854 117.144 81.3261C119.673 80.5796 119.439 80.6486 123.87 79.3408C123.301 79.8594 123.018 80.5442 123.018 81.2479V90.6866C123.018 92.1287 124.216 93.2977 125.694 93.2977C127.584 93.2977 128.893 93.2977 130.762 93.2977V138.687C130.762 141.621 133.201 144 136.209 144C139.218 144 141.656 141.621 141.656 138.687V93.2975C143.677 93.2975 188.985 93.2975 191.003 93.2975C191.003 94.9505 191.003 136.432 191.003 138.686C191.003 141.621 193.441 144 196.449 144C199.458 144 201.896 141.621 201.896 138.686C201.896 136.368 201.896 94.924 201.896 93.2975H206.964C208.445 93.2975 209.641 92.1222 209.641 90.6864V81.2471C209.641 79.8026 208.44 78.636 206.964 78.636H200.262C201.931 78.3798 203.209 76.9756 203.21 75.276ZM126.255 78.6362L138.513 75.0176C138.586 76.7846 139.865 78.2448 141.572 78.6362H126.255Z" fill="white"/>
<path d="M192.67 31.0022C187.287 28.9369 179.354 30.1134 171.971 34.073C164.696 37.9743 159.321 43.8447 157.866 49.45L157.079 49.3163C156.357 49.1937 155.787 49.9333 156.077 50.6153L158.128 55.4338C158.394 56.0588 159.208 56.1969 159.66 55.6942L163.143 51.8157C163.637 51.2665 163.334 50.3788 162.613 50.2562L161.946 50.1431C163.254 45.7985 167.867 40.997 173.891 37.7667C180.167 34.401 186.967 33.2798 191.216 34.9096C192.279 35.317 193.465 34.7731 193.867 33.6939C194.268 32.615 193.733 31.4099 192.67 31.0022Z" fill="white"/>
<path d="M190.833 25.4784L187.864 21.382C187.444 20.8019 186.52 20.9008 186.243 21.5546L185.939 22.2685C180.457 20.6583 172.681 22.1371 165.557 26.1618C158.326 30.2471 153.146 36.1749 152.039 41.6324C151.82 42.7095 152.551 43.7527 153.67 43.9629C154.789 44.1728 155.874 43.4704 156.092 42.3938C156.966 38.0872 161.502 33.0607 167.648 29.5885C173.547 26.2559 180.022 24.8684 184.366 25.9683L184.109 26.5721C183.831 27.2265 184.418 27.9192 185.14 27.7886L190.242 26.8677C190.905 26.7482 191.217 26.0087 190.833 25.4784Z" fill="white"/>
</svg>
