<svg width="70" height="249" viewBox="0 0 70 249" fill="none" xmlns="http://www.w3.org/2000/svg">
<path d="M11.652 115.763C11.652 115.763 7.57652 150.296 19.804 150.99C32.0305 151.685 18.8448 115 18.8448 115L11.652 115.763Z" fill="#8E5F51"/>
<path d="M15.7609 140.399L15 235.833V237L22.4325 237L34.1081 146.808H40.3036L50.3105 237H58V139L15.7609 140.399Z" fill="#0A3C62"/>
<path d="M16.9318 68C16.9318 68 10 75.7738 10 117H26L16.9318 68Z" fill="#E84646"/>
<path d="M26 120H10V117H26V120Z" fill="#F9D710"/>
<path d="M29.9614 54.6618C16.0512 57.3534 14.8202 71.1718 15.0209 77.6046C15.0119 77.6085 15 77.6144 15 77.6144L15.7621 140H16.239H20.5353H57.8295C58.5131 129.583 58.2111 125.2 57.6805 123.505L69.695 125.169C73.0364 59.9577 48.2176 51.1293 29.9614 54.6618Z" fill="#E84646"/>
<path d="M34.4387 71L49 56.7059C42.895 53.6904 36.2639 53.5106 30.3365 54.6384C28.889 54.9138 27.5899 55.315 26.409 55.8089L26 68.3866L32.2114 62.3641L34.4387 71Z" fill="#810C0C"/>
<path d="M69 125.138C69 125.138 66.0757 145.278 60.0283 157.142C53.979 169.004 44.9079 160.347 49.0458 153.133C53.1838 145.919 58.1577 126.16 57.1627 123L69 125.138Z" fill="#8E5F51"/>
<path d="M50 73C50 73 59.4918 98.155 55.5712 120.018L57.3557 122C57.3557 122 61.2248 93.8154 50 73Z" fill="#810C0C"/>
<path d="M58 244H52V241H58V244Z" fill="#8E5F51"/>
<path d="M58 244V249H35.0133C35.0133 249 34.4137 244 41.2542 244H58Z" fill="black"/>
<path d="M23 244V249H0.0133401C0.0133401 249 -0.586259 244 6.25418 244H23Z" fill="black"/>
<path d="M55.4853 120L70 122.232L69.7513 126L55 124.059L55.4853 120Z" fill="#F9D710"/>
<path d="M28 38V41.939V49.0782V53.0162C28 56.8727 31.582 60 36 60C40.4191 60 44 56.8727 44 53.0162V49.0782V41.939V38H28Z" fill="#74483C"/>
<path d="M16.333 117C16.333 117 17 91.7406 17 81C17 81 15.7371 111.098 15 117H16.333Z" fill="#810C0C"/>
<path d="M58 242H48V237H58V242Z" fill="#1E75B6"/>
<path d="M22 244H16V241H22V244Z" fill="#8E5F51"/>
<path d="M23 242H13V237H23V242Z" fill="#1E75B6"/>
<path d="M15.9728 20C15.9728 20 12.2339 19.5235 12.0428 16.6623C11.9465 15.2034 12.0428 8.17573 12.0428 8.17573C12.9178 7.14601 15.4739 10.9716 17.4939 11.1176C21.6149 11.4164 15.9728 20 15.9728 20Z" fill="#212120"/>
<path d="M48 25.7443V33.4218C48 33.4218 47.9421 36 45.4361 36C42.9283 36 44.4673 25 44.4673 25L48 25.7443Z" fill="#212120"/>
<path d="M46 12V37.803C46 46.1963 39.0605 53 30.4995 53C21.9395 53 15 46.1963 15 37.803V12H46Z" fill="#8E5F51"/>
<path d="M29.0853 13.0262C29.0853 13.0262 16.5561 14.6342 12.9415 12.3824C12.4606 11.2564 12.4875 19.0334 12.3724 17.325C12.2613 15.6754 12 4.51958 12 4.51958C12.3724 3.01306 15.9249 1.38919 20.0493 0.722945C31.2532 -1.08588 48 -0.500347 48 14.4735V24.1222L44.1848 28.7894C44.1848 28.7894 44.5058 29.9916 42.8194 29.9916C42.8194 29.9916 41.0126 30.2739 41.0126 27.5601C41.0126 24.8464 40.5912 23.3991 39.2058 22.916C37.8193 22.4339 36.5543 17.368 38.5426 17.0667C40.53 16.7654 42.0369 11.9405 29.0853 13.0262Z" fill="#212120"/>
<path d="M30 25C30 25.552 30.448 26 31.0007 26C31.5527 26 32 25.552 32 25C32 24.448 31.5527 24 31.0007 24C30.448 24 30 24.448 30 25Z" fill="#212120"/>
<path d="M19 25C19 25.552 19.672 26 20.501 26C21.329 26 22 25.552 22 25C22 24.448 21.329 24 20.501 24C19.672 24 19 24.448 19 25Z" fill="#212120"/>
<path d="M27 19V35H22L25.4002 19H27Z" fill="#74483C"/>
<path d="M24.5 44C23.1195 44 22 42.6566 22 41H27C27 42.6566 25.8805 44 24.5 44Z" fill="#212120"/>
<path d="M44 23.3786C44.6287 22.5405 45.5416 22 46.5713 22C48.4652 22 50 23.7908 50 26.0006C50 28.2092 48.4652 30 46.5713 30C45.5416 30 44.6287 29.4595 44 28.6214V23.3786Z" fill="#8E5F51"/>
</svg>
