<svg width="77" height="77" viewBox="0 0 77 77" fill="none" xmlns="http://www.w3.org/2000/svg">
<circle opacity="0.1" cx="38.5" cy="38.5" r="38.5" fill="#00AEFF"/>
<g clip-path="url(#clip0)">
<path d="M58.8228 47.0683H48.3184C49.8653 46.0598 51.261 44.8127 52.4401 43.366C54.7687 40.5082 56.1579 36.9775 56.4185 33.3091H58.5917C59.4085 33.3091 60.0732 32.6444 60.0732 31.8276V25.1291C60.0732 24.3122 59.4085 23.6479 58.5917 23.6479H51.8932C51.0763 23.6479 50.412 24.3122 50.412 25.1291V31.8279C50.412 32.6444 51.0763 33.3091 51.8932 33.3091H53.8871C53.6317 36.3973 52.4461 39.363 50.4833 41.7711C48.6221 44.0553 46.1351 45.761 43.366 46.6778V45.2903C43.366 44.4735 42.7014 43.8091 41.8845 43.8091H35.186C34.3692 43.8091 33.7048 44.4735 33.7048 45.2903V46.6778C30.9354 45.761 28.4484 44.055 26.5872 41.7711C24.6245 39.3626 23.4388 36.397 23.1834 33.3091H25.18C25.9969 33.3091 26.6615 32.6447 26.6615 31.8279V25.1291C26.6615 24.3122 25.9969 23.6479 25.18 23.6479H18.4812C17.6643 23.6479 17 24.3122 17 25.1291V31.8279C17 32.6444 17.6643 33.3091 18.4812 33.3091H20.652C20.9123 36.9775 22.3015 40.5082 24.6301 43.3657C25.8092 44.8127 27.2052 46.0598 28.7521 47.0687H18.2626C17.5654 47.0687 17.0003 47.6337 17.0003 48.3306C17.0003 49.0278 17.5654 49.5928 18.2626 49.5928H33.7045V51.9888C33.7045 52.8057 34.3692 53.4703 35.1857 53.4703H41.8845C42.7014 53.4703 43.3657 52.8057 43.3657 51.9888V49.5928H58.8228C59.52 49.5928 60.085 49.0278 60.085 48.3306C60.085 47.6337 59.52 47.0683 58.8228 47.0683ZM52.9362 30.7846V26.1721H57.5487V30.7846H52.9362ZM19.5242 30.7846V26.1721H24.137V30.7846H19.5242ZM40.8415 50.9458H36.229V46.3333H40.8415V50.9458Z" fill="#00AEFF"/>
</g>
<defs>
<clipPath id="clip0">
<rect width="43.085" height="43.085" fill="white" transform="translate(17 17)"/>
</clipPath>
</defs>
</svg>
