<svg width="165" height="165" viewBox="0 0 235 235" fill="none" xmlns="http://www.w3.org/2000/svg">
<circle cx="117.5" cy="117.5" r="117.5" fill="#97D1FC"/>
<mask id="mask0" mask-type="alpha" maskUnits="userSpaceOnUse" x="61" y="31" width="100" height="100">
<circle cx="111" cy="81" r="50" fill="#C4C4C4"/>
</mask>
<g mask="url(#mask0)">
<circle cx="111" cy="81" r="50" fill="white"/>
<path d="M126.932 112C126.932 112 120 119.774 120 161H136L126.932 112Z" fill="#E84646"/>
<path d="M139.961 98.6618C126.051 101.353 124.82 115.172 125.021 121.605C125.012 121.609 125 121.614 125 121.614L125.762 184H126.239H130.535H167.83C168.513 173.583 168.211 169.2 167.681 167.505L179.695 169.169C183.036 103.958 158.218 95.1293 139.961 98.6618Z" fill="#E84646"/>
<path d="M144.439 115L159 100.706C152.895 97.6904 146.264 97.5106 140.336 98.6384C138.889 98.9138 137.59 99.315 136.409 99.8089L136 112.387L142.211 106.364L144.439 115Z" fill="#810C0C"/>
<path d="M160 117C160 117 169.492 142.155 165.571 164.018L167.356 166C167.356 166 171.225 137.815 160 117Z" fill="#810C0C"/>
<path d="M138 82V85.939V93.0782V97.0162C138 100.873 141.582 104 146 104C150.419 104 154 100.873 154 97.0162V93.0782V85.939V82H138Z" fill="#74483C"/>
<path d="M126.333 161C126.333 161 127 135.741 127 125C127 125 125.737 155.098 125 161H126.333Z" fill="#810C0C"/>
<path d="M125.973 64C125.973 64 122.234 63.5235 122.043 60.6623C121.946 59.2034 122.043 52.1757 122.043 52.1757C122.918 51.146 125.474 54.9716 127.494 55.1176C131.615 55.4164 125.973 64 125.973 64Z" fill="#212120"/>
<path d="M158 69.7443V77.4218C158 77.4218 157.942 80 155.436 80C152.928 80 154.467 69 154.467 69L158 69.7443Z" fill="#212120"/>
<path d="M156 56V81.803C156 90.1963 149.06 97 140.499 97C131.94 97 125 90.1963 125 81.803V56H156Z" fill="#8E5F51"/>
<path d="M139.085 57.0262C139.085 57.0262 126.556 58.6342 122.941 56.3824C122.461 55.2564 122.488 63.0334 122.372 61.325C122.261 59.6754 122 48.5196 122 48.5196C122.372 47.0131 125.925 45.3892 130.049 44.7229C141.253 42.9141 158 43.4997 158 58.4735V68.1222L154.185 72.7894C154.185 72.7894 154.506 73.9916 152.819 73.9916C152.819 73.9916 151.013 74.2739 151.013 71.5601C151.013 68.8464 150.591 67.3991 149.206 66.916C147.819 66.4339 146.554 61.368 148.543 61.0667C150.53 60.7654 152.037 55.9405 139.085 57.0262Z" fill="#212120"/>
<path d="M140 69C140 69.552 140.448 70 141.001 70C141.553 70 142 69.552 142 69C142 68.448 141.553 68 141.001 68C140.448 68 140 68.448 140 69Z" fill="#212120"/>
<path d="M129 69C129 69.552 129.672 70 130.501 70C131.329 70 132 69.552 132 69C132 68.448 131.329 68 130.501 68C129.672 68 129 68.448 129 69Z" fill="#212120"/>
<path d="M137 63V79H132L135.4 63H137Z" fill="#74483C"/>
<path d="M134.5 88C133.12 88 132 86.6566 132 85H137C137 86.6566 135.88 88 134.5 88Z" fill="#212120"/>
<path d="M154 67.3786C154.629 66.5405 155.542 66 156.571 66C158.465 66 160 67.7908 160 70.0006C160 72.2092 158.465 74 156.571 74C155.542 74 154.629 73.4595 154 72.6214V67.3786Z" fill="#8E5F51"/>
<path d="M134 134C134 136.761 136.24 139 138.999 139C141.762 139 144 136.761 144 134C144 131.239 141.762 129 138.999 129C136.24 129 134 131.239 134 134Z" fill="#8E5F51"/>
<path d="M65.8484 123C65.8484 123 51.7254 151.738 64.0419 191.113C64.0419 191.113 67.0566 201.126 73.0104 198.588C78.963 196.049 74.6833 187.529 71.7093 181.367C68.7306 175.204 65.3245 139.74 75.1201 131.279C75.1201 131.279 75.7997 127.895 65.8484 123Z" fill="#8E5F51"/>
<path d="M103.112 119.575C103.024 122.255 103.724 125.559 103.724 125.559C109.819 132.258 101.743 138.153 101.743 138.153L99.3091 161H74.3768C74.3768 161 71.6524 138.779 71.8321 135.741C71.9181 134.288 72.4985 133.714 72.9916 133.227C73.5285 132.697 73.9618 132.268 73.5398 130.918C72.7314 128.327 65 124.041 65 124.041C71.5615 110.643 77.9444 104.658 88.1021 105.015C98.2599 105.373 103.203 116.895 103.112 119.575Z" fill="#FFDE23"/>
<path d="M82.5254 93V104.341V107.458C82.5254 107.458 81.6433 111.409 82.165 113.854C82.8346 116.992 84.6878 119.707 86.4897 120.805C88.2917 121.902 90.454 123 94.0579 123C99.8691 123 90.7871 108.512 90.7871 108.512V104.341V93.9029L82.5254 93Z" fill="#74483C"/>
<path d="M93 123C93 123 91.5126 121.33 90.8571 120.083C90.4468 119.303 90 118 90 118L93 123Z" fill="#492920"/>
<path d="M77.3406 47.989C72.7106 49.6403 68.3091 52.6582 66.0798 57.3273C64.2507 61.1992 64.8223 66.0961 63.4504 70.082C61.4498 76.0607 59.1062 81.6409 57.62 87.7905C56.191 93.6554 54.4761 101.058 58.4774 106.239C59.6778 107.777 60.5924 108.346 62.1929 109.314C62.936 109.77 64.0792 110.111 64.4793 110.908C65.3368 112.389 64.3078 114.325 65.794 115.805C67.1087 117.115 69.8524 117.57 71.5673 118.083C74.9969 119.108 78.1408 120.076 81.6848 120.588C86.4864 121.215 91.9167 121.556 95.7465 118.311C98.9475 115.578 103.177 112.446 104.778 108.403C105.292 107.036 105.121 105.556 105.75 104.303C106.378 102.994 107.007 103.221 108.036 102.196C109.865 100.431 108.722 98.4953 107.636 96.5594C106.15 93.8262 105.921 91.7764 106.207 88.6446C106.664 83.6908 106.321 80.3882 104.606 75.6622C102.72 70.4806 102.377 64.9004 100.491 59.6049C98.776 54.765 94.7747 50.3236 89.9732 48.5015C87.058 47.3627 81.8563 46.053 77.3406 47.989Z" fill="#F7941E"/>
<path d="M78.7318 87.273C74.9163 82.5895 76.5435 76.1926 76.5996 70.8809C74.1869 75.3359 74.9724 80.2478 75.4213 84.9884C74.8602 80.7619 71.8863 77.1636 71.6619 72.6515C71.4936 68.7106 72.8402 64.8838 72.7841 61C69.6419 64.7696 69.9224 71.0523 70.0908 75.7357C69.4736 72.5373 68.6881 69.9671 68.4636 66.6544C66.7803 73.2227 70.0347 81.6186 72.5596 87.7299C74.5235 92.5276 83.894 99.7812 89 95.8974C87.485 94.698 78.9562 89.3291 78.7318 87.273Z" fill="#CE7515"/>
<path d="M95 98C90.5313 100.635 87.1939 104.521 82.1596 105.773C75.9373 107.288 71.5818 102.874 67 98.988C69.5455 104.916 73.5616 108.737 79.2747 107.88C84.1394 107.09 90.305 103.665 95 98Z" fill="#CE7515"/>
<path d="M69.2427 114.668C74.8853 117.602 81.041 116.642 85.9997 112.862C89.4765 110.154 96.658 104.173 97 99.4335C92.3263 103.834 88.0516 109.533 82.0099 112.241C78.6471 113.765 75.5693 112.975 72.5484 111.057C69.1286 108.856 64.7399 106.374 62.0611 103.383C58.9263 99.9413 60.1232 93.1142 60.0092 88.7696C60.5221 91.2522 63.7709 94.6376 65.9938 95.6532C64.5119 92.8885 62.688 89.9545 62.802 86.682C64.2269 90.9701 70.7246 96.4995 75.5123 97.7972C74.8283 96.0481 72.8904 94.4119 71.6365 92.8885C69.9836 90.8572 69.1286 88.7696 67.9887 86.4563C66.1648 82.6759 64.6829 79.4598 64.4549 75.1153C64.2269 71.4478 64.3979 67.7239 64.5689 64C64.2839 66.2569 64.1129 68.5138 63.429 70.545C61.4341 76.4694 59.0973 81.9989 57.6153 88.0925C56.1904 93.9041 54.4805 101.239 58.4703 106.374C59.6672 107.897 60.5792 108.461 62.1751 109.42C62.916 109.872 64.056 110.21 64.4549 111C65.3099 112.467 64.284 114.386 65.7659 115.853C67.0768 117.15 69.8126 117.602 71.5225 118.109C74.9423 119.125 78.0771 120.084 81.6109 120.592C86.3986 121.213 91.8133 121.551 95.6321 118.335C95.917 118.109 96.202 117.884 96.487 117.602C94.3781 118.335 92.1553 118.843 89.8754 118.956C83.4918 119.294 74.0874 119.407 69.2427 114.668Z" fill="#CE7515"/>
<path d="M98 64.6227C95.8813 62.3939 92.8058 60.6605 89.0468 61.0567C87.0648 60.8586 83.9209 62.0968 82.2806 62.8397C80.2302 63.7807 79.4101 65.3656 79 67C82.3489 65.5142 86.9281 64.6227 89.8669 64.4246C92.3273 64.276 95.2662 64.276 98 64.6227Z" fill="#2E251C"/>
<path d="M79 67.0001C79 67.0001 95.5 57.5001 100.915 68.1408L103.591 78.0128C105.608 85.4597 100.631 93.2126 92.4761 95.3323C84.3178 97.4498 79.8146 90.946 77.7966 83.5001C77.7966 83.5001 77.4374 79.0342 77.7966 75.1347C78.2696 70 79 67.0001 79 67.0001Z" fill="#8E5F51"/>
<path d="M86.9851 75.8376C87.4117 75.7279 87.7401 75.4834 87.9344 75.131C88.3398 74.3941 88.0218 73.4391 87.9852 73.3333C87.8916 73.0703 87.6028 72.9313 87.3259 73.016C87.0541 73.1061 86.9083 73.3913 86.9997 73.6553C87.0564 73.8209 87.1803 74.3568 87.0154 74.6548C86.9755 74.7247 86.9066 74.8121 86.7169 74.8607C85.9778 75.0503 85.4604 73.9466 85.4544 73.9358C85.3376 73.6812 85.0327 73.5647 84.7675 73.6772C84.5067 73.79 84.3874 74.0868 84.5031 74.3413C84.8232 75.0511 85.7077 76.1657 86.9851 75.8376Z" fill="#212120"/>
<path d="M98.1543 73.3789C98.5819 73.2696 98.9092 73.0256 99.1035 72.6739C99.5099 71.9388 99.1907 70.9848 99.1541 70.8803C99.0627 70.6179 98.7681 70.4611 98.4958 70.5647C98.2242 70.6525 98.0783 70.938 98.1686 71.2025C98.2253 71.3667 98.3493 71.9014 98.1844 72.1988C98.1456 72.2695 98.0767 72.3558 97.887 72.4042C97.148 72.5933 96.6293 71.493 96.6233 71.4812C96.5065 71.2271 96.2006 71.1087 95.9386 71.2242C95.6756 71.3356 95.5575 71.6318 95.6721 71.8857C95.9933 72.594 96.878 73.7052 98.1543 73.3789Z" fill="#212120"/>
<path d="M97.5849 77.4952L93.91 78.4348L91.9559 71.3348L93.1531 71.0271L97.5849 77.4952Z" fill="#74483C"/>
<path d="M96.4813 87.9783C94.87 88.4687 93.2235 87.3974 92.805 85.5821L98.6444 83.8048C99.0619 85.6188 98.0937 87.4867 96.4813 87.9783Z" fill="#1400F9"/>
</g>
</svg>
