<svg width="209" height="209" viewBox="0 0 279 279" fill="none" xmlns="http://www.w3.org/2000/svg">
<circle cx="139.5" cy="139.5" r="139.5" fill="#E4F0FA"/>
<mask id="mask0" mask-type="alpha" maskUnits="userSpaceOnUse" x="83" y="59" width="100" height="100">
<circle cx="133" cy="109" r="50" fill="#C4C4C4"/>
</mask>
<g mask="url(#mask0)">
<circle cx="133" cy="109" r="50" fill="white"/>
<path d="M164.154 178.365C164.261 176.365 165 158.688 165 148.324C165 136.212 162.72 128.647 156.532 126.919C150.345 125.192 141.309 122.033 141.309 122.033V122.481C141.301 123.68 140.828 124.828 139.993 125.672C139.159 126.516 138.031 126.988 136.856 126.985H130.133C128.955 126.985 127.825 126.507 126.992 125.656C126.159 124.805 125.691 123.651 125.691 122.448V122C125.691 122 116.655 125.192 110.468 126.887C104.28 128.581 102 136.179 102 148.291C102 159.442 102.343 175.228 102.343 175.228C102.343 175.228 102.021 180.432 111.346 181H153.909C154.933 181.002 155.95 180.847 156.928 180.541L164.154 178.365Z" fill="#FA1212"/>
<path d="M149 101V106.349C149 106.566 149 106.783 149 107C149.595 106.743 150.101 106.323 150.456 105.79C150.811 105.258 151 104.636 151 104C151 103.364 150.811 102.742 150.456 102.21C150.101 101.677 149.595 101.257 149 101Z" fill="url(#paint0_linear)"/>
<path d="M132.562 123.659C129.916 123.651 127.315 122.924 125 121.545V126.307C124.988 128.287 125.689 130.196 126.958 131.63C128.226 133.065 129.963 133.915 131.801 134H134.199C136.037 133.912 137.771 133.062 139.039 131.627C140.307 130.193 141.01 128.286 141 126.307V121C138.477 122.725 135.551 123.647 132.562 123.659Z" fill="url(#paint1_linear)"/>
<path fill-rule="evenodd" clip-rule="evenodd" d="M148.851 88.7484H131.76C119.746 88.7484 116.692 88.0381 116.117 87H116V97.4684V105.653C116 115.75 123.449 124 132.505 124C141.561 124 149 115.739 149 105.653L148.851 88.7484Z" fill="url(#paint2_linear)"/>
<path d="M152 94.067C151.997 90.6831 151.12 87.3602 149.457 84.4358H149.272C149.272 84.3799 149.272 84.3128 149.348 84.257C148.942 83.5584 148.494 82.8866 148.006 82.2458C148.088 82.0205 148.132 81.7824 148.137 81.5419C148.136 81.0208 147.945 80.5187 147.602 80.1341C147.668 80.0342 147.719 79.9251 147.755 79.8101C147.94 79.5431 148.062 79.2355 148.11 78.9118C148.159 78.588 148.133 78.2572 148.034 77.9456C147.936 77.6341 147.767 77.3504 147.542 77.1174C147.318 76.8843 147.043 76.7083 146.74 76.6034C146.831 76.3569 146.879 76.0959 146.882 75.8324C146.888 75.5504 146.838 75.2701 146.736 75.0079C146.635 74.7458 146.483 74.5072 146.289 74.3062C146.096 74.1052 145.865 73.9459 145.611 73.8376C145.357 73.7294 145.084 73.6744 144.808 73.676H144.732C144.709 73.5184 144.657 73.3667 144.579 73.2291C144.579 73.2291 144.579 73.162 144.579 73.1397C144.579 72.5796 144.362 72.0425 143.975 71.6464C143.588 71.2504 143.063 71.0279 142.516 71.0279C142.325 71.0313 142.134 71.0575 141.949 71.1061C141.891 71.0412 141.825 70.9847 141.752 70.9385C141.662 70.6543 141.513 70.3932 141.315 70.1729C141.118 69.9527 140.876 69.7784 140.607 69.6619C140.338 69.5454 140.048 69.4893 139.756 69.4976C139.464 69.5058 139.177 69.578 138.915 69.7095C138.757 69.3282 138.492 69.0031 138.154 68.7746C137.817 68.5461 137.421 68.4244 137.016 68.4246C136.689 68.4307 136.367 68.5149 136.078 68.6704C135.729 68.2953 135.257 68.066 134.753 68.0268C134.249 67.9876 133.749 68.1413 133.349 68.4581H133.076C132.953 68.4465 132.829 68.4465 132.705 68.4581C132.341 68.1643 131.892 68.0031 131.428 68C131.152 68.0028 130.878 68.0615 130.623 68.1727C130.369 68.2839 130.138 68.4455 129.944 68.648C129.654 68.4961 129.332 68.4157 129.006 68.4134C128.599 68.411 128.201 68.5317 127.861 68.7603C127.521 68.9889 127.255 69.3153 127.096 69.6983C126.821 69.5601 126.518 69.4876 126.212 69.486C125.742 69.4868 125.287 69.6508 124.92 69.9512C124.553 70.2516 124.297 70.6707 124.193 71.1397C123.881 71.0268 123.547 70.9923 123.22 71.0392C122.892 71.0861 122.581 71.2129 122.311 71.409C122.041 71.6051 121.822 71.8647 121.671 72.1659C121.52 72.4671 121.441 72.8011 121.443 73.1397C121.426 73.2993 121.426 73.4604 121.443 73.6201C121.443 73.6201 121.443 73.676 121.443 73.6983H121.181C120.634 73.6983 120.109 73.9208 119.722 74.3168C119.336 74.7129 119.118 75.25 119.118 75.8101C119.119 76.0748 119.171 76.3367 119.271 76.581C118.862 76.7193 118.506 76.9859 118.254 77.3428C118.001 77.6997 117.864 78.129 117.863 78.5698C117.864 79.0048 117.994 79.4294 118.234 79.7877C118.278 79.9012 118.333 80.0098 118.398 80.1117C118.145 80.3898 117.972 80.7351 117.901 81.1084C117.83 81.4817 117.862 81.868 117.994 82.2235C115.415 85.5988 114.009 89.7589 114 94.0447V94.1006C114.031 98.1603 114.739 102.185 116.095 106V96.514C119.11 97.4674 122.249 97.9496 125.404 97.9441H137.071L135.041 90.6145C135.041 90.5028 135.041 90.4469 135.041 90.4469V90.6145C135.368 91.7318 137.715 97.4078 149.872 97.9106V105.978C151.216 102.159 151.924 98.1368 151.967 94.0782L152 94.067Z" fill="black"/>
<path d="M115.988 107.034V101C115.131 101.205 114.374 101.659 113.834 102.292C113.293 102.925 113 103.701 113 104.5C113 105.299 113.293 106.075 113.834 106.708C114.374 107.341 115.131 107.795 115.988 108C116.015 107.65 115.988 107.348 115.988 107.034Z" fill="url(#paint3_linear)"/>
<path d="M125.945 104.153C125.72 103.801 125.432 103.515 125.104 103.317C124.776 103.118 124.416 103.011 124.05 103.004C123.634 102.975 123.22 103.095 122.86 103.35C122.5 103.605 122.208 103.983 122.023 104.437C121.992 104.536 121.992 104.646 122.023 104.746C122.037 104.797 122.061 104.844 122.093 104.882C122.124 104.921 122.163 104.95 122.205 104.968C122.286 105.009 122.377 105.011 122.458 104.971C122.54 104.932 122.605 104.856 122.641 104.758C122.775 104.455 122.979 104.206 123.228 104.042C123.476 103.878 123.758 103.805 124.04 103.832C124.299 103.833 124.556 103.906 124.789 104.045C125.023 104.184 125.227 104.385 125.388 104.634C125.413 104.678 125.445 104.716 125.482 104.744C125.519 104.773 125.561 104.792 125.604 104.802C125.647 104.811 125.692 104.809 125.735 104.798C125.777 104.786 125.818 104.764 125.854 104.733C125.927 104.669 125.977 104.573 125.994 104.465C126.011 104.357 125.993 104.246 125.945 104.153Z" fill="black"/>
<path d="M143.899 104.15C143.617 103.801 143.26 103.517 142.853 103.319C142.446 103.121 142 103.013 141.545 103.003C141.029 102.978 140.517 103.099 140.07 103.353C139.623 103.607 139.261 103.982 139.028 104.434C138.991 104.533 138.991 104.643 139.028 104.742C139.046 104.793 139.076 104.84 139.115 104.879C139.155 104.917 139.202 104.946 139.255 104.964C139.304 104.986 139.358 104.998 139.412 105C139.466 105.001 139.52 104.992 139.571 104.972C139.622 104.953 139.668 104.923 139.706 104.886C139.745 104.848 139.775 104.804 139.796 104.754C139.963 104.452 140.216 104.204 140.524 104.04C140.833 103.875 141.183 103.802 141.533 103.83C141.854 103.829 142.171 103.901 142.459 104.04C142.747 104.179 142.998 104.381 143.194 104.631C143.222 104.684 143.262 104.73 143.31 104.766C143.358 104.803 143.414 104.829 143.473 104.843C143.532 104.857 143.594 104.858 143.654 104.847C143.713 104.835 143.77 104.811 143.82 104.777C143.869 104.742 143.911 104.698 143.942 104.646C143.972 104.595 143.991 104.538 143.998 104.478C144.004 104.419 143.997 104.359 143.978 104.302C143.959 104.246 143.927 104.194 143.886 104.15H143.899Z" fill="black"/>
<path d="M132.785 112C132.312 112 131.858 111.821 131.523 111.501C131.188 111.182 131 110.749 131 110.297V108.204C131.003 108.149 131.027 108.097 131.069 108.059C131.111 108.021 131.167 108 131.224 108C131.253 108 131.28 108.005 131.306 108.016C131.332 108.026 131.356 108.041 131.376 108.06C131.396 108.079 131.412 108.101 131.422 108.126C131.433 108.151 131.439 108.178 131.439 108.204V110.297C131.439 110.638 131.581 110.964 131.833 111.205C132.086 111.446 132.428 111.582 132.785 111.582C132.815 111.581 132.843 111.587 132.87 111.598C132.897 111.609 132.921 111.625 132.941 111.645C132.961 111.665 132.976 111.688 132.986 111.714C132.997 111.74 133.001 111.768 133 111.796C133 111.85 132.977 111.902 132.937 111.94C132.897 111.978 132.842 112 132.785 112Z" fill="#734139"/>
<path d="M132.695 115.008H132.295C130.828 114.968 129.377 114.627 128 114C128.241 114.679 128.615 115.272 129.089 115.723C130.067 116.562 131.229 117.008 132.418 117H132.592C133.778 117.008 134.936 116.562 135.911 115.723C136.391 115.279 136.767 114.684 137 114C135.62 114.63 134.165 114.971 132.695 115.008Z" fill="white"/>
<path opacity="0.2" d="M142.975 107C142.452 107 141.934 107.078 141.451 107.229C140.968 107.38 140.529 107.601 140.16 107.879C139.79 108.158 139.498 108.489 139.299 108.853C139.1 109.217 138.998 109.607 139 110H147C147.002 109.603 146.898 109.21 146.696 108.844C146.494 108.478 146.197 108.145 145.823 107.866C145.448 107.587 145.003 107.366 144.514 107.218C144.025 107.069 143.502 106.995 142.975 107Z" fill="#F39B9B"/>
<path opacity="0.2" d="M122.494 107C121.567 107.003 120.678 107.32 120.023 107.882C119.368 108.444 119 109.206 119 110H126C126 109.204 125.631 108.441 124.973 107.879C124.316 107.316 123.424 107 122.494 107Z" fill="#F39B9B"/>
</g>
<defs>
<linearGradient id="paint0_linear" x1="148.965" y1="103.994" x2="150.989" y2="103.994" gradientUnits="userSpaceOnUse">
<stop stop-color="#8E5F51"/>
<stop offset="0.39" stop-color="#885A4C"/>
<stop offset="0.89" stop-color="#794C40"/>
<stop offset="1" stop-color="#74483C"/>
</linearGradient>
<linearGradient id="paint1_linear" x1="132.995" y1="134" x2="132.995" y2="121" gradientUnits="userSpaceOnUse">
<stop stop-color="#8E5F51"/>
<stop offset="0.44" stop-color="#825447"/>
<stop offset="0.79" stop-color="#74483C"/>
</linearGradient>
<linearGradient id="paint2_linear" x1="5089.43" y1="1771.24" x2="6112.76" y2="1771.24" gradientUnits="userSpaceOnUse">
<stop stop-color="#8E5F51"/>
<stop offset="0.39" stop-color="#885A4C"/>
<stop offset="0.89" stop-color="#794C40"/>
<stop offset="1" stop-color="#74483C"/>
</linearGradient>
<linearGradient id="paint3_linear" x1="558.14" y1="410.47" x2="565.31" y2="410.47" gradientUnits="userSpaceOnUse">
<stop stop-color="#8E5F51"/>
<stop offset="0.39" stop-color="#885A4C"/>
<stop offset="0.89" stop-color="#794C40"/>
<stop offset="1" stop-color="#74483C"/>
</linearGradient>
</defs>
</svg>
