<svg width="153" height="153" viewBox="0 0 223 223" fill="none" xmlns="http://www.w3.org/2000/svg">
<circle cx="111.5" cy="111.5" r="111.5" fill="#00AEFF"/>
<mask id="mask0" mask-type="alpha" maskUnits="userSpaceOnUse" x="61" y="37" width="100" height="100">
<circle cx="111" cy="87" r="50" fill="#C4C4C4"/>
</mask>
<g mask="url(#mask0)">
<circle cx="111" cy="87" r="50" fill="white"/>
<path d="M138.7 155.266C138.7 155.266 140.871 196.006 133.527 195.164C126.182 194.323 127.684 135.401 138.7 155.266Z" fill="#8E5F51"/>
<path d="M134.136 115.177C134.136 115.177 140 139.608 140 156.177H128C128 156.177 131.39 115.768 134.136 115.177Z" fill="#53585B"/>
<path d="M82.8778 117.177C82.8778 117.177 77 142.178 77 156.177H88L83.5 115.177L82.8778 117.177Z" fill="#53585B"/>
<path d="M134 188.177V115.309C134 115.309 133.967 100.177 110.348 100.177C86.7291 100.177 83 112.934 83 119.559C83 126.183 85.9006 188.177 85.9006 188.177H134Z" fill="#788996"/>
<path d="M102 92.177V101.378C102 104.58 104.91 107.177 108.5 107.177C112.09 107.177 115 104.58 115 101.378V92.177H102Z" fill="#8E5F51"/>
<path d="M126 64.1768H100V53.1768H126V64.1768Z" fill="#8E5F51"/>
<path d="M95 70.9897V79.3644C95 79.3644 95.0556 82.1768 97.5644 82.1768C100.071 82.1768 98.5327 70.1768 98.5327 70.1768L95 70.9897Z" fill="#212120"/>
<path d="M97 58.1768V83.9798C97 92.3731 104.387 99.1768 113.499 99.1768C122.612 99.1768 130 92.3731 130 83.9798V58.1768H97Z" fill="#8E5F51"/>
<path d="M114 71.6767C114 72.5047 113.327 73.1767 112.5 73.1767C111.672 73.1767 111 72.5047 111 71.6767C111 70.8487 111.672 70.1767 112.5 70.1767C113.327 70.1767 114 70.8487 114 71.6767Z" fill="#212120"/>
<path d="M126 71.6767C126 72.5047 125.328 73.1767 124.5 73.1767C123.672 73.1767 123 72.5047 123 71.6767C123 70.8487 123.672 70.1767 124.5 70.1767C125.328 70.1767 126 70.8487 126 71.6767Z" fill="#212120"/>
<path d="M117 65.1768V81.1768H123L118.92 65.1768H117Z" fill="#74483C"/>
<path d="M127.179 88.3233C126.104 88.3838 126.082 86.8936 126.121 86.2598C125.859 82.4766 120.195 82.6163 120.195 82.6163C113.53 82.6163 112.771 88.8419 112.771 88.8419C103.495 88.8419 102.39 73.4346 102.39 73.4346L97 70.1768V84.1651C97 92.4561 104.414 99.1768 113.559 99.1768C122.057 99.1768 129.049 93.3731 130 85.9014C130 85.9014 128.54 88.2452 127.179 88.3233Z" fill="#212120"/>
<path d="M120.001 90.1768C121.656 90.1768 123 88.8334 123 87.1768H117C117 88.8334 118.343 90.1768 120.001 90.1768Z" fill="white"/>
<path d="M115.5 47.177C113.527 46.8107 95 45.6755 95 60.6493V70.2991L99.0849 74.9663C99.0849 74.9663 98.7405 76.1685 100.546 76.1685C100.546 76.1685 102.483 76.4497 102.483 73.7359C102.483 71.0222 102.934 69.5749 104.418 69.0929C105.902 68.6098 108 58.677 108 58.677C108 58.677 111 58.177 122 58.677C126.495 58.8813 130 59.177 130 59.177L130.5 57.677V56.177C130.5 56.177 132 53.177 127 50.6768L121.5 48.6769C121.5 48.6769 117.473 47.5433 115.5 47.177Z" fill="#212120"/>
<path d="M99 70.383C98.2658 69.6497 97.2015 69.1768 96 69.1768C93.7922 69.1768 92 70.7437 92 72.6773C92 74.6098 93.7922 76.1768 96 76.1768C97.2015 76.1768 98.2658 75.7038 99 74.9705V70.383Z" fill="#8E5F51"/>
<path d="M130 68.177C130 68.177 130.799 65.6132 130.889 62.6256C131.134 59.9134 130.897 54.7486 130.897 54.7486C130.897 54.7486 130.897 54.7486 130.66 54.2319C130.255 53.6248 129.705 58.2523 129 58.364C130 60.677 130 68.177 130 68.177Z" fill="#212120"/>
</g>
</svg>
