<svg width="72" height="72" viewBox="0 0 72 72" fill="none" xmlns="http://www.w3.org/2000/svg">
<g filter="url(#filter0_d)">
<circle cx="36" cy="34" r="30" fill="white"/>
</g>
<path d="M32.4435 35.6964C33.2359 35.8154 34.2031 35.6331 35.2597 35.5699C35.4568 35.6145 35.654 35.6443 35.8586 35.6443C36.067 35.6443 36.2716 35.6145 36.4762 35.5662C39.2255 35.7001 41.3683 36.4777 41.3683 30.8824C41.3683 27.0841 38.9018 24 35.8586 24C32.8155 24 30.349 27.0841 30.349 30.8824C30.349 33.9368 30.933 35.1235 31.8817 35.5365C32.0566 35.6183 32.2463 35.6667 32.4435 35.6964ZM31.5655 28.7359C32.1421 29.5357 33.6377 29.3646 34.9286 28.3527C35.256 28.096 35.5424 27.8021 35.7731 27.5045C35.8028 27.5082 35.8326 27.5119 35.8624 27.5193C35.9888 27.5417 36.1042 27.5863 36.2344 27.6272C36.3497 27.683 36.4762 27.7277 36.5878 27.7984C36.7032 27.8579 36.8073 27.9397 36.9115 28.0104C37.0045 28.0923 37.1086 28.1704 37.1868 28.2597C37.2686 28.3415 37.3467 28.4308 37.4062 28.5164C37.4732 28.5982 37.5216 28.6838 37.5699 28.7582C37.6182 28.8326 37.6592 28.8996 37.6815 28.9591C37.7373 29.0744 37.7708 29.1414 37.7708 29.1414C37.7708 29.1414 37.7596 29.0707 37.7373 28.9405C37.7299 28.8735 37.7113 28.7991 37.689 28.7098C37.6666 28.6205 37.6406 28.5164 37.5959 28.4122C37.5587 28.3043 37.5067 28.1927 37.4471 28.0737C37.3913 27.9546 37.3095 27.8393 37.2313 27.7128C37.1383 27.5975 37.0528 27.471 36.9411 27.3594C36.837 27.2403 36.7105 27.1399 36.5877 27.032C36.4724 26.9501 36.3497 26.8609 36.2195 26.7902C36.2753 26.6749 36.3199 26.5558 36.3571 26.4442C36.8184 26.6525 37.2909 26.9167 37.6666 27.2924C39.0468 28.6726 38.5036 30.276 39.5677 29.2158C39.7351 29.0484 39.8727 28.8735 39.9806 28.6987C40.0178 28.6987 40.055 28.6949 40.0848 28.7024C40.2299 28.7396 40.3229 28.8512 40.375 28.9405C40.5201 29.1823 40.5536 29.532 40.4643 29.8817C40.3303 30.4025 39.9881 30.7113 39.7128 30.7448L39.4895 30.7746L39.4301 30.994C38.9018 32.91 37.4769 34.9487 35.8661 34.9487C34.2552 34.9487 32.8341 32.91 32.3021 30.994L32.2426 30.7746L32.0193 30.7448C31.7478 30.7076 31.4018 30.3988 31.2679 29.8817C31.1786 29.532 31.2121 29.1823 31.3571 28.9405C31.3906 28.8735 31.465 28.7879 31.5655 28.7359Z" fill="#00AEFF"/>
<path d="M39.9992 36.1987C39.5677 36.9352 39.0654 37.5565 38.4032 37.8988C37.0342 38.5982 36.0149 39.1711 36.0149 39.1711L36.0111 39.1674V39.1562L36 39.1636L35.9888 39.1562V39.1674L35.9851 39.1711C35.9851 39.1711 34.9695 38.6056 33.5967 37.8988C32.9345 37.5565 32.436 36.9352 32.0007 36.1987C29.9732 37.0245 28.5595 38.9144 28.5595 40.5699C28.5595 42.311 28.5595 44 28.5595 44H35.9851H36.0149H43.4404C43.4404 44 43.4404 42.311 43.4404 40.5699C43.4404 38.9182 42.023 37.0246 39.9992 36.1987Z" fill="#00AEFF"/>
<defs>
<filter id="filter0_d" x="0" y="0" width="72" height="72" filterUnits="userSpaceOnUse" color-interpolation-filters="sRGB">
<feFlood flood-opacity="0" result="BackgroundImageFix"/>
<feColorMatrix in="SourceAlpha" type="matrix" values="0 0 0 0 0 0 0 0 0 0 0 0 0 0 0 0 0 0 127 0"/>
<feOffset dy="2"/>
<feGaussianBlur stdDeviation="3"/>
<feColorMatrix type="matrix" values="0 0 0 0 0 0 0 0 0 0 0 0 0 0 0 0 0 0 0.25 0"/>
<feBlend mode="normal" in2="BackgroundImageFix" result="effect1_dropShadow"/>
<feBlend mode="normal" in="SourceGraphic" in2="effect1_dropShadow" result="shape"/>
</filter>
</defs>
</svg>
