<svg width="96" height="36" viewBox="0 0 96 36" fill="none" xmlns="http://www.w3.org/2000/svg">
<path d="M0 0.00174334V27.9014L3.45881 27.9124V14.6264H11.7982V11.1145H3.45881V3.51184H14.3198V0L0 0.00174334Z" fill="black"/>
<path d="M20.5454 5.66542C21.7912 5.66542 22.8011 4.61721 22.8011 3.3242C22.8011 2.03118 21.7912 0.982971 20.5454 0.982971C19.2996 0.982971 18.2897 2.03118 18.2897 3.3242C18.2897 4.61721 19.2996 5.66542 20.5454 5.66542Z" fill="black"/>
<path d="M18.7856 9.17719V27.907H22.2444V9.17719H18.7856Z" fill="black"/>
<path fill-rule="evenodd" clip-rule="evenodd" d="M35.0735 8.63074C30.4804 8.63074 27.2751 12.6625 27.2751 17.4494C27.2751 22.2362 30.4804 26.268 35.0735 26.268C37.1762 26.268 38.9091 25.423 40.1704 24.0475V26.5411C40.1704 29.6444 37.8218 32.2381 34.7566 32.2381C33.6549 32.2381 32.5602 31.7948 31.6881 31.1709L29.9551 34.2863C31.3392 35.2125 32.9874 35.75 34.7566 35.75C39.6568 35.75 43.6292 31.6271 43.6292 26.5411V9.17702H40.1704V10.8512C38.9091 9.47569 37.1762 8.63074 35.0735 8.63074ZM30.7339 17.4494C30.7339 14.4781 32.9237 12.1426 35.4494 12.1426C37.9752 12.1426 40.1651 14.4781 40.1651 17.4494C40.1651 20.4207 37.9752 22.7561 35.4494 22.7561C32.9237 22.7561 30.7339 20.4207 30.7339 17.4494Z" fill="black"/>
<path d="M56.0921 12.1426C54.0469 12.1426 52.3889 13.9414 52.3889 16.0641V27.9068H48.9301V9.17702H52.3889V10.8928C53.4025 9.53305 54.8954 8.63074 56.844 8.63074C59.2678 8.63074 61.1277 9.88013 62.2052 11.7922C63.403 9.94534 65.3572 8.63074 67.7092 8.63074C71.6459 8.63074 74.096 11.9272 74.1193 16.0056C74.1193 16.0179 74.1193 16.0303 74.1193 16.0426V16.0433V16.044V16.0446C74.1193 16.0511 74.1193 16.0576 74.1193 16.0641V27.9068H70.6605V16.0641C70.6605 13.9414 69.0025 12.1426 66.9573 12.1426C64.9121 12.1426 63.2541 13.9414 63.2541 16.0641V27.9068H59.7953V16.0641C59.7953 13.9414 58.1373 12.1426 56.0921 12.1426Z" fill="black"/>
<path fill-rule="evenodd" clip-rule="evenodd" d="M92.541 11.3002C91.0023 9.65116 88.895 8.63074 86.4505 8.63074C81.3048 8.63074 77.6531 13.1525 77.6531 18.5419C77.6531 23.9314 81.3048 28.4531 86.4505 28.4531C88.895 28.4531 91.0023 27.4328 92.541 25.7837V27.9068H95.9999V9.17702H92.541V11.3002ZM81.1119 18.5419C81.1119 14.9664 83.7497 12.1426 86.8265 12.1426C89.9033 12.1426 92.541 14.9664 92.541 18.5419C92.541 22.1175 89.9033 24.9413 86.8265 24.9413C83.7497 24.9413 81.1119 22.1175 81.1119 18.5419Z" fill="black"/>
</svg>
