<svg width="77" height="77" viewBox="0 0 77 77" fill="none" xmlns="http://www.w3.org/2000/svg">
<circle opacity="0.1" cx="38.5" cy="38.5" r="38.5" fill="#00AEFF"/>
<g clip-path="url(#clip0)">
<path d="M58.5118 20.1135H18.5732C17.7057 20.1135 17 20.8193 17 21.6867V55.4922C17 56.3597 17.7057 57.0654 18.5732 57.0654H58.5118C59.3793 57.0654 60.085 56.3597 60.085 55.4922V21.6867C60.085 20.8193 59.3793 20.1135 58.5118 20.1135ZM57.5605 22.638V24.5232L42.8026 24.559C42.4082 24.56 42.0321 24.7086 41.7435 24.9778L39.6677 26.9156H19.5245V22.638H57.5605ZM19.5245 54.5409V29.4398H40.049C40.4444 29.4398 40.8215 29.2912 41.1114 29.021L43.1885 27.0826L57.5608 27.0474V54.5409H19.5245Z" fill="#00AEFF"/>
<path d="M25.1786 25.0538C25.1862 25.0939 25.1964 25.1343 25.2089 25.1741C25.2207 25.2126 25.2352 25.2523 25.2503 25.2901C25.2664 25.3279 25.2838 25.3657 25.3032 25.4019C25.3226 25.4384 25.3436 25.4736 25.3663 25.5081C25.389 25.5426 25.4143 25.5764 25.4403 25.6073C25.4666 25.6396 25.4942 25.6705 25.5238 25.7C25.5524 25.7286 25.5836 25.7572 25.6155 25.7832C25.6474 25.8095 25.6812 25.8338 25.7154 25.8565C25.7493 25.8792 25.7854 25.9012 25.8216 25.9206C25.8578 25.9397 25.8956 25.9574 25.9337 25.9725C25.9715 25.9886 26.0099 26.0028 26.0497 26.0146C26.0892 26.0265 26.1296 26.0366 26.169 26.0449C26.2095 26.0534 26.2509 26.0593 26.292 26.0636C26.3331 26.0675 26.3751 26.0695 26.4156 26.0695C26.457 26.0695 26.4991 26.0675 26.5402 26.0636C26.5806 26.0593 26.6217 26.0534 26.6631 26.0449C26.7025 26.0366 26.743 26.0265 26.7824 26.0146C26.8222 26.0028 26.861 25.9886 26.8988 25.9725C26.9366 25.9574 26.9744 25.9397 27.0105 25.9206C27.0467 25.9012 27.0822 25.8792 27.1167 25.8565C27.1512 25.8338 27.1848 25.8095 27.216 25.7832C27.2489 25.7572 27.2791 25.7286 27.3084 25.7C27.3379 25.6705 27.3656 25.6396 27.3919 25.6073C27.4178 25.5764 27.4421 25.5426 27.4658 25.5081C27.4885 25.4736 27.5095 25.4384 27.5289 25.4019C27.5483 25.3657 27.5661 25.3279 27.5812 25.2901C27.597 25.2523 27.6114 25.2126 27.6233 25.1741C27.6351 25.1343 27.645 25.0942 27.6535 25.0538C27.6621 25.0134 27.6676 24.9719 27.6719 24.9315C27.6762 24.8904 27.6778 24.8483 27.6778 24.8073C27.6778 24.7658 27.6762 24.7247 27.6719 24.6833C27.6676 24.6422 27.6621 24.6012 27.6535 24.5604C27.645 24.5203 27.6351 24.4799 27.6233 24.4411C27.6114 24.4016 27.597 24.3628 27.5812 24.324C27.5661 24.2862 27.5483 24.2491 27.5289 24.2129C27.5095 24.1768 27.4885 24.1406 27.4658 24.1071C27.4421 24.0726 27.4178 24.0387 27.3919 24.0068C27.3656 23.975 27.3379 23.9437 27.3084 23.9151C27.2791 23.8855 27.2489 23.8579 27.2166 23.831C27.1848 23.8057 27.1512 23.7804 27.1167 23.758C27.0829 23.735 27.0467 23.714 27.0105 23.6949C26.9744 23.6755 26.9366 23.6577 26.8988 23.6416C26.861 23.6265 26.8222 23.6121 26.7824 23.6006C26.743 23.5881 26.7025 23.5779 26.6631 23.5703C26.6227 23.5618 26.5816 23.5558 26.5402 23.5516C26.4577 23.5434 26.3745 23.5434 26.292 23.5516C26.2509 23.5558 26.2095 23.5618 26.169 23.5703C26.1296 23.5779 26.0892 23.5881 26.0497 23.6006C26.0099 23.6124 25.9715 23.6265 25.9337 23.6416C25.8956 23.6577 25.8578 23.6752 25.8216 23.6949C25.7854 23.714 25.7493 23.735 25.7154 23.758C25.6812 23.7807 25.6474 23.8057 25.6155 23.831C25.5836 23.8579 25.5524 23.8855 25.5238 23.9151C25.4942 23.9437 25.4666 23.975 25.4403 24.0068C25.4143 24.0391 25.389 24.0726 25.3663 24.1071C25.3436 24.1406 25.3226 24.1768 25.3032 24.2129C25.2838 24.2494 25.2664 24.2862 25.2503 24.324C25.2352 24.3628 25.2207 24.4016 25.2089 24.4411C25.1964 24.4799 25.1862 24.5203 25.1786 24.5604C25.1704 24.6008 25.1645 24.6422 25.1602 24.6833C25.156 24.7247 25.1533 24.7658 25.1533 24.8073C25.1533 24.8483 25.156 24.8904 25.1602 24.9315C25.1645 24.9719 25.1704 25.0134 25.1786 25.0538Z" fill="#00AEFF"/>
<path d="M21.1396 25.0538C21.1471 25.0939 21.1573 25.1343 21.1698 25.1741C21.1816 25.2126 21.1958 25.2523 21.2109 25.2901C21.227 25.3279 21.2448 25.3657 21.2642 25.4019C21.2835 25.4384 21.3046 25.4736 21.3273 25.5081C21.3499 25.5426 21.3753 25.5764 21.4012 25.6073C21.4272 25.6396 21.4551 25.6705 21.4844 25.7C21.513 25.7286 21.5442 25.7572 21.5761 25.7832C21.6083 25.8095 21.6418 25.8338 21.6764 25.8565C21.7099 25.8792 21.7464 25.9012 21.7825 25.9206C21.8187 25.9397 21.8565 25.9574 21.8943 25.9725C21.9321 25.9886 21.9709 26.0028 22.0103 26.0146C22.0501 26.0265 22.0905 26.0366 22.13 26.0449C22.1704 26.0534 22.2115 26.0593 22.2529 26.0636C22.294 26.0675 22.3351 26.0695 22.3765 26.0695C22.4176 26.0695 22.4597 26.0675 22.5011 26.0636C22.5415 26.0593 22.5826 26.0534 22.6237 26.0449C22.6635 26.0366 22.7039 26.0265 22.7434 26.0146C22.7828 26.0028 22.8216 25.9886 22.8594 25.9725C22.8972 25.9574 22.9353 25.9397 22.9715 25.9206C23.0076 25.9012 23.0428 25.8792 23.0773 25.8565C23.1118 25.8338 23.1457 25.8095 23.1766 25.7832C23.2095 25.7572 23.2397 25.7286 23.2693 25.7C23.2989 25.6705 23.3265 25.6396 23.3525 25.6073C23.3788 25.5764 23.4031 25.5426 23.4258 25.5081C23.4484 25.4736 23.4705 25.4384 23.4899 25.4019C23.5089 25.3657 23.5267 25.3279 23.5418 25.2901C23.5579 25.2523 23.572 25.2126 23.5839 25.1741C23.5957 25.1343 23.6059 25.0942 23.6141 25.0538C23.6227 25.0134 23.6286 24.9719 23.6329 24.9315C23.6371 24.8904 23.6388 24.8483 23.6388 24.8073C23.6388 24.7658 23.6371 24.7247 23.6329 24.6833C23.6286 24.6422 23.6227 24.6012 23.6141 24.5604C23.6059 24.5203 23.5957 24.4799 23.5839 24.4411C23.572 24.4016 23.5579 24.3628 23.5418 24.324C23.5267 24.2862 23.5089 24.2491 23.4899 24.2129C23.4705 24.1768 23.4484 24.1406 23.4258 24.1071C23.4031 24.0726 23.3788 24.0387 23.3525 24.0068C23.3265 23.975 23.2989 23.9437 23.2693 23.9151C23.2397 23.8855 23.2095 23.8579 23.1766 23.831C23.1457 23.8057 23.1118 23.7804 23.0773 23.758C23.0428 23.735 23.0076 23.714 22.9715 23.6949C22.9353 23.6755 22.8972 23.6577 22.8594 23.6416C22.8216 23.6265 22.7828 23.6121 22.7434 23.6006C22.7039 23.5881 22.6635 23.5779 22.6237 23.5703C22.5826 23.5618 22.5415 23.5558 22.5011 23.5516C22.4186 23.5434 22.3351 23.5434 22.2529 23.5516C22.2115 23.5558 22.1704 23.5618 22.13 23.5703C22.0905 23.5779 22.0501 23.5881 22.0103 23.6006C21.9709 23.6124 21.9321 23.6265 21.8943 23.6416C21.8565 23.6577 21.8187 23.6752 21.7825 23.6949C21.7464 23.714 21.7099 23.735 21.6764 23.758C21.6418 23.7807 21.6083 23.8057 21.5761 23.831C21.5442 23.8579 21.513 23.8855 21.4844 23.9151C21.4551 23.9437 21.4272 23.975 21.4012 24.0068C21.3753 24.0391 21.3499 24.0726 21.3273 24.1071C21.3046 24.1406 21.2835 24.1768 21.2642 24.2129C21.2448 24.2494 21.227 24.2862 21.2109 24.324C21.1958 24.3628 21.1816 24.4016 21.1698 24.4411C21.1573 24.4799 21.1471 24.5203 21.1396 24.5604C21.131 24.6008 21.1251 24.6422 21.1212 24.6833C21.1169 24.7247 21.1143 24.7658 21.1143 24.8073C21.1143 24.8483 21.1169 24.8904 21.1212 24.9315C21.1251 24.9719 21.131 25.0134 21.1396 25.0538Z" fill="#00AEFF"/>
<path d="M29.3014 25.0538C29.309 25.0939 29.3198 25.1343 29.3317 25.1741C29.3435 25.2126 29.3576 25.2523 29.3728 25.2901C29.3889 25.3279 29.4066 25.3657 29.426 25.4019C29.4451 25.4384 29.4661 25.4736 29.4891 25.5081C29.5118 25.5426 29.5368 25.5764 29.5631 25.6073C29.5891 25.6396 29.617 25.6705 29.6463 25.7C29.6749 25.7286 29.7061 25.7572 29.738 25.7832C29.7702 25.8095 29.8037 25.8338 29.8382 25.8565C29.8718 25.8792 29.9079 25.9012 29.9441 25.9206C29.9806 25.9397 30.0184 25.9574 30.0562 25.9725C30.094 25.9886 30.1327 26.0028 30.1722 26.0146C30.211 26.0265 30.2514 26.0366 30.2918 26.0449C30.3323 26.0534 30.3734 26.0593 30.4145 26.0636C30.4559 26.0675 30.497 26.0695 30.5384 26.0695C30.5795 26.0695 30.6215 26.0675 30.663 26.0636C30.7031 26.0593 30.7445 26.0534 30.7849 26.0449C30.8253 26.0366 30.8658 26.0265 30.9052 26.0146C30.944 26.0028 30.9835 25.9886 31.0213 25.9725C31.0591 25.9574 31.0972 25.9397 31.1333 25.9206C31.1695 25.9012 31.2047 25.8792 31.2392 25.8565C31.2737 25.8338 31.3072 25.8095 31.3385 25.7832C31.3704 25.7572 31.4016 25.7286 31.4312 25.7C31.4604 25.6705 31.4884 25.6396 31.5143 25.6073C31.5406 25.5764 31.5649 25.5426 31.5883 25.5081C31.6113 25.4736 31.6323 25.4384 31.6514 25.4019C31.6708 25.3657 31.6885 25.3279 31.7047 25.2901C31.7198 25.2523 31.7339 25.2126 31.7457 25.1741C31.7576 25.1343 31.7678 25.0942 31.776 25.0538C31.7845 25.0134 31.7904 24.9719 31.7947 24.9315C31.7987 24.8904 31.8006 24.8483 31.8006 24.8073C31.8006 24.7658 31.7987 24.7247 31.7947 24.6833C31.7904 24.6422 31.7845 24.6012 31.776 24.5604C31.7678 24.5203 31.7576 24.4799 31.7457 24.4411C31.7339 24.4016 31.7198 24.3628 31.7047 24.324C31.6885 24.2862 31.6708 24.2491 31.6514 24.2129C31.6323 24.1768 31.6113 24.1406 31.5883 24.1071C31.5649 24.0726 31.5406 24.0387 31.5143 24.0068C31.4884 23.975 31.4604 23.9437 31.4312 23.9151C31.4016 23.8855 31.3704 23.8579 31.3385 23.831C31.3072 23.8057 31.2737 23.7804 31.2392 23.758C31.2047 23.735 31.1695 23.714 31.1333 23.6949C31.0972 23.6755 31.0591 23.6577 31.0213 23.6416C30.9835 23.6265 30.944 23.6121 30.9052 23.6006C30.8658 23.5881 30.8253 23.5779 30.7849 23.5703C30.7445 23.5618 30.7031 23.5558 30.663 23.5516C30.5805 23.5434 30.497 23.5434 30.4145 23.5516C30.3734 23.5558 30.3323 23.5618 30.2918 23.5703C30.2514 23.5779 30.211 23.5881 30.1722 23.6006C30.1327 23.6124 30.094 23.6265 30.0562 23.6416C30.0184 23.6577 29.9806 23.6752 29.9441 23.6949C29.9079 23.714 29.8718 23.735 29.8382 23.758C29.8037 23.7807 29.7702 23.8057 29.738 23.831C29.7061 23.8579 29.6749 23.8855 29.6463 23.9151C29.617 23.9437 29.5891 23.975 29.5631 24.0068C29.5368 24.0391 29.5118 24.0726 29.4891 24.1071C29.4661 24.1406 29.4451 24.1768 29.426 24.2129C29.4066 24.2494 29.3889 24.2862 29.3728 24.324C29.3576 24.3628 29.3435 24.4016 29.3317 24.4411C29.3198 24.4799 29.309 24.5203 29.3014 24.5604C29.2929 24.6008 29.287 24.6422 29.2827 24.6833C29.2788 24.7247 29.2761 24.7658 29.2761 24.8073C29.2761 24.8483 29.2788 24.8904 29.2827 24.9315C29.287 24.9719 29.2929 25.0134 29.3014 25.0538Z" fill="#00AEFF"/>
<path d="M30.6997 33.3021H24.0502C23.2626 33.3021 22.6219 33.9428 22.6219 34.7307V41.3799C22.6219 42.1675 23.2626 42.8085 24.0502 42.8085H30.6994C31.4873 42.8085 32.128 42.1678 32.128 41.3799V34.7307C32.128 33.9428 31.4873 33.3021 30.6997 33.3021ZM29.6035 40.284H25.1461V35.8266H29.6035V40.284Z" fill="#00AEFF"/>
<path d="M35.242 42.8082H41.8915C42.6791 42.8082 43.3198 42.1675 43.3198 41.3799V34.7304C43.3198 33.9428 42.6791 33.3021 41.8915 33.3021H35.242C34.4544 33.3021 33.8137 33.9428 33.8137 34.7304V41.3799C33.8137 42.1675 34.4544 42.8082 35.242 42.8082ZM36.3382 35.8266H40.7956V40.284H36.3382V35.8266Z" fill="#00AEFF"/>
<path d="M46.3849 42.8082H53.0344C53.822 42.8082 54.4627 42.1675 54.4627 41.3799V34.7304C54.4627 33.9428 53.822 33.3021 53.0344 33.3021H46.3849C45.5973 33.3021 44.9567 33.9428 44.9567 34.7304V41.3799C44.9567 42.1675 45.5973 42.8082 46.3849 42.8082ZM47.4812 35.8266H51.9385V40.284H47.4812V35.8266Z" fill="#00AEFF"/>
<path d="M30.8663 44.4617H23.6932C22.996 44.4617 22.4309 45.0271 22.4309 45.7239C22.4309 46.4211 22.996 46.9862 23.6932 46.9862H30.8663C31.5635 46.9862 32.1286 46.4211 32.1286 45.7239C32.1286 45.0271 31.5635 44.4617 30.8663 44.4617Z" fill="#00AEFF"/>
<path d="M30.8663 48.6692H23.6932C22.996 48.6692 22.4309 49.2342 22.4309 49.9314C22.4309 50.6283 22.996 51.1934 23.6932 51.1934H30.8663C31.5635 51.1934 32.1286 50.6283 32.1286 49.9314C32.1286 49.2342 31.5635 48.6692 30.8663 48.6692Z" fill="#00AEFF"/>
<path d="M42.1288 44.489H34.9556C34.2584 44.489 33.6934 45.054 33.6934 45.7512C33.6934 46.4484 34.2584 47.0135 34.9556 47.0135H42.1288C42.826 47.0135 43.391 46.4484 43.391 45.7512C43.391 45.054 42.826 44.489 42.1288 44.489Z" fill="#00AEFF"/>
<path d="M42.1288 48.6965H34.9556C34.2584 48.6965 33.6934 49.2615 33.6934 49.9584C33.6934 50.6556 34.2584 51.2207 34.9556 51.2207H42.1288C42.826 51.2207 43.391 50.6556 43.391 49.9584C43.391 49.2615 42.826 48.6965 42.1288 48.6965Z" fill="#00AEFF"/>
<path d="M53.2965 44.489H46.1233C45.4261 44.489 44.8611 45.054 44.8611 45.7512C44.8611 46.4484 45.4261 47.0135 46.1233 47.0135H53.2965C53.9934 47.0135 54.5588 46.4484 54.5588 45.7512C54.5588 45.054 53.9934 44.489 53.2965 44.489Z" fill="#00AEFF"/>
<path d="M53.2965 48.6965H46.1233C45.4261 48.6965 44.8611 49.2615 44.8611 49.9584C44.8611 50.6556 45.4261 51.2207 46.1233 51.2207H53.2965C53.9934 51.2207 54.5588 50.6556 54.5588 49.9584C54.5588 49.2615 53.9934 48.6965 53.2965 48.6965Z" fill="#00AEFF"/>
</g>
<defs>
<clipPath id="clip0">
<rect width="43.085" height="43.085" fill="white" transform="translate(17 17)"/>
</clipPath>
</defs>
</svg>
