<svg width="57" height="49" viewBox="0 0 57 49" fill="none" xmlns="http://www.w3.org/2000/svg">
<path d="M34.397 8.87873C37.0326 10.5312 38.8806 13.3275 39.2171 16.5733C40.292 17.0755 41.4849 17.3643 42.7496 17.3643C47.367 17.3643 51.1094 13.622 51.1094 9.00535C51.1094 4.38801 47.367 0.64563 42.7496 0.64563C38.1764 0.647053 34.4668 4.32257 34.397 8.87873ZM28.9204 25.9951C33.5377 25.9951 37.2801 22.252 37.2801 17.6354C37.2801 13.0187 33.537 9.27637 28.9204 9.27637C24.3038 9.27637 20.5593 13.0195 20.5593 17.6361C20.5593 22.2527 24.3038 25.9951 28.9204 25.9951ZM32.4665 26.5649H25.3729C19.4709 26.5649 14.6693 31.3672 14.6693 37.2692V45.944L14.6914 46.0799L15.2889 46.267C20.9213 48.0268 25.8147 48.6137 29.8423 48.6137C37.7091 48.6137 42.2688 46.3708 42.5498 46.2278L43.1082 45.9454H43.1679V37.2692C43.17 31.3672 38.3685 26.5649 32.4665 26.5649ZM46.2971 17.9348H39.2584C39.1823 20.7511 37.9801 23.287 36.0787 25.1109C41.3248 26.6709 45.1632 31.5357 45.1632 37.282V39.9552C52.1131 39.7006 56.1179 37.7308 56.3818 37.5985L56.9402 37.3154H57V28.6377C57 22.7364 52.1984 17.9348 46.2971 17.9348ZM14.2518 17.3658C15.8872 17.3658 17.4087 16.8885 18.6977 16.0754C19.1074 13.4029 20.5401 11.0675 22.5866 9.47697C22.5951 9.32047 22.6101 9.1654 22.6101 9.00748C22.6101 4.39015 18.867 0.647764 14.2518 0.647764C9.63373 0.647764 5.89206 4.39015 5.89206 9.00748C5.89206 13.6227 9.63373 17.3658 14.2518 17.3658ZM21.7593 25.1109C19.8671 23.2962 18.6692 20.7738 18.5817 17.9747C18.3207 17.9555 18.0624 17.9348 17.7964 17.9348H10.7036C4.80157 17.9348 0 22.7364 0 28.6377V37.314L0.0220517 37.4477L0.619581 37.6362C5.13804 39.0468 9.17065 39.697 12.6733 39.9019V37.282C12.6747 31.5357 16.5117 26.6723 21.7593 25.1109Z" fill="white"/>
</svg>
