<svg width="127" height="115" viewBox="0 0 147 125" fill="none" xmlns="http://www.w3.org/2000/svg">
<path d="M47.5 21C53.299 21 58 16.299 58 10.5C58 4.70101 53.299 0 47.5 0C41.701 0 37 4.70101 37 10.5C37 16.299 41.701 21 47.5 21Z" fill="white"/>
<path d="M146.094 75.1803L134.255 59.1378C133.983 58.7699 133.659 58.4434 133.291 58.1681L115.879 45.1262C114.551 44.1316 112.863 43.9388 111.404 44.4606C110.124 44.5842 110.622 44.49 97.8275 49.3085C96.3132 49.8787 95.115 50.909 94.3306 52.1755L101.761 50.6018L85.7013 58.5822C70.8568 50.2456 70.6895 49.8212 68.6957 50.013C67.7485 49.3322 67.4172 49.3468 62.6536 48.1391L51.2502 45.2482L45.3391 28.4971L49.8381 35.1228L50.619 33.1058C52.0077 29.5179 50.1851 25.4993 46.5475 24.1293C33.7704 19.3173 34.2508 19.4039 32.9642 19.281C31.7296 18.8407 30.3174 18.9024 29.0764 19.5756L9.77812 30.048C8.87994 30.5353 8.16665 31.2976 7.74591 32.2196L0.417863 48.2763C-0.653995 50.6249 0.407289 53.3859 2.78845 54.4431C5.16833 55.5 7.9683 54.4545 9.0408 52.105L15.7206 37.4689L21.6179 34.2682L12.9985 57.1258C12.9985 57.1258 12.3948 62.8577 9.33912 103.946C9.1161 106.938 11.3944 109.542 14.428 109.762C14.4533 109.764 14.4783 109.763 14.5036 109.765H5.34649C4.13716 109.765 3.15695 110.731 3.15695 111.924V122.84C3.15695 124.033 4.13716 125 5.34649 125H50.791C52.0004 125 52.9806 124.033 52.9806 122.84V111.924C52.9806 110.731 52.0004 109.765 50.791 109.765H42.5921C45.5234 109.642 47.8635 107.266 47.8635 104.344V78.7612C47.8635 77.7274 47.5646 76.7154 47.0019 75.8437L38.9202 63.3245L41.6903 56.1688C39.8645 54.671 38.7866 52.5433 38.6376 51.1413L36.6246 32.1775L43.1519 50.6751C43.6713 52.1464 44.9027 53.269 46.4405 53.659C66.5305 58.7519 65.2353 58.5297 66.3684 58.4213C66.7331 58.6823 65.2478 57.8287 83.2249 67.9247C84.614 68.7047 86.3063 68.7252 87.6918 68.0369L105.426 59.2244L96.8595 66.3024L103.694 83.9561L96.5621 89.549C95.6229 90.2857 94.9532 91.3047 94.6549 92.451L87.9555 118.201C87.1996 121.107 88.9752 124.067 91.9213 124.813C94.8674 125.558 97.8689 123.807 98.6248 120.901L104.865 96.9181L116.219 88.0133L118.219 87.2601L116.141 98.9269C115.9 100.279 116.187 101.67 116.944 102.822L129.88 122.506C131.535 125.024 134.946 125.741 137.497 124.11C140.049 122.478 140.777 119.114 139.123 116.597L127.365 98.7041L130.207 82.7456L124.141 63.0268L127.018 65.1816L138.448 80.6695C139.985 82.7526 142.943 83.2109 145.053 81.6954C147.165 80.1793 147.631 77.2624 146.094 75.1803ZM42.1197 109.764H15.0926C17.8374 109.639 20.1183 107.513 20.325 104.742L23.5787 61.1099L24.706 61.5344L36.8479 80.3433V104.344C36.8482 107.266 39.1884 109.641 42.1197 109.764Z" fill="white"/>
<path d="M97 47C102.523 47 107 42.0751 107 36C107 29.9249 102.523 25 97 25C91.4772 25 87 29.9249 87 36C87 42.0751 91.4772 47 97 47Z" fill="white"/>
</svg>
