<svg width="88" height="248" viewBox="0 0 88 248" fill="none" xmlns="http://www.w3.org/2000/svg">
<path d="M70.4201 229H77.234C77.2326 234.639 77.3672 238.658 77.7382 239.77C77.8589 240.132 77.9777 240.478 78.0912 240.809C79.5565 245.082 80.1446 246.797 72.682 246.95C64.6413 247.113 60.1901 246.965 60.4279 245.166C60.6181 243.735 63.4261 242.874 66.4464 241.948C67.2227 241.71 68.013 241.467 68.7765 241.21C71.5157 240.285 71.8381 236.649 70.8405 231.296C70.7038 230.562 70.561 229.796 70.4201 229Z" fill="#8E5F51"/>
<path d="M35.1517 229H43.187C42.1305 236.824 41.5081 242.535 41.6084 243.843C41.9698 248.568 23.4668 245.427 24.0117 242.544C24.5556 239.661 35.0767 239.118 35.0767 239.118C34.9955 236.507 35.0316 233.029 35.1517 229Z" fill="#8E5F51"/>
<path d="M35.5397 235H42.8599L54.0871 146H60.2719L70.5892 235H78C78 235 78 126.454 75.3874 120.593C72.7748 114.733 70.5355 114 70.5355 114H45.156C45.156 114 41.4237 116.564 39.9308 120.593C36.2829 130.439 34 235 34 235H35.5397Z" fill="#E07F00"/>
<path d="M33.6565 242.842C30.7615 242.356 29.4552 241.188 28.8978 240C25.724 240.517 22.3332 241.435 22.0134 243.035C21.3956 246.104 42.3712 249.448 41.9615 244.417C41.9358 244.115 41.9512 243.582 42 242.86C39.5994 243.189 36.6363 243.343 33.6565 242.842Z" fill="#212120"/>
<path d="M68.5012 244.634C66.1832 244.243 64.7626 243.653 63.8968 243.004C60.8514 243.875 58.2066 244.74 58.0102 246.092C57.7414 247.963 62.7727 248.117 71.8615 247.948C79.3163 247.808 79.6602 246.394 78.4966 243C76.1061 244.142 72.9224 245.381 68.5012 244.634Z" fill="#212120"/>
<path d="M42.1086 88C42.1086 88 31.5174 117.456 8.94651 88L0.999998 89.3811C0.999998 89.3811 9.21613 106.044 24.5319 108.697C39.8476 111.351 48 95.6942 48 95.6942L42.1086 88Z" fill="#8E5F51"/>
<path d="M10 87C10 89.7613 7.76049 92 5.00055 92C2.23841 92 -3.97364e-08 89.7613 -3.97364e-08 87C-3.97364e-08 84.2387 2.23841 82 5.00055 82C7.76049 82 10 84.2387 10 87Z" fill="#8E5F51"/>
<path d="M78.1516 76C78.1516 76 92.2746 104.738 79.9581 144.113C79.9581 144.113 76.9434 154.126 70.9896 151.588C65.037 149.049 69.3167 140.529 72.2907 134.367C75.2694 128.204 78.6755 92.7396 68.8799 84.2787C68.8799 84.2787 68.2003 80.895 78.1516 76Z" fill="#8E5F51"/>
<path d="M40.8876 72.5748C40.9763 75.2546 40.2756 78.5593 40.2756 78.5593C34.1812 85.2579 42.2573 91.1531 42.2573 91.1531L44.6909 114H69.6232C69.6232 114 72.3476 91.779 72.1679 88.741C72.0819 87.2879 71.5015 86.7144 71.0084 86.2272C70.4715 85.6966 70.0382 85.2685 70.4602 83.9179C71.2686 81.3273 79 77.0408 79 77.0408C72.4385 63.6426 66.0556 57.658 55.8979 58.0151C45.7401 58.3732 40.7966 69.8948 40.8876 72.5748Z" fill="#FFDE23"/>
<path d="M61.4746 46V57.3414V60.4577C61.4746 60.4577 62.3567 64.4085 61.835 66.8537C61.1654 69.9916 59.3122 72.7074 57.5103 73.8049C55.7083 74.9024 53.546 76 49.9421 76C44.1309 76 53.2129 61.5118 53.2129 61.5118V57.3414V46.9029L61.4746 46Z" fill="#74483C"/>
<path d="M51 76C51 76 52.4874 74.3296 53.1429 73.0833C53.5532 72.3031 54 71 54 71L51 76Z" fill="#492920"/>
<path d="M66.6594 0.989019C71.2894 2.6403 75.6909 5.65815 77.9202 10.3273C79.7493 14.1992 79.1777 19.0961 80.5496 23.082C82.5502 29.0607 84.8938 34.6409 86.38 40.7905C87.809 46.6554 89.5239 54.0577 85.5226 59.2393C84.3222 60.7767 83.4076 61.3461 81.8071 62.3141C81.064 62.7696 79.9208 63.1112 79.5207 63.9084C78.6632 65.3888 79.6922 67.3248 78.206 68.8053C76.8913 70.1149 74.1476 70.5704 72.4327 71.0829C69.0031 72.1078 65.8592 73.0758 62.3152 73.5883C57.5136 74.2146 52.0833 74.5563 48.2535 71.3107C45.0525 68.5775 40.8225 65.4458 39.222 61.403C38.7076 60.0364 38.8791 58.556 38.2503 57.3033C37.6216 55.9937 36.9928 56.2214 35.9639 55.1965C34.1347 53.4313 35.2779 51.4953 36.364 49.5594C37.8502 46.8262 38.0788 44.7764 37.793 41.6446C37.3357 36.6908 37.6787 33.3882 39.3935 28.6622C41.2799 23.4806 41.6228 17.9004 43.5091 12.6049C45.224 7.76495 49.2253 3.32358 54.0268 1.50148C56.942 0.362671 62.1437 -0.946962 66.6594 0.989019Z" fill="#F7941E"/>
<path d="M65.2682 40.273C69.0837 35.5895 67.4565 29.1926 67.4004 23.8809C69.8131 28.3359 69.0276 33.2478 68.5787 37.9884C69.1398 33.7619 72.1137 30.1636 72.3381 25.6515C72.5064 21.7106 71.1598 17.8838 71.2159 14C74.3581 17.7696 74.0776 24.0523 73.9092 28.7357C74.5264 25.5373 75.3119 22.9671 75.5364 19.6544C77.2197 26.2227 73.9653 34.6186 71.4404 40.7299C69.4765 45.5276 60.106 52.7812 55 48.8974C56.515 47.698 65.0438 42.3291 65.2682 40.273Z" fill="#CE7515"/>
<path d="M49 51C53.4687 53.6348 56.8061 57.521 61.8404 58.7726C68.0627 60.2875 72.4182 55.8743 77 51.988C74.4545 57.9163 70.4384 61.7367 64.7253 60.8804C59.8606 60.0899 53.695 56.6647 49 51Z" fill="#CE7515"/>
<path d="M74.7573 67.6676C69.1147 70.6016 62.959 69.6424 58.0003 65.8621C54.5235 63.1538 47.342 57.173 47 52.4335C51.6737 56.8345 55.9484 62.5332 61.9901 65.2415C65.3529 66.7649 68.4307 65.975 71.4516 64.0566C74.8714 61.8561 79.2601 59.3735 81.9389 56.3831C85.0737 52.9413 83.8768 46.1142 83.9908 41.7696C83.4779 44.2522 80.2291 47.6376 78.0062 48.6532C79.4881 45.8885 81.312 42.9545 81.198 39.682C79.7731 43.9701 73.2754 49.4995 68.4877 50.7972C69.1717 49.0481 71.1096 47.4119 72.3635 45.8885C74.0164 43.8572 74.8714 41.7696 76.0113 39.4563C77.8352 35.6759 79.3171 32.4598 79.5451 28.1153C79.7731 24.4478 79.6021 20.7239 79.4311 17C79.7161 19.2569 79.8871 21.5138 80.571 23.545C82.5659 29.4694 84.9027 34.9989 86.3847 41.0925C87.8096 46.9041 89.5195 54.239 85.5297 59.3735C84.3328 60.8969 83.4208 61.4611 81.8249 62.4203C81.084 62.8717 79.944 63.2103 79.5451 64.0002C78.6901 65.4672 79.716 67.3855 78.2341 68.8525C76.9232 70.1502 74.1874 70.6016 72.4775 71.1094C69.0577 72.125 65.9229 73.0842 62.3891 73.592C57.6014 74.2127 52.1867 74.5512 48.3679 71.3351C48.083 71.1094 47.798 70.8837 47.513 70.6016C49.6219 71.3351 51.8447 71.8429 54.1246 71.9558C60.5082 72.2943 69.9126 72.4072 74.7573 67.6676Z" fill="#CE7515"/>
<path d="M46 17.6227C48.1187 15.3939 51.1942 13.6605 54.9532 14.0567C56.9352 13.8586 60.0791 15.0968 61.7194 15.8397C63.7698 16.7807 64.5899 18.3656 65 20C61.6511 18.5142 57.0719 17.6227 54.1331 17.4246C51.6727 17.276 48.7338 17.276 46 17.6227Z" fill="#2E251C"/>
<path d="M65 20.0001C65 20.0001 48.5 10.5001 43.0845 21.1408L40.4091 31.0128C38.3922 38.4597 43.3687 46.2126 51.5239 48.3323C59.6822 50.4498 64.1854 43.946 66.2034 36.5001C66.2034 36.5001 66.5626 32.0342 66.2034 28.1347C65.7304 23 65 20.0001 65 20.0001Z" fill="#8E5F51"/>
<path d="M57.0149 28.8376C56.5883 28.7279 56.2599 28.4834 56.0656 28.131C55.6602 27.3941 55.9782 26.4391 56.0148 26.3333C56.1084 26.0703 56.3972 25.9313 56.6741 26.016C56.9459 26.1061 57.0917 26.3913 57.0003 26.6553C56.9436 26.8209 56.8197 27.3568 56.9846 27.6548C57.0245 27.7247 57.0934 27.8121 57.2831 27.8607C58.0222 28.0503 58.5396 26.9466 58.5456 26.9358C58.6624 26.6812 58.9673 26.5647 59.2325 26.6772C59.4933 26.79 59.6126 27.0868 59.4969 27.3413C59.1768 28.0511 58.2923 29.1657 57.0149 28.8376Z" fill="#212120"/>
<path d="M45.8458 26.3789C45.4181 26.2696 45.0909 26.0256 44.8965 25.6739C44.4902 24.9388 44.8093 23.9848 44.8459 23.8803C44.9374 23.6179 45.2319 23.4611 45.5043 23.5647C45.7759 23.6525 45.9218 23.938 45.8315 24.2025C45.7747 24.3667 45.6508 24.9014 45.8156 25.1988C45.8545 25.2695 45.9233 25.3558 46.113 25.4042C46.8521 25.5933 47.3708 24.493 47.3767 24.4812C47.4935 24.2271 47.7995 24.1087 48.0615 24.2242C48.3244 24.3356 48.4426 24.6318 48.328 24.8857C48.0067 25.594 47.1221 26.7052 45.8458 26.3789Z" fill="#212120"/>
<path d="M46.415 30.4952L50.0899 31.4348L52.044 24.3348L50.8469 24.0271L46.415 30.4952Z" fill="#74483C"/>
<path d="M47.5186 40.9783C49.1299 41.4687 50.7764 40.3974 51.1949 38.5821L45.3555 36.8048C44.938 38.6188 45.9062 40.4867 47.5186 40.9783Z" fill="#1400F9"/>
</svg>
