<svg width="158" height="52" viewBox="0 0 158 52" fill="none" xmlns="http://www.w3.org/2000/svg">
<path d="M20.6258 42.5374V28.5345C20.6258 23.226 19.2857 18.9748 13.2081 18.9748C10.6963 18.9748 8.92482 19.4797 6.79503 20.8723V0.840869C6.79503 0.384815 6.41235 5.11523e-07 5.958 5.11523e-07H0.83772C0.382678 5.11523e-07 8.49346e-08 0.384815 8.49346e-08 0.840869V42.5367C8.49346e-08 42.9928 0.430693 43.4251 0.885039 43.4251H5.958C6.41235 43.4251 6.79503 42.9928 6.79503 42.5367V25.9651C8.23043 25.1961 9.52319 24.62 10.7436 24.62C13.3041 24.62 13.8308 25.5803 13.8308 28.5345V42.5374C13.8308 42.9935 14.2135 43.4257 14.6685 43.4257H19.7408C20.2195 43.4264 20.6258 42.9942 20.6258 42.5374ZM158 22.8188V20.417C158 19.8171 157.546 19.3121 156.971 19.3121H146.514C139.192 19.3121 136.058 22.5066 136.058 27.262V27.5979C136.058 29.2797 136.632 31.4412 137.972 32.618C136.919 33.4582 136.129 34.6357 136.129 36.1966C136.129 37.5655 136.752 39.2465 138.26 40.1112C136.465 41.4807 135.747 43.0898 135.747 44.8191V45.155C135.747 49.5738 139.432 52 146.396 52C153.79 52 157.379 49.7665 157.379 45.155V44.8191C157.379 40.7837 154.867 39.63 147.568 38.046L142.83 36.9886C141.825 36.7721 141.586 36.4837 141.586 35.8111C141.586 35.427 141.705 35.1386 142.16 34.8508C142.997 35.1867 144.552 35.4752 146.515 35.4752C153.072 35.4752 156.876 33.0741 156.876 27.5972V27.2613C156.876 26.2535 156.469 24.9077 155.966 24.1632L157.258 23.7309C157.761 23.5626 158 23.395 158 22.8188ZM150.247 27.5979C150.247 29.4235 149.457 30.5522 146.514 30.5522C143.331 30.5522 142.709 29.0394 142.709 27.5979V27.262C142.709 25.5328 143.547 24.2358 146.514 24.2358C149.505 24.2358 150.247 25.5328 150.247 27.262V27.5979ZM150.463 45.1557C150.463 46.4044 149.841 47.2935 146.394 47.2935C143.164 47.2935 142.206 46.5734 142.206 45.1557V44.8198C142.206 43.3301 142.541 42.6575 143.044 41.9612L146.155 42.6338C149.912 43.474 150.462 44.0026 150.462 44.8198V45.1557H150.463ZM134.502 42.5374V28.5345C134.502 23.226 133.162 18.9748 127.084 18.9748C124.404 18.9748 122.562 19.5272 120.264 21.1608V20.1516C120.264 19.6956 119.881 19.3114 119.427 19.3114H114.713C114.259 19.3114 113.875 19.6956 113.875 20.1516V42.5374C113.875 42.9935 114.306 43.4257 114.761 43.4257H119.833C120.289 43.4257 120.671 42.9935 120.671 42.5374V25.9651C122.107 25.1961 123.399 24.62 124.62 24.62C127.18 24.62 127.707 25.5803 127.707 28.5345V42.5374C127.707 42.9935 128.09 43.4257 128.568 43.4257H133.617C134.095 43.4264 134.502 42.9942 134.502 42.5374ZM112.129 42.5856V37.2778C112.129 36.8217 111.769 36.4844 111.291 36.4844H106.386C105.932 36.4844 105.525 36.821 105.525 37.2778V42.5856C105.525 43.0423 105.932 43.4264 106.386 43.4264H111.291C111.769 43.4264 112.129 43.0423 112.129 42.5856ZM104.519 36.7253C104.519 34.4681 103.778 32.2814 100.284 30.2644L95.0914 27.2613C94.2537 26.7571 93.7993 26.4211 93.7993 25.7961C93.7993 24.8358 94.3733 24.5711 96.0244 24.5711C98.1549 24.5711 101.767 24.9559 102.964 25.1235C103.011 25.1235 103.06 25.1235 103.108 25.1235C103.515 25.1235 103.802 24.8358 103.802 24.3308V20.9205C103.802 20.4156 103.515 20.0797 103.012 19.9358C100.882 19.4071 98.8723 18.9748 95.5464 18.9748C89.7561 18.9748 86.9556 21.2565 86.9556 25.5076C86.9556 28.2216 88.3437 30.3825 90.6885 31.7283L96.1441 34.8746C97.3172 35.5471 97.6999 36.0269 97.6999 36.652C97.6999 37.7331 97.2212 38.2855 95.2111 38.2855C93.871 38.2855 90.3538 37.9971 88.08 37.7087C88.057 37.7087 87.961 37.7087 87.913 37.7087C87.4106 37.7087 87.1233 38.0697 87.1233 38.502V41.9123C87.1233 42.4173 87.4106 42.7532 87.913 42.8733C90.0664 43.4732 93.249 43.8099 95.5464 43.8099C101.672 43.8106 104.519 40.688 104.519 36.7253ZM85.8785 50.8721V10.0646C85.8785 9.60858 85.5446 9.22376 85.0895 9.22376H79.9692C79.5142 9.22376 79.0835 9.60858 79.0835 10.0646V50.8721C79.0835 51.3281 79.5142 51.7367 79.9692 51.7367H85.0895C85.5446 51.7367 85.8785 51.3281 85.8785 50.8721ZM77.8867 32.4735V30.0479C77.8867 23.6827 74.4176 18.9755 67.5258 18.9755C60.8734 18.9755 56.9256 23.2748 56.9256 30.0479V32.9777C56.9256 41.1196 62.3812 43.8099 67.4542 43.8099C71.0917 43.8099 73.3648 43.4739 76.045 42.8014C76.7624 42.6338 76.93 42.3209 76.93 41.649V38.4546C76.93 37.9985 76.5954 37.782 76.1403 37.782C76.0923 37.782 76.0443 37.782 75.9963 37.782C74.3216 37.9503 70.5894 38.1668 67.9565 38.1668C64.6543 38.1668 63.6496 35.9808 63.6496 33.579V33.4833H77.0017C77.5521 33.4826 77.8867 33.1223 77.8867 32.4735ZM71.2594 29.2797H63.6496V29.1114C63.6496 26.037 65.181 24.4516 67.5022 24.4516C69.847 24.4516 71.2587 26.0126 71.2587 29.1114V29.2797H71.2594ZM56.9492 42.6338V39.3429C56.9492 38.8869 56.6146 38.6229 56.0642 38.6229H54.0068C52.7627 38.6229 52.6186 38.3344 52.6186 36.6534V24.4042H56.0642C56.5192 24.4042 56.9019 24.0194 56.9019 23.5633V20.1523C56.9019 19.6963 56.5192 19.3121 56.0642 19.3121H52.6186V14.8452C52.6186 14.4366 52.284 14.1489 51.8777 14.1489C51.8296 14.1489 51.7816 14.1489 51.7573 14.1489L46.637 15.0128C46.1827 15.1092 45.8 15.3976 45.8 15.8537V19.3121H42.4498C41.9711 19.3121 41.5647 19.7444 41.5647 20.2005V22.9864C41.5647 23.4425 41.9718 23.7791 42.4498 23.851L45.8 24.4035V36.6052C45.8 42.5856 48.2164 43.8099 52.8344 43.8099C54.0548 43.8099 54.8925 43.666 56.1602 43.4739C56.6626 43.3783 56.9492 43.0423 56.9492 42.6338ZM42.7838 32.8583V29.9285C42.7838 23.2267 39.0989 18.9755 32.3032 18.9755C25.5318 18.9755 21.7982 23.2267 21.7982 29.9285V32.8583C21.7982 39.5594 25.5311 43.8106 32.3032 43.8106C39.0989 43.8106 42.7838 39.5594 42.7838 32.8583ZM36.036 32.8583C36.036 36.2693 34.7447 38.0467 32.3039 38.0467C29.8867 38.0467 28.5473 36.2693 28.5473 32.8583V29.9285C28.5473 26.5175 29.8874 24.7883 32.3039 24.7883C34.7447 24.7883 36.036 26.5182 36.036 29.9285V32.8583Z" fill="#00AEFF"/>
</svg>
