<svg width="1440" height="864" viewBox="0 0 1440 864" fill="none" xmlns="http://www.w3.org/2000/svg">
<g opacity="0.4">
<path d="M1440 0H0V864H1440V0Z" fill="url(#paint0_linear)"/>
<path fill-rule="evenodd" clip-rule="evenodd" d="M0 431.572C0 470.381 444.892 469.867 701.513 472.234C451.068 472.44 182.198 480.882 0 451.852C0 445.057 0 438.263 0 431.572Z" fill="white"/>
<path fill-rule="evenodd" clip-rule="evenodd" d="M1361.68 231.049C1337.05 207.79 1331.1 247.575 1311.9 249.819C1302.36 250.941 1297.02 260.122 1279.36 258.694C1259.96 257.164 1300.51 272.057 1296.4 282.565C1292.09 283.177 1271.87 285.217 1270.43 285.115L1241.28 301.539C1216.55 316.841 1223.42 308.272 1196.94 315.718L1141.21 328.674H1408.59L1350.29 314.392C1339.72 304.293 1347.01 311.026 1345.16 310.312C1329.04 323.981 1343.93 323.573 1310.47 319.391C1301.33 318.167 1315.49 309.802 1288.29 307.864C1284.19 307.558 1285.73 299.295 1285.73 296.438C1323.4 296.438 1324.22 276.342 1343.41 284.911C1347.52 286.747 1359.12 285.625 1361.68 282.667L1364.25 281.34C1382.21 275.73 1392.78 287.665 1401 287.665L1387.04 296.438L1354.09 305.211H1440V258.694V254.919C1402.02 239.822 1434.77 269.201 1402.23 270.017L1398.33 270.119C1385.39 270.527 1396.89 242.678 1369.07 255.94C1359.94 260.326 1366.41 235.435 1361.68 231.049Z" fill="white"/>
<path fill-rule="evenodd" clip-rule="evenodd" d="M1072.16 381.472L1072.58 380.458C1080.61 379.138 1085.76 373.658 1075.15 370.106L1074.22 369.802C1063.51 366.25 1069.07 381.066 1061.96 369.7C1061.34 354.579 1032.08 347.881 1030.13 359.653C1029.51 363.307 1029.51 375.485 1029.1 375.992C1026.11 381.472 1012.2 365.336 1011.27 376.906C1009.93 377.312 998.702 380.255 996.95 381.574L849.41 384.618H1178.18L1072.16 381.472Z" fill="white"/>
</g>
<defs>
<linearGradient id="paint0_linear" x1="720.001" y1="633.673" x2="720" y2="-297.616" gradientUnits="userSpaceOnUse">
<stop stop-color="white"/>
<stop offset="1" stop-color="#23B8FF"/>
</linearGradient>
</defs>
</svg>
