<svg width="400" height="132" viewBox="0 0 400 132" fill="none" xmlns="http://www.w3.org/2000/svg">
<path d="M52.2173 107.315V71.9876C52.2173 58.5951 48.8247 47.8702 33.4381 47.8702C27.0792 47.8702 22.5945 49.1441 17.2026 52.6574V2.12137C17.2026 0.970821 16.2338 0 15.0835 0H2.12081C0.968804 0 0 0.970821 0 2.12137V107.313C0 108.463 1.09036 109.554 2.24061 109.554H15.0835C16.2338 109.554 17.2026 108.463 17.2026 107.313V65.5055C20.8365 63.5656 24.1093 62.112 27.199 62.112C33.6812 62.112 35.0147 64.5346 35.0147 71.9876V107.315C35.0147 108.465 35.9835 109.556 37.1355 109.556H49.9767C51.1885 109.558 52.2173 108.467 52.2173 107.315ZM400 57.5679V51.5086C400 49.9951 398.85 48.7212 397.395 48.7212H370.921C352.385 48.7212 344.45 56.7803 344.45 68.7774V69.6249C344.45 73.8676 345.903 79.3209 349.296 82.2897C346.631 84.4093 344.631 87.38 344.631 91.3179C344.631 94.7713 346.208 99.0123 350.025 101.194C345.48 104.649 343.664 108.708 343.664 113.071V113.918C343.664 125.066 352.993 131.187 370.622 131.187C389.341 131.187 398.427 125.552 398.427 113.918V113.071C398.427 102.89 392.068 99.9796 373.59 95.9836L361.594 93.316C359.051 92.7698 358.445 92.0421 358.445 90.3453C358.445 89.3762 358.748 88.6486 359.898 87.9226C362.017 88.7701 365.954 89.4978 370.923 89.4978C387.523 89.4978 397.155 83.4402 397.155 69.6231V68.7756C397.155 66.2331 396.125 62.8379 394.851 60.9596L398.122 59.869C399.394 59.4444 400 59.0215 400 57.5679ZM380.372 69.6249C380.372 74.2306 378.373 77.0779 370.921 77.0779C362.864 77.0779 361.29 73.2615 361.29 69.6249V68.7774C361.29 64.4148 363.411 61.1429 370.921 61.1429C378.494 61.1429 380.372 64.4148 380.372 68.7774V69.6249ZM380.918 113.92C380.918 117.07 379.343 119.313 370.619 119.313C362.44 119.313 360.016 117.497 360.016 113.92V113.073C360.016 109.314 360.863 107.618 362.137 105.861L370.013 107.558C379.523 109.677 380.916 111.011 380.916 113.073V113.92H380.918ZM340.511 107.315V71.9876C340.511 58.5951 337.119 47.8702 321.732 47.8702C314.947 47.8702 310.283 49.2639 304.466 53.3851V50.8391C304.466 49.6885 303.497 48.7194 302.347 48.7194H290.413C289.263 48.7194 288.292 49.6885 288.292 50.8391V107.315C288.292 108.465 289.383 109.556 290.533 109.556H303.376C304.528 109.556 305.497 108.465 305.497 107.315V65.5055C309.131 63.5656 312.403 62.112 315.493 62.112C321.975 62.112 323.309 64.5346 323.309 71.9876V107.315C323.309 108.465 324.278 109.556 325.488 109.556H338.271C339.481 109.558 340.511 108.467 340.511 107.315ZM283.871 107.436V94.0454C283.871 92.8949 282.96 92.0438 281.75 92.0438H269.332C268.182 92.0438 267.151 92.8931 267.151 94.0454V107.436C267.151 108.588 268.182 109.558 269.332 109.558H281.75C282.96 109.558 283.871 108.588 283.871 107.436ZM264.606 92.6517C264.606 86.9571 262.728 81.4404 253.884 76.3519L240.738 68.7756C238.617 67.5035 237.467 66.656 237.467 65.0791C237.467 62.6564 238.92 61.9886 243.1 61.9886C248.493 61.9886 257.639 62.9594 260.669 63.3823C260.789 63.3823 260.912 63.3823 261.032 63.3823C262.062 63.3823 262.79 62.6564 262.79 61.3825V52.7789C262.79 51.5051 262.062 50.6576 260.789 50.2946C255.397 48.9609 250.31 47.8702 241.89 47.8702C227.231 47.8702 220.141 53.6265 220.141 64.3514C220.141 71.1983 223.655 76.6497 229.591 80.045L243.403 87.9825C246.373 89.6793 247.341 90.8898 247.341 92.4667C247.341 95.1942 246.13 96.5879 241.041 96.5879C237.648 96.5879 228.744 95.8602 222.987 95.1325C222.929 95.1325 222.686 95.1325 222.565 95.1325C221.293 95.1325 220.565 96.0434 220.565 97.1341V105.738C220.565 107.012 221.293 107.859 222.565 108.162C228.016 109.676 236.073 110.525 241.89 110.525C257.398 110.527 264.606 102.649 264.606 92.6517ZM217.414 128.342V25.3914C217.414 24.2408 216.568 23.27 215.416 23.27H202.454C201.302 23.27 200.211 24.2408 200.211 25.3914V128.342C200.211 129.492 201.302 130.523 202.454 130.523H215.416C216.568 130.523 217.414 129.492 217.414 128.342ZM197.182 81.925V75.8057C197.182 59.7474 188.399 47.872 170.951 47.872C154.11 47.872 144.115 58.7184 144.115 75.8057V83.1971C144.115 103.738 157.927 110.525 170.77 110.525C179.979 110.525 185.734 109.677 192.519 107.981C194.335 107.558 194.76 106.768 194.76 105.073V97.0143C194.76 95.8637 193.912 95.3175 192.76 95.3175C192.639 95.3175 192.517 95.3175 192.396 95.3175C188.156 95.7421 178.707 96.2883 172.042 96.2883C163.682 96.2883 161.138 90.7734 161.138 84.7141V84.4727H194.941C196.334 84.471 197.182 83.5619 197.182 81.925ZM180.404 73.8677H161.138V73.443C161.138 65.687 165.015 61.6873 170.892 61.6873C176.828 61.6873 180.402 65.6253 180.402 73.443V73.8677H180.404ZM144.175 107.558V99.2555C144.175 98.1049 143.328 97.4389 141.935 97.4389H136.726C133.576 97.4389 133.212 96.7112 133.212 92.4702V61.5675H141.935C143.087 61.5675 144.055 60.5967 144.055 59.4462V50.8408C144.055 49.6903 143.087 48.7212 141.935 48.7212H133.212V37.4519C133.212 36.4211 132.365 35.6952 131.336 35.6952C131.214 35.6952 131.093 35.6952 131.031 35.6952L118.068 37.8747C116.918 38.1178 115.949 38.8455 115.949 39.9961V48.7212H107.468C106.256 48.7212 105.227 49.8119 105.227 50.9624V57.9908C105.227 59.1413 106.258 59.9906 107.468 60.1721L115.949 61.5657V92.3486C115.949 107.436 122.067 110.525 133.758 110.525C136.848 110.525 138.968 110.162 142.178 109.677C143.45 109.436 144.175 108.588 144.175 107.558ZM108.313 82.8958V75.5045C108.313 58.5969 98.9845 47.872 81.7802 47.872C64.6374 47.872 55.1853 58.5969 55.1853 75.5045V82.8958C55.1853 99.8017 64.6357 110.527 81.7802 110.527C98.9845 110.527 108.313 99.8017 108.313 82.8958ZM91.2305 82.8958C91.2305 91.5012 87.9612 95.9853 81.7819 95.9853C75.6625 95.9853 72.2717 91.5012 72.2717 82.8958V75.5045C72.2717 66.8991 75.6643 62.5366 81.7819 62.5366C87.9612 62.5366 91.2305 66.9009 91.2305 75.5045V82.8958Z" fill="white"/>
</svg>
