<svg width="268" height="202" viewBox="0 0 468 252" fill="none" xmlns="http://www.w3.org/2000/svg">
<path d="M409.652 115.763C409.652 115.763 405.577 150.296 417.804 150.99C430.031 151.685 416.845 115 416.845 115L409.652 115.763Z" fill="#8E5F51"/>
<path d="M413.761 140.399L413 235.833V237L420.433 237L432.108 146.808H438.304L448.311 237H456V139L413.761 140.399Z" fill="#0A3C62"/>
<path d="M414.932 68C414.932 68 408 75.7738 408 117H424L414.932 68Z" fill="#E84646"/>
<path d="M424 120H408V117H424V120Z" fill="#F9D710"/>
<path d="M427.961 54.6618C414.051 57.3534 412.82 71.1718 413.021 77.6046C413.012 77.6085 413 77.6144 413 77.6144L413.762 140H414.239H418.535H455.83C456.513 129.583 456.211 125.2 455.681 123.505L467.695 125.169C471.036 59.9577 446.218 51.1293 427.961 54.6618Z" fill="#E84646"/>
<path d="M432.439 71L447 56.7059C440.895 53.6904 434.264 53.5106 428.336 54.6384C426.889 54.9138 425.59 55.315 424.409 55.8089L424 68.3866L430.211 62.3641L432.439 71Z" fill="#810C0C"/>
<path d="M467 125.138C467 125.138 464.076 145.278 458.028 157.142C451.979 169.004 442.908 160.347 447.046 153.133C451.184 145.919 456.158 126.16 455.163 123L467 125.138Z" fill="#8E5F51"/>
<path d="M448 73C448 73 457.492 98.155 453.571 120.018L455.356 122C455.356 122 459.225 93.8154 448 73Z" fill="#810C0C"/>
<path d="M456 244H450V241H456V244Z" fill="#8E5F51"/>
<path d="M456 244V249H433.013C433.013 249 432.414 244 439.254 244H456Z" fill="black"/>
<path d="M421 244V249H398.013C398.013 249 397.414 244 404.254 244H421Z" fill="black"/>
<path d="M453.485 120L468 122.232L467.751 126L453 124.059L453.485 120Z" fill="#F9D710"/>
<path d="M426 38V41.939V49.0782V53.0162C426 56.8727 429.582 60 434 60C438.419 60 442 56.8727 442 53.0162V49.0782V41.939V38H426Z" fill="#74483C"/>
<path d="M414.333 117C414.333 117 415 91.7406 415 81C415 81 413.737 111.098 413 117H414.333Z" fill="#810C0C"/>
<path d="M456 242H446V237H456V242Z" fill="#1E75B6"/>
<path d="M420 244H414V241H420V244Z" fill="#8E5F51"/>
<path d="M421 242H411V237H421V242Z" fill="#1E75B6"/>
<path d="M413.973 20C413.973 20 410.234 19.5235 410.043 16.6623C409.946 15.2034 410.043 8.17573 410.043 8.17573C410.918 7.14601 413.474 10.9716 415.494 11.1176C419.615 11.4164 413.973 20 413.973 20Z" fill="#212120"/>
<path d="M446 25.7443V33.4218C446 33.4218 445.942 36 443.436 36C440.928 36 442.467 25 442.467 25L446 25.7443Z" fill="#212120"/>
<path d="M444 12V37.803C444 46.1963 437.06 53 428.499 53C419.94 53 413 46.1963 413 37.803V12H444Z" fill="#8E5F51"/>
<path d="M427.085 13.0262C427.085 13.0262 414.556 14.6342 410.941 12.3824C410.461 11.2564 410.488 19.0334 410.372 17.325C410.261 15.6754 410 4.51958 410 4.51958C410.372 3.01306 413.925 1.38919 418.049 0.722945C429.253 -1.08588 446 -0.500347 446 14.4735V24.1222L442.185 28.7894C442.185 28.7894 442.506 29.9916 440.819 29.9916C440.819 29.9916 439.013 30.2739 439.013 27.5601C439.013 24.8464 438.591 23.3991 437.206 22.916C435.819 22.4339 434.554 17.368 436.543 17.0667C438.53 16.7654 440.037 11.9405 427.085 13.0262Z" fill="#212120"/>
<path d="M428 25C428 25.552 428.448 26 429.001 26C429.553 26 430 25.552 430 25C430 24.448 429.553 24 429.001 24C428.448 24 428 24.448 428 25Z" fill="#212120"/>
<path d="M417 25C417 25.552 417.672 26 418.501 26C419.329 26 420 25.552 420 25C420 24.448 419.329 24 418.501 24C417.672 24 417 24.448 417 25Z" fill="#212120"/>
<path d="M425 19V35H420L423.4 19H425Z" fill="#74483C"/>
<path d="M422.5 44C421.12 44 420 42.6566 420 41H425C425 42.6566 423.88 44 422.5 44Z" fill="#212120"/>
<path d="M442 23.3786C442.629 22.5405 443.542 22 444.571 22C446.465 22 448 23.7908 448 26.0006C448 28.2092 446.465 30 444.571 30C443.542 30 442.629 29.4595 442 28.6214V23.3786Z" fill="#8E5F51"/>
<path d="M242.7 119.266C242.7 119.266 244.871 160.006 237.527 159.164C230.182 158.323 231.684 99.4007 242.7 119.266Z" fill="#8E5F51"/>
<path d="M238.136 79.177C238.136 79.177 244 103.608 244 120.177H232C232 120.177 235.39 79.7683 238.136 79.177Z" fill="#53585B"/>
<path d="M182 119.194C182 119.194 183.83 151.633 188.601 159.659C193.372 167.685 197 141.265 197 141.265L191.241 114.177L182 119.194Z" fill="#8E5F51"/>
<path d="M186.878 81.177C186.878 81.177 181 106.178 181 120.177H192L187.5 79.177L186.878 81.177Z" fill="#53585B"/>
<path d="M238 152.177V79.3091C238 79.3091 237.967 64.177 214.348 64.177C190.729 64.177 187 76.934 187 83.5586C187 90.1833 189.901 152.177 189.901 152.177H238Z" fill="#788996"/>
<path d="M206 56.177V65.3775C206 68.5801 208.91 71.177 212.5 71.177C216.09 71.177 219 68.5801 219 65.3775V56.177H206Z" fill="#8E5F51"/>
<path d="M203 248.177H194V185.177H203V248.177Z" fill="#8E5F51"/>
<path d="M193 251.177V245.177H212.471C212.471 245.177 219 245.268 219 251.177H193Z" fill="#212120"/>
<path d="M233 248.177H224V185.177H233V248.177Z" fill="#8E5F51"/>
<path d="M223 251.177V245.177H242.471C242.471 245.177 249 245.268 249 251.177H223Z" fill="#212120"/>
<path d="M207.745 187.177C209.373 166.413 209.047 161.748 212.648 161.298C216.699 160.791 219.461 161.803 219.461 175.23C219.461 177.63 219.816 181.86 220.395 187.177H239L238.151 152.177H190.045L190 187.177H207.745Z" fill="#A56B37"/>
<path d="M209 190.177H188V186.177H209V190.177Z" fill="#B27542"/>
<path d="M240 190.177H218V186.177H240V190.177Z" fill="#B27542"/>
<path d="M230 28.1768H204V17.1768H230V28.1768Z" fill="#8E5F51"/>
<path d="M199 34.9897V43.3644C199 43.3644 199.056 46.1768 201.564 46.1768C204.071 46.1768 202.533 34.1768 202.533 34.1768L199 34.9897Z" fill="#212120"/>
<path d="M201 22.1768V47.9798C201 56.3731 208.387 63.1768 217.499 63.1768C226.612 63.1768 234 56.3731 234 47.9798V22.1768H201Z" fill="#8E5F51"/>
<path d="M218 35.6767C218 36.5047 217.327 37.1767 216.5 37.1767C215.672 37.1767 215 36.5047 215 35.6767C215 34.8487 215.672 34.1767 216.5 34.1767C217.327 34.1767 218 34.8487 218 35.6767Z" fill="#212120"/>
<path d="M230 35.6767C230 36.5047 229.328 37.1767 228.5 37.1767C227.672 37.1767 227 36.5047 227 35.6767C227 34.8487 227.672 34.1767 228.5 34.1767C229.328 34.1767 230 34.8487 230 35.6767Z" fill="#212120"/>
<path d="M221 29.1768V45.1768H227L222.92 29.1768H221Z" fill="#74483C"/>
<path d="M231.179 52.3233C230.104 52.3838 230.082 50.8936 230.121 50.2598C229.859 46.4766 224.195 46.6163 224.195 46.6163C217.53 46.6163 216.771 52.8418 216.771 52.8418C207.495 52.8418 206.39 37.4346 206.39 37.4346L201 34.1768V48.1651C201 56.4561 208.414 63.1768 217.559 63.1768C226.057 63.1768 233.049 57.3731 234 49.9014C234 49.9014 232.541 52.2452 231.179 52.3233Z" fill="#212120"/>
<path d="M224.001 54.1768C225.656 54.1768 227 52.8334 227 51.1768H221C221 52.8334 222.343 54.1768 224.001 54.1768Z" fill="white"/>
<path d="M219.5 11.177C217.527 10.8107 199 9.67556 199 24.6493V34.2991L203.085 38.9663C203.085 38.9663 202.74 40.1685 204.546 40.1685C204.546 40.1685 206.483 40.4497 206.483 37.736C206.483 35.0222 206.934 33.575 208.418 33.0929C209.902 32.6098 212 22.677 212 22.677C212 22.677 215 22.177 226 22.677C230.495 22.8814 234 23.177 234 23.177L234.5 21.677V20.177C234.5 20.177 236 17.177 231 14.6768L225.5 12.6769C225.5 12.6769 221.473 11.5433 219.5 11.177Z" fill="#212120"/>
<path d="M203 34.383C202.266 33.6497 201.201 33.1768 200 33.1768C197.792 33.1768 196 34.7437 196 36.6773C196 38.6098 197.792 40.1768 200 40.1768C201.201 40.1768 202.266 39.7038 203 38.9705V34.383Z" fill="#8E5F51"/>
<path d="M234 32.177C234 32.177 234.799 29.6133 234.889 26.6256C235.134 23.9134 234.897 18.7486 234.897 18.7486C234.897 18.7486 234.897 18.7486 234.66 18.2319C234.255 17.6248 233.705 22.2523 233 22.364C234 24.677 234 32.177 234 32.177Z" fill="#212120"/>
<mask id="mask0" mask-type="alpha" maskUnits="userSpaceOnUse" x="131" y="182" width="61" height="69">
<path d="M131 183.372C131 183.166 131.166 183 131.372 183H190.628C190.834 183 191 183.166 191 183.372V250.628C191 250.834 190.834 251 190.628 251H131.372C131.166 251 131 250.834 131 250.628V183.372Z" fill="white"/>
</mask>
<g mask="url(#mask0)">
<rect x="131" y="183" width="60" height="76" fill="white"/>
<path d="M191 251H183V243H191V251Z" fill="#C13765"/>
<path opacity="0.5" d="M183 251H176V243H183V251Z" fill="#F499BA"/>
<path d="M176 251H168V243H176V251Z" fill="#C13765"/>
<path opacity="0.5" d="M168 251H161V243H168V251Z" fill="#F499BA"/>
<path d="M161 251H153V243H161V251Z" fill="#C13765"/>
<path opacity="0.5" d="M153 251H146V243H153V251Z" fill="#F499BA"/>
<path d="M146 251H138V243H146V251Z" fill="#C13765"/>
<path opacity="0.5" d="M138 251H131V243H138V251Z" fill="#F499BA"/>
<path opacity="0.5" d="M138 243H146V236H138V243Z" fill="#F499BA"/>
<path opacity="0.5" d="M153 243H161V236H153V243Z" fill="#F499BA"/>
<path opacity="0.5" d="M168 243H176V236H168V243Z" fill="#F499BA"/>
<path opacity="0.5" d="M183 243H191V236H183V243Z" fill="#F499BA"/>
<path d="M191 236H183V228H191V236Z" fill="#C13765"/>
<path opacity="0.5" d="M183 236H176V228H183V236Z" fill="#F499BA"/>
<path d="M176 236H168V228H176V236Z" fill="#C13765"/>
<path opacity="0.5" d="M168 236H161V228H168V236Z" fill="#F499BA"/>
<path d="M161 236H153V228H161V236Z" fill="#C13765"/>
<path opacity="0.5" d="M153 236H146V228H153V236Z" fill="#F499BA"/>
<path d="M146 236H138V228H146V236Z" fill="#C13765"/>
<path opacity="0.5" d="M138 236H131V228H138V236Z" fill="#F499BA"/>
<path opacity="0.5" d="M138 228H146V221H138V228Z" fill="#F499BA"/>
<path opacity="0.5" d="M153 228H161V221H153V228Z" fill="#F499BA"/>
<path opacity="0.5" d="M168 228H176V221H168V228Z" fill="#F499BA"/>
<path opacity="0.5" d="M183 228H191V221H183V228Z" fill="#F499BA"/>
<path d="M191 221H183V213H191V221Z" fill="#C13765"/>
<path opacity="0.5" d="M183 221H176V213H183V221Z" fill="#F499BA"/>
<path d="M176 221H168V213H176V221Z" fill="#C13765"/>
<path opacity="0.5" d="M168 221H161V213H168V221Z" fill="#F499BA"/>
<path d="M161 221H153V213H161V221Z" fill="#C13765"/>
<path opacity="0.5" d="M153 221H146V213H153V221Z" fill="#F499BA"/>
<path d="M146 221H138V213H146V221Z" fill="#C13765"/>
<path opacity="0.5" d="M138 221H131V213H138V221Z" fill="#F499BA"/>
<path opacity="0.5" d="M138 213H146V206H138V213Z" fill="#F499BA"/>
<path opacity="0.5" d="M153 213H161V206H153V213Z" fill="#F499BA"/>
<path opacity="0.5" d="M168 213H176V206H168V213Z" fill="#F499BA"/>
<path opacity="0.5" d="M183 213H191V206H183V213Z" fill="#F499BA"/>
<path d="M191 206H183V198H191V206Z" fill="#C13765"/>
<path opacity="0.5" d="M183 206H176V198H183V206Z" fill="#F499BA"/>
<path d="M176 206H168V198H176V206Z" fill="#C13765"/>
<path opacity="0.5" d="M168 206H161V198H168V206Z" fill="#F499BA"/>
<path d="M161 206H153V198H161V206Z" fill="#C13765"/>
<path opacity="0.5" d="M153 206H146V198H153V206Z" fill="#F499BA"/>
<path d="M146 206H138V198H146V206Z" fill="#C13765"/>
<path opacity="0.5" d="M138 206H131V198H138V206Z" fill="#F499BA"/>
<path opacity="0.5" d="M138 198H146V191H138V198Z" fill="#F499BA"/>
<path opacity="0.5" d="M153 198H161V191H153V198Z" fill="#F499BA"/>
<path opacity="0.5" d="M168 198H176V191H168V198Z" fill="#F499BA"/>
<path opacity="0.5" d="M183 198H191V191H183V198Z" fill="#F499BA"/>
<path d="M191 191H183V183H191V191Z" fill="#C13765"/>
<path opacity="0.5" d="M183 191H176V183H183V191Z" fill="#F499BA"/>
<path d="M176 191H168V183H176V191Z" fill="#C13765"/>
<path opacity="0.5" d="M168 191H161V183H168V191Z" fill="#F499BA"/>
<path d="M161 191H153V183H161V191Z" fill="#C13765"/>
<path opacity="0.5" d="M153 191H146V183H153V191Z" fill="#F499BA"/>
<path d="M146 191H138V183H146V191Z" fill="#C13765"/>
<path opacity="0.5" d="M138 191H131V183H138V191Z" fill="#F499BA"/>
<path d="M131.232 183.372C131.232 183.295 131.295 183.232 131.372 183.232H190.628C190.705 183.232 190.768 183.295 190.768 183.372V250.628C190.768 250.705 190.705 250.768 190.628 250.768H131.372C131.295 250.768 131.232 250.705 131.232 250.628V183.372Z" stroke="#7C032B" stroke-width="0.464516"/>
</g>
<path d="M151.782 177.676C151.782 172.735 155.909 168.73 161 168.73C166.091 168.73 170.218 172.735 170.218 177.676V186.135C170.218 186.613 170.617 187 171.109 187C171.601 187 172 186.613 172 186.135V177.676C172 171.78 167.075 167 161 167C154.925 167 150 171.78 150 177.676V186.135C150 186.613 150.399 187 150.891 187C151.383 187 151.782 186.613 151.782 186.135V177.676Z" fill="#C13765"/>
<path d="M167.888 170.478C167.888 170.509 167.876 170.538 167.858 170.56C167.839 170.583 167.812 170.599 167.782 170.605L167.276 170.696L167.016 171.005C166.95 170.949 166.884 170.894 166.817 170.84L167.108 170.494C167.127 170.471 167.154 170.456 167.184 170.45L167.629 170.37L167.632 169.918C167.632 169.888 167.643 169.859 167.662 169.836L167.963 169.478C168.03 169.532 168.096 169.588 168.161 169.644L167.89 169.966L167.888 170.478ZM168.516 171.106C168.513 171.137 168.499 171.165 168.479 171.185C168.458 171.206 168.43 171.22 168.399 171.223L167.887 171.27L167.601 171.555C167.541 171.493 167.48 171.432 167.418 171.373L167.737 171.054C167.759 171.033 167.787 171.02 167.817 171.017L168.268 170.975L168.31 170.526C168.312 170.496 168.326 170.467 168.347 170.446L168.679 170.116C168.74 170.176 168.801 170.236 168.862 170.298L168.563 170.596L168.516 171.106ZM162.322 168.054L161.96 168.418L161.925 168.823C161.839 168.815 161.753 168.808 161.667 168.801L161.706 168.349C161.709 168.319 161.722 168.29 161.743 168.269L162.062 167.948L161.804 167.577C161.787 167.552 161.779 167.522 161.781 167.492L161.822 167.03C161.908 167.037 161.994 167.044 162.08 167.052L162.043 167.468L162.336 167.889C162.354 167.915 162.361 167.945 162.359 167.974C162.356 168.003 162.343 168.032 162.322 168.054ZM170.415 174.085C170.401 174.113 170.379 174.135 170.352 174.147C170.326 174.159 170.295 174.163 170.265 174.155L169.768 174.024L169.406 174.193C169.37 174.114 169.334 174.036 169.296 173.959L169.701 173.771C169.728 173.758 169.759 173.755 169.788 173.763L170.226 173.878L170.42 173.469C170.432 173.442 170.454 173.42 170.482 173.407L170.911 173.208C170.949 173.285 170.986 173.363 171.021 173.442L170.634 173.622L170.415 174.085ZM170.04 173.281C170.029 173.31 170.008 173.333 169.983 173.348C169.958 173.363 169.927 173.369 169.896 173.364L169.39 173.277L169.043 173.477C169.001 173.402 168.957 173.327 168.913 173.253L169.301 173.03C169.327 173.015 169.358 173.009 169.388 173.015L169.834 173.091L169.991 172.667C170.001 172.639 170.021 172.615 170.048 172.6L170.457 172.365C170.501 172.438 170.544 172.513 170.587 172.588L170.218 172.8L170.04 173.281ZM169.596 172.513C169.588 172.543 169.569 172.568 169.545 172.584C169.521 172.601 169.491 172.61 169.46 172.607L168.948 172.565L168.619 172.795C168.57 172.724 168.521 172.654 168.47 172.584L168.838 172.327C168.863 172.309 168.893 172.301 168.923 172.304L169.374 172.341L169.494 171.905C169.502 171.876 169.52 171.851 169.544 171.834L169.93 171.564C169.98 171.634 170.03 171.704 170.079 171.775L169.731 172.018L169.596 172.513ZM165.71 168.954C165.718 168.984 165.715 169.015 165.703 169.042C165.69 169.068 165.669 169.09 165.641 169.104L165.176 169.322L165.005 169.688C164.927 169.651 164.849 169.615 164.77 169.579L164.961 169.171C164.974 169.144 164.996 169.122 165.023 169.109L165.432 168.916L165.318 168.479C165.31 168.45 165.313 168.419 165.325 168.392L165.524 167.968C165.602 168.003 165.68 168.04 165.758 168.077L165.58 168.459L165.71 168.954ZM167.207 169.908C167.21 169.939 167.201 169.968 167.185 169.992C167.167 170.016 167.143 170.035 167.113 170.043L166.617 170.178L166.385 170.509C166.315 170.458 166.244 170.409 166.172 170.361L166.432 169.991C166.449 169.967 166.475 169.949 166.504 169.941L166.941 169.822L166.903 169.372C166.901 169.342 166.909 169.312 166.926 169.287L167.195 168.904C167.266 168.953 167.337 169.002 167.407 169.052L167.165 169.397L167.207 169.908ZM164.027 168.434L163.608 168.73L163.503 169.121C163.42 169.097 163.336 169.075 163.253 169.054L163.37 168.618C163.378 168.589 163.395 168.563 163.42 168.546L163.79 168.285L163.6 167.875C163.588 167.847 163.585 167.816 163.593 167.787L163.714 167.337C163.798 167.358 163.881 167.38 163.964 167.403L163.855 167.809L164.07 168.274C164.083 168.303 164.085 168.334 164.077 168.362C164.07 168.39 164.052 168.416 164.027 168.434ZM163.183 168.207L162.791 168.538L162.72 168.937C162.636 168.921 162.55 168.907 162.465 168.893L162.544 168.447C162.549 168.417 162.565 168.39 162.588 168.371L162.933 168.079L162.709 167.687C162.694 167.661 162.688 167.63 162.694 167.6L162.775 167.142C162.86 167.156 162.945 167.171 163.03 167.186L162.957 167.599L163.211 168.044C163.227 168.071 163.231 168.102 163.227 168.13C163.221 168.159 163.207 168.187 163.183 168.207ZM164.848 168.734L164.405 168.992L164.266 169.372C164.186 169.341 164.105 169.312 164.023 169.283L164.177 168.86C164.188 168.832 164.208 168.808 164.234 168.792L164.625 168.565L164.472 168.14C164.462 168.111 164.462 168.08 164.472 168.052L164.633 167.613C164.714 167.641 164.795 167.67 164.876 167.701L164.731 168.096L164.905 168.579C164.916 168.608 164.915 168.639 164.905 168.666C164.895 168.694 164.875 168.718 164.848 168.734ZM166.48 169.398C166.485 169.429 166.479 169.459 166.464 169.485C166.45 169.51 166.426 169.531 166.397 169.541L165.915 169.719L165.713 170.069C165.638 170.024 165.564 169.981 165.489 169.939L165.714 169.549C165.729 169.523 165.753 169.503 165.781 169.493L166.206 169.336L166.13 168.891C166.125 168.861 166.13 168.831 166.145 168.805L166.38 168.4C166.455 168.442 166.53 168.485 166.604 168.529L166.393 168.893L166.48 169.398ZM170.718 174.919C170.702 174.945 170.678 174.965 170.65 174.975C170.623 174.985 170.592 174.986 170.562 174.975L170.079 174.802L169.704 174.938C169.676 174.857 169.646 174.776 169.615 174.695L170.034 174.543C170.063 174.533 170.093 174.533 170.122 174.543L170.548 174.696L170.777 174.306C170.792 174.28 170.816 174.26 170.844 174.249L171.291 174.087C171.321 174.168 171.351 174.249 171.379 174.33L170.977 174.476L170.718 174.919ZM169.087 171.786C169.081 171.816 169.065 171.843 169.042 171.861C169.02 171.88 168.991 171.892 168.96 171.892L168.446 171.894L168.137 172.153C168.082 172.086 168.027 172.02 167.97 171.955L168.316 171.666C168.339 171.647 168.368 171.636 168.398 171.636L168.851 171.634L168.932 171.19C168.937 171.16 168.953 171.133 168.976 171.114L169.336 170.813C169.392 170.878 169.448 170.944 169.502 171.01L169.178 171.282L169.087 171.786ZM171.176 184.12C171.152 184.14 171.123 184.15 171.093 184.15C171.064 184.15 171.035 184.14 171.011 184.12L170.616 183.792H170.218V183.534H170.662C170.693 183.534 170.722 183.545 170.745 183.564L171.093 183.853L171.442 183.564C171.465 183.545 171.494 183.534 171.524 183.534H172V183.792H171.571L171.176 184.12ZM171.176 183.17C171.152 183.189 171.123 183.199 171.093 183.199C171.064 183.199 171.035 183.19 171.011 183.17L170.616 182.842H170.218V182.584H170.662C170.693 182.584 170.722 182.594 170.745 182.614L171.093 182.903L171.442 182.614C171.465 182.594 171.494 182.584 171.524 182.584L172 182.584V182.842H171.571L171.176 183.17ZM171.176 186.02C171.152 186.04 171.123 186.05 171.093 186.05C171.064 186.05 171.035 186.04 171.011 186.02L170.616 185.693L170.218 185.693V185.435H170.662C170.693 185.435 170.722 185.445 170.745 185.464L171.093 185.753L171.442 185.464C171.465 185.445 171.494 185.435 171.524 185.435H172V185.693H171.571L171.176 186.02ZM171.176 185.07C171.152 185.09 171.123 185.1 171.093 185.1C171.064 185.1 171.035 185.09 171.011 185.07L170.616 184.743H170.218V184.484H170.662C170.693 184.484 170.722 184.495 170.745 184.514L171.093 184.803L171.442 184.514C171.465 184.495 171.494 184.484 171.524 184.484H172V184.743H171.571L171.176 185.07ZM171.571 186.643L171.176 186.97C171.152 186.99 171.123 187 171.093 187C171.064 187 171.035 186.99 171.011 186.97L170.616 186.643L170.218 186.643V186.385H170.662C170.693 186.385 170.722 186.395 170.745 186.414L171.093 186.703L171.442 186.414C171.465 186.395 171.494 186.385 171.524 186.385L172 186.385V186.643L171.571 186.643ZM171.176 182.22C171.152 182.239 171.123 182.249 171.093 182.249C171.064 182.249 171.035 182.239 171.011 182.22L170.616 181.892H170.218V181.634H170.662C170.693 181.634 170.722 181.644 170.745 181.664L171.093 181.952L171.442 181.664C171.465 181.644 171.494 181.634 171.524 181.634L172 181.634V181.892H171.571L171.176 182.22ZM171.176 178.419C171.152 178.439 171.123 178.449 171.093 178.449C171.064 178.449 171.035 178.439 171.011 178.419L170.616 178.091H170.218V177.972C170.218 177.926 170.217 177.879 170.217 177.833H170.662C170.693 177.833 170.722 177.844 170.745 177.863L171.093 178.152L171.442 177.863C171.465 177.844 171.494 177.833 171.524 177.833H171.999C172 177.879 172 177.926 172 177.972V178.091H171.571L171.176 178.419ZM171.177 177.532C171.155 177.554 171.127 177.566 171.097 177.569C171.068 177.572 171.038 177.564 171.012 177.547L170.59 177.255L170.193 177.289C170.186 177.203 170.179 177.117 170.17 177.032L170.614 176.993C170.644 176.991 170.674 176.999 170.699 177.016L171.071 177.273L171.393 176.955C171.415 176.934 171.443 176.921 171.473 176.918L171.946 176.877C171.954 176.963 171.962 177.048 171.969 177.134L171.542 177.172L171.177 177.532ZM171.101 176.649C171.08 176.672 171.053 176.687 171.024 176.692C170.995 176.697 170.964 176.693 170.938 176.677L170.491 176.423L170.099 176.492C170.085 176.407 170.07 176.322 170.054 176.238L170.492 176.161C170.522 176.156 170.553 176.161 170.579 176.176L170.972 176.4L171.265 176.055C171.285 176.032 171.312 176.017 171.341 176.012L171.81 175.929C171.826 176.014 171.841 176.099 171.854 176.184L171.432 176.258L171.101 176.649ZM171.176 179.369C171.152 179.389 171.123 179.399 171.093 179.399C171.064 179.399 171.035 179.389 171.011 179.369L170.616 179.042L170.218 179.041V178.783H170.662C170.693 178.783 170.722 178.794 170.745 178.813L171.093 179.102L171.442 178.813C171.465 178.794 171.494 178.783 171.524 178.783H172V179.042H171.571L171.176 179.369ZM171.176 180.319C171.152 180.339 171.123 180.349 171.093 180.349C171.064 180.349 171.035 180.339 171.011 180.319L170.616 179.992L170.218 179.992V179.733H170.662C170.693 179.733 170.722 179.744 170.745 179.763L171.093 180.052L171.442 179.763C171.465 179.744 171.494 179.734 171.524 179.734H172V179.992H171.571L171.176 180.319ZM171.176 181.269C171.152 181.289 171.123 181.299 171.093 181.299C171.064 181.299 171.035 181.289 171.011 181.269L170.616 180.942L170.218 180.942V180.684L170.662 180.684C170.693 180.684 170.722 180.694 170.745 180.714L171.093 181.002L171.442 180.714C171.465 180.694 171.494 180.684 171.524 180.684H172V180.942H171.571L171.176 181.269ZM170.947 175.775C170.929 175.801 170.903 175.818 170.875 175.825C170.846 175.833 170.815 175.831 170.787 175.818L170.32 175.604L169.936 175.706C169.915 175.623 169.892 175.54 169.869 175.457L170.299 175.342C170.328 175.334 170.359 175.337 170.386 175.35L170.798 175.539L171.059 175.17C171.077 175.145 171.102 175.128 171.132 175.12L171.591 174.997C171.614 175.08 171.636 175.163 171.658 175.246L171.244 175.357L170.947 175.775ZM150.816 184.163C150.839 184.143 150.869 184.133 150.898 184.133C150.928 184.133 150.957 184.143 150.981 184.163L151.376 184.49H151.782V184.749H151.329C151.299 184.749 151.27 184.738 151.246 184.719L150.898 184.43L150.55 184.719C150.527 184.738 150.497 184.749 150.467 184.749H150V184.49H150.42L150.816 184.163ZM150.816 178.462C150.839 178.442 150.869 178.432 150.898 178.432C150.928 178.432 150.957 178.442 150.981 178.462L151.376 178.79H151.782V179.048H151.329C151.299 179.048 151.27 179.037 151.246 179.018L150.898 178.729L150.55 179.018C150.527 179.037 150.497 179.048 150.467 179.048H150V178.79H150.42L150.816 178.462ZM150.816 179.412C150.839 179.392 150.869 179.382 150.898 179.382C150.928 179.382 150.957 179.392 150.981 179.412L151.376 179.74H151.782V179.998H151.329C151.299 179.998 151.27 179.987 151.246 179.968L150.898 179.679L150.55 179.968C150.527 179.987 150.497 179.998 150.467 179.998H150V179.74H150.42L150.816 179.412ZM150.816 177.512C150.839 177.492 150.869 177.482 150.898 177.482C150.928 177.482 150.957 177.492 150.981 177.512L151.376 177.839H151.783C151.782 177.883 151.782 177.927 151.782 177.972V178.097H151.329C151.299 178.097 151.27 178.087 151.246 178.068L150.898 177.779L150.55 178.068C150.527 178.087 150.497 178.097 150.467 178.097H150V177.972C150 177.927 150 177.883 150.001 177.839H150.42L150.816 177.512ZM151.28 174.899C151.308 174.886 151.339 174.884 151.368 174.892C151.396 174.899 151.422 174.916 151.44 174.942L151.736 175.36L152.129 175.465C152.105 175.548 152.083 175.631 152.062 175.714L151.624 175.598C151.595 175.59 151.57 175.572 151.552 175.547L151.29 175.179L150.879 175.368C150.852 175.38 150.821 175.383 150.792 175.375L150.34 175.254C150.361 175.171 150.384 175.088 150.407 175.005L150.813 175.113L151.28 174.899ZM151.585 174.066C151.614 174.056 151.645 174.056 151.673 174.066C151.701 174.076 151.724 174.096 151.74 174.123L151.999 174.565L152.381 174.704C152.351 174.784 152.321 174.865 152.293 174.946L151.867 174.792C151.838 174.782 151.815 174.762 151.799 174.736L151.571 174.345L151.145 174.498C151.116 174.508 151.085 174.508 151.057 174.498L150.618 174.338C150.646 174.257 150.676 174.176 150.706 174.096L151.101 174.239L151.585 174.066ZM150.894 176.629C150.919 176.611 150.949 176.603 150.979 176.606C151.008 176.609 151.036 176.621 151.059 176.643L151.424 177.003L151.829 177.039C151.82 177.124 151.813 177.21 151.806 177.296L151.354 177.257C151.324 177.254 151.296 177.241 151.275 177.22L150.953 176.902L150.581 177.159C150.556 177.176 150.526 177.184 150.496 177.182L150.031 177.141C150.038 177.055 150.045 176.969 150.053 176.884L150.472 176.92L150.894 176.629ZM151.049 175.755C151.076 175.74 151.107 175.735 151.136 175.74C151.164 175.746 151.192 175.76 151.212 175.784L151.544 176.175L151.944 176.245C151.928 176.33 151.913 176.414 151.899 176.5L151.453 176.421C151.423 176.416 151.396 176.4 151.377 176.378L151.084 176.033L150.691 176.257C150.664 176.272 150.634 176.277 150.604 176.272L150.144 176.191C150.158 176.106 150.173 176.021 150.189 175.937L150.603 176.009L151.049 175.755ZM150.816 186.063C150.839 186.043 150.869 186.033 150.898 186.033C150.928 186.033 150.957 186.043 150.981 186.063L151.376 186.391H151.782V186.649H151.329C151.299 186.649 151.27 186.638 151.246 186.619L150.898 186.33L150.55 186.619C150.527 186.638 150.497 186.649 150.467 186.649H150V186.391H150.42L150.816 186.063ZM150.816 180.362C150.839 180.342 150.869 180.332 150.898 180.332C150.928 180.332 150.957 180.342 150.981 180.362L151.376 180.69H151.782V180.948H151.329C151.299 180.948 151.27 180.937 151.246 180.918L150.898 180.629L150.55 180.918C150.527 180.937 150.497 180.948 150.467 180.948H150V180.69H150.42L150.816 180.362ZM150.816 185.113C150.839 185.093 150.869 185.083 150.898 185.083C150.928 185.083 150.957 185.093 150.981 185.113L151.376 185.441H151.782V185.699H151.329C151.299 185.699 151.27 185.688 151.246 185.669L150.898 185.38L150.55 185.669C150.527 185.688 150.497 185.699 150.467 185.699H150V185.441H150.42L150.816 185.113ZM150.816 181.312C150.839 181.293 150.869 181.283 150.898 181.283C150.928 181.283 150.957 181.293 150.981 181.312L151.376 181.64H151.782V181.898H151.329C151.299 181.898 151.27 181.887 151.246 181.868L150.898 181.58L150.55 181.868C150.527 181.887 150.497 181.898 150.467 181.898H150V181.64H150.42L150.816 181.312ZM150.816 182.263C150.839 182.243 150.869 182.233 150.898 182.233C150.928 182.233 150.957 182.243 150.981 182.263L151.376 182.59H151.782V182.848H151.329C151.299 182.848 151.27 182.838 151.246 182.818L150.898 182.53L150.55 182.818C150.527 182.838 150.497 182.848 150.467 182.848H150V182.59H150.42L150.816 182.263ZM150.816 183.213C150.839 183.193 150.869 183.183 150.898 183.183C150.928 183.183 150.957 183.193 150.981 183.213L151.376 183.54H151.782V183.798H151.329C151.299 183.798 151.27 183.788 151.246 183.769L150.898 183.48L150.55 183.769C150.527 183.788 150.497 183.798 150.467 183.798H150V183.54H150.42L150.816 183.213ZM154.198 170.502C154.219 170.522 154.233 170.55 154.236 170.581L154.283 171.091L154.573 171.381C154.511 171.441 154.45 171.502 154.39 171.563L154.067 171.241C154.045 171.22 154.032 171.192 154.029 171.162L153.988 170.712L153.537 170.67C153.507 170.667 153.478 170.654 153.457 170.633L153.13 170.306C153.19 170.245 153.251 170.184 153.313 170.124L153.607 170.417L154.119 170.465C154.15 170.467 154.177 170.481 154.198 170.502ZM157.824 168.906L157.964 169.288C157.882 169.316 157.801 169.346 157.721 169.376L157.565 168.95C157.555 168.922 157.555 168.891 157.565 168.863L157.718 168.437L157.327 168.21C157.301 168.194 157.281 168.171 157.27 168.142L157.111 167.705C157.191 167.675 157.272 167.646 157.354 167.617L157.497 168.01L157.941 168.268C157.968 168.284 157.987 168.308 157.997 168.336C158.008 168.363 158.008 168.394 157.998 168.423L157.824 168.906ZM157.168 168.633C157.18 168.659 157.183 168.69 157.176 168.72L157.045 169.216L157.217 169.585C157.139 169.62 157.06 169.657 156.983 169.694L156.79 169.283C156.778 169.255 156.775 169.224 156.783 169.195L156.898 168.759L156.488 168.566C156.461 168.553 156.439 168.531 156.426 168.504L156.229 168.083C156.307 168.045 156.385 168.009 156.464 167.973L156.641 168.352L157.106 168.571C157.134 168.584 157.155 168.606 157.168 168.633ZM151.961 173.263C151.991 173.255 152.022 173.258 152.049 173.271C152.076 173.283 152.098 173.305 152.111 173.333L152.331 173.796L152.7 173.968C152.662 174.045 152.625 174.123 152.59 174.202L152.179 174.01C152.151 173.997 152.13 173.976 152.116 173.948L151.923 173.54L151.485 173.655C151.456 173.662 151.425 173.66 151.397 173.647L150.974 173.45C151.01 173.372 151.047 173.294 151.084 173.216L151.465 173.393L151.961 173.263ZM158.628 168.664L158.734 169.058C158.65 169.079 158.567 169.101 158.483 169.124L158.366 168.686C158.358 168.657 158.361 168.626 158.373 168.599L158.563 168.189L158.193 167.928C158.168 167.91 158.15 167.885 158.143 167.856L158.022 167.407C158.105 167.384 158.189 167.361 158.272 167.34L158.381 167.744L158.8 168.04C158.825 168.058 158.843 168.083 158.85 168.112C158.858 168.14 158.856 168.171 158.843 168.199L158.628 168.664ZM160.283 168.396L160.319 168.802C160.233 168.809 160.147 168.816 160.061 168.825L160.021 168.372C160.018 168.342 160.027 168.312 160.044 168.287L160.302 167.916L159.983 167.595C159.962 167.573 159.949 167.545 159.946 167.515L159.906 167.054C159.991 167.045 160.077 167.038 160.163 167.031L160.2 167.446L160.561 167.81C160.584 167.832 160.596 167.861 160.598 167.89C160.601 167.919 160.594 167.949 160.576 167.975L160.283 168.396ZM159.45 168.494L159.521 168.895C159.435 168.909 159.35 168.924 159.266 168.94L159.187 168.493C159.181 168.463 159.187 168.433 159.202 168.407L159.426 168.014L159.081 167.722C159.058 167.703 159.042 167.676 159.037 167.646L158.956 167.189C159.041 167.173 159.126 167.158 159.211 167.144L159.284 167.555L159.676 167.887C159.7 167.907 159.714 167.934 159.72 167.963C159.725 167.992 159.72 168.022 159.704 168.049L159.45 168.494ZM156.367 169.001C156.381 169.027 156.387 169.057 156.382 169.088L156.295 169.593L156.5 169.946C156.425 169.988 156.35 170.031 156.276 170.075L156.048 169.681C156.033 169.655 156.027 169.625 156.032 169.595L156.109 169.15L155.684 168.993C155.655 168.983 155.632 168.963 155.617 168.937L155.385 168.536C155.459 168.492 155.533 168.448 155.609 168.406L155.818 168.767L156.299 168.945C156.329 168.955 156.352 168.976 156.367 169.001ZM153.002 171.792C153.026 171.809 153.045 171.834 153.053 171.864L153.188 172.358L153.523 172.593C153.473 172.662 153.423 172.733 153.375 172.804L153.001 172.543C152.977 172.526 152.959 172.501 152.951 172.472L152.831 172.036L152.38 172.073C152.35 172.076 152.32 172.067 152.295 172.05L151.915 171.784C151.964 171.713 152.013 171.643 152.064 171.573L152.405 171.812L152.917 171.769C152.948 171.767 152.978 171.776 153.002 171.792ZM155.601 169.438C155.618 169.462 155.627 169.491 155.624 169.523L155.582 170.033L155.817 170.368C155.745 170.416 155.675 170.466 155.605 170.516L155.343 170.143C155.325 170.118 155.317 170.088 155.32 170.058L155.357 169.608L154.92 169.489C154.891 169.481 154.866 169.463 154.848 169.439L154.582 169.06C154.652 169.01 154.723 168.96 154.794 168.912L155.033 169.252L155.529 169.387C155.559 169.396 155.584 169.414 155.601 169.438ZM152.493 172.511C152.519 172.526 152.539 172.549 152.55 172.578L152.728 173.059L153.082 173.262C153.037 173.336 152.994 173.41 152.952 173.486L152.558 173.259C152.532 173.244 152.512 173.22 152.501 173.192L152.345 172.768L151.898 172.844C151.868 172.849 151.838 172.844 151.811 172.829L151.408 172.597C151.45 172.522 151.494 172.447 151.538 172.373L151.9 172.582L152.407 172.495C152.437 172.49 152.468 172.496 152.493 172.511ZM153.572 171.121C153.595 171.14 153.611 171.166 153.616 171.197L153.708 171.701L154.022 171.964C153.966 172.029 153.91 172.095 153.855 172.162L153.506 171.869C153.482 171.85 153.467 171.823 153.461 171.793L153.381 171.348L152.928 171.346C152.897 171.346 152.868 171.336 152.845 171.316L152.49 171.019C152.545 170.953 152.6 170.886 152.657 170.821L152.976 171.088L153.489 171.091C153.521 171.091 153.549 171.102 153.572 171.121ZM154.876 169.939C154.895 169.962 154.906 169.991 154.907 170.022L154.909 170.534L155.173 170.847C155.106 170.902 155.04 170.957 154.975 171.013L154.681 170.664C154.661 170.641 154.651 170.612 154.65 170.582L154.648 170.13L154.203 170.05C154.173 170.044 154.146 170.029 154.127 170.005L153.829 169.652C153.894 169.596 153.96 169.54 154.027 169.486L154.295 169.804L154.8 169.895C154.831 169.901 154.857 169.917 154.876 169.939ZM161.122 168.37L161.122 168.778C161.082 168.778 161.041 168.777 161 168.777C160.954 168.777 160.909 168.778 160.863 168.779V168.324C160.863 168.293 160.874 168.264 160.893 168.241L161.183 167.894L160.893 167.546C160.874 167.523 160.863 167.494 160.863 167.464V167.001C160.909 167 160.954 167 161 167C161.041 167 161.082 167 161.122 167.001V167.417L161.451 167.811C161.47 167.835 161.48 167.864 161.48 167.894C161.48 167.923 161.471 167.952 161.451 167.976L161.122 168.37Z" fill="#E7E8E9"/>
<path d="M334.42 232H341.234C341.233 237.639 341.367 241.658 341.738 242.77C341.859 243.132 341.978 243.478 342.091 243.809C343.556 248.082 344.145 249.797 336.682 249.95C328.641 250.113 324.19 249.965 324.428 248.166C324.618 246.735 327.426 245.874 330.446 244.948C331.223 244.71 332.013 244.467 332.776 244.21C335.516 243.285 335.838 239.649 334.841 234.296C334.704 233.562 334.561 232.796 334.42 232Z" fill="#8E5F51"/>
<path d="M299.152 232H307.187C306.13 239.824 305.508 245.535 305.608 246.843C305.97 251.568 287.467 248.427 288.012 245.544C288.556 242.661 299.077 242.118 299.077 242.118C298.996 239.507 299.032 236.029 299.152 232Z" fill="#8E5F51"/>
<path d="M299.54 238H306.86L318.087 149H324.272L334.589 238H342C342 238 342 129.454 339.387 123.593C336.775 117.733 334.535 117 334.535 117H309.156C309.156 117 305.424 119.564 303.931 123.593C300.283 133.439 298 238 298 238H299.54Z" fill="#E07F00"/>
<path d="M297.657 245.842C294.761 245.356 293.455 244.188 292.898 243C289.724 243.517 286.333 244.435 286.013 246.035C285.396 249.104 306.371 252.448 305.961 247.417C305.936 247.115 305.951 246.582 306 245.86C303.599 246.189 300.636 246.343 297.657 245.842Z" fill="#212120"/>
<path d="M332.501 247.634C330.183 247.243 328.763 246.653 327.897 246.004C324.851 246.875 322.207 247.74 322.01 249.092C321.741 250.963 326.773 251.117 335.862 250.948C343.316 250.808 343.66 249.394 342.497 246C340.106 247.142 336.922 248.381 332.501 247.634Z" fill="#212120"/>
<path d="M306.109 91C306.109 91 295.517 120.456 272.947 91L265 92.3811C265 92.3811 273.216 109.044 288.532 111.697C303.848 114.351 312 98.6942 312 98.6942L306.109 91Z" fill="#8E5F51"/>
<path d="M274 90C274 92.7613 271.76 95 269.001 95C266.238 95 264 92.7613 264 90C264 87.2387 266.238 85 269.001 85C271.76 85 274 87.2387 274 90Z" fill="#8E5F51"/>
<path d="M342.152 79C342.152 79 356.275 107.738 343.958 147.113C343.958 147.113 340.943 157.126 334.99 154.588C329.037 152.049 333.317 143.529 336.291 137.367C339.269 131.204 342.676 95.7396 332.88 87.2787C332.88 87.2787 332.2 83.895 342.152 79Z" fill="#8E5F51"/>
<path d="M304.888 75.5748C304.976 78.2546 304.276 81.5593 304.276 81.5593C298.181 88.2579 306.257 94.1531 306.257 94.1531L308.691 117H333.623C333.623 117 336.348 94.779 336.168 91.741C336.082 90.2879 335.501 89.7144 335.008 89.2272C334.472 88.6966 334.038 88.2685 334.46 86.9179C335.269 84.3273 343 80.0408 343 80.0408C336.439 66.6426 330.056 60.658 319.898 61.0151C309.74 61.3732 304.797 72.8948 304.888 75.5748Z" fill="#FFDE23"/>
<path d="M325.475 49V60.3414V63.4577C325.475 63.4577 326.357 67.4085 325.835 69.8537C325.165 72.9916 323.312 75.7074 321.51 76.8049C319.708 77.9024 317.546 79 313.942 79C308.131 79 317.213 64.5118 317.213 64.5118V60.3414V49.9029L325.475 49Z" fill="#74483C"/>
<path d="M315 79C315 79 316.487 77.3296 317.143 76.0833C317.553 75.3031 318 74 318 74L315 79Z" fill="#492920"/>
<path d="M330.659 3.98902C335.289 5.6403 339.691 8.65815 341.92 13.3273C343.749 17.1992 343.178 22.0961 344.55 26.082C346.55 32.0607 348.894 37.6409 350.38 43.7905C351.809 49.6554 353.524 57.0577 349.523 62.2393C348.322 63.7767 347.408 64.3461 345.807 65.3141C345.064 65.7696 343.921 66.1112 343.521 66.9084C342.663 68.3888 343.692 70.3248 342.206 71.8053C340.891 73.1149 338.148 73.5704 336.433 74.0829C333.003 75.1078 329.859 76.0758 326.315 76.5883C321.514 77.2146 316.083 77.5563 312.254 74.3107C309.053 71.5775 304.823 68.4458 303.222 64.403C302.708 63.0364 302.879 61.556 302.25 60.3033C301.622 58.9937 300.993 59.2214 299.964 58.1965C298.135 56.4313 299.278 54.4953 300.364 52.5594C301.85 49.8262 302.079 47.7764 301.793 44.6446C301.336 39.6908 301.679 36.3882 303.394 31.6622C305.28 26.4806 305.623 20.9004 307.509 15.6049C309.224 10.765 313.225 6.32358 318.027 4.50148C320.942 3.36267 326.144 2.05304 330.659 3.98902Z" fill="#F7941E"/>
<path d="M329.268 43.273C333.084 38.5895 331.456 32.1926 331.4 26.8809C333.813 31.3359 333.028 36.2478 332.579 40.9884C333.14 36.7619 336.114 33.1636 336.338 28.6515C336.506 24.7106 335.16 20.8838 335.216 17C338.358 20.7696 338.078 27.0523 337.909 31.7357C338.526 28.5373 339.312 25.9671 339.536 22.6544C341.22 29.2227 337.965 37.6186 335.44 43.7299C333.476 48.5276 324.106 55.7812 319 51.8974C320.515 50.698 329.044 45.3291 329.268 43.273Z" fill="#CE7515"/>
<path d="M313 54C317.469 56.6348 320.806 60.521 325.84 61.7726C332.063 63.2875 336.418 58.8743 341 54.988C338.455 60.9163 334.438 64.7367 328.725 63.8804C323.861 63.0899 317.695 59.6647 313 54Z" fill="#CE7515"/>
<path d="M338.757 70.6676C333.115 73.6016 326.959 72.6424 322 68.8621C318.524 66.1538 311.342 60.173 311 55.4335C315.674 59.8345 319.948 65.5332 325.99 68.2415C329.353 69.7649 332.431 68.975 335.452 67.0566C338.871 64.8561 343.26 62.3735 345.939 59.3831C349.074 55.9413 347.877 49.1142 347.991 44.7696C347.478 47.2522 344.229 50.6376 342.006 51.6532C343.488 48.8885 345.312 45.9545 345.198 42.682C343.773 46.9701 337.275 52.4995 332.488 53.7972C333.172 52.0481 335.11 50.4119 336.364 48.8885C338.016 46.8572 338.871 44.7696 340.011 42.4563C341.835 38.6759 343.317 35.4598 343.545 31.1153C343.773 27.4478 343.602 23.7239 343.431 20C343.716 22.2569 343.887 24.5138 344.571 26.545C346.566 32.4694 348.903 37.9989 350.385 44.0925C351.81 49.9041 353.519 57.239 349.53 62.3735C348.333 63.8969 347.421 64.4611 345.825 65.4203C345.084 65.8717 343.944 66.2103 343.545 67.0002C342.69 68.4672 343.716 70.3855 342.234 71.8525C340.923 73.1502 338.187 73.6016 336.477 74.1094C333.058 75.125 329.923 76.0842 326.389 76.592C321.601 77.2127 316.187 77.5512 312.368 74.3351C312.083 74.1094 311.798 73.8837 311.513 73.6016C313.622 74.3351 315.845 74.8429 318.125 74.9558C324.508 75.2943 333.913 75.4072 338.757 70.6676Z" fill="#CE7515"/>
<path d="M310 20.6227C312.119 18.3939 315.194 16.6605 318.953 17.0567C320.935 16.8586 324.079 18.0968 325.719 18.8397C327.77 19.7807 328.59 21.3656 329 23C325.651 21.5142 321.072 20.6227 318.133 20.4246C315.673 20.276 312.734 20.276 310 20.6227Z" fill="#2E251C"/>
<path d="M329 23.0001C329 23.0001 312.5 13.5001 307.085 24.1408L304.409 34.0128C302.392 41.4597 307.369 49.2126 315.524 51.3323C323.682 53.4498 328.185 46.946 330.203 39.5001C330.203 39.5001 330.563 35.0342 330.203 31.1347C329.73 26 329 23.0001 329 23.0001Z" fill="#8E5F51"/>
<path d="M321.015 31.8376C320.588 31.7279 320.26 31.4834 320.066 31.131C319.66 30.3941 319.978 29.4391 320.015 29.3333C320.108 29.0703 320.397 28.9313 320.674 29.016C320.946 29.1061 321.092 29.3913 321 29.6553C320.944 29.8209 320.82 30.3568 320.985 30.6548C321.025 30.7247 321.093 30.8121 321.283 30.8607C322.022 31.0503 322.54 29.9466 322.546 29.9358C322.662 29.6812 322.967 29.5647 323.232 29.6772C323.493 29.79 323.613 30.0868 323.497 30.3413C323.177 31.0511 322.292 32.1657 321.015 31.8376Z" fill="#212120"/>
<path d="M309.846 29.3789C309.418 29.2696 309.091 29.0256 308.897 28.6739C308.49 27.9388 308.809 26.9848 308.846 26.8803C308.937 26.6179 309.232 26.4611 309.504 26.5647C309.776 26.6525 309.922 26.938 309.831 27.2025C309.775 27.3667 309.651 27.9014 309.816 28.1988C309.855 28.2695 309.923 28.3558 310.113 28.4042C310.852 28.5933 311.371 27.493 311.377 27.4812C311.494 27.2271 311.799 27.1087 312.061 27.2242C312.324 27.3356 312.443 27.6318 312.328 27.8857C312.007 28.594 311.122 29.7052 309.846 29.3789Z" fill="#212120"/>
<path d="M310.415 33.4952L314.09 34.4348L316.044 27.3348L314.847 27.0271L310.415 33.4952Z" fill="#74483C"/>
<path d="M311.519 43.9783C313.13 44.4687 314.776 43.3974 315.195 41.5821L309.355 39.8048C308.938 41.6188 309.906 43.4867 311.519 43.9783Z" fill="#1400F9"/>
<path d="M56.0236 70.0617C55.9202 70.0615 55.8163 70.0259 55.7317 69.9539C55.5408 69.792 55.5177 69.5062 55.6794 69.3154C57.0931 67.6499 55.9857 64.5031 54.8073 62.1567C53.752 60.0549 54.4764 57.71 55.1771 55.4422C55.5598 54.2042 55.9552 52.924 56.0671 51.6859C56.3821 48.1984 54.232 46.0014 52.5585 45.7563C50.805 45.4992 49.495 47.0338 49.4818 47.0492C49.3208 47.2404 49.0355 47.265 48.8438 47.1037C48.6523 46.9424 48.628 46.6569 48.7893 46.4654C48.8558 46.386 50.4468 44.5315 52.6898 44.8598C55.0269 45.2019 57.3042 48.0594 56.9692 51.7673C56.8488 53.1003 56.439 54.427 56.0425 55.7097C55.365 57.9026 54.725 59.9739 55.6166 61.7502C57.509 65.5187 57.7623 68.2614 56.3697 69.9018C56.2802 70.0076 56.1524 70.062 56.0236 70.0617Z" fill="#212120"/>
<path d="M52.7462 73.7464C52.6045 73.7461 52.4658 73.6743 52.385 73.5434C52.2591 73.3407 52.3194 73.0729 52.5191 72.9453C55.1495 71.2669 54.8105 66.6741 53.7301 63.9489C52.9691 62.0309 53.0522 61.0432 53.1778 59.5488C53.2633 58.5325 53.3696 57.2677 53.2651 55.2377C53.0269 50.5976 49.7886 50.0078 49.6511 49.9849C49.419 49.9466 49.2599 49.7246 49.297 49.4886C49.3339 49.253 49.5493 49.0916 49.7836 49.128C49.824 49.1343 53.8434 49.8267 54.119 55.1926C54.2262 57.2823 54.1172 58.5797 54.0296 59.6224C53.9062 61.09 53.8382 61.8985 54.5231 63.625C55.914 67.1327 55.8439 71.8487 52.9744 73.6798C52.903 73.7252 52.8241 73.7466 52.7462 73.7464Z" fill="#212120"/>
<path d="M52.476 76.2075C52.3201 76.2072 52.1677 76.1336 52.0784 75.9994C51.9403 75.7914 52.0065 75.5169 52.2262 75.3861C55.1192 73.6664 54.746 68.9589 53.5567 66.1655C52.7194 64.1993 52.8104 63.1871 52.9484 61.6552C53.0423 60.6135 53.159 59.3171 53.044 57.2367C52.7811 52.4798 49.2189 51.8752 49.0676 51.8518C48.8121 51.8123 48.6373 51.5849 48.678 51.3431C48.7184 51.1014 48.9546 50.9353 49.2133 50.9732C49.2577 50.9798 53.6791 51.69 53.9831 57.1906C54.1015 59.3321 53.9816 60.6623 53.8854 61.7308C53.7501 63.2351 53.6753 64.064 54.4291 65.8338C55.9596 69.4291 55.8834 74.2629 52.727 76.1394C52.6487 76.1858 52.5618 76.2077 52.476 76.2075Z" fill="#212120"/>
<path d="M53.7052 75.5947C53.5607 75.5944 53.4188 75.5233 53.3338 75.3925C53.1998 75.1864 53.2575 74.9099 53.4631 74.7755C54.846 73.8702 54.512 72.049 54.1584 70.1207C53.8625 68.5066 53.5831 66.982 54.3811 65.9753C55.5496 64.5009 55.2831 63.9236 54.1618 61.4944C53.9865 61.1144 53.793 60.6956 53.5854 60.2281C52.7758 58.4073 53.0524 56.8619 53.2962 55.4987C53.543 54.1205 53.7559 52.93 52.9147 51.5966C52.3749 50.7405 51.7433 50.2263 51.0378 50.0684C50.1258 49.8647 49.3656 50.3287 49.3581 50.3334C49.151 50.4663 48.8765 50.4046 48.745 50.1973C48.6131 49.9898 48.6738 49.7142 48.8806 49.582C48.9235 49.5543 49.9483 48.911 51.2311 49.1984C52.1757 49.4096 52.9945 50.0563 53.6654 51.12C54.6913 52.7463 54.4266 54.2255 54.1703 55.6562C53.9383 56.9533 53.6982 58.2949 54.3963 59.8649C54.6024 60.3284 54.7939 60.7434 54.9678 61.1199C56.1123 63.5991 56.586 64.6253 55.0763 66.5305C54.5298 67.2197 54.7737 68.5505 55.0322 69.9596C55.4044 71.9907 55.8266 74.2924 53.9487 75.5225C53.8733 75.5716 53.7886 75.5949 53.7052 75.5947Z" fill="black"/>
<path d="M53.0855 77.4397C52.941 77.4394 52.7991 77.3666 52.7141 77.2328C52.5801 77.0219 52.6379 76.7393 52.8435 76.6016C54.2265 75.6749 53.8926 73.8112 53.5391 71.8383C53.2432 70.1865 52.9639 68.6263 53.762 67.5962C54.9307 66.0876 54.6642 65.4969 53.5429 63.0113C53.3676 62.6225 53.1742 62.1938 52.9665 61.7156C52.1569 59.8523 52.4336 58.271 52.6775 56.8758C52.9244 55.4655 53.1374 54.2473 52.2962 52.883C50.7632 50.3962 48.9403 51.4622 48.7374 51.5921C48.5299 51.7251 48.2562 51.6608 48.1259 51.4489C47.9956 51.2366 48.0556 50.9569 48.2618 50.822C48.3045 50.7938 49.3306 50.1364 50.6125 50.4292C51.5572 50.6454 52.3761 51.307 53.047 52.3952C54.0729 54.0594 53.8081 55.5731 53.5517 57.0373C53.3197 58.3647 53.0794 59.7376 53.7775 61.344C53.9836 61.8181 54.1751 62.243 54.349 62.6281C55.4935 65.1649 55.9671 66.2152 54.4572 68.1644C53.9107 68.8697 54.1545 70.2318 54.413 71.6735C54.7851 73.7517 55.2072 76.1071 53.3289 77.3659C53.2538 77.416 53.1691 77.4399 53.0855 77.4397Z" fill="black"/>
<path d="M58.1904 70.682C58.0607 70.6817 57.9316 70.6292 57.8405 70.5273C57.6749 70.3421 57.6974 70.0633 57.8912 69.9049C60.5265 67.7485 60.7191 64.9789 58.4639 61.6729C56.97 59.4837 56.4446 58.1054 57.0576 55.237C57.6282 52.5635 58.1211 50.2544 55.7759 48.462C53.4642 46.695 49.9719 48.066 49.9367 48.0799C49.702 48.1742 49.4311 48.0688 49.3324 47.8443C49.2335 47.6196 49.3432 47.3612 49.5778 47.2662C49.7408 47.2003 53.6075 45.6741 56.3521 47.7722C59.1386 49.902 58.5404 52.7039 57.9619 55.414C57.4223 57.94 57.8268 59.1234 59.2372 61.1904C61.7504 64.8746 61.4927 68.1198 58.4915 70.5756C58.404 70.6471 58.2968 70.6822 58.1904 70.682Z" fill="black"/>
<path d="M55.0536 74.3669C54.9719 74.3667 54.8892 74.345 54.8153 74.2998C54.0697 73.8446 53.5857 73.0174 53.452 71.9708C53.2403 70.3102 53.9525 68.4261 55.311 67.0541C57.2255 65.1206 56.2603 63.145 54.5695 60.3515C53.7704 59.0315 53.9726 57.6155 54.1867 56.1163C54.3926 54.6746 54.6056 53.1837 53.9192 51.6605C52.6268 48.7913 49.2489 49.4183 49.2141 49.4251C48.9731 49.4727 48.7359 49.3222 48.6864 49.0898C48.6372 48.8575 48.7932 48.63 49.0351 48.5826C49.0758 48.5746 53.1618 47.8164 54.7399 51.3188C55.5255 53.0626 55.285 54.7471 55.0727 56.2334C54.8718 57.6403 54.6982 58.8551 55.3424 59.9192C56.8128 62.3482 58.4792 65.1013 55.9586 67.647C54.5496 69.07 54.1985 70.7595 54.3399 71.8662C54.44 72.6528 54.7793 73.2595 55.2945 73.5743C55.5029 73.7015 55.5648 73.9671 55.4322 74.1675C55.347 74.2967 55.2017 74.3672 55.0536 74.3669Z" fill="#212120"/>
<path d="M59.0321 69.4521C58.8964 69.4519 58.7626 69.3892 58.6759 69.2708C58.5304 69.0724 58.5722 68.7928 58.7694 68.6464C60.1825 67.5961 60.5779 66.3697 60.6607 65.5255C60.7621 64.4937 60.4501 63.4653 59.8267 62.7752C59.6742 62.6063 59.5318 62.4552 59.399 62.314C58.2571 61.1008 57.7833 60.4746 57.5329 57.1187L57.5163 56.8966C57.2506 53.327 57.1044 51.3606 54.9255 50.0478C52.7426 48.732 50.5807 49.8628 50.5593 49.8746C50.343 49.9908 50.0745 49.9081 49.9594 49.6906C49.8443 49.473 49.926 49.2026 50.1423 49.0865C50.2482 49.0295 52.7725 47.7095 55.3811 49.2813C57.9543 50.832 58.1224 53.0896 58.4007 56.8297L58.4174 57.0517C58.6543 60.2246 59.0609 60.6562 60.0426 61.6996C60.1794 61.8448 60.3258 62.0004 60.4828 62.1743C61.2724 63.0483 61.6689 64.334 61.5432 65.613C61.4013 67.061 60.6031 68.3934 59.2961 69.3647C59.2164 69.4239 59.1237 69.4523 59.0321 69.4521Z" fill="#212120"/>
<path d="M58.9889 71.2987C58.8489 71.2984 58.7103 71.2387 58.6182 71.1254C57.0181 69.1541 56.9073 66.7729 58.3133 64.5927C59.5605 62.6592 60.071 61.6194 58.066 59.1342C56.0094 56.5848 55.6522 53.6563 55.2743 50.5553C55.2397 50.2729 55.2053 49.9895 55.1691 49.7045C54.8025 46.812 53.4308 45.1309 51.4056 45.092C49.7858 45.0522 49.6222 45.79 49.6155 45.8212C49.5806 46.064 49.3451 46.2264 49.0892 46.1952C48.8328 46.1622 48.6543 45.9322 48.6892 45.6893C48.698 45.6279 48.9313 44.1981 51.32 44.2033C51.3543 44.2034 51.3892 44.2039 51.4245 44.2044C53.9298 44.2523 55.6772 46.2691 56.0994 49.5988C56.1357 49.885 56.1703 50.1698 56.2047 50.4533C56.5677 53.4293 56.9104 56.2401 58.8104 58.5952C61.1272 61.4666 60.4701 62.9514 59.1128 65.0555C57.9201 66.9052 58.0103 68.9203 59.3609 70.5844C59.5186 70.7788 59.4801 71.0576 59.2751 71.2067C59.1897 71.2691 59.089 71.2989 58.9889 71.2987Z" fill="#212120"/>
<path d="M55.4049 73.1368C55.289 73.1365 55.1737 73.088 55.0891 72.9921C54.9289 72.8103 54.9407 72.5285 55.1156 72.3623C57.0374 70.5354 56.4904 67.3958 55.4378 65.2627C54.1756 62.7045 54.4859 60.646 54.9556 57.5299L54.9816 57.3579C55.4439 54.2863 55.6142 50.9446 53.3689 49.4491C51.2211 48.0187 50.056 49.3466 50.0444 49.3601C49.8875 49.5447 49.6166 49.5629 49.4383 49.4002C49.2603 49.2373 49.243 48.9557 49.3999 48.7712C49.4164 48.7517 51.0717 46.8602 53.8325 48.699C56.4928 50.4709 56.3351 54.1402 55.8299 57.4956L55.8039 57.6676C55.3444 60.7161 55.067 62.5562 56.2021 64.8562C57.3922 67.2686 57.9737 70.8539 55.6956 73.0196C55.6131 73.0982 55.5087 73.137 55.4049 73.1368Z" fill="black"/>
<path d="M54.1684 75.5958C54.0525 75.5956 53.9372 75.5469 53.8526 75.4512C53.6924 75.2695 53.7042 74.9875 53.8791 74.8213C55.8011 72.9946 55.2539 69.855 54.2013 67.722C52.9389 65.163 53.2493 63.104 53.7193 59.9872L53.7451 59.8169C54.2077 56.7453 54.3777 53.4037 52.1323 51.9082C50.0109 50.495 48.8536 51.7672 48.805 51.8218C48.6463 52.0027 48.3755 52.018 48.1999 51.8549C48.0245 51.6915 48.0072 51.4137 48.163 51.2301C48.1797 51.211 49.8352 49.3191 52.5961 51.1581C55.2565 52.93 55.0988 56.5991 54.5936 59.9545L54.5677 60.1249C54.108 63.1742 53.8304 65.0147 54.9658 67.3155C56.1559 69.7278 56.7375 73.3131 54.4592 75.4786C54.3766 75.5572 54.2722 75.596 54.1684 75.5958Z" fill="black"/>
<path d="M57.4759 73.1413C57.3457 73.141 57.2163 73.0925 57.1223 72.9971C55.3852 71.2392 56.8688 67.4266 57.9523 64.6431C58.5409 63.1306 57.7016 62.0579 56.7298 60.8157C56.1653 60.0941 55.5814 59.3477 55.2351 58.458C54.8077 57.3592 55.1777 56.2854 55.5693 55.1485C56.0965 53.6182 56.6416 52.0356 55.3023 50.1408C53.0874 47.0064 49.5086 48.4644 49.3573 48.5277C49.1178 48.629 48.8336 48.5326 48.7232 48.3128C48.6128 48.0931 48.718 47.8332 48.958 47.7324C49.0027 47.7135 53.4458 45.9026 56.1049 49.6657C57.6888 51.9065 57.0191 53.8503 56.481 55.4121C56.1243 56.448 55.816 57.3427 56.1355 58.1648C56.4366 58.9387 56.9805 59.6342 57.5067 60.3067C58.5404 61.6278 59.609 62.9937 58.8527 64.9373C57.9068 67.3677 56.4774 71.0407 57.831 72.4108C58.0079 72.5901 57.9928 72.8667 57.7972 73.0289C57.7057 73.1041 57.5906 73.1415 57.4759 73.1413Z" fill="black"/>
<path d="M58.7118 73.1448C58.5908 73.1445 58.4704 73.0978 58.3821 73.0056C57.7654 72.3605 56.9112 70.6436 58.0954 68.7612C59.3082 66.8335 59.027 65.1124 57.1243 62.8208C55.02 60.2858 55.666 57.6969 56.7284 54.5758C57.7038 51.7116 56.3039 48.9455 54.3871 47.9258C52.4283 46.884 49.9997 48.2404 49.9752 48.2543C49.7617 48.3758 49.4864 48.3091 49.3592 48.1056C49.2322 47.9019 49.3012 47.6384 49.5138 47.5167C49.6309 47.4494 52.4078 45.8893 54.8235 47.1746C57.4158 48.5532 58.6019 51.8496 57.5831 54.8418C56.5722 57.8103 55.9983 60.0817 57.828 62.286C59.9485 64.8403 60.2685 66.9737 58.8655 69.2042C57.7377 70.9967 58.9926 72.3689 59.0465 72.4264C59.2117 72.6026 59.1979 72.874 59.0147 73.0329C58.9282 73.1081 58.8196 73.145 58.7118 73.1448Z" fill="black"/>
<path d="M60.5085 71.917C60.4413 71.9172 60.3732 71.9032 60.3089 71.8739C58.979 71.2713 58.9118 69.6218 60.0769 66.1803C61.2531 62.7054 60.4928 61.3613 58.6611 58.6525C57.7676 57.331 57.6423 55.9025 57.5211 54.5211C57.3778 52.8862 57.2426 51.3422 55.8111 50.1264C53.2726 47.9701 50.6781 49.0463 50.5688 49.0934C50.3356 49.1934 50.0581 49.0962 49.9515 48.8743C49.8444 48.6526 49.9462 48.3909 50.1794 48.2887C50.3102 48.2313 53.4258 46.9124 56.4334 49.4669C58.1415 50.9178 58.2989 52.7124 58.4508 54.4479C58.5677 55.7801 58.6778 57.0386 59.446 58.1749C61.338 60.9727 62.2647 62.6113 60.965 66.451C59.5739 70.5602 60.4294 70.9477 60.7104 71.0752C60.943 71.1805 61.0413 71.4448 60.9305 71.6652C60.8507 71.8247 60.683 71.9174 60.5085 71.917Z" fill="#212120"/>
<path d="M52.7934 52.2067C52.5556 52.2062 52.3634 52.0034 52.364 51.7619C52.3641 51.6958 52.3754 51.6113 52.4146 51.3286C52.5783 50.1468 53.0764 46.5509 52.3976 44.1489C52.3319 43.9168 52.464 43.6744 52.6926 43.6078C52.9207 43.5415 53.1599 43.6749 53.2255 43.9076C53.9549 46.4884 53.4375 50.223 53.2678 51.4505C53.2447 51.6166 53.2283 51.7294 53.2252 51.7766C53.2247 52.018 53.0314 52.2072 52.7934 52.2067Z" fill="black"/>
<path d="M53.4921 52.2082C53.3185 52.2078 53.1663 52.0456 53.14 51.819C53.1184 51.6337 52.6228 47.2409 53.5316 43.9005C53.5963 43.6623 53.7997 43.5356 53.9867 43.6185C54.1732 43.7009 54.2719 43.9611 54.207 44.1994C53.3553 47.3301 53.8424 51.641 53.8474 51.6843C53.8763 51.9335 53.7415 52.1661 53.5461 52.2033C53.5281 52.2067 53.51 52.2083 53.4921 52.2082Z" fill="black"/>
<path d="M52.0355 52.2051C51.9979 52.205 51.9602 52.1975 51.9227 52.182C51.7356 52.1038 51.6347 51.8507 51.6976 51.6165C52.1294 50.0045 52.9048 45.5693 51.3278 44.4209C51.1571 44.2965 51.0997 44.0231 51.199 43.8098C51.2989 43.5967 51.518 43.5249 51.6879 43.6484C54.0885 45.3962 52.4464 51.6354 52.3752 51.9002C52.3251 52.0872 52.1852 52.2054 52.0355 52.2051Z" fill="black"/>
<path d="M54.0465 52.2094C53.9008 52.2091 53.7724 52.0638 53.7466 51.857C53.7239 51.6772 53.2079 47.4213 54.2612 44.4479C54.3361 44.2368 54.5192 44.1499 54.6708 44.2538C54.8221 44.3579 54.8843 44.6133 54.8094 44.8247C53.8436 47.5506 54.3435 51.668 54.3487 51.7092C54.3777 51.9411 54.2665 52.1621 54.1001 52.2026C54.0822 52.2073 54.0641 52.2094 54.0465 52.2094Z" fill="black"/>
<path d="M68.73 168.95C68.73 168.95 73.4538 225.851 72.9093 243.486C72.9093 243.486 83.4436 244.033 83.9882 246.941C84.5338 249.849 66.0073 253.016 66.3692 248.251C66.7322 243.486 57.6499 180.767 52.7458 168.95C47.8416 157.133 68.73 168.95 68.73 168.95Z" fill="#8E5F51"/>
<path d="M46.7861 170.235C46.7861 170.235 42.988 219.853 41.9038 228.63C40.8185 237.407 38.2875 243.676 41.9038 244.931C45.5212 246.185 49.7597 247.08 49.9912 248.871C50.2216 250.662 45.9097 250.81 38.1204 250.648C30.3311 250.483 31.596 248.513 33.2223 243.497C34.8509 238.482 31.7778 173.996 33.0427 169.518C34.3076 165.039 46.7861 170.235 46.7861 170.235Z" fill="#8E5F51"/>
<path d="M73.5091 246.539C76.1147 246.054 77.2903 244.885 77.792 243.698C80.6484 244.214 83.7001 245.132 83.988 246.732C84.544 249.802 65.6659 253.146 66.0347 248.114C66.0578 247.812 66.0439 247.28 66 246.557C68.1605 246.887 70.8273 247.04 73.5091 246.539Z" fill="#212120"/>
<path d="M40.999 248.005C42.9858 247.692 44.2035 247.22 44.9456 246.7C47.5559 247.398 49.8229 248.09 49.9912 249.171C50.2216 250.668 45.9091 250.792 38.1187 250.656C31.7289 250.544 31.4341 249.413 32.4315 246.698C34.4805 247.611 37.2094 248.602 40.999 248.005Z" fill="#212120"/>
<path d="M65.0167 91.6976C65.0167 91.6976 75.8333 121.154 98.8844 91.6976L107 93.0787C107 93.0787 98.6091 109.742 82.9674 112.395C67.3258 115.049 59 99.3918 59 99.3918L65.0167 91.6976Z" fill="#8E5F51"/>
<path d="M66.9629 82.3776C66.9629 82.3776 66.2589 79.0536 66.3481 76.358C66.4394 73.6623 61.472 62.073 51.2653 61.7128C41.0585 61.3537 34.6448 67.3733 28.0516 80.8503C28.0516 80.8503 35.8203 85.1619 36.6326 87.7677C37.4461 90.3736 35.0972 89.5656 34.9167 92.6192C34.7361 95.675 36.5412 113.285 36.9948 116.519C36.9948 116.519 30.6713 120.921 29.5871 129.367C28.504 137.813 22 170.698 22 170.698H78L70.2324 132.766C70.2324 132.766 68.4273 122.719 63.188 118.407L64.9717 95.0454C64.9717 95.0454 73.0867 89.1155 66.9629 82.3776Z" fill="#1400F9"/>
<path d="M78 170.698H22C22 170.698 22.5099 168.308 23.2658 164.698H76.6766L78 170.698Z" fill="#0E0572"/>
<path d="M77 161.698H24C24.376 159.523 24.7843 157.157 25.2051 154.698H75.7144L77 161.698Z" fill="#0E0572"/>
<path d="M75 149.698H26C26.4009 147.681 26.7959 145.66 27.1771 143.698H73.7047L75 149.698Z" fill="#0E0572"/>
<path d="M72 139.698H28C28.4098 137.119 28.7764 134.735 29.0727 132.698H70.7298L72 139.698Z" fill="#0E0572"/>
<path d="M98 90.6976C98 93.459 100.24 95.6976 102.999 95.6976C105.762 95.6976 108 93.459 108 90.6976C108 87.9363 105.762 85.6976 102.999 85.6976C100.24 85.6976 98 87.9363 98 90.6976Z" fill="#8E5F51"/>
<path d="M46 48.6976V63.1553L58 78.6976L54.5965 64.2095V49.6005L46 48.6976Z" fill="#74483C"/>
<path d="M27.8484 80.6976C27.8484 80.6976 13.7254 109.436 26.0419 148.811C26.0419 148.811 29.0566 158.824 35.0104 156.285C40.963 153.746 36.6833 145.226 33.7093 139.065C30.7306 132.902 27.3245 97.4372 37.1201 88.9763C37.1201 88.9763 37.7997 85.5926 27.8484 80.6976Z" fill="#8E5F51"/>
<path d="M25.8566 147.698C25.552 146.453 25.2654 145.219 25 143.994L33.6665 139.698C34.1085 140.814 34.5632 141.98 35 143.166L25.8566 147.698Z" fill="#603E1C"/>
<path d="M47.6385 72.891C47.509 72.9498 47.3532 72.9492 47.211 72.8753C45.0032 71.7295 43.9128 68.6383 43.9711 63.6881C43.9984 61.3554 42.3377 59.3993 40.5793 57.3284C39.5506 56.1169 38.4869 54.8642 37.7113 53.4725C35.5547 49.602 36.4478 45.465 38.6352 44.0299C40.7335 42.6517 43.247 43.9408 43.3531 43.9965C43.6094 44.1311 43.7249 44.4519 43.6112 44.714C43.4973 44.9757 43.1983 45.0792 42.9426 44.9458C42.9217 44.9349 40.8336 43.8758 39.2071 44.9428C37.6412 45.9705 36.5521 49.3329 38.5804 52.9733C39.3008 54.2661 40.3274 55.4752 41.3201 56.6442C43.1382 58.7856 45.0185 61 44.9859 63.7608C44.9496 66.8429 45.3773 70.7615 47.6189 71.9248C47.8756 72.0581 47.9923 72.3788 47.8796 72.6413C47.8298 72.7579 47.7425 72.8437 47.6385 72.891Z" fill="#212120"/>
<path d="M52.7149 75.4132C52.622 75.4554 52.5174 75.4746 52.4101 75.4639C48.0886 75.025 45.6936 69.9452 45.6341 65.3882C45.6051 63.1453 45.128 62.3049 44.2612 60.7789C43.6456 59.6945 42.8794 58.3451 41.9832 56.0196C39.6819 50.0481 44.1389 47.128 44.1843 47.0991C44.4447 46.9336 44.7846 46.9919 44.944 47.2292C45.1028 47.4663 45.0213 47.7922 44.7622 47.9579C44.6059 48.0593 41.0352 50.4466 43.0242 55.6081C43.8949 57.8675 44.6416 59.1825 45.2415 60.2394C46.1241 61.7932 46.707 62.8201 46.7392 65.312C46.7854 68.8524 48.632 74.0191 52.5933 74.4215C52.8941 74.452 53.0974 74.7101 53.0465 74.9982C53.0142 75.1839 52.8839 75.3364 52.7149 75.4132Z" fill="#212120"/>
<path d="M52.2942 78.0193C52.2038 78.0604 52.1005 78.0766 51.9948 78.06C49.354 77.6463 48.6834 74.9416 48.0913 72.5552C47.6808 70.8995 47.2927 69.336 46.3623 68.856C43.7894 67.529 43.8001 66.1828 43.8266 62.9307C43.8308 62.4373 43.835 61.893 43.8315 61.2898C43.8188 59.2441 42.9006 57.9062 42.0126 56.6125C41.0333 55.1858 40.0208 53.7107 40.3362 51.4427C40.5423 49.9597 41.1138 48.8565 42.0352 48.164C43.286 47.2232 44.7134 47.4189 44.7739 47.4276C45.0629 47.4696 45.2641 47.7389 45.2225 48.0288C45.1816 48.3179 44.9152 48.5178 44.6269 48.4776C44.3442 48.4395 41.8555 48.2043 41.3843 51.5919C41.1254 53.4511 41.9406 54.6383 42.8839 56.0128C43.8172 57.3724 44.875 58.9137 44.8895 61.2863C44.8932 61.8949 44.8888 62.4441 44.8849 62.942C44.8591 66.1286 44.8531 66.8857 46.8443 67.9131C48.2035 68.6141 48.6481 70.4052 49.1185 72.3017C49.6803 74.5674 50.2111 76.7074 52.1555 77.0115C52.4443 77.0567 52.6426 77.3282 52.5984 77.6176C52.5701 77.8013 52.4512 77.948 52.2942 78.0193Z" fill="black"/>
<path d="M52.5974 78.6865C52.5069 78.7276 52.4036 78.7438 52.2979 78.7271C49.6575 78.3133 48.9865 75.6087 48.3947 73.2222C47.9841 71.5666 47.5964 70.003 46.6655 69.5229C44.0927 68.1964 44.1034 66.8504 44.1298 63.5985C44.1337 63.105 44.138 62.5607 44.1347 61.957C44.122 59.9113 43.2038 58.5735 42.3156 57.2795C41.3364 55.8528 40.3238 54.3775 40.6393 52.1093C40.8454 50.6262 41.4172 49.5233 42.3383 48.8306C43.5899 47.8911 45.0169 48.0857 45.0768 48.0946C45.366 48.1366 45.5672 48.4058 45.5256 48.6958C45.4845 48.9849 45.2174 49.1853 44.9293 49.1445C44.6426 49.1054 42.158 48.8739 41.6874 52.2584C41.4285 54.1183 42.2435 55.305 43.187 56.6798C44.1203 58.0398 45.178 59.581 45.1926 61.9533C45.1963 62.5623 45.1918 63.1118 45.1881 63.6098C45.1623 66.7959 45.1562 67.553 47.1471 68.5795C48.5069 69.2805 48.9513 71.0721 49.4217 72.9686C49.9835 75.2341 50.5143 77.3739 52.4586 77.6785C52.7475 77.724 52.9457 77.9952 52.9015 78.2846C52.8731 78.4685 52.7544 78.6151 52.5974 78.6865Z" fill="black"/>
<path d="M53.204 80.0207C53.1135 80.0618 53.0099 80.0774 52.9037 80.0595C50.2488 79.6147 49.5517 76.8518 48.9363 74.4144C48.5097 72.7234 48.1063 71.1259 47.1679 70.6286C44.5732 69.2535 44.5724 67.8818 44.5703 64.5669C44.5702 64.064 44.5697 63.5092 44.5608 62.8946C44.5301 60.8093 43.5967 59.4375 42.6935 58.1109C41.6981 56.6482 40.6685 55.1355 40.965 52.8265C41.1592 51.3168 41.7234 50.1975 42.6422 49.4996C43.8908 48.5527 45.3251 48.7639 45.3853 48.7731C45.6761 48.8186 45.8804 49.0949 45.8412 49.3898C45.8026 49.684 45.5371 49.8859 45.2471 49.8421C44.9636 49.8005 42.4623 49.5386 42.0187 52.9878C41.7752 54.8806 42.6039 56.098 43.563 57.5072C44.512 58.9014 45.5877 60.4816 45.623 62.9003C45.6322 63.5206 45.6325 64.0806 45.633 64.5878C45.6351 67.8357 45.6355 68.6074 47.6437 69.6716C49.0144 70.3981 49.4763 72.2277 49.9653 74.1651C50.5492 76.4791 51.1009 78.665 53.0559 78.9924C53.3464 79.0411 53.5477 79.3193 53.5058 79.6139C53.4791 79.8008 53.3608 79.9494 53.204 80.0207Z" fill="black"/>
<path d="M54.3306 79.5086C54.2477 79.5462 54.1521 79.5592 54.0531 79.5392C51.5817 79.0488 50.8725 76.3616 50.2464 73.9907C49.8123 72.3457 49.4019 70.7922 48.5207 70.2899C46.0837 68.9011 46.0516 67.5745 45.9739 64.3697C45.9622 63.8836 45.9491 63.3472 45.9268 62.7522C45.851 60.7352 44.9541 59.3876 44.0868 58.0844C43.1304 56.6473 42.1413 55.1614 42.3639 52.9356C42.5093 51.4801 43.0071 50.4107 43.8427 49.7572C44.9784 48.869 46.3128 49.1066 46.369 49.1171C46.6396 49.1677 46.8352 49.4395 46.8056 49.724C46.7764 50.0078 46.534 50.1969 46.2645 50.1476C45.9967 50.1007 43.6764 49.793 43.3443 53.1157C43.1618 54.9403 43.9576 56.1363 44.8791 57.5205C45.7906 58.8902 46.8238 60.4425 46.9117 62.782C46.9344 63.382 46.9474 63.9234 46.9594 64.4141C47.0356 67.5541 47.0537 68.3002 48.9397 69.3752C50.227 70.1089 50.6972 71.8886 51.1945 73.7729C51.7887 76.0239 52.35 78.1499 54.1698 78.5108C54.4401 78.5644 54.6332 78.8381 54.6011 79.1221C54.5807 79.3024 54.4745 79.4432 54.3306 79.5086Z" fill="black"/>
<path d="M45.529 74.6548C45.4197 74.7045 45.2924 74.7164 45.1676 74.6795C40.8774 73.4085 39.0208 70.0069 39.7974 64.8425C40.2332 61.9445 40.0687 60.4726 38.275 57.9826C36.3507 55.3115 34.361 52.5493 36.1814 48.9434C37.9743 45.3928 42.6977 45.2525 42.8972 45.2482C43.1853 45.2422 43.4253 45.4723 43.4336 45.7621C43.4415 46.0518 43.2149 46.2909 42.9274 46.2978C42.8847 46.2989 38.6226 46.433 37.1121 49.4242C35.5798 52.4591 37.2196 54.735 39.118 57.3705C41.1548 60.198 41.2905 61.9373 40.8291 65.0069C40.1318 69.641 41.6885 72.5569 45.4557 73.6729C45.7325 73.7549 45.8925 74.0469 45.813 74.3249C45.7693 74.4773 45.6622 74.5943 45.529 74.6548Z" fill="black"/>
<path d="M50.7275 77.1215C50.5782 77.1894 50.3975 77.1789 50.2478 77.0775C50.0163 76.9203 49.9482 76.604 50.0957 76.3712C50.4606 75.7952 50.5047 74.9828 50.2199 74.0833C49.8192 72.8183 48.6366 71.1449 46.5187 70.2425C42.7307 68.6281 43.0591 64.8821 43.3489 61.5775C43.4759 60.1296 42.7053 58.8906 41.8126 57.4554C40.8699 55.9395 39.801 54.2214 39.7375 51.9718C39.6093 47.4535 44.0987 46.4163 44.1436 46.4063C44.4107 46.3477 44.6794 46.5233 44.7438 46.7979C44.8079 47.0725 44.643 47.3419 44.3776 47.4018C44.2241 47.4355 40.6273 48.2843 40.7321 51.9689C40.7875 53.9343 41.7334 55.4547 42.6479 56.9254C43.599 58.4545 44.4974 59.8989 44.3398 61.6948C44.0064 65.4954 44.0031 68.0784 46.8803 69.3046C48.9223 70.1747 50.5642 71.8943 51.1654 73.7928C51.5444 74.9893 51.4624 76.1072 50.9345 76.9402C50.8823 77.0231 50.8095 77.0842 50.7275 77.1215Z" fill="#212120"/>
<path d="M44.1585 73.6678C44.0593 73.7129 43.9455 73.7272 43.8304 73.7023C41.9418 73.2872 40.4264 72.2319 39.5631 70.7309C38.8005 69.405 38.599 67.817 39.0237 66.4836C39.1079 66.2184 39.19 65.9781 39.2667 65.7538C39.8165 64.1427 40.0444 63.4761 38.7449 59.9193L38.6541 59.6704C37.1217 55.4782 36.1969 52.9477 38.2176 50.0092C40.263 47.0359 43.6631 47.1699 43.8076 47.1771C44.0982 47.1917 44.3239 47.4406 44.3119 47.7332C44.2998 48.0254 44.0549 48.2508 43.7649 48.2368C43.6428 48.2315 40.7936 48.1346 39.0858 50.618C37.3746 53.1058 38.1803 55.3097 39.6428 59.311L39.7337 59.56C41.1077 63.322 40.9031 64.2321 40.2637 66.1057C40.1893 66.3237 40.1095 66.5573 40.0274 66.8148C39.692 67.8679 39.8587 69.1354 40.4741 70.2049C40.9773 71.0798 42.0057 72.2171 44.0476 72.6661C44.3322 72.7287 44.5147 73.0113 44.4546 73.2976C44.4188 73.4678 44.3051 73.6012 44.1585 73.6678Z" fill="#212120"/>
<path d="M45.0461 75.6793C44.9432 75.726 44.825 75.7405 44.7067 75.7127C44.4226 75.6459 44.2466 75.3613 44.3134 75.0772C44.8855 72.6446 43.9898 70.4161 41.8562 68.9631C39.4291 67.3105 38.0256 66.0044 38.9983 61.8129C39.7964 58.3757 38.7704 55.1672 37.684 51.7699C37.5803 51.4457 37.4762 51.1198 37.3729 50.7923C36.1733 46.9834 36.9807 43.9836 39.5328 42.7681C42.0672 41.5702 43.0332 43.0451 43.073 43.1089C43.228 43.3562 43.1533 43.6826 42.906 43.8376C42.6607 43.9887 42.3419 43.9199 42.1842 43.6808C42.1502 43.6342 41.6289 42.9751 40.0774 43.6803C40.0477 43.6938 40.018 43.7077 39.9876 43.7224C37.9246 44.7051 37.3387 47.1662 38.3811 50.475C38.4838 50.8013 38.5876 51.1255 38.6908 51.4478C39.8226 54.9877 40.8916 58.3309 40.0283 62.0517C39.186 65.6795 40.2208 66.5706 42.4513 68.0893C44.9661 69.8019 46.0201 72.4371 45.3424 75.3191C45.3031 75.485 45.1899 75.6139 45.0461 75.6793Z" fill="#212120"/>
<path d="M48.8841 76.3496C48.7543 76.4086 48.6048 76.4255 48.4625 76.3871C44.5498 75.3263 43.5208 71.1064 43.8283 67.8147C44.1221 64.675 42.8727 62.835 40.8028 59.786L40.6875 59.6159C38.4108 56.2604 36.4156 52.3678 38.8775 48.9387C41.4324 45.3801 44.4319 46.4955 44.4621 46.5074C44.7488 46.6187 44.8653 46.9341 44.722 47.2119C44.5796 47.488 44.2334 47.622 43.9476 47.5128C43.8495 47.4773 41.7843 46.763 39.8254 49.4904C37.7478 52.3846 39.5982 55.9148 41.682 58.9865L41.7974 59.1564C43.9133 62.273 45.3108 64.3318 44.9844 67.8233C44.7119 70.7342 45.5655 74.4509 48.8665 75.3456C49.1669 75.4271 49.3198 75.7261 49.2083 76.0141C49.1499 76.1657 49.0291 76.2837 48.8841 76.3496Z" fill="black"/>
<path d="M53.4296 78.3081C53.3172 78.3593 53.1847 78.3672 53.0552 78.3205C49.4954 77.0304 48.3253 72.7602 48.4046 69.4955C48.4806 66.3815 47.2547 64.4721 45.224 61.3079L45.1104 61.1313C42.8765 57.6494 40.8622 53.6485 42.8585 50.3746C44.9301 46.9767 47.6772 48.2679 47.7047 48.2813C47.9677 48.4096 48.0906 48.7311 47.9789 48.9994C47.868 49.2662 47.5668 49.3798 47.3047 49.2536C47.2151 49.2126 45.3268 48.3771 43.7385 50.9813C42.0538 53.7443 43.9169 57.3752 45.9618 60.5625L46.0752 60.7392C48.1511 63.9731 49.5224 66.1095 49.4383 69.5727C49.3677 72.4597 50.3512 76.2176 53.3544 77.3057C53.6276 77.4047 53.7822 77.7123 53.6996 77.9928C53.6562 78.1401 53.5554 78.251 53.4296 78.3081Z" fill="#212120"/>
<path d="M47.5648 76.9492C47.4479 77.0024 47.3118 77.0149 47.181 76.9749C46.9015 76.8893 46.7506 76.5961 46.8435 76.3198C47.5537 74.2092 44.2922 70.8833 42.134 68.6827C40.4081 66.923 40.8295 64.9479 41.237 63.0376C41.4447 62.0651 41.6593 61.0595 41.5872 60.081C41.5106 59.0413 40.757 58.2126 39.8842 57.2534C38.5685 55.8071 36.9314 54.0071 37.4496 50.8454C38.32 45.536 43.7459 45.4503 43.8005 45.4503C44.0951 45.449 44.3299 45.6824 44.3249 45.9717C44.3203 46.2605 44.0783 46.4957 43.784 46.4975C43.5982 46.4995 39.224 46.5889 38.5023 50.9905C38.0643 53.6642 39.3974 55.1297 40.6862 56.5466C41.6437 57.5994 42.5482 58.5942 42.6506 59.9837C42.7337 61.1087 42.5031 62.1879 42.2802 63.2315C41.8973 65.0276 41.5659 66.5788 42.9094 67.9477C45.3813 70.4685 48.7665 73.9207 47.8549 76.6289C47.806 76.7762 47.6976 76.8889 47.5648 76.9492Z" fill="black"/>
<path d="M46.3264 77.5121C46.2087 77.5656 46.0719 77.5786 45.9411 77.5388C45.6637 77.4547 45.5169 77.166 45.6128 76.8938C45.6423 76.8073 46.3312 74.7029 44.2287 73.3109C41.6126 71.5787 40.9131 69.1066 41.9618 65.2956C42.8664 62.006 41.1295 59.8233 38.5772 57.0982C36.0046 54.351 35.6755 50.1929 37.8115 47.4258C39.8034 44.8454 43.5808 45.1776 43.741 45.1931C44.0317 45.221 44.2361 45.4733 44.1974 45.7569C44.1594 46.0404 43.8923 46.2471 43.6019 46.2196C43.5616 46.2161 40.2672 45.9379 38.6532 48.0269C37.0737 50.0729 36.9113 53.7607 39.374 56.3904C42.0574 59.2555 44.0278 61.7478 42.9874 65.5307C42.0467 68.9498 42.5854 70.9551 44.8468 72.4525C47.0548 73.9143 46.97 76.196 46.6168 77.1986C46.5662 77.3417 46.4582 77.4522 46.3264 77.5121Z" fill="black"/>
<path d="M43.7167 77.0885C43.5376 77.1699 43.3202 77.147 43.1593 77.0114C42.9371 76.8237 42.9089 76.4913 43.096 76.269C43.3222 76.0001 44.0114 75.1823 40.5664 71.3697C37.3471 67.8075 37.4956 65.599 38.0683 61.6845C38.3004 60.0949 37.7967 58.6781 37.2631 57.1785C36.5684 55.2247 35.8499 53.2043 36.8939 50.837C38.7327 46.6693 42.5821 46.653 42.7448 46.6542C43.0355 46.6568 43.2696 46.8944 43.2675 47.1857C43.2653 47.4762 43.0282 47.7093 42.7393 47.7081C42.6038 47.7076 39.409 47.7447 37.8571 51.2636C36.982 53.2475 37.6003 54.9855 38.2548 56.826C38.8079 58.3815 39.3797 59.9894 39.1093 61.8381C38.5555 65.6282 38.4332 67.4399 41.3467 70.6634C44.2319 73.8563 44.972 75.6774 43.9011 76.9488C43.8491 77.0106 43.7857 77.0571 43.7167 77.0885Z" fill="#212120"/>
<path d="M43.7349 26.8499C43.7349 26.8499 63.0001 20.6977 65.0572 29.7213L67.7326 39.5933C69.7495 47.0402 64.773 54.7931 56.6178 56.9128C48.4595 59.0303 40.2137 54.7132 38.1957 47.2673L35.9245 38.8848C44.0883 37.4072 43.7349 26.8499 43.7349 26.8499Z" fill="#8E5F51"/>
<path d="M58.3733 46.2083C58.3733 46.2083 39.1081 52.3605 37.051 43.3369L34.3756 33.4649C32.3587 26.018 37.3352 18.2651 45.4904 16.1453C53.6487 14.0279 61.8945 18.3449 63.9125 25.7909L66.1837 34.1734C58.0199 35.651 58.3733 46.2083 58.3733 46.2083Z" fill="#8E5F51"/>
<path d="M37.5712 39.525C36.7731 39.0784 35.7572 38.9043 34.7394 39.1428C32.8723 39.5814 31.7374 41.2052 32.2059 42.769C32.6754 44.3349 34.5698 45.2481 36.4379 44.8105C37.4546 44.572 38.2411 43.977 38.683 43.2384L37.5712 39.525Z" fill="#8E5F51"/>
<path d="M51.1267 37.4181C51.5533 37.3084 51.8817 37.0639 52.076 36.7114C52.4814 35.9745 52.1634 35.0196 52.1268 34.9138C52.0332 34.6507 51.7444 34.5117 51.4675 34.5964C51.1957 34.6866 51.0499 34.9717 51.1413 35.2357C51.198 35.4014 51.3219 35.9373 51.157 36.2353C51.1171 36.3051 51.0482 36.3926 50.8585 36.4411C50.1194 36.6307 49.602 35.527 49.596 35.5162C49.4792 35.2617 49.1743 35.1451 48.9091 35.2577C48.6483 35.3704 48.529 35.6673 48.6447 35.9218C48.9648 36.6316 49.8493 37.7461 51.1267 37.4181Z" fill="#212120"/>
<path d="M62.2959 34.9594C62.7235 34.85 63.0508 34.6061 63.2451 34.2544C63.6515 33.5192 63.3323 32.5653 63.2957 32.4607C63.2043 32.1984 62.9097 32.0415 62.6374 32.1451C62.3658 32.2329 62.2199 32.5185 62.3102 32.7829C62.3669 32.9471 62.4909 33.4819 62.326 33.7792C62.2872 33.85 62.2183 33.9362 62.0286 33.9846C61.2896 34.1737 60.7709 33.0734 60.7649 33.0616C60.6481 32.8076 60.3422 32.6891 60.0802 32.8047C59.8173 32.916 59.6991 33.2122 59.8137 33.4662C60.1349 34.1745 61.0196 35.2856 62.2959 34.9594Z" fill="#212120"/>
<path d="M61.7266 39.0757L58.0518 40.0152L56.0976 32.9153L57.2948 32.6075L61.7266 39.0757Z" fill="#74483C"/>
<path d="M60.623 49.5588C59.0117 50.0492 57.3652 48.9778 56.9467 47.1625L62.7861 45.3852C63.2036 47.1993 62.2354 49.0672 60.623 49.5588Z" fill="#1400F9"/>
<path d="M40.7816 38.6391C40.7816 38.6391 45 36.5804 47.5 30.5805C50 27.0804 51 24.0804 51 24.0804C54.5 28.5804 56 28.0805 62.5 32.0805L66 32.0805C66 32.0805 65.6364 31.3096 64.7766 25.5491C63.9162 19.789 57.4933 7.52329 43.4979 12.2397C29.5028 16.9563 30.1536 31.5902 38 40.0804L40.7816 38.6391Z" fill="#3C3C3C"/>
<path d="M37.5488 37.3615C34.5029 38.228 32.5831 37.0054 32.4655 36.9274C32.1015 36.6864 31.9741 36.1815 32.1803 35.7998C32.385 35.4209 32.843 35.3051 33.2066 35.5412C33.3607 35.6385 36.684 37.6332 41.7598 32.9229C47.1298 27.9392 49.4729 16.1167 49.4959 15.9979C49.5546 15.6968 49.7658 15.4743 50.047 15.4014C50.326 15.3379 50.6223 15.4526 50.8101 15.6974C53.1215 18.7006 59.8965 26.0879 63.4397 24.227C63.8117 24.036 64.2673 24.207 64.4647 24.6148C64.6617 25.0224 64.5227 25.5099 64.1537 25.7039C59.7501 28.0141 53.1906 20.9619 50.6429 17.9193C49.8064 21.397 47.3712 29.9213 42.7782 34.1842C40.8163 36.0043 39.0463 36.9355 37.5488 37.3615Z" fill="#212120"/>
<path d="M36.7123 34.3515C34.5666 34.9619 33.2362 34.723 33.1452 34.7049C32.7352 34.6254 32.4559 34.215 32.5214 33.7897C32.5867 33.3634 32.9744 33.0827 33.3824 33.1627C33.4098 33.1676 36.6062 33.6907 41.1805 30.3143C45.8593 26.861 49.4136 14.9738 49.4485 14.8538C49.5705 14.443 49.9901 14.2215 50.3875 14.3587C50.7845 14.4966 51.008 14.9407 50.8869 15.3518C50.7363 15.8605 47.1465 27.8561 42.0702 31.603C39.9981 33.1327 38.1675 33.9376 36.7123 34.3515Z" fill="#212120"/>
<path d="M33.3367 34.2291C33.2577 34.2516 33.1729 34.2604 33.0859 34.254C32.6779 34.2228 32.3658 33.8574 32.3888 33.438C32.6364 28.9243 34.9905 20.5165 40.462 15.8547C45.9143 11.209 50.7616 15.0882 50.81 15.1283C51.1323 15.3929 51.1891 15.8725 50.9375 16.1994C50.6865 16.5266 50.2228 16.5756 49.9005 16.313C49.7313 16.1764 45.9256 13.1936 41.4172 17.035C36.303 21.3929 34.0991 29.2995 33.8663 33.551C33.8481 33.8809 33.6281 34.1462 33.3367 34.2291Z" fill="#212120"/>
<path d="M33.8051 31.9306C33.4017 32.0454 32.979 31.8231 32.8547 31.4264C32.7282 31.0228 32.9576 30.5919 33.3671 30.4642C42.6021 27.576 48.6685 16.1435 48.7285 16.0287C48.9262 15.6508 49.3948 15.5016 49.7749 15.6924C50.1558 15.8841 50.304 16.3455 50.1072 16.7226C49.8488 17.2161 43.6752 28.8442 33.8253 31.9243C33.8188 31.9267 33.8118 31.9287 33.8051 31.9306Z" fill="#212120"/>
<path d="M37.8918 27.5201C37.7061 27.573 37.497 27.5393 37.3147 27.4078C36.9719 27.1607 36.8531 26.6621 37.0491 26.2945C39.2737 22.1272 47.7304 16.2421 48.0893 15.9935C48.4128 15.7683 48.8592 15.8949 49.0843 16.2774C49.3089 16.6588 49.2268 17.1507 48.9018 17.3757C48.8166 17.4345 40.3543 23.3229 38.2908 27.1885C38.1991 27.3608 38.0548 27.4738 37.8918 27.5201Z" fill="#212120"/>
<path d="M64.3402 27.5748C57.8901 29.4097 50.1904 19.1614 49.8629 18.7201C49.6057 18.3735 49.677 17.8838 50.0219 17.6267C50.3661 17.3696 50.8553 17.4409 51.1129 17.7878C51.1866 17.887 58.4929 27.6124 63.9095 26.0715C63.955 26.0586 63.9992 26.0452 64.044 26.0307C64.0524 26.0281 64.061 26.0256 64.0695 26.0232C64.4723 25.9086 64.8962 26.1342 65.0251 26.5372C65.1572 26.9486 64.9318 27.3885 64.5222 27.5202C64.4619 27.5391 64.4009 27.5575 64.3402 27.5748Z" fill="#212120"/>
<path d="M61.9549 22.8401C56.3099 24.446 50.258 15.7785 49.9847 15.3812C49.7455 15.0343 49.8356 14.5602 50.1847 14.321C50.5358 14.0813 51.0116 14.1699 51.2503 14.5161C51.3148 14.6092 57.7049 23.7621 62.4453 20.981C62.8123 20.7644 63.2808 20.886 63.4947 21.2485C63.7097 21.6108 63.5873 22.0785 63.2222 22.2931C62.8042 22.5395 62.3807 22.719 61.9549 22.8401Z" fill="#212120"/>
<path d="M60.7731 22.0937C60.4826 22.1763 60.1551 22.08 59.9443 21.8207C57.7008 19.0619 51.3586 15.4783 51.2945 15.4426C50.9052 15.2237 50.7532 14.7223 50.955 14.3228C51.1578 13.9239 51.6365 13.7776 52.0261 13.9962C52.2979 14.1489 58.707 17.7715 61.1487 20.7743C61.4347 21.1264 61.397 21.6461 61.0645 21.9352C60.977 22.0114 60.8773 22.064 60.7731 22.0937Z" fill="#212120"/>
<path d="M36.3829 39.8585C35.9344 39.986 35.4761 40.0986 35.004 40.1955C34.5892 40.281 34.1842 40.015 34.0999 39.6026C34.0154 39.1897 34.2766 38.7832 34.6978 38.7008C47.7206 36.0221 50.7847 20.1181 50.8141 19.9577C50.89 19.5432 51.2875 19.2664 51.7056 19.3418C52.1218 19.4157 52.3983 19.8119 52.3224 20.2273C52.2927 20.3913 49.2672 36.1932 36.3829 39.8585Z" fill="black"/>
<path d="M35.6671 38.9795C34.792 39.2284 34.0816 39.244 33.526 39.0303C32.7879 38.7459 32.6046 38.1704 32.5759 38.0579C32.4699 37.6518 32.7173 37.221 33.1173 37.1328C33.489 37.0358 33.8685 37.2343 34.0093 37.5821C34.1175 37.648 35.2007 38.1371 39.323 35.4039C44.8235 31.7579 49.939 19.0571 50.2433 18.0024C50.2691 17.7669 50.4038 17.5473 50.6259 17.4229C50.9892 17.2202 51.4518 17.3493 51.6567 17.7157C51.8431 18.0497 51.8996 18.1507 50.807 20.7189C50.2878 21.9396 49.4292 23.8503 48.288 26.0218C46.3519 29.706 43.3702 34.5436 40.1596 36.6714C38.3442 37.8752 36.8541 38.6418 35.6671 38.9795Z" fill="black"/>
<path d="M33.9091 28.6531C33.8198 28.6785 33.7239 28.6866 33.6254 28.6741C33.2222 28.624 32.9302 28.2485 32.9737 27.836C33.0129 27.4593 34.0055 18.5595 40.1152 13.7343C42.3017 12.0078 44.4442 11.2867 46.4852 11.5901C49.0871 11.9772 50.5211 13.9105 50.5809 13.9926C50.8253 14.3278 50.7611 14.7986 50.4375 15.0436C50.1142 15.2891 49.6564 15.2164 49.4119 14.8828C49.3928 14.8582 48.2546 13.3604 46.2738 13.0758C44.6446 12.8414 42.8788 13.4655 41.0224 14.9315C35.394 19.3763 34.442 27.9328 34.4329 28.0188C34.4001 28.3305 34.186 28.5741 33.9091 28.6531Z" fill="black"/>
<path d="M33.3511 34.2251C33.2179 34.263 33.0726 34.2628 32.9287 34.2166C32.5263 34.087 32.293 33.6439 32.4066 33.2275C32.5012 32.8818 34.7781 24.6914 39.8198 18.4108C45.1777 11.7378 50.7794 15.3744 50.8358 15.412C51.1914 15.6507 51.3022 16.1399 51.0834 16.5056C50.8642 16.8699 50.3998 16.9733 50.0441 16.7362C49.849 16.6084 45.4798 13.852 40.9912 19.4444C36.1467 25.4788 33.8855 33.6165 33.8633 33.6978C33.7897 33.9654 33.5908 34.1569 33.3511 34.2251Z" fill="black"/>
<path d="M33.6649 35.2184C33.5599 35.2483 33.4472 35.2567 33.3318 35.2394C32.9055 35.1747 32.6129 34.7803 32.6788 34.3561C32.7036 34.1954 33.3374 30.3397 37.6083 23.3006C42.017 16.0345 50.1352 15.6506 50.4784 15.6385C50.9114 15.6221 51.2732 15.9573 51.2877 16.3868C51.3024 16.8166 50.9634 17.1766 50.5317 17.1935C50.4436 17.1969 42.9064 17.5799 38.9491 24.0998C34.865 30.831 34.2325 34.552 34.2267 34.5888C34.1773 34.8982 33.9501 35.1373 33.6649 35.2184Z" fill="black"/>
<path d="M35.4947 33.6153C35.0914 33.73 34.6819 33.8233 34.2633 33.8948C33.8525 33.9646 33.4491 33.6523 33.3619 33.1968C33.2744 32.7415 33.5283 32.3157 33.9464 32.2462C43.1806 30.6695 48.7021 16.2323 48.7566 16.0864C48.9132 15.6693 49.3565 15.4902 49.7445 15.6867C50.1341 15.8828 50.3231 16.3793 50.167 16.7962C49.9414 17.3972 44.7533 30.9815 35.4947 33.6153Z" fill="black"/>
<path d="M35.2346 29.3587C34.9185 29.4486 34.5676 29.3294 34.3781 29.0417C34.145 28.6877 34.2459 28.2111 34.6029 27.9781C41.378 23.5585 48.7934 15.9222 48.8674 15.8456C49.1631 15.5392 49.6522 15.5291 49.9589 15.8226C50.266 16.1159 50.2745 16.602 49.9784 16.9083C49.9031 16.9861 42.3661 24.7477 35.4465 29.2618C35.3794 29.3054 35.3084 29.3377 35.2346 29.3587Z" fill="black"/>
<path d="M66.9141 32.2558C66.6585 32.3285 66.3756 32.2844 66.1729 32.1158C66.1557 32.1022 64.0388 30.4372 58.454 29.6929C52.1331 28.8504 49.6835 22.0111 49.582 21.7203C49.4535 21.3512 49.6844 20.9397 50.0981 20.801C50.5069 20.6624 50.9517 20.8482 51.0807 21.2171C51.1032 21.2802 53.3627 27.5584 58.7695 28.2785C64.8645 29.0911 67.1708 30.9556 67.2661 31.0346C67.5769 31.2925 67.5839 31.7436 67.2826 32.0422C67.1778 32.1458 67.0497 32.2173 66.9141 32.2558Z" fill="black"/>
<path d="M66.3849 30.241C66.3297 30.2568 66.2718 30.2667 66.2116 30.2698C66.1222 30.2741 63.9571 30.3567 58.5146 28.5539C52.8875 26.6894 50.42 20.7413 50.3177 20.4892C50.1668 20.1167 50.3564 19.6908 50.7415 19.5377C51.1295 19.3875 51.5606 19.5627 51.7116 19.9347C51.7488 20.0258 54.0573 25.5294 59.0172 27.1726C64.1164 28.8617 66.146 28.8142 66.1662 28.8134C66.5774 28.7994 66.9207 29.1104 66.931 29.5107C66.941 29.8519 66.709 30.1488 66.3849 30.241Z" fill="black"/>
<path d="M65.4808 28.333C58.0449 30.4483 50.4469 20.1073 50.1225 19.6596C49.8789 19.3228 49.9725 18.8536 50.3321 18.6114C50.6906 18.3679 51.1808 18.4443 51.4247 18.7812C51.4985 18.8832 58.8983 28.9584 65.3264 26.8154C65.7398 26.6812 66.1831 26.8815 66.3166 27.2729C66.4495 27.6645 66.2225 28.0933 65.8087 28.2319C65.6998 28.268 65.5902 28.3019 65.4808 28.333Z" fill="black"/>
<path d="M61.7877 21.805C61.7666 21.8111 61.7447 21.8165 61.7227 21.8209C56.4487 22.8641 50.2811 15.7193 50.021 15.4144C49.7511 15.0986 49.8027 14.6256 50.1359 14.3583C50.4707 14.092 50.9582 14.1308 51.228 14.4464C52.8396 16.3322 57.8164 21.0698 61.4423 20.3524C61.8642 20.2693 62.2689 20.5304 62.3464 20.9355C62.4194 21.3196 62.1725 21.6956 61.7877 21.805Z" fill="black"/>
<path d="M61.4834 20.809C61.1646 20.8997 60.8126 20.7958 60.6182 20.5268C56.652 15.0392 51.7412 15.3919 51.6919 15.3965C51.2539 15.4339 50.8784 15.1279 50.8525 14.7124C50.8271 14.2974 51.1604 13.9313 51.5998 13.8929C51.8374 13.8727 57.4705 13.466 61.9376 19.6457C62.1823 19.9842 62.0851 20.4556 61.7209 20.6992C61.6459 20.749 61.5659 20.7855 61.4834 20.809Z" fill="black"/>
<path d="M32.7854 32.2207C32.7683 32.2256 32.751 32.2297 32.7334 32.2337C32.3243 32.3203 31.9249 32.0655 31.8414 31.6642C30.3459 24.5113 30.7164 19.9564 36.89 14.912C42.507 10.3223 48.2935 12.2225 49.3963 12.6501C50.1025 12.924 50.4481 13.1317 50.4988 13.5694C50.5468 13.9765 50.2483 14.3482 49.8337 14.3984C49.6042 14.4268 49.387 14.3509 49.2311 14.2083C48.3007 13.6638 42.8827 11.9374 37.849 16.0504C32.204 20.6629 31.8902 24.4984 33.3227 31.3507C33.4025 31.7342 33.1641 32.113 32.7854 32.2207Z" fill="black"/>
<path d="M65.2405 26.236C65.239 26.2365 65.2371 26.237 65.2358 26.2374C64.8355 26.3484 64.4145 26.0901 64.295 25.6606C62.7574 20.1296 60.2884 16.3127 56.9565 14.317C52.9325 11.9064 49.0278 13.0386 48.9899 13.0493C48.5736 13.1677 48.1667 12.9202 48.0387 12.4932C47.9113 12.066 48.1298 11.6229 48.5271 11.503C48.7179 11.4533 53.0758 10.178 57.6616 12.9247C61.3662 15.1444 64.0856 19.2944 65.7439 25.2592C65.8632 25.6869 65.6376 26.1231 65.2405 26.236Z" fill="black"/>
<path d="M37.2653 40.6901C36.2459 40.9801 35.1852 41.1529 34.0858 41.2055C33.66 41.2259 33.3047 40.9096 33.2927 40.4981C33.2805 40.0869 33.6172 39.7357 34.0415 39.7167C46.4126 39.1195 49.0491 21.7348 49.0743 21.5593C49.1332 21.1505 49.5231 20.8579 49.9444 20.9064C50.3665 20.9541 50.6608 21.3247 50.6019 21.7338C50.5749 21.9242 49.9059 26.45 47.5815 31.1279C45.0479 36.2261 41.521 39.4795 37.2653 40.6901Z" fill="black"/>
<path d="M34.9436 38.1026C34.4053 38.2558 33.8663 38.3628 33.3262 38.4242C32.9206 38.4705 32.5498 38.1682 32.4977 37.7498C32.4459 37.3313 32.7321 36.9524 33.1382 36.9089C37.9869 36.357 42.8975 31.4907 47.7263 22.4416C48.1889 21.5746 48.2601 21.4416 48.4571 21.3058C48.7941 21.0744 49.2558 21.1709 49.4865 21.5224C49.6838 21.8214 49.6505 22.2094 49.4276 22.4607C49.3612 22.568 49.1914 22.8858 49.0274 23.1935C44.4702 31.7337 39.7395 36.7381 34.9436 38.1026Z" fill="black"/>
<path d="M65.9421 32.5324C65.8937 32.5461 65.8426 32.5558 65.7904 32.5602C57.7008 33.2694 51.4667 24.6584 49.7482 22.0022L49.684 21.9038C49.4405 21.5915 49.526 21.1533 49.8649 20.9122C50.2035 20.6725 50.6846 20.7397 50.928 21.0517C50.9412 21.0686 50.9819 21.1276 51.0456 21.2261C52.6535 23.7118 58.4621 31.7722 65.7032 31.1376C66.1198 31.1008 66.4776 31.3898 66.5014 31.7828C66.5225 32.1268 66.2816 32.4358 65.9421 32.5324Z" fill="black"/>
</svg>
