<?xml version="1.0" encoding="UTF-8"?>
<svg fill="none" viewBox="0 0 468 252" xmlns="http://www.w3.org/2000/svg">
<path d="m409.65 115.76s-4.075 34.533 8.152 35.227c12.227 0.695-0.959-35.99-0.959-35.99l-7.193 0.763z" fill="#8E5F51"/>
<path d="m413.76 140.4l-0.761 95.434v1.167h7.433l11.675-90.192h6.196l10.007 90.192h7.689v-98l-42.239 1.399z" fill="#0A3C62"/>
<path d="m414.93 68s-6.932 7.7738-6.932 49h16l-9.068-49z" fill="#E84646"/>
<path d="m424 120h-16v-3h16v3z" fill="#F9D710"/>
<path d="m427.96 54.662c-13.91 2.6916-15.141 16.51-14.94 22.943-9e-3 0.0039-0.021 0.0098-0.021 0.0098l0.762 62.386h42.068c0.683-10.417 0.381-14.8-0.149-16.495l12.014 1.664c3.341-65.211-21.477-74.04-39.734-70.507z" fill="#E84646"/>
<path d="m432.44 71l14.561-14.294c-6.105-3.0155-12.736-3.1953-18.664-2.0675-1.447 0.2754-2.746 0.6766-3.927 1.1705l-0.409 12.578 6.211-6.0225 2.228 8.6359z" fill="#810C0C"/>
<path d="m467 125.14s-2.924 20.14-8.972 32.004c-6.049 11.862-15.12 3.205-10.982-4.009s9.112-26.973 8.117-30.133l11.837 2.138z" fill="#8E5F51"/>
<path d="m448 73s9.492 25.155 5.571 47.018l1.785 1.982s3.869-28.185-7.356-49z" fill="#810C0C"/>
<path d="m456 244h-6v-3h6v3z" fill="#8E5F51"/>
<path d="m456 244v5h-22.987s-0.599-5 6.241-5h16.746z" fill="#000"/>
<path d="m421 244v5h-22.987s-0.599-5 6.241-5h16.746z" fill="#000"/>
<path d="M453.485 120L468 122.232L467.751 126L453 124.059L453.485 120Z" fill="#F9D710"/>
<path d="m426 38v15.016c0 3.8565 3.582 6.9838 8 6.9838 4.419 0 8-3.1273 8-6.9838v-15.016h-16z" fill="#74483C"/>
<path d="m414.33 117s0.667-25.259 0.667-36c0 0-1.263 30.098-2 36h1.333z" fill="#810C0C"/>
<path d="m456 242h-10v-5h10v5z" fill="#1E75B6"/>
<path d="m420 244h-6v-3h6v3z" fill="#8E5F51"/>
<path d="m421 242h-10v-5h10v5z" fill="#1E75B6"/>
<path d="m413.97 20s-3.739-0.4765-3.93-3.3377c-0.097-1.4589 0-8.4866 0-8.4866 0.875-1.0297 3.431 2.7959 5.451 2.9419 4.121 0.2988-1.521 8.8824-1.521 8.8824z" fill="#212120"/>
<path d="m446 25.744v7.6775s-0.058 2.5782-2.564 2.5782c-2.508 0-0.969-11-0.969-11l3.533 0.7443z" fill="#212120"/>
<path d="M444 12V37.803C444 46.1963 437.06 53 428.499 53C419.94 53 413 46.1963 413 37.803V12H444Z" fill="#8E5F51"/>
<path d="m427.08 13.026s-12.529 1.608-16.144-0.6438c-0.48-1.126-0.453 6.651-0.569 4.9426-0.111-1.6496-0.372-12.805-0.372-12.805 0.372-1.5065 3.925-3.1304 8.049-3.7966 11.204-1.8088 27.951-1.2233 27.951 13.751v9.6487l-3.815 4.6672s0.321 1.2022-1.366 1.2022c0 0-1.806 0.2823-1.806-2.4315 0-2.7137-0.422-4.161-1.807-4.6441-1.387-0.4821-2.652-5.548-0.663-5.8493 1.987-0.3013 3.494-5.1262-9.458-4.0405z" fill="#212120"/>
<path d="m428 25c0 0.552 0.448 1 1.001 1 0.552 0 0.999-0.448 0.999-1s-0.447-1-0.999-1c-0.553 0-1.001 0.448-1.001 1z" fill="#212120"/>
<path d="m417 25c0 0.552 0.672 1 1.501 1 0.828 0 1.499-0.448 1.499-1s-0.671-1-1.499-1c-0.829 0-1.501 0.448-1.501 1z" fill="#212120"/>
<path d="m425 19v16h-5l3.4-16h1.6z" fill="#74483C"/>
<path d="m422.5 44c-1.38 0-2.5-1.3434-2.5-3h5c0 1.6566-1.12 3-2.5 3z" fill="#212120"/>
<path d="m442 23.379c0.629-0.8381 1.542-1.3786 2.571-1.3786 1.894 0 3.429 1.7908 3.429 4.0006 0 2.2086-1.535 3.9994-3.429 3.9994-1.029 0-1.942-0.5405-2.571-1.3786v-5.2428z" fill="#8E5F51"/>
<path d="m242.7 119.27s2.171 40.74-5.173 39.898c-7.345-0.841-5.843-59.763 5.173-39.898z" fill="#8E5F51"/>
<path d="m238.14 79.177s5.864 24.431 5.864 41h-12s3.39-40.409 6.136-41z" fill="#53585B"/>
<path d="m182 119.19s1.83 32.439 6.601 40.465 8.399-18.394 8.399-18.394l-5.759-27.088-9.241 5.017z" fill="#8E5F51"/>
<path d="m186.88 81.177s-5.878 25.001-5.878 39h11l-4.5-41-0.622 2z" fill="#53585B"/>
<path d="m238 152.18v-72.868s-0.033-15.132-23.652-15.132-27.348 12.757-27.348 19.382c0 6.6247 2.901 68.618 2.901 68.618h48.099z" fill="#788996"/>
<path d="m206 56.177v9.2005c0 3.2026 2.91 5.7995 6.5 5.7995s6.5-2.5969 6.5-5.7995v-9.2005h-13z" fill="#8E5F51"/>
<path d="m203 248.18h-9v-63h9v63z" fill="#8E5F51"/>
<path d="m193 251.18v-6h19.471s6.529 0.091 6.529 6h-26z" fill="#212120"/>
<path d="m233 248.18h-9v-63h9v63z" fill="#8E5F51"/>
<path d="m223 251.18v-6h19.471s6.529 0.091 6.529 6h-26z" fill="#212120"/>
<path d="m207.74 187.18c1.628-20.764 1.302-25.429 4.903-25.879 4.051-0.507 6.813 0.505 6.813 13.932 0 2.4 0.355 6.63 0.934 11.947h18.605l-0.849-35h-48.106l-0.045 35h17.745z" fill="#A56B37"/>
<path d="m209 190.18h-21v-4h21v4z" fill="#B27542"/>
<path d="m240 190.18h-22v-4h22v4z" fill="#B27542"/>
<path d="m230 28.177h-26v-11h26v11z" fill="#8E5F51"/>
<path d="m199 34.99v8.3747s0.056 2.8124 2.564 2.8124c2.507 0 0.969-12 0.969-12l-3.533 0.8129z" fill="#212120"/>
<path d="m201 22.177v25.803c0 8.3933 7.387 15.197 16.499 15.197 9.113 0 16.501-6.8037 16.501-15.197v-25.803h-33z" fill="#8E5F51"/>
<path d="m218 35.677c0 0.828-0.673 1.5-1.5 1.5-0.828 0-1.5-0.672-1.5-1.5s0.672-1.5 1.5-1.5c0.827 0 1.5 0.672 1.5 1.5z" fill="#212120"/>
<path d="m230 35.677c0 0.828-0.672 1.5-1.5 1.5s-1.5-0.672-1.5-1.5 0.672-1.5 1.5-1.5 1.5 0.672 1.5 1.5z" fill="#212120"/>
<path d="m221 29.177v16h6l-4.08-16h-1.92z" fill="#74483C"/>
<path d="m231.18 52.323c-1.075 0.0605-1.097-1.4297-1.058-2.0635-0.262-3.7832-5.926-3.6435-5.926-3.6435-6.665 0-7.424 6.2255-7.424 6.2255-9.276 0-10.381-15.407-10.381-15.407l-5.39-3.2578v13.988c0 8.291 7.414 15.012 16.559 15.012 8.498 0 15.49-5.8037 16.441-13.275 0 0-1.459 2.3438-2.821 2.4219z" fill="#212120"/>
<path d="m224 54.177c1.655 0 2.999-1.3434 2.999-3h-6c0 1.6566 1.343 3 3.001 3z" fill="#fff"/>
<path d="m219.5 11.177c-1.973-0.3663-20.5-1.5014-20.5 13.472v9.6498l4.085 4.6672s-0.345 1.2022 1.461 1.2022c0 0 1.937 0.2812 1.937-2.4325 0-2.7138 0.451-4.161 1.935-4.6431 1.484-0.4831 3.582-10.416 3.582-10.416s3-0.5 14 0c4.495 0.2044 8 0.5 8 0.5l0.5-1.5v-1.5s1.5-3-3.5-5.5002l-5.5-1.9999s-4.027-1.1336-6-1.4999z" fill="#212120"/>
<path d="m203 34.383c-0.734-0.7333-1.799-1.2062-3-1.2062-2.208 0-4 1.5669-4 3.5005 0 1.9325 1.792 3.4995 4 3.4995 1.201 0 2.266-0.473 3-1.2063v-4.5875z" fill="#8E5F51"/>
<path d="m234 32.177s0.799-2.5637 0.889-5.5514c0.245-2.7122 8e-3 -7.877 8e-3 -7.877l-0.237-0.5167c-0.405-0.6071-0.955 4.0204-1.66 4.1321 1 2.313 1 9.813 1 9.813z" fill="#212120"/>
<mask id="a" x="131" y="182" width="61" height="69" mask-type="alpha" maskUnits="userSpaceOnUse">
<path d="m131 183.37c0-0.206 0.166-0.372 0.372-0.372h59.256c0.206 0 0.372 0.166 0.372 0.372v67.256c0 0.206-0.166 0.372-0.372 0.372h-59.256c-0.206 0-0.372-0.166-0.372-0.372v-67.256z" fill="#fff"/>
</mask>
<g mask="url(#a)">
<rect x="131" y="183" width="60" height="76" fill="#fff"/>
<path d="m191 251h-8v-8h8v8z" fill="#C13765"/>
<path d="m183 251h-7v-8h7v8z" fill="#F499BA" opacity=".5"/>
<path d="m176 251h-8v-8h8v8z" fill="#C13765"/>
<path d="m168 251h-7v-8h7v8z" fill="#F499BA" opacity=".5"/>
<path d="m161 251h-8v-8h8v8z" fill="#C13765"/>
<path d="m153 251h-7v-8h7v8z" fill="#F499BA" opacity=".5"/>
<path d="m146 251h-8v-8h8v8z" fill="#C13765"/>
<path d="m138 251h-7v-8h7v8z" fill="#F499BA" opacity=".5"/>
<path d="m138 243h8v-7h-8v7z" fill="#F499BA" opacity=".5"/>
<path d="m153 243h8v-7h-8v7z" fill="#F499BA" opacity=".5"/>
<path d="m168 243h8v-7h-8v7z" fill="#F499BA" opacity=".5"/>
<path d="m183 243h8v-7h-8v7z" fill="#F499BA" opacity=".5"/>
<path d="m191 236h-8v-8h8v8z" fill="#C13765"/>
<path d="m183 236h-7v-8h7v8z" fill="#F499BA" opacity=".5"/>
<path d="m176 236h-8v-8h8v8z" fill="#C13765"/>
<path d="m168 236h-7v-8h7v8z" fill="#F499BA" opacity=".5"/>
<path d="m161 236h-8v-8h8v8z" fill="#C13765"/>
<path d="m153 236h-7v-8h7v8z" fill="#F499BA" opacity=".5"/>
<path d="m146 236h-8v-8h8v8z" fill="#C13765"/>
<path d="m138 236h-7v-8h7v8z" fill="#F499BA" opacity=".5"/>
<path d="m138 228h8v-7h-8v7z" fill="#F499BA" opacity=".5"/>
<path d="m153 228h8v-7h-8v7z" fill="#F499BA" opacity=".5"/>
<path d="m168 228h8v-7h-8v7z" fill="#F499BA" opacity=".5"/>
<path d="m183 228h8v-7h-8v7z" fill="#F499BA" opacity=".5"/>
<path d="m191 221h-8v-8h8v8z" fill="#C13765"/>
<path d="m183 221h-7v-8h7v8z" fill="#F499BA" opacity=".5"/>
<path d="m176 221h-8v-8h8v8z" fill="#C13765"/>
<path d="m168 221h-7v-8h7v8z" fill="#F499BA" opacity=".5"/>
<path d="m161 221h-8v-8h8v8z" fill="#C13765"/>
<path d="m153 221h-7v-8h7v8z" fill="#F499BA" opacity=".5"/>
<path d="m146 221h-8v-8h8v8z" fill="#C13765"/>
<path d="m138 221h-7v-8h7v8z" fill="#F499BA" opacity=".5"/>
<path d="m138 213h8v-7h-8v7z" fill="#F499BA" opacity=".5"/>
<path d="m153 213h8v-7h-8v7z" fill="#F499BA" opacity=".5"/>
<path d="m168 213h8v-7h-8v7z" fill="#F499BA" opacity=".5"/>
<path d="m183 213h8v-7h-8v7z" fill="#F499BA" opacity=".5"/>
<path d="m191 206h-8v-8h8v8z" fill="#C13765"/>
<path d="m183 206h-7v-8h7v8z" fill="#F499BA" opacity=".5"/>
<path d="m176 206h-8v-8h8v8z" fill="#C13765"/>
<path d="m168 206h-7v-8h7v8z" fill="#F499BA" opacity=".5"/>
<path d="m161 206h-8v-8h8v8z" fill="#C13765"/>
<path d="m153 206h-7v-8h7v8z" fill="#F499BA" opacity=".5"/>
<path d="m146 206h-8v-8h8v8z" fill="#C13765"/>
<path d="m138 206h-7v-8h7v8z" fill="#F499BA" opacity=".5"/>
<path d="m138 198h8v-7h-8v7z" fill="#F499BA" opacity=".5"/>
<path d="m153 198h8v-7h-8v7z" fill="#F499BA" opacity=".5"/>
<path d="m168 198h8v-7h-8v7z" fill="#F499BA" opacity=".5"/>
<path d="m183 198h8v-7h-8v7z" fill="#F499BA" opacity=".5"/>
<path d="m191 191h-8v-8h8v8z" fill="#C13765"/>
<path d="m183 191h-7v-8h7v8z" fill="#F499BA" opacity=".5"/>
<path d="m176 191h-8v-8h8v8z" fill="#C13765"/>
<path d="m168 191h-7v-8h7v8z" fill="#F499BA" opacity=".5"/>
<path d="m161 191h-8v-8h8v8z" fill="#C13765"/>
<path d="m153 191h-7v-8h7v8z" fill="#F499BA" opacity=".5"/>
<path d="m146 191h-8v-8h8v8z" fill="#C13765"/>
<path d="m138 191h-7v-8h7v8z" fill="#F499BA" opacity=".5"/>
<path d="m131.23 183.37c0-0.077 0.063-0.14 0.14-0.14h59.256c0.077 0 0.14 0.063 0.14 0.14v67.256c0 0.077-0.063 0.14-0.14 0.14h-59.256c-0.077 0-0.14-0.063-0.14-0.14v-67.256z" stroke="#7C032B" stroke-width=".46452"/>
</g>
<path d="m151.78 177.68c0-4.941 4.127-8.946 9.218-8.946s9.218 4.005 9.218 8.946v8.459c0 0.478 0.399 0.865 0.891 0.865s0.891-0.387 0.891-0.865v-8.459c0-5.896-4.925-10.676-11-10.676s-11 4.78-11 10.676v8.459c0 0.478 0.399 0.865 0.891 0.865s0.891-0.387 0.891-0.865v-8.459z" fill="#C13765"/>
<path d="m167.89 170.48c0 0.031-0.012 0.06-0.03 0.082-0.019 0.023-0.046 0.039-0.076 0.045l-0.506 0.091-0.26 0.309c-0.066-0.056-0.132-0.111-0.199-0.165l0.291-0.346c0.019-0.023 0.046-0.038 0.076-0.044l0.445-0.08 3e-3 -0.452c0-0.03 0.011-0.059 0.03-0.082l0.301-0.358c0.067 0.054 0.133 0.11 0.198 0.166l-0.271 0.322-2e-3 0.512zm0.628 0.628c-3e-3 0.031-0.017 0.059-0.037 0.079-0.021 0.021-0.049 0.035-0.08 0.038l-0.512 0.047-0.286 0.285c-0.06-0.062-0.121-0.123-0.183-0.182l0.319-0.319c0.022-0.021 0.05-0.034 0.08-0.037l0.451-0.042 0.042-0.449c2e-3 -0.03 0.016-0.059 0.037-0.08l0.332-0.33c0.061 0.06 0.122 0.12 0.183 0.182l-0.299 0.298-0.047 0.51zm-6.194-3.052l-0.362 0.364-0.035 0.405c-0.086-8e-3 -0.172-0.015-0.258-0.022l0.039-0.452c3e-3 -0.03 0.016-0.059 0.037-0.08l0.319-0.321-0.258-0.371c-0.017-0.025-0.025-0.055-0.023-0.085l0.041-0.462c0.086 7e-3 0.172 0.014 0.258 0.022l-0.037 0.416 0.293 0.421c0.018 0.026 0.025 0.056 0.023 0.085-3e-3 0.029-0.016 0.058-0.037 0.08zm8.093 6.031c-0.014 0.028-0.036 0.05-0.063 0.062-0.026 0.012-0.057 0.016-0.087 8e-3l-0.497-0.131-0.362 0.169c-0.036-0.079-0.072-0.157-0.11-0.234l0.405-0.188c0.027-0.013 0.058-0.016 0.087-8e-3l0.438 0.115 0.194-0.409c0.012-0.027 0.034-0.049 0.062-0.062l0.429-0.199c0.038 0.077 0.075 0.155 0.11 0.234l-0.387 0.18-0.219 0.463zm-0.375-0.804c-0.011 0.029-0.032 0.052-0.057 0.067s-0.056 0.021-0.087 0.016l-0.506-0.087-0.347 0.2c-0.042-0.075-0.086-0.15-0.13-0.224l0.388-0.223c0.026-0.015 0.057-0.021 0.087-0.015l0.446 0.076 0.157-0.424c0.01-0.028 0.03-0.052 0.057-0.067l0.409-0.235c0.044 0.073 0.087 0.148 0.13 0.223l-0.369 0.212-0.178 0.481zm-0.444-0.768c-8e-3 0.03-0.027 0.055-0.051 0.071-0.024 0.017-0.054 0.026-0.085 0.023l-0.512-0.042-0.329 0.23c-0.049-0.071-0.098-0.141-0.149-0.211l0.368-0.257c0.025-0.018 0.055-0.026 0.085-0.023l0.451 0.037 0.12-0.436c8e-3 -0.029 0.026-0.054 0.05-0.071l0.386-0.27c0.05 0.07 0.1 0.14 0.149 0.211l-0.348 0.243-0.135 0.495zm-3.886-3.559c8e-3 0.03 5e-3 0.061-7e-3 0.088-0.013 0.026-0.034 0.048-0.062 0.062l-0.465 0.218-0.171 0.366c-0.078-0.037-0.156-0.073-0.235-0.109l0.191-0.408c0.013-0.027 0.035-0.049 0.062-0.062l0.409-0.193-0.114-0.437c-8e-3 -0.029-5e-3 -0.06 7e-3 -0.087l0.199-0.424c0.078 0.035 0.156 0.072 0.234 0.109l-0.178 0.382 0.13 0.495zm1.497 0.954c3e-3 0.031-6e-3 0.06-0.022 0.084-0.018 0.024-0.042 0.043-0.072 0.051l-0.496 0.135-0.232 0.331c-0.07-0.051-0.141-0.1-0.213-0.148l0.26-0.37c0.017-0.024 0.043-0.042 0.072-0.05l0.437-0.119-0.038-0.45c-2e-3 -0.03 6e-3 -0.06 0.023-0.085l0.269-0.383c0.071 0.049 0.142 0.098 0.212 0.148l-0.242 0.345 0.042 0.511zm-3.18-1.474l-0.419 0.296-0.105 0.391c-0.083-0.024-0.167-0.046-0.25-0.067l0.117-0.436c8e-3 -0.029 0.025-0.055 0.05-0.072l0.37-0.261-0.19-0.41c-0.012-0.028-0.015-0.059-7e-3 -0.088l0.121-0.45c0.084 0.021 0.167 0.043 0.25 0.066l-0.109 0.406 0.215 0.465c0.013 0.029 0.015 0.06 7e-3 0.088-7e-3 0.028-0.025 0.054-0.05 0.072zm-0.844-0.227l-0.392 0.331-0.071 0.399c-0.084-0.016-0.17-0.03-0.255-0.044l0.079-0.446c5e-3 -0.03 0.021-0.057 0.044-0.076l0.345-0.292-0.224-0.392c-0.015-0.026-0.021-0.057-0.015-0.087l0.081-0.458c0.085 0.014 0.17 0.029 0.255 0.044l-0.073 0.413 0.254 0.445c0.016 0.027 0.02 0.058 0.016 0.086-6e-3 0.029-0.02 0.057-0.044 0.077zm1.665 0.527l-0.443 0.258-0.139 0.38c-0.08-0.031-0.161-0.06-0.243-0.089l0.154-0.423c0.011-0.028 0.031-0.052 0.057-0.068l0.391-0.227-0.153-0.425c-0.01-0.029-0.01-0.06 0-0.088l0.161-0.439c0.081 0.028 0.162 0.057 0.243 0.088l-0.145 0.395 0.174 0.483c0.011 0.029 0.01 0.06 0 0.087-0.01 0.028-0.03 0.052-0.057 0.068zm1.632 0.664c5e-3 0.031-1e-3 0.061-0.016 0.087-0.014 0.025-0.038 0.046-0.067 0.056l-0.482 0.178-0.202 0.35c-0.075-0.045-0.149-0.088-0.224-0.13l0.225-0.39c0.015-0.026 0.039-0.046 0.067-0.056l0.425-0.157-0.076-0.445c-5e-3 -0.03 0-0.06 0.015-0.086l0.235-0.405c0.075 0.042 0.15 0.085 0.224 0.129l-0.211 0.364 0.087 0.505zm4.238 5.521c-0.016 0.026-0.04 0.046-0.068 0.056-0.027 0.01-0.058 0.011-0.088 0l-0.483-0.173-0.375 0.136c-0.028-0.081-0.058-0.162-0.089-0.243l0.419-0.152c0.029-0.01 0.059-0.01 0.088 0l0.426 0.153 0.229-0.39c0.015-0.026 0.039-0.046 0.067-0.057l0.447-0.162c0.03 0.081 0.06 0.162 0.088 0.243l-0.402 0.146-0.259 0.443zm-1.631-3.133c-6e-3 0.03-0.022 0.057-0.045 0.075-0.022 0.019-0.051 0.031-0.082 0.031l-0.514 2e-3 -0.309 0.259c-0.055-0.067-0.11-0.133-0.167-0.198l0.346-0.289c0.023-0.019 0.052-0.03 0.082-0.03l0.453-2e-3 0.081-0.444c5e-3 -0.03 0.021-0.057 0.044-0.076l0.36-0.301c0.056 0.065 0.112 0.131 0.166 0.197l-0.324 0.272-0.091 0.504zm2.089 12.334c-0.024 0.02-0.053 0.03-0.083 0.03-0.029 0-0.058-0.01-0.082-0.03l-0.395-0.328h-0.398v-0.258h0.444c0.031 0 0.06 0.011 0.083 0.03l0.348 0.289 0.349-0.289c0.023-0.019 0.052-0.03 0.082-0.03h0.476v0.258h-0.429l-0.395 0.328zm0-0.95c-0.024 0.019-0.053 0.029-0.083 0.029-0.029 0-0.058-9e-3 -0.082-0.029l-0.395-0.328h-0.398v-0.258h0.444c0.031 0 0.06 0.01 0.083 0.03l0.348 0.289 0.349-0.289c0.023-0.02 0.052-0.03 0.082-0.03h0.476v0.258h-0.429l-0.395 0.328zm0 2.85c-0.024 0.02-0.053 0.03-0.083 0.03-0.029 0-0.058-0.01-0.082-0.03l-0.395-0.327h-0.398v-0.258h0.444c0.031 0 0.06 0.01 0.083 0.029l0.348 0.289 0.349-0.289c0.023-0.019 0.052-0.029 0.082-0.029h0.476v0.258h-0.429l-0.395 0.327zm0-0.95c-0.024 0.02-0.053 0.03-0.083 0.03-0.029 0-0.058-0.01-0.082-0.03l-0.395-0.327h-0.398v-0.259h0.444c0.031 0 0.06 0.011 0.083 0.03l0.348 0.289 0.349-0.289c0.023-0.019 0.052-0.03 0.082-0.03h0.476v0.259h-0.429l-0.395 0.327zm0.395 1.573l-0.395 0.327c-0.024 0.02-0.053 0.03-0.083 0.03-0.029 0-0.058-0.01-0.082-0.03l-0.395-0.327h-0.398v-0.258h0.444c0.031 0 0.06 0.01 0.083 0.029l0.348 0.289 0.349-0.289c0.023-0.019 0.052-0.029 0.082-0.029h0.476v0.258h-0.429zm-0.395-4.423c-0.024 0.019-0.053 0.029-0.083 0.029-0.029 0-0.058-0.01-0.082-0.029l-0.395-0.328h-0.398v-0.258h0.444c0.031 0 0.06 0.01 0.083 0.03l0.348 0.288 0.349-0.288c0.023-0.02 0.052-0.03 0.082-0.03h0.476v0.258h-0.429l-0.395 0.328zm0-3.801c-0.024 0.02-0.053 0.03-0.083 0.03-0.029 0-0.058-0.01-0.082-0.03l-0.395-0.328h-0.398v-0.119c0-0.046-1e-3 -0.093-1e-3 -0.139h0.445c0.031 0 0.06 0.011 0.083 0.03l0.348 0.289 0.349-0.289c0.023-0.019 0.052-0.03 0.082-0.03h0.475c1e-3 0.046 1e-3 0.093 1e-3 0.139v0.119h-0.429l-0.395 0.328zm1e-3 -0.887c-0.022 0.022-0.05 0.034-0.08 0.037-0.029 3e-3 -0.059-5e-3 -0.085-0.022l-0.422-0.292-0.397 0.034c-7e-3 -0.086-0.014-0.172-0.023-0.257l0.444-0.039c0.03-2e-3 0.06 6e-3 0.085 0.023l0.372 0.257 0.322-0.318c0.022-0.021 0.05-0.034 0.08-0.037l0.473-0.041c8e-3 0.086 0.016 0.171 0.023 0.257l-0.427 0.038-0.365 0.36zm-0.076-0.883c-0.021 0.023-0.048 0.038-0.077 0.043s-0.06 1e-3 -0.086-0.015l-0.447-0.254-0.392 0.069c-0.014-0.085-0.029-0.17-0.045-0.254l0.438-0.077c0.03-5e-3 0.061 0 0.087 0.015l0.393 0.224 0.293-0.345c0.02-0.023 0.047-0.038 0.076-0.043l0.469-0.083c0.016 0.085 0.031 0.17 0.044 0.255l-0.422 0.074-0.331 0.391zm0.075 2.72c-0.024 0.02-0.053 0.03-0.083 0.03-0.029 0-0.058-0.01-0.082-0.03l-0.395-0.327-0.398-1e-3v-0.258h0.444c0.031 0 0.06 0.011 0.083 0.03l0.348 0.289 0.349-0.289c0.023-0.019 0.052-0.03 0.082-0.03h0.476v0.259h-0.429l-0.395 0.327zm0 0.95c-0.024 0.02-0.053 0.03-0.083 0.03-0.029 0-0.058-0.01-0.082-0.03l-0.395-0.327h-0.398v-0.259h0.444c0.031 0 0.06 0.011 0.083 0.03l0.348 0.289 0.349-0.289c0.023-0.019 0.052-0.029 0.082-0.029h0.476v0.258h-0.429l-0.395 0.327zm0 0.95c-0.024 0.02-0.053 0.03-0.083 0.03-0.029 0-0.058-0.01-0.082-0.03l-0.395-0.327h-0.398v-0.258h0.444c0.031 0 0.06 0.01 0.083 0.03l0.348 0.288 0.349-0.288c0.023-0.02 0.052-0.03 0.082-0.03h0.476v0.258h-0.429l-0.395 0.327zm-0.229-5.494c-0.018 0.026-0.044 0.043-0.072 0.05-0.029 8e-3 -0.06 6e-3 -0.088-7e-3l-0.467-0.214-0.384 0.102c-0.021-0.083-0.044-0.166-0.067-0.249l0.43-0.115c0.029-8e-3 0.06-5e-3 0.087 8e-3l0.412 0.189 0.261-0.369c0.018-0.025 0.043-0.042 0.073-0.05l0.459-0.123c0.023 0.083 0.045 0.166 0.067 0.249l-0.414 0.111-0.297 0.418zm-20.131 8.388c0.023-0.02 0.053-0.03 0.082-0.03 0.03 0 0.059 0.01 0.083 0.03l0.395 0.327h0.406v0.259h-0.453c-0.03 0-0.059-0.011-0.083-0.03l-0.348-0.289-0.348 0.289c-0.023 0.019-0.053 0.03-0.083 0.03h-0.467v-0.259h0.42l0.396-0.327zm0-5.701c0.023-0.02 0.053-0.03 0.082-0.03 0.03 0 0.059 0.01 0.083 0.03l0.395 0.328h0.406v0.258h-0.453c-0.03 0-0.059-0.011-0.083-0.03l-0.348-0.289-0.348 0.289c-0.023 0.019-0.053 0.03-0.083 0.03h-0.467v-0.258h0.42l0.396-0.328zm0 0.95c0.023-0.02 0.053-0.03 0.082-0.03 0.03 0 0.059 0.01 0.083 0.03l0.395 0.328h0.406v0.258h-0.453c-0.03 0-0.059-0.011-0.083-0.03l-0.348-0.289-0.348 0.289c-0.023 0.019-0.053 0.03-0.083 0.03h-0.467v-0.258h0.42l0.396-0.328zm0-1.9c0.023-0.02 0.053-0.03 0.082-0.03 0.03 0 0.059 0.01 0.083 0.03l0.395 0.327h0.407c-1e-3 0.044-1e-3 0.088-1e-3 0.133v0.125h-0.453c-0.03 0-0.059-0.01-0.083-0.029l-0.348-0.289-0.348 0.289c-0.023 0.019-0.053 0.029-0.083 0.029h-0.467v-0.125c0-0.045 0-0.089 1e-3 -0.133h0.419l0.396-0.327zm0.464-2.613c0.028-0.013 0.059-0.015 0.088-7e-3 0.028 7e-3 0.054 0.024 0.072 0.05l0.296 0.418 0.393 0.105c-0.024 0.083-0.046 0.166-0.067 0.249l-0.438-0.116c-0.029-8e-3 -0.054-0.026-0.072-0.051l-0.262-0.368-0.411 0.189c-0.027 0.012-0.058 0.015-0.087 7e-3l-0.452-0.121c0.021-0.083 0.044-0.166 0.067-0.249l0.406 0.108 0.467-0.214zm0.305-0.833c0.029-0.01 0.06-0.01 0.088 0s0.051 0.03 0.067 0.057l0.259 0.442 0.382 0.139c-0.03 0.08-0.06 0.161-0.088 0.242l-0.426-0.154c-0.029-0.01-0.052-0.03-0.068-0.056l-0.228-0.391-0.426 0.153c-0.029 0.01-0.06 0.01-0.088 0l-0.439-0.16c0.028-0.081 0.058-0.162 0.088-0.242l0.395 0.143 0.484-0.173zm-0.691 2.563c0.025-0.018 0.055-0.026 0.085-0.023 0.029 3e-3 0.057 0.015 0.08 0.037l0.365 0.36 0.405 0.036c-9e-3 0.085-0.016 0.171-0.023 0.257l-0.452-0.039c-0.03-3e-3 -0.058-0.016-0.079-0.037l-0.322-0.318-0.372 0.257c-0.025 0.017-0.055 0.025-0.085 0.023l-0.465-0.041c7e-3 -0.086 0.014-0.172 0.022-0.257l0.419 0.036 0.422-0.291zm0.155-0.874c0.027-0.015 0.058-0.02 0.087-0.015 0.028 6e-3 0.056 0.02 0.076 0.044l0.332 0.391 0.4 0.07c-0.016 0.085-0.031 0.169-0.045 0.255l-0.446-0.079c-0.03-5e-3 -0.057-0.021-0.076-0.043l-0.293-0.345-0.393 0.224c-0.027 0.015-0.057 0.02-0.087 0.015l-0.46-0.081c0.014-0.085 0.029-0.17 0.045-0.254l0.414 0.072 0.446-0.254zm-0.233 10.308c0.023-0.02 0.053-0.03 0.082-0.03 0.03 0 0.059 0.01 0.083 0.03l0.395 0.328h0.406v0.258h-0.453c-0.03 0-0.059-0.011-0.083-0.03l-0.348-0.289-0.348 0.289c-0.023 0.019-0.053 0.03-0.083 0.03h-0.467v-0.258h0.42l0.396-0.328zm0-5.701c0.023-0.02 0.053-0.03 0.082-0.03 0.03 0 0.059 0.01 0.083 0.03l0.395 0.328h0.406v0.258h-0.453c-0.03 0-0.059-0.011-0.083-0.03l-0.348-0.289-0.348 0.289c-0.023 0.019-0.053 0.03-0.083 0.03h-0.467v-0.258h0.42l0.396-0.328zm0 4.751c0.023-0.02 0.053-0.03 0.082-0.03 0.03 0 0.059 0.01 0.083 0.03l0.395 0.328h0.406v0.258h-0.453c-0.03 0-0.059-0.011-0.083-0.03l-0.348-0.289-0.348 0.289c-0.023 0.019-0.053 0.03-0.083 0.03h-0.467v-0.258h0.42l0.396-0.328zm0-3.801c0.023-0.019 0.053-0.029 0.082-0.029 0.03 0 0.059 0.01 0.083 0.029l0.395 0.328h0.406v0.258h-0.453c-0.03 0-0.059-0.011-0.083-0.03l-0.348-0.288-0.348 0.288c-0.023 0.019-0.053 0.03-0.083 0.03h-0.467v-0.258h0.42l0.396-0.328zm0 0.951c0.023-0.02 0.053-0.03 0.082-0.03 0.03 0 0.059 0.01 0.083 0.03l0.395 0.327h0.406v0.258h-0.453c-0.03 0-0.059-0.01-0.083-0.03l-0.348-0.288-0.348 0.288c-0.023 0.02-0.053 0.03-0.083 0.03h-0.467v-0.258h0.42l0.396-0.327zm0 0.95c0.023-0.02 0.053-0.03 0.082-0.03 0.03 0 0.059 0.01 0.083 0.03l0.395 0.327h0.406v0.258h-0.453c-0.03 0-0.059-0.01-0.083-0.029l-0.348-0.289-0.348 0.289c-0.023 0.019-0.053 0.029-0.083 0.029h-0.467v-0.258h0.42l0.396-0.327zm3.382-12.711c0.021 0.02 0.035 0.048 0.038 0.079l0.047 0.51 0.29 0.29c-0.062 0.06-0.123 0.121-0.183 0.182l-0.323-0.322c-0.022-0.021-0.035-0.049-0.038-0.079l-0.041-0.45-0.451-0.042c-0.03-3e-3 -0.059-0.016-0.08-0.037l-0.327-0.327c0.06-0.061 0.121-0.122 0.183-0.182l0.294 0.293 0.512 0.048c0.031 2e-3 0.058 0.016 0.079 0.037zm3.626-1.596l0.14 0.382c-0.082 0.028-0.163 0.058-0.243 0.088l-0.156-0.426c-0.01-0.028-0.01-0.059 0-0.087l0.153-0.426-0.391-0.227c-0.026-0.016-0.046-0.039-0.057-0.068l-0.159-0.437c0.08-0.03 0.161-0.059 0.243-0.088l0.143 0.393 0.444 0.258c0.027 0.016 0.046 0.04 0.056 0.068 0.011 0.027 0.011 0.058 1e-3 0.087l-0.174 0.483zm-0.656-0.273c0.012 0.026 0.015 0.057 8e-3 0.087l-0.131 0.496 0.172 0.369c-0.078 0.035-0.157 0.072-0.234 0.109l-0.193-0.411c-0.012-0.028-0.015-0.059-7e-3 -0.088l0.115-0.436-0.41-0.193c-0.027-0.013-0.049-0.035-0.062-0.062l-0.197-0.421c0.078-0.038 0.156-0.074 0.235-0.11l0.177 0.379 0.465 0.219c0.028 0.013 0.049 0.035 0.062 0.062zm-5.207 4.63c0.03-8e-3 0.061-5e-3 0.088 8e-3 0.027 0.012 0.049 0.034 0.062 0.062l0.22 0.463 0.369 0.172c-0.038 0.077-0.075 0.155-0.11 0.234l-0.411-0.192c-0.028-0.013-0.049-0.034-0.063-0.062l-0.193-0.408-0.438 0.115c-0.029 7e-3 -0.06 5e-3 -0.088-8e-3l-0.423-0.197c0.036-0.078 0.073-0.156 0.11-0.234l0.381 0.177 0.496-0.13zm6.667-4.599l0.106 0.394c-0.084 0.021-0.167 0.043-0.251 0.066l-0.117-0.438c-8e-3 -0.029-5e-3 -0.06 7e-3 -0.087l0.19-0.41-0.37-0.261c-0.025-0.018-0.043-0.043-0.05-0.072l-0.121-0.449c0.083-0.023 0.167-0.046 0.25-0.067l0.109 0.404 0.419 0.296c0.025 0.018 0.043 0.043 0.05 0.072 8e-3 0.028 6e-3 0.059-7e-3 0.087l-0.215 0.465zm1.655-0.268l0.036 0.406c-0.086 7e-3 -0.172 0.014-0.258 0.023l-0.04-0.453c-3e-3 -0.03 6e-3 -0.06 0.023-0.085l0.258-0.371-0.319-0.321c-0.021-0.022-0.034-0.05-0.037-0.08l-0.04-0.461c0.085-9e-3 0.171-0.016 0.257-0.023l0.037 0.415 0.361 0.364c0.023 0.022 0.035 0.051 0.037 0.08 3e-3 0.029-4e-3 0.059-0.022 0.085l-0.293 0.421zm-0.833 0.098l0.071 0.401c-0.086 0.014-0.171 0.029-0.255 0.045l-0.079-0.447c-6e-3 -0.03 0-0.06 0.015-0.086l0.224-0.393-0.345-0.292c-0.023-0.019-0.039-0.046-0.044-0.076l-0.081-0.457c0.085-0.016 0.17-0.031 0.255-0.045l0.073 0.411 0.392 0.332c0.024 0.02 0.038 0.047 0.044 0.076 5e-3 0.029 0 0.059-0.016 0.086l-0.254 0.445zm-3.083 0.507c0.014 0.026 0.02 0.056 0.015 0.087l-0.087 0.505 0.205 0.353c-0.075 0.042-0.15 0.085-0.224 0.129l-0.228-0.394c-0.015-0.026-0.021-0.056-0.016-0.086l0.077-0.445-0.425-0.157c-0.029-0.01-0.052-0.03-0.067-0.056l-0.232-0.401c0.074-0.044 0.148-0.088 0.224-0.13l0.209 0.361 0.481 0.178c0.03 0.01 0.053 0.031 0.068 0.056zm-3.365 2.791c0.024 0.017 0.043 0.042 0.051 0.072l0.135 0.494 0.335 0.235c-0.05 0.069-0.1 0.14-0.148 0.211l-0.374-0.261c-0.024-0.017-0.042-0.042-0.05-0.071l-0.12-0.436-0.451 0.037c-0.03 3e-3 -0.06-6e-3 -0.085-0.023l-0.38-0.266c0.049-0.071 0.098-0.141 0.149-0.211l0.341 0.239 0.512-0.043c0.031-2e-3 0.061 7e-3 0.085 0.023zm2.599-2.354c0.017 0.024 0.026 0.053 0.023 0.085l-0.042 0.51 0.235 0.335c-0.072 0.048-0.142 0.098-0.212 0.148l-0.262-0.373c-0.018-0.025-0.026-0.055-0.023-0.085l0.037-0.45-0.437-0.119c-0.029-8e-3 -0.054-0.026-0.072-0.05l-0.266-0.379c0.07-0.05 0.141-0.1 0.212-0.148l0.239 0.34 0.496 0.135c0.03 9e-3 0.055 0.027 0.072 0.051zm-3.108 3.073c0.026 0.015 0.046 0.038 0.057 0.067l0.178 0.481 0.354 0.203c-0.045 0.074-0.088 0.148-0.13 0.224l-0.394-0.227c-0.026-0.015-0.046-0.039-0.057-0.067l-0.156-0.424-0.447 0.076c-0.03 5e-3 -0.06 0-0.087-0.015l-0.403-0.232c0.042-0.075 0.086-0.15 0.13-0.224l0.362 0.209 0.507-0.087c0.03-5e-3 0.061 1e-3 0.086 0.016zm1.079-1.39c0.023 0.019 0.039 0.045 0.044 0.076l0.092 0.504 0.314 0.263c-0.056 0.065-0.112 0.131-0.167 0.198l-0.349-0.293c-0.024-0.019-0.039-0.046-0.045-0.076l-0.08-0.445-0.453-2e-3c-0.031 0-0.06-0.01-0.083-0.03l-0.355-0.297c0.055-0.066 0.11-0.133 0.167-0.198l0.319 0.267 0.513 3e-3c0.032 0 0.06 0.011 0.083 0.03zm1.304-1.182c0.019 0.023 0.03 0.052 0.031 0.083l2e-3 0.512 0.264 0.313c-0.067 0.055-0.133 0.11-0.198 0.166l-0.294-0.349c-0.02-0.023-0.03-0.052-0.031-0.082l-2e-3 -0.452-0.445-0.08c-0.03-6e-3 -0.057-0.021-0.076-0.045l-0.298-0.353c0.065-0.056 0.131-0.112 0.198-0.166l0.268 0.318 0.505 0.091c0.031 6e-3 0.057 0.022 0.076 0.044zm6.246-1.569v0.408c-0.04 0-0.081-1e-3 -0.122-1e-3 -0.046 0-0.091 1e-3 -0.137 2e-3v-0.455c0-0.031 0.011-0.06 0.03-0.083l0.29-0.347-0.29-0.348c-0.019-0.023-0.03-0.052-0.03-0.082v-0.463c0.046-1e-3 0.091-1e-3 0.137-1e-3 0.041 0 0.082 0 0.122 1e-3v0.416l0.329 0.394c0.019 0.024 0.029 0.053 0.029 0.083 0 0.029-9e-3 0.058-0.029 0.082l-0.329 0.394z" fill="#E7E8E9"/>
<path d="m334.42 232h6.814c-1e-3 5.639 0.133 9.658 0.504 10.77 0.121 0.362 0.24 0.708 0.353 1.039 1.465 4.273 2.054 5.988-5.409 6.141-8.041 0.163-12.492 0.015-12.254-1.784 0.19-1.431 2.998-2.292 6.018-3.218 0.777-0.238 1.567-0.481 2.33-0.738 2.74-0.925 3.062-4.561 2.065-9.914-0.137-0.734-0.28-1.5-0.421-2.296z" fill="#8E5F51"/>
<path d="m299.15 232h8.035c-1.057 7.824-1.679 13.535-1.579 14.843 0.362 4.725-18.141 1.584-17.596-1.299 0.544-2.883 11.065-3.426 11.065-3.426-0.081-2.611-0.045-6.089 0.075-10.118z" fill="#8E5F51"/>
<path d="m299.54 238h7.32l11.227-89h6.185l10.317 89h7.411s0-108.55-2.613-114.41c-2.612-5.86-4.852-6.593-4.852-6.593h-25.379s-3.732 2.564-5.225 6.593c-3.648 9.846-5.931 114.41-5.931 114.41h1.54z" fill="#E07F00"/>
<path d="m297.66 245.84c-2.896-0.486-4.202-1.654-4.759-2.842-3.174 0.517-6.565 1.435-6.885 3.035-0.617 3.069 20.358 6.413 19.948 1.382-0.025-0.302-0.01-0.835 0.039-1.557-2.401 0.329-5.364 0.483-8.343-0.018z" fill="#212120"/>
<path d="m332.5 247.63c-2.318-0.391-3.738-0.981-4.604-1.63-3.046 0.871-5.69 1.736-5.887 3.088-0.269 1.871 4.763 2.025 13.852 1.856 7.454-0.14 7.798-1.554 6.635-4.948-2.391 1.142-5.575 2.381-9.996 1.634z" fill="#212120"/>
<path d="m306.11 91s-10.592 29.456-33.162 0l-7.947 1.3811s8.216 16.663 23.532 19.316c15.316 2.654 23.468-13.003 23.468-13.003l-5.891-7.6942z" fill="#8E5F51"/>
<path d="m274 90c0 2.7613-2.24 5-4.999 5-2.763 0-5.001-2.2387-5.001-5s2.238-5 5.001-5c2.759 0 4.999 2.2387 4.999 5z" fill="#8E5F51"/>
<path d="m342.15 79s14.123 28.738 1.806 68.113c0 0-3.015 10.013-8.968 7.475-5.953-2.539-1.673-11.059 1.301-17.221 2.978-6.163 6.385-41.627-3.411-50.088 0 0-0.68-3.3837 9.272-8.2787z" fill="#8E5F51"/>
<path d="m304.89 75.575c0.088 2.6798-0.612 5.9845-0.612 5.9845-6.095 6.6986 1.981 12.594 1.981 12.594l2.434 22.847h24.932s2.725-22.221 2.545-25.259c-0.086-1.4531-0.667-2.0266-1.16-2.5138-0.536-0.5306-0.97-0.9587-0.548-2.3093 0.809-2.5906 8.54-6.8771 8.54-6.8771-6.561-13.398-12.944-19.383-23.102-19.026-10.158 0.3581-15.101 11.88-15.01 14.56z" fill="#FFDE23"/>
<path d="m325.48 49v14.458s0.882 3.9508 0.36 6.396c-0.67 3.1379-2.523 5.8537-4.325 6.9512s-3.964 2.1951-7.568 2.1951c-5.811 0 3.271-14.488 3.271-14.488v-14.609l8.262-0.9029z" fill="#74483C"/>
<path d="m315 79s1.487-1.6704 2.143-2.9167c0.41-0.7802 0.857-2.0833 0.857-2.0833l-3 5z" fill="#492920"/>
<path d="m330.66 3.989c4.63 1.6513 9.032 4.6691 11.261 9.3383 1.829 3.8719 1.258 8.7688 2.63 12.755 2 5.9787 4.344 11.559 5.83 17.708 1.429 5.8649 3.144 13.267-0.857 18.449-1.201 1.5374-2.115 2.1068-3.716 3.0748-0.743 0.4555-1.886 0.7971-2.286 1.5943-0.858 1.4804 0.171 3.4164-1.315 4.8969-1.315 1.3096-4.058 1.7651-5.773 2.2776-3.43 1.0249-6.574 1.9929-10.118 2.5054-4.801 0.6263-10.232 0.968-14.061-2.2776-3.201-2.7332-7.431-5.8649-9.032-9.9077-0.514-1.3666-0.343-2.847-0.972-4.0997-0.628-1.3096-1.257-1.0819-2.286-2.1068-1.829-1.7652-0.686-3.7012 0.4-5.6371 1.486-2.7332 1.715-4.783 1.429-7.9148-0.457-4.9538-0.114-8.2564 1.601-12.982 1.886-5.1816 2.229-10.762 4.115-16.057 1.715-4.8399 5.716-9.2813 10.518-11.103 2.915-1.1388 8.117-2.4484 12.632-0.51246z" fill="#F7941E"/>
<path d="m329.27 43.273c3.816-4.6835 2.188-11.08 2.132-16.392 2.413 4.455 1.628 9.3669 1.179 14.108 0.561-4.2265 3.535-7.8248 3.759-12.337 0.168-3.9409-1.178-7.7677-1.122-11.652 3.142 3.7696 2.862 10.052 2.693 14.736 0.617-3.1984 1.403-5.7686 1.627-9.0813 1.684 6.5683-1.571 14.964-4.096 21.076-1.964 4.7977-11.334 12.051-16.44 8.1675 1.515-1.1994 10.044-6.5683 10.268-8.6244z" fill="#CE7515"/>
<path d="m313 54c4.469 2.6348 7.806 6.521 12.84 7.7726 6.223 1.5149 10.578-2.8983 15.16-6.7846-2.545 5.9283-6.562 9.7487-12.275 8.8924-4.864-0.7905-11.03-4.2157-15.725-9.8804z" fill="#CE7515"/>
<path d="m338.76 70.668c-5.642 2.934-11.798 1.9748-16.757-1.8055-3.476-2.7083-10.658-8.6891-11-13.429 4.674 4.401 8.948 10.1 14.99 12.808 3.363 1.5234 6.441 0.7335 9.462-1.1849 3.419-2.2005 7.808-4.6831 10.487-7.6735 3.135-3.4418 1.938-10.269 2.052-14.614-0.513 2.4826-3.762 5.868-5.985 6.8836 1.482-2.7647 3.306-5.6987 3.192-8.9712-1.425 4.2881-7.923 9.8175-12.71 11.115 0.684-1.7491 2.622-3.3853 3.876-4.9087 1.652-2.0313 2.507-4.1189 3.647-6.4322 1.824-3.7804 3.306-6.9965 3.534-11.341 0.228-3.6675 0.057-7.3914-0.114-11.115 0.285 2.2569 0.456 4.5138 1.14 6.545 1.995 5.9244 4.332 11.454 5.814 17.548 1.425 5.8116 3.134 13.146-0.855 18.281-1.197 1.5234-2.109 2.0876-3.705 3.0468-0.741 0.4514-1.881 0.79-2.28 1.5799-0.855 1.467 0.171 3.3853-1.311 4.8523-1.311 1.2977-4.047 1.7491-5.757 2.2569-3.419 1.0156-6.554 1.9748-10.088 2.4826-4.788 0.6207-10.202 0.9592-14.021-2.2569-0.285-0.2257-0.57-0.4514-0.855-0.7335 2.109 0.7335 4.332 1.2413 6.612 1.3542 6.383 0.3385 15.788 0.4514 20.632-4.2882z" fill="#CE7515"/>
<path d="m310 20.623c2.119-2.2288 5.194-3.9622 8.953-3.566 1.982-0.1981 5.126 1.0401 6.766 1.783 2.051 0.941 2.871 2.5259 3.281 4.1603-3.349-1.4858-7.928-2.3773-10.867-2.5754-2.46-0.1486-5.399-0.1486-8.133 0.1981z" fill="#2E251C"/>
<path d="m329 23s-16.5-9.5-21.915 1.1407l-2.676 9.872c-2.017 7.4469 2.96 15.2 11.115 17.32 8.158 2.1175 12.661-4.3863 14.679-11.832 0 0 0.36-4.4659 0-8.3654-0.473-5.1347-1.203-8.1346-1.203-8.1346z" fill="#8E5F51"/>
<path d="m321.02 31.838c-0.427-0.1097-0.755-0.3542-0.949-0.7066-0.406-0.7369-0.088-1.6919-0.051-1.7977 0.093-0.263 0.382-0.402 0.659-0.3173 0.272 0.0901 0.418 0.3753 0.326 0.6393-0.056 0.1656-0.18 0.7015-0.015 0.9995 0.04 0.0699 0.108 0.1573 0.298 0.2059 0.739 0.1896 1.257-0.9141 1.263-0.9249 0.116-0.2546 0.421-0.3711 0.686-0.2586 0.261 0.1128 0.381 0.4096 0.265 0.6641-0.32 0.7098-1.205 1.8244-2.482 1.4963z" fill="#212120"/>
<path d="m309.85 29.379c-0.428-0.1093-0.755-0.3533-0.949-0.705-0.407-0.7351-0.088-1.6891-0.051-1.7936 0.091-0.2624 0.386-0.4192 0.658-0.3156 0.272 0.0878 0.418 0.3733 0.327 0.6378-0.056 0.1642-0.18 0.6989-0.015 0.9963 0.039 0.0707 0.107 0.157 0.297 0.2054 0.739 0.1891 1.258-0.9112 1.264-0.923 0.117-0.2541 0.422-0.3725 0.684-0.257 0.263 0.1114 0.382 0.4076 0.267 0.6615-0.321 0.7083-1.206 1.8195-2.482 1.4932z" fill="#212120"/>
<path d="m310.42 33.495l3.675 0.9396 1.954-7.1-1.197-0.3077-4.432 6.4681z" fill="#74483C"/>
<path d="m311.52 43.978c1.611 0.4904 3.257-0.5809 3.676-2.3962l-5.84-1.7773c-0.417 1.814 0.551 3.6819 2.164 4.1735z" fill="#1400F9"/>
<path d="m56.024 70.062c-0.1034-2e-4 -0.2073-0.0358-0.2919-0.1078-0.1909-0.1619-0.214-0.4477-0.0523-0.6385 1.4137-1.6655 0.3063-4.8123-0.8721-7.1587-1.0553-2.1018-0.3309-4.4467 0.3698-6.7145 0.3827-1.238 0.7781-2.5182 0.89-3.7563 0.315-3.4875-1.8351-5.6845-3.5086-5.9296-1.7535-0.2571-3.0635 1.2775-3.0767 1.2929-0.161 0.1912-0.4463 0.2158-0.638 0.0545-0.1915-0.1613-0.2158-0.4468-0.0545-0.6383 0.0665-0.0794 1.6575-1.9339 3.9005-1.6056 2.3371 0.3421 4.6144 3.1996 4.2794 6.9075-0.1204 1.333-0.5302 2.6597-0.9267 3.9424-0.6775 2.1929-1.3175 4.2642-0.4259 6.0405 1.8924 3.7685 2.1457 6.5112 0.7531 8.1516-0.0895 0.1058-0.2173 0.1602-0.3461 0.1599z" fill="#212120"/>
<path d="m52.746 73.746c-0.1417-3e-4 -0.2804-0.0721-0.3612-0.203-0.1259-0.2027-0.0656-0.4705 0.1341-0.5981 2.6304-1.6784 2.2914-6.2712 1.211-8.9964-0.761-1.918-0.6779-2.9057-0.5523-4.4001 0.0855-1.0163 0.1918-2.2811 0.0873-4.3111-0.2382-4.6401-3.4765-5.2299-3.614-5.2528-0.2321-0.0383-0.3912-0.2603-0.3541-0.4963 0.0369-0.2356 0.2523-0.397 0.4866-0.3606 0.0404 0.0063 4.0598 0.6987 4.3354 6.0646 0.1072 2.0897-0.0018 3.3871-0.0894 4.4298-0.1234 1.4676-0.1914 2.2761 0.4935 4.0026 1.3909 3.5077 1.3208 8.2237-1.5487 10.055-0.0714 0.0454-0.1503 0.0668-0.2282 0.0666z" fill="#212120"/>
<path d="m52.476 76.208c-0.1559-3e-4 -0.3083-0.0739-0.3976-0.2081-0.1381-0.208-0.0719-0.4825 0.1478-0.6133 2.893-1.7197 2.5198-6.4272 1.3305-9.2206-0.8373-1.9662-0.7463-2.9784-0.6083-4.5103 0.0939-1.0417 0.2106-2.3381 0.0956-4.4185-0.2629-4.7569-3.8251-5.3615-3.9764-5.3849-0.2555-0.0395-0.4303-0.2669-0.3896-0.5087 0.0404-0.2417 0.2766-0.4078 0.5353-0.3699 0.0444 0.0066 4.4658 0.7168 4.7698 6.2174 0.1184 2.1415-0.0015 3.4717-0.0977 4.5402-0.1353 1.5043-0.2101 2.3332 0.5437 4.103 1.5305 3.5953 1.4543 8.4291-1.7021 10.306-0.0783 0.0464-0.1652 0.0683-0.251 0.0681z" fill="#212120"/>
<path d="m53.705 75.595c-0.1445-3e-4 -0.2864-0.0714-0.3714-0.2022-0.134-0.2061-0.0763-0.4826 0.1293-0.617 1.3829-0.9053 1.0489-2.7265 0.6953-4.6548-0.2959-1.6141-0.5753-3.1387 0.2227-4.1454 1.1685-1.4744 0.902-2.0517-0.2193-4.4809-0.1753-0.38-0.3688-0.7988-0.5764-1.2663-0.8096-1.8208-0.533-3.3662-0.2892-4.7294 0.2468-1.3782 0.4597-2.5687-0.3815-3.9021-0.5398-0.8561-1.1714-1.3703-1.8769-1.5282-0.912-0.2037-1.6722 0.2603-1.6797 0.265-0.2071 0.1329-0.4816 0.0712-0.6131-0.1361-0.1319-0.2075-0.0712-0.4831 0.1356-0.6153 0.0429-0.0277 1.0677-0.671 2.3505-0.3836 0.9446 0.2112 1.7634 0.8579 2.4343 1.9216 1.0259 1.6263 0.7612 3.1055 0.5049 4.5362-0.232 1.2971-0.4721 2.6387 0.226 4.2087 0.2061 0.4635 0.3976 0.8785 0.5715 1.255 1.1445 2.4792 1.6182 3.5054 0.1085 5.4106-0.5465 0.6892-0.3026 2.02-0.0441 3.4291 0.3722 2.0311 0.7944 4.3328-1.0835 5.5629-0.0754 0.0491-0.1601 0.0724-0.2435 0.0722z" fill="#000"/>
<path d="m53.086 77.44c-0.1445-3e-4 -0.2864-0.0731-0.3714-0.2069-0.134-0.2109-0.0762-0.4935 0.1294-0.6312 1.383-0.9267 1.0491-2.7904 0.6956-4.7633-0.2959-1.6518-0.5752-3.212 0.2229-4.2421 1.1687-1.5086 0.9022-2.0993-0.2191-4.5849-0.1753-0.3888-0.3687-0.8175-0.5764-1.2957-0.8096-1.8633-0.5329-3.4446-0.289-4.8398 0.2469-1.4103 0.4599-2.6285-0.3813-3.9928-1.533-2.4868-3.3559-1.4208-3.5588-1.2909-0.2075 0.133-0.4812 0.0687-0.6115-0.1432-0.1303-0.2123-0.0703-0.492 0.1359-0.6269 0.0427-0.0282 1.0688-0.6856 2.3507-0.3928 0.9447 0.2162 1.7636 0.8778 2.4345 1.966 1.0259 1.6642 0.7611 3.1779 0.5047 4.6421-0.232 1.3274-0.4723 2.7003 0.2258 4.3067 0.2061 0.4741 0.3976 0.899 0.5715 1.2841 1.1445 2.5368 1.6181 3.5871 0.1082 5.5363-0.5465 0.7053-0.3027 2.0674-0.0442 3.5091 0.3721 2.0782 0.7942 4.4336-1.0841 5.6924-0.0751 0.0501-0.1598 0.074-0.2434 0.0738z" fill="#000"/>
<path d="m58.19 70.682c-0.1297-3e-4 -0.2588-0.0528-0.3499-0.1547-0.1656-0.1852-0.1431-0.464 0.0507-0.6224 2.6353-2.1564 2.8279-4.926 0.5727-8.232-1.4939-2.1892-2.0193-3.5675-1.4063-6.4359 0.5706-2.6735 1.0635-4.9826-1.2817-6.775-2.3117-1.767-5.804-0.396-5.8392-0.3821-0.2347 0.0943-0.5056-0.0111-0.6043-0.2356-0.0989-0.2247 0.0108-0.4831 0.2454-0.5781 0.163-0.0659 4.0297-1.5921 6.7743 0.506 2.7865 2.1298 2.1883 4.9317 1.6098 7.6418-0.5396 2.526-0.1351 3.7094 1.2753 5.7764 2.5132 3.6842 2.2555 6.9294-0.7457 9.3852-0.0875 0.0715-0.1947 0.1066-0.3011 0.1064z" fill="#000"/>
<path d="m55.054 74.367c-0.0817-2e-4 -0.1644-0.0219-0.2383-0.0671-0.7456-0.4552-1.2296-1.2824-1.3633-2.329-0.2117-1.6606 0.5005-3.5447 1.859-4.9167 1.9145-1.9335 0.9493-3.9091-0.7415-6.7026-0.7991-1.32-0.5969-2.736-0.3828-4.2352 0.2059-1.4417 0.4189-2.9326-0.2675-4.4558-1.2924-2.8692-4.6703-2.2422-4.7051-2.2354-0.241 0.0476-0.4782-0.1029-0.5277-0.3353-0.0492-0.2323 0.1068-0.4598 0.3487-0.5072 0.0407-8e-3 4.1267-0.7662 5.7048 2.7362 0.7856 1.7438 0.5451 3.4283 0.3328 4.9146-0.2009 1.4069-0.3745 2.6217 0.2697 3.6858 1.4704 2.429 3.1368 5.1821 0.6162 7.7278-1.409 1.423-1.7601 3.1125-1.6187 4.2192 0.1001 0.7866 0.4394 1.3933 0.9546 1.7081 0.2084 0.1272 0.2703 0.3928 0.1377 0.5932-0.0852 0.1292-0.2305 0.1997-0.3786 0.1994z" fill="#212120"/>
<path d="m59.032 69.452c-0.1357-2e-4 -0.2695-0.0629-0.3562-0.1813-0.1455-0.1984-0.1037-0.478 0.0935-0.6244 1.4131-1.0503 1.8085-2.2767 1.8913-3.1209 0.1014-1.0318-0.2106-2.0602-0.834-2.7503-0.1525-0.1689-0.2949-0.32-0.4277-0.4612-1.1419-1.2132-1.6157-1.8394-1.8661-5.1953l-0.0166-0.2221c-0.2657-3.5696-0.4119-5.536-2.5908-6.8488-2.1829-1.3158-4.3448-0.185-4.3662-0.1732-0.2163 0.1162-0.4848 0.0335-0.5999-0.184-0.1151-0.2176-0.0334-0.488 0.1829-0.6041 0.1059-0.057 2.6302-1.377 5.2388 0.1948 2.5732 1.5507 2.7413 3.8083 3.0196 7.5484l0.0167 0.222c0.2369 3.1729 0.6435 3.6045 1.6252 4.6479 0.1368 0.1452 0.2832 0.3008 0.4402 0.4747 0.7896 0.874 1.1861 2.1597 1.0604 3.4387-0.1419 1.448-0.9401 2.7804-2.2471 3.7517-0.0797 0.0592-0.1724 0.0876-0.264 0.0874z" fill="#212120"/>
<path d="m58.989 71.299c-0.14-3e-4 -0.2786-0.06-0.3707-0.1733-1.6001-1.9713-1.7109-4.3525-0.3049-6.5327 1.2472-1.9335 1.7577-2.9733-0.2473-5.4585-2.0566-2.5494-2.4138-5.4779-2.7917-8.5789-0.0346-0.2824-0.069-0.5658-0.1052-0.8508-0.3666-2.8925-1.7383-4.5736-3.7635-4.6125-1.6198-0.0398-1.7834 0.698-1.7901 0.7292-0.0349 0.2428-0.2704 0.4052-0.5263 0.374-0.2564-0.033-0.4349-0.263-0.4-0.5059 0.0088-0.0614 0.2421-1.4912 2.6308-1.486 0.0343 1e-4 0.0692 6e-4 0.1045 0.0011 2.5053 0.0479 4.2527 2.0647 4.6749 5.3944 0.0363 0.2862 0.0709 0.571 0.1053 0.8545 0.363 2.976 0.7057 5.7868 2.6057 8.1419 2.3168 2.8714 1.6597 4.3562 0.3024 6.4603-1.1927 1.8497-1.1025 3.8648 0.2481 5.5289 0.1577 0.1944 0.1192 0.4732-0.0858 0.6223-0.0854 0.0624-0.1861 0.0922-0.2862 0.092z" fill="#212120"/>
<path d="m55.405 73.137c-0.1159-3e-4 -0.2312-0.0488-0.3158-0.1447-0.1602-0.1818-0.1484-0.4636 0.0265-0.6298 1.9218-1.8269 1.3748-4.9665 0.3222-7.0996-1.2622-2.5582-0.9519-4.6167-0.4822-7.7328l0.026-0.172c0.4623-3.0716 0.6326-6.4133-1.6127-7.9088-2.1478-1.4304-3.3129-0.1025-3.3245-0.089-0.1569 0.1846-0.4278 0.2028-0.6061 0.0401-0.178-0.1629-0.1953-0.4445-0.0384-0.629 0.0165-0.0195 1.6718-1.911 4.4326-0.0722 2.6603 1.7719 2.5026 5.4412 1.9974 8.7966l-0.026 0.172c-0.4595 3.0485-0.7369 4.8886 0.3982 7.1886 1.1901 2.4124 1.7716 5.9977-0.5065 8.1634-0.0825 0.0786-0.1869 0.1174-0.2907 0.1172z" fill="#000"/>
<path d="m54.168 75.596c-0.1159-2e-4 -0.2312-0.0489-0.3158-0.1446-0.1602-0.1817-0.1484-0.4637 0.0265-0.6299 1.922-1.8267 1.3748-4.9663 0.3222-7.0993-1.2624-2.559-0.952-4.618-0.482-7.7348l0.0258-0.1703c0.4626-3.0716 0.6326-6.4132-1.6128-7.9087-2.1214-1.4132-3.2787-0.141-3.3273-0.0864-0.1587 0.1809-0.4295 0.1962-0.6051 0.0331-0.1754-0.1634-0.1927-0.4412-0.0369-0.6248 0.0167-0.0191 1.6722-1.911 4.4331-0.072 2.6604 1.7719 2.5027 5.441 1.9975 8.7964l-0.0259 0.1704c-0.4597 3.0493-0.7373 4.8898 0.3981 7.1906 1.1901 2.4123 1.7717 5.9976-0.5066 8.1631-0.0826 0.0786-0.187 0.1174-0.2908 0.1172z" fill="#000"/>
<path d="m57.476 73.141c-0.1302-3e-4 -0.2596-0.0488-0.3536-0.1442-1.7371-1.7579-0.2535-5.5705 0.83-8.354 0.5886-1.5125-0.2507-2.5852-1.2225-3.8274-0.5645-0.7216-1.1484-1.468-1.4947-2.3577-0.4274-1.0988-0.0574-2.1726 0.3342-3.3095 0.5272-1.5303 1.0723-3.1129-0.267-5.0077-2.2149-3.1344-5.7937-1.6764-5.945-1.6131-0.2395 0.1013-0.5237 0.0049-0.6341-0.2149-0.1104-0.2197-0.0052-0.4796 0.2348-0.5804 0.0447-0.0189 4.4878-1.8298 7.1469 1.9333 1.5839 2.2408 0.9142 4.1846 0.3761 5.7464-0.3567 1.0359-0.665 1.9306-0.3455 2.7527 0.3011 0.7739 0.845 1.4694 1.3712 2.1419 1.0337 1.3211 2.1023 2.687 1.346 4.6306-0.9459 2.4304-2.3753 6.1034-1.0217 7.4735 0.1769 0.1793 0.1618 0.4559-0.0338 0.6181-0.0915 0.0752-0.2066 0.1126-0.3213 0.1124z" fill="#000"/>
<path d="m58.712 73.145c-0.121-3e-4 -0.2414-0.047-0.3297-0.1392-0.6167-0.6451-1.4709-2.362-0.2867-4.2444 1.2128-1.9277 0.9316-3.6488-0.9711-5.9404-2.1043-2.535-1.4583-5.1239-0.3959-8.245 0.9754-2.8642-0.4245-5.6303-2.3413-6.65-1.9588-1.0418-4.3874 0.3146-4.4119 0.3285-0.2135 0.1215-0.4888 0.0548-0.616-0.1487-0.127-0.2037-0.058-0.4672 0.1546-0.5889 0.1171-0.0673 2.894-1.6274 5.3097-0.3421 2.5923 1.3786 3.7784 4.675 2.7596 7.6672-1.0109 2.9685-1.5848 5.2399 0.2449 7.4442 2.1205 2.5543 2.4405 4.6877 1.0375 6.9182-1.1278 1.7925 0.1271 3.1647 0.181 3.2222 0.1652 0.1762 0.1514 0.4476-0.0318 0.6065-0.0865 0.0752-0.1951 0.1121-0.3029 0.1119z" fill="#000"/>
<path d="m60.508 71.917c-0.0672 2e-4 -0.1353-0.0138-0.1996-0.0431-1.3299-0.6026-1.3971-2.2521-0.232-5.6936 1.1762-3.4749 0.4159-4.819-1.4158-7.5278-0.8935-1.3215-1.0188-2.75-1.14-4.1314-0.1433-1.6349-0.2785-3.1789-1.71-4.3947-2.5385-2.1563-5.133-1.0801-5.2423-1.033-0.2332 0.1-0.5107 0.0028-0.6173-0.2191-0.1071-0.2217-0.0053-0.4834 0.2279-0.5856 0.1308-0.0574 3.2464-1.3763 6.254 1.1782 1.7081 1.4509 1.8655 3.2455 2.0174 4.981 0.1169 1.3322 0.227 2.5907 0.9952 3.727 1.892 2.7978 2.8187 4.4364 1.519 8.2761-1.3911 4.1092-0.5356 4.4967-0.2546 4.6242 0.2326 0.1053 0.3309 0.3696 0.2201 0.59-0.0798 0.1595-0.2475 0.2522-0.422 0.2518z" fill="#212120"/>
<path d="m52.793 52.207c-0.2378-5e-4 -0.43-0.2033-0.4294-0.4448 1e-4 -0.0661 0.0114-0.1506 0.0506-0.4333 0.1637-1.1818 0.6618-4.7777-0.017-7.1797-0.0657-0.2321 0.0664-0.4745 0.295-0.5411 0.2281-0.0663 0.4673 0.0671 0.5329 0.2998 0.7294 2.5808 0.212 6.3154 0.0423 7.5429-0.0231 0.1661-0.0395 0.2789-0.0426 0.3261-5e-4 0.2414-0.1938 0.4306-0.4318 0.4301z" fill="#000"/>
<path d="m53.492 52.208c-0.1736-4e-4 -0.3258-0.1626-0.3521-0.3892-0.0216-0.1853-0.5172-4.5781 0.3916-7.9185 0.0647-0.2382 0.2681-0.3649 0.4551-0.282 0.1865 0.0824 0.2852 0.3426 0.2203 0.5809-0.8517 3.1307-0.3646 7.4416-0.3596 7.4849 0.0289 0.2492-0.1059 0.4818-0.3013 0.519-0.018 0.0034-0.0361 5e-3 -0.054 0.0049z" fill="#000"/>
<path d="m52.036 52.205c-0.0376-1e-4 -0.0753-0.0076-0.1128-0.0231-0.1871-0.0782-0.288-0.3313-0.2251-0.5655 0.4318-1.612 1.2072-6.0472-0.3698-7.1956-0.1707-0.1244-0.2281-0.3978-0.1288-0.6111 0.0999-0.2131 0.319-0.2849 0.4889-0.1614 2.4006 1.7478 0.7585 7.987 0.6873 8.2518-0.0501 0.187-0.19 0.3052-0.3397 0.3049z" fill="#000"/>
<path d="m54.046 52.209c-0.1457-3e-4 -0.2741-0.1456-0.2999-0.3524-0.0227-0.1798-0.5387-4.4357 0.5146-7.4091 0.0749-0.2111 0.258-0.298 0.4096-0.1941 0.1513 0.1041 0.2135 0.3595 0.1386 0.5709-0.9658 2.7259-0.4659 6.8433-0.4607 6.8845 0.029 0.2319-0.0822 0.4529-0.2486 0.4934-0.0179 0.0047-0.036 0.0068-0.0536 0.0068z" fill="#000"/>
<path d="m68.73 168.95s4.7238 56.901 4.1793 74.536c0 0 10.534 0.547 11.079 3.455 0.5456 2.908-17.981 6.075-17.619 1.31 0.363-4.765-8.7193-67.484-13.623-79.301-4.9042-11.817 15.984 0 15.984 0z" fill="#8E5F51"/>
<path d="m46.786 170.24s-3.7981 49.618-4.8823 58.395c-1.0853 8.777-3.6163 15.046 0 16.301 3.6174 1.254 7.8559 2.149 8.0874 3.94 0.2304 1.791-4.0815 1.939-11.871 1.777-7.7893-0.165-6.5244-2.135-4.8981-7.151 1.6286-5.015-1.4445-69.501-0.1796-73.979 1.2649-4.479 13.743 0.717 13.743 0.717z" fill="#8E5F51"/>
<path d="m73.509 246.54c2.6056-0.485 3.7812-1.654 4.2829-2.841 2.8564 0.516 5.9081 1.434 6.196 3.034 0.556 3.07-18.322 6.414-17.953 1.382 0.0231-0.302 0.0092-0.834-0.0347-1.557 2.1605 0.33 4.8273 0.483 7.5091-0.018z" fill="#212120"/>
<path d="m40.999 248c1.9868-0.313 3.2045-0.785 3.9466-1.305 2.6103 0.698 4.8773 1.39 5.0456 2.471 0.2304 1.497-4.0821 1.621-11.872 1.485-6.3898-0.112-6.6846-1.243-5.6872-3.958 2.049 0.913 4.7779 1.904 8.5675 1.307z" fill="#212120"/>
<path d="m65.017 91.698s10.817 29.456 33.868 0l8.1156 1.3811s-8.3909 16.663-24.033 19.316c-15.642 2.654-23.967-13.003-23.967-13.003l6.0167-7.6942z" fill="#8E5F51"/>
<path d="m66.963 82.378s-0.704-3.324-0.6148-6.0196c0.0913-2.6957-4.8761-14.285-15.083-14.645-10.207-0.3591-16.62 5.6605-23.214 19.138 0 0 7.7687 4.3116 8.581 6.9174 0.8135 2.6059-1.5354 1.7979-1.7159 4.8515-0.1806 3.0558 1.6245 20.666 2.0781 23.9 0 0-6.3235 4.402-7.4077 12.848-1.0831 8.446-7.5871 41.331-7.5871 41.331h56l-7.7676-37.932s-1.8051-10.047-7.0444-14.359l1.7837-23.362s8.115-5.9299 1.9912-12.668z" fill="#1400F9"/>
<path d="m78 170.7h-56s0.5099-2.39 1.2658-6h53.411l1.3234 6z" fill="#0E0572"/>
<path d="m77 161.7h-53c0.376-2.175 0.7843-4.541 1.2051-7h50.509l1.2856 7z" fill="#0E0572"/>
<path d="m75 149.7h-49c0.4009-2.017 0.7959-4.038 1.1771-6h46.528l1.2953 6z" fill="#0E0572"/>
<path d="m72 139.7h-44c0.4098-2.579 0.7764-4.963 1.0727-7h41.657l1.2702 7z" fill="#0E0572"/>
<path d="m98 90.698c0 2.7614 2.24 5 4.999 5 2.763 0 5.001-2.2386 5.001-5 0-2.7613-2.238-5-5.001-5-2.759 0-4.999 2.2387-4.999 5z" fill="#8E5F51"/>
<path d="m46 48.698v14.458l12 15.542-3.4035-14.488v-14.609l-8.5965-0.9029z" fill="#74483C"/>
<path d="m27.848 80.698s-14.123 28.738-1.8065 68.113c0 0 3.0147 10.013 8.9685 7.474 5.9526-2.539 1.6729-11.059-1.3011-17.22-2.9787-6.163-6.3848-41.628 3.4108-50.089 0 0 0.6796-3.3837-9.2717-8.2787z" fill="#8E5F51"/>
<path d="m25.857 147.7c-0.3046-1.245-0.5912-2.479-0.8566-3.704l8.6665-4.296c0.442 1.116 0.8967 2.282 1.3335 3.468l-9.1434 4.532z" fill="#603E1C"/>
<path d="m47.638 72.891c-0.1295 0.0588-0.2853 0.0582-0.4275-0.0157-2.2078-1.1458-3.2982-4.237-3.2399-9.1872 0.0273-2.3327-1.6334-4.2888-3.3918-6.3597-1.0287-1.2115-2.0924-2.4642-2.868-3.8559-2.1566-3.8705-1.2635-8.0075 0.9239-9.4426 2.0983-1.3782 4.6118-0.0891 4.7179-0.0334 0.2563 0.1346 0.3718 0.4554 0.2581 0.7175-0.1139 0.2617-0.4129 0.3652-0.6686 0.2318-0.0209-0.0109-2.109-1.07-3.7355-3e-3 -1.5659 1.0277-2.655 4.3901-0.6267 8.0305 0.7204 1.2928 1.747 2.5019 2.7397 3.6709 1.8181 2.1414 3.6984 4.3558 3.6658 7.1166-0.0363 3.0821 0.3914 7.0007 2.633 8.164 0.2567 0.1333 0.3734 0.454 0.2607 0.7165-0.0498 0.1166-0.1371 0.2024-0.2411 0.2497z" fill="#212120"/>
<path d="m52.715 75.413c-0.0929 0.0422-0.1975 0.0614-0.3048 0.0507-4.3215-0.4389-6.7165-5.5187-6.776-10.076-0.029-2.2429-0.5061-3.0833-1.3729-4.6093-0.6156-1.0844-1.3818-2.4338-2.278-4.7593-2.3013-5.9715 2.1557-8.8916 2.2011-8.9205 0.2604-0.1655 0.6003-0.1072 0.7597 0.1301 0.1588 0.2371 0.0773 0.563-0.1818 0.7287-0.1563 0.1014-3.727 2.4887-1.738 7.6502 0.8707 2.2594 1.6174 3.5744 2.2173 4.6313 0.8826 1.5538 1.4655 2.5807 1.4977 5.0726 0.0462 3.5404 1.8928 8.7071 5.8541 9.1095 0.3008 0.0305 0.5041 0.2886 0.4532 0.5767-0.0323 0.1857-0.1626 0.3382-0.3316 0.415z" fill="#212120"/>
<path d="m52.294 78.019c-0.0904 0.0411-0.1937 0.0573-0.2994 0.0407-2.6408-0.4137-3.3114-3.1184-3.9035-5.5048-0.4105-1.6557-0.7986-3.2192-1.729-3.6992-2.5729-1.327-2.5622-2.6732-2.5357-5.9253 0.0042-0.4934 0.0084-1.0377 0.0049-1.6409-0.0127-2.0457-0.9309-3.3836-1.8189-4.6773-0.9793-1.4267-1.9918-2.9018-1.6764-5.1698 0.2061-1.483 0.7776-2.5862 1.699-3.2787 1.2508-0.9408 2.6782-0.7451 2.7387-0.7364 0.289 0.042 0.4902 0.3113 0.4486 0.6012-0.0409 0.2891-0.3073 0.489-0.5956 0.4488-0.2827-0.0381-2.7714-0.2733-3.2426 3.1143-0.2589 1.8592 0.5563 3.0464 1.4996 4.4209 0.9333 1.3596 1.9911 2.9009 2.0056 5.2735 0.0037 0.6086-7e-4 1.1578-0.0046 1.6557-0.0258 3.1866-0.0318 3.9437 1.9594 4.9711 1.3592 0.701 1.8038 2.4921 2.2742 4.3886 0.5618 2.2657 1.0926 4.4057 3.037 4.7098 0.2888 0.0452 0.4871 0.3167 0.4429 0.6061-0.0283 0.1837-0.1472 0.3304-0.3042 0.4017z" fill="#000"/>
<path d="m52.597 78.686c-0.0905 0.0411-0.1938 0.0573-0.2995 0.0406-2.6404-0.4138-3.3114-3.1184-3.9032-5.5049-0.4106-1.6556-0.7983-3.2192-1.7292-3.6993-2.5728-1.3265-2.5621-2.6725-2.5357-5.9244 0.0039-0.4935 0.0082-1.0378 0.0049-1.6415-0.0127-2.0457-0.9309-3.3835-1.8191-4.6775-0.9792-1.4267-1.9918-2.902-1.6763-5.1702 0.2061-1.4831 0.7779-2.586 1.699-3.2787 1.2516-0.9395 2.6786-0.7449 2.7385-0.736 0.2892 0.042 0.4904 0.3112 0.4488 0.6012-0.0411 0.2891-0.3082 0.4895-0.5963 0.4487-0.2867-0.0391-2.7713-0.2706-3.2419 3.1139-0.2589 1.8599 0.5561 3.0466 1.4996 4.4214 0.9333 1.36 1.991 2.9012 2.0056 5.2735 0.0037 0.609-8e-4 1.1585-0.0045 1.6565-0.0258 3.1861-0.0319 3.9432 1.959 4.9697 1.3598 0.701 1.8042 2.4926 2.2746 4.3891 0.5618 2.2655 1.0926 4.4053 3.0369 4.7099 0.2889 0.0455 0.4871 0.3167 0.4429 0.6061-0.0284 0.1839-0.1471 0.3305-0.3041 0.4019z" fill="#000"/>
<path d="m53.204 80.021c-0.0905 0.0411-0.1941 0.0567-0.3003 0.0388-2.6549-0.4448-3.352-3.2077-3.9674-5.6451-0.4266-1.691-0.83-3.2885-1.7684-3.7858-2.5947-1.3751-2.5955-2.7468-2.5976-6.0617-1e-4 -0.5029-6e-4 -1.0577-0.0095-1.6723-0.0307-2.0853-0.9641-3.4571-1.8673-4.7837-0.9954-1.4627-2.025-2.9754-1.7285-5.2844 0.1942-1.5097 0.7584-2.629 1.6772-3.3269 1.2486-0.9469 2.6829-0.7357 2.7431-0.7265 0.2908 0.0455 0.4951 0.3218 0.4559 0.6167-0.0386 0.2942-0.3041 0.4961-0.5941 0.4523-0.2835-0.0416-2.7848-0.3035-3.2284 3.1457-0.2435 1.8928 0.5852 3.1102 1.5443 4.5194 0.949 1.3942 2.0247 2.9744 2.06 5.3931 0.0092 0.6203 0.0095 1.1803 0.01 1.6875 0.0021 3.2479 0.0025 4.0196 2.0107 5.0838 1.3707 0.7265 1.8326 2.5561 2.3216 4.4935 0.5839 2.314 1.1356 4.4999 3.0906 4.8273 0.2905 0.0487 0.4918 0.3269 0.4499 0.6215-0.0267 0.1869-0.145 0.3355-0.3018 0.4068z" fill="#000"/>
<path d="m54.331 79.509c-0.0829 0.0376-0.1785 0.0506-0.2775 0.0306-2.4714-0.4904-3.1806-3.1776-3.8067-5.5485-0.4341-1.645-0.8445-3.1985-1.7257-3.7008-2.437-1.3888-2.4691-2.7154-2.5468-5.9202-0.0117-0.4861-0.0248-1.0225-0.0471-1.6175-0.0758-2.017-0.9727-3.3646-1.84-4.6678-0.9564-1.4371-1.9455-2.923-1.7229-5.1488 0.1454-1.4555 0.6432-2.5249 1.4788-3.1784 1.1357-0.8882 2.4701-0.6506 2.5263-0.6401 0.2706 0.0506 0.4662 0.3224 0.4366 0.6069-0.0292 0.2838-0.2716 0.4729-0.5411 0.4236-0.2678-0.0469-2.5881-0.3546-2.9202 2.9681-0.1825 1.8246 0.6133 3.0206 1.5348 4.4048 0.9115 1.3697 1.9447 2.922 2.0326 5.2615 0.0227 0.6 0.0357 1.1414 0.0477 1.6321 0.0762 3.14 0.0943 3.8861 1.9803 4.9611 1.2873 0.7337 1.7575 2.5134 2.2548 4.3977 0.5942 2.251 1.1555 4.377 2.9753 4.7379 0.2703 0.0536 0.4634 0.3273 0.4313 0.6113-0.0204 0.1803-0.1266 0.3211-0.2705 0.3865z" fill="#000"/>
<path d="m45.529 74.655c-0.1093 0.0497-0.2366 0.0616-0.3614 0.0247-4.2902-1.271-6.1468-4.6726-5.3702-9.837 0.4358-2.898 0.2713-4.3699-1.5224-6.8599-1.9243-2.6711-3.914-5.4333-2.0936-9.0392 1.7929-3.5506 6.5163-3.6909 6.7158-3.6952 0.2881-6e-3 0.5281 0.2241 0.5364 0.5139 0.0079 0.2897-0.2187 0.5288-0.5062 0.5357-0.0427 0.0011-4.3048 0.1352-5.8153 3.1264-1.5323 3.0349 0.1075 5.3108 2.0059 7.9463 2.0368 2.8275 2.1725 4.5668 1.7111 7.6364-0.6973 4.6341 0.8594 7.55 4.6266 8.666 0.2768 0.082 0.4368 0.374 0.3573 0.652-0.0437 0.1524-0.1508 0.2694-0.284 0.3299z" fill="#000"/>
<path d="m50.728 77.122c-0.1493 0.0679-0.33 0.0574-0.4797-0.044-0.2315-0.1572-0.2996-0.4735-0.1521-0.7063 0.3649-0.576 0.409-1.3884 0.1242-2.2879-0.4007-1.265-1.5833-2.9384-3.7012-3.8408-3.788-1.6144-3.4596-5.3604-3.1698-8.665 0.127-1.4479-0.6436-2.6869-1.5363-4.1221-0.9427-1.5159-2.0116-3.234-2.0751-5.4836-0.1282-4.5183 4.3612-5.5555 4.4061-5.5655 0.2671-0.0586 0.5358 0.117 0.6002 0.3916 0.0641 0.2746-0.1008 0.544-0.3662 0.6039-0.1535 0.0337-3.7503 0.8825-3.6455 4.5671 0.0554 1.9654 1.0013 3.4858 1.9158 4.9565 0.9511 1.5291 1.8495 2.9735 1.6919 4.7694-0.3334 3.8006-0.3367 6.3836 2.5405 7.6098 2.042 0.8701 3.6839 2.5897 4.2851 4.4882 0.379 1.1965 0.297 2.3144-0.2309 3.1474-0.0522 0.0829-0.125 0.144-0.207 0.1813z" fill="#212120"/>
<path d="m44.158 73.668c-0.0992 0.0451-0.213 0.0594-0.3281 0.0345-1.8886-0.4151-3.404-1.4704-4.2673-2.9714-0.7626-1.3259-0.9641-2.9139-0.5394-4.2473 0.0842-0.2652 0.1663-0.5055 0.243-0.7298 0.5498-1.6111 0.7777-2.2777-0.5218-5.8345l-0.0908-0.2489c-1.5324-4.1922-2.4572-6.7227-0.4365-9.6612 2.0454-2.9733 5.4455-2.8393 5.59-2.8321 0.2906 0.0146 0.5163 0.2635 0.5043 0.5561-0.0121 0.2922-0.257 0.5176-0.547 0.5036-0.1221-0.0053-2.9713-0.1022-4.6791 2.3812-1.7112 2.4878-0.9055 4.6917 0.557 8.693l0.0909 0.249c1.374 3.762 1.1694 4.6721 0.53 6.5457-0.0744 0.218-0.1542 0.4516-0.2363 0.7091-0.3354 1.0531-0.1687 2.3206 0.4467 3.3901 0.5032 0.8749 1.5316 2.0122 3.5735 2.4612 0.2846 0.0626 0.4671 0.3452 0.407 0.6315-0.0358 0.1702-0.1495 0.3036-0.2961 0.3702z" fill="#212120"/>
<path d="m45.046 75.679c-0.1029 0.0467-0.2211 0.0612-0.3394 0.0334-0.2841-0.0668-0.4601-0.3514-0.3933-0.6355 0.5721-2.4326-0.3236-4.6611-2.4572-6.1141-2.4271-1.6526-3.8306-2.9587-2.8579-7.1502 0.7981-3.4372-0.2279-6.6457-1.3143-10.043-0.1037-0.3242-0.2078-0.6501-0.3111-0.9776-1.1996-3.8089-0.3922-6.8087 2.1599-8.0242 2.5344-1.1979 3.5004 0.277 3.5402 0.3408 0.155 0.2473 0.0803 0.5737-0.167 0.7287-0.2453 0.1511-0.5641 0.0823-0.7218-0.1568-0.034-0.0466-0.5553-0.7057-2.1068-5e-4 -0.0297 0.0135-0.0594 0.0274-0.0898 0.0421-2.063 0.9827-2.6489 3.4438-1.6065 6.7526 0.1027 0.3263 0.2065 0.6505 0.3097 0.9728 1.1318 3.5399 2.2008 6.8831 1.3375 10.604-0.8423 3.6278 0.1925 4.5189 2.423 6.0376 2.5148 1.7126 3.5688 4.3478 2.8911 7.2298-0.0393 0.1659-0.1525 0.2948-0.2963 0.3602z" fill="#212120"/>
<path d="m48.884 76.35c-0.1298 0.059-0.2793 0.0759-0.4216 0.0375-3.9127-1.0608-4.9417-5.2807-4.6342-8.5724 0.2938-3.1397-0.9556-4.9797-3.0255-8.0287l-0.1153-0.1701c-2.2767-3.3555-4.2719-7.2481-1.81-10.677 2.5549-3.5586 5.5544-2.4432 5.5846-2.4313 0.2867 0.1113 0.4032 0.4267 0.2599 0.7045-0.1424 0.2761-0.4886 0.4101-0.7744 0.3009-0.0981-0.0355-2.1633-0.7498-4.1222 1.9776-2.0776 2.8942-0.2272 6.4244 1.8566 9.4961l0.1154 0.1699c2.1159 3.1166 3.5134 5.1754 3.187 8.6669-0.2725 2.9109 0.5811 6.6276 3.8821 7.5223 0.3004 0.0815 0.4533 0.3805 0.3418 0.6685-0.0584 0.1516-0.1792 0.2696-0.3242 0.3355z" fill="#000"/>
<path d="m53.43 78.308c-0.1124 0.0512-0.2449 0.0591-0.3744 0.0124-3.5598-1.2901-4.7299-5.5603-4.6506-8.825 0.076-3.114-1.1499-5.0234-3.1806-8.1876l-0.1136-0.1766c-2.2339-3.4819-4.2482-7.4828-2.2519-10.757 2.0716-3.3979 4.8187-2.1067 4.8462-2.0933 0.263 0.1283 0.3859 0.4498 0.2742 0.7181-0.1109 0.2668-0.4121 0.3804-0.6742 0.2542-0.0896-0.041-1.9779-0.8765-3.5662 1.7277-1.6847 2.763 0.1784 6.3939 2.2233 9.5812l0.1134 0.1767c2.0759 3.2339 3.4472 5.3703 3.3631 8.8335-0.0706 2.887 0.9129 6.6449 3.9161 7.733 0.2732 0.099 0.4278 0.4066 0.3452 0.6871-0.0434 0.1473-0.1442 0.2582-0.27 0.3153z" fill="#212120"/>
<path d="m47.565 76.949c-0.1169 0.0532-0.253 0.0657-0.3838 0.0257-0.2795-0.0856-0.4304-0.3788-0.3375-0.6551 0.7102-2.1106-2.5513-5.4365-4.7095-7.6371-1.7259-1.7597-1.3045-3.7348-0.897-5.6451 0.2077-0.9725 0.4223-1.9781 0.3502-2.9566-0.0766-1.0397-0.8302-1.8684-1.703-2.8276-1.3157-1.4463-2.9528-3.2463-2.4346-6.408 0.8704-5.3094 6.2963-5.3951 6.3509-5.3951 0.2946-0.0013 0.5294 0.2321 0.5244 0.5214-0.0046 0.2888-0.2466 0.524-0.5409 0.5258-0.1858 2e-3 -4.56 0.0914-5.2817 4.493-0.438 2.6737 0.8951 4.1392 2.1839 5.5561 0.9575 1.0528 1.862 2.0476 1.9644 3.4371 0.0831 1.125-0.1475 2.2042-0.3704 3.2478-0.3829 1.7961-0.7143 3.3473 0.6292 4.7162 2.4719 2.5208 5.8571 5.973 4.9455 8.6812-0.0489 0.1473-0.1573 0.26-0.2901 0.3203z" fill="#000"/>
<path d="m46.326 77.512c-0.1177 0.0535-0.2545 0.0665-0.3853 0.0267-0.2774-0.0841-0.4242-0.3728-0.3283-0.645 0.0295-0.0865 0.7184-2.1909-1.3841-3.5829-2.6161-1.7322-3.3156-4.2043-2.2669-8.0153 0.9046-3.2896-0.8323-5.4723-3.3846-8.1974-2.5726-2.7472-2.9017-6.9053-0.7657-9.6724 1.9919-2.5804 5.7693-2.2482 5.9295-2.2327 0.2907 0.0279 0.4951 0.2802 0.4564 0.5638-0.038 0.2835-0.3051 0.4902-0.5955 0.4627-0.0403-0.0035-3.3347-0.2817-4.9487 1.8073-1.5795 2.046-1.7419 5.7338 0.7208 8.3635 2.6834 2.8651 4.6538 5.3574 3.6134 9.1403-0.9407 3.4191-0.402 5.4244 1.8594 6.9218 2.208 1.4618 2.1232 3.7435 1.77 4.7461-0.0506 0.1431-0.1586 0.2536-0.2904 0.3135z" fill="#000"/>
<path d="m43.717 77.088c-0.1791 0.0814-0.3965 0.0585-0.5574-0.0771-0.2222-0.1877-0.2504-0.5201-0.0633-0.7424 0.2262-0.2689 0.9154-1.0867-2.5296-4.8993-3.2193-3.5622-3.0708-5.7707-2.4981-9.6852 0.2321-1.5896-0.2716-3.0064-0.8052-4.506-0.6947-1.9538-1.4132-3.9742-0.3692-6.3415 1.8388-4.1677 5.6882-4.184 5.8509-4.1828 0.2907 0.0026 0.5248 0.2402 0.5227 0.5315-0.0022 0.2905-0.2393 0.5236-0.5282 0.5224-0.1355-5e-4 -3.3303 0.0366-4.8822 3.5555-0.8751 1.9839-0.2568 3.7219 0.3977 5.5624 0.5531 1.5555 1.1249 3.1634 0.8545 5.0121-0.5538 3.7901-0.6761 5.6018 2.2374 8.8253 2.8852 3.1929 3.6253 5.014 2.5544 6.2854-0.052 0.0618-0.1154 0.1083-0.1844 0.1397z" fill="#212120"/>
<path d="m43.735 26.85s19.265-6.1522 21.322 2.8714l2.6754 9.872c2.0169 7.4469-2.9596 15.2-11.115 17.32-8.1583 2.1175-16.404-2.1996-18.422-9.6455l-2.2712-8.3825c8.1638-1.4776 7.8104-12.035 7.8104-12.035z" fill="#8E5F51"/>
<path d="m58.373 46.208s-19.265 6.1522-21.322-2.8714l-2.6754-9.872c-2.0169-7.4469 2.9596-15.2 11.115-17.32 8.1583-2.1174 16.404 2.1996 18.422 9.6456l2.2712 8.3825c-8.1638 1.4776-7.8104 12.035-7.8104 12.035z" fill="#8E5F51"/>
<path d="m37.571 39.525c-0.7981-0.4466-1.814-0.6207-2.8318-0.3822-1.8671 0.4386-3.002 2.0624-2.5335 3.6262 0.4695 1.5659 2.3639 2.4791 4.232 2.0415 1.0167-0.2385 1.8032-0.8335 2.2451-1.5721l-1.1118-3.7134z" fill="#8E5F51"/>
<path d="m51.127 37.418c0.4266-0.1097 0.755-0.3542 0.9493-0.7067 0.4054-0.7369 0.0874-1.6918 0.0508-1.7976-0.0936-0.2631-0.3824-0.4021-0.6593-0.3174-0.2718 0.0902-0.4176 0.3753-0.3262 0.6393 0.0567 0.1657 0.1806 0.7016 0.0157 0.9996-0.0399 0.0698-0.1088 0.1573-0.2985 0.2058-0.7391 0.1896-1.2565-0.9141-1.2625-0.9249-0.1168-0.2545-0.4217-0.3711-0.6869-0.2585-0.2608 0.1127-0.3801 0.4096-0.2644 0.6641 0.3201 0.7098 1.2046 1.8243 2.482 1.4963z" fill="#212120"/>
<path d="m62.296 34.959c0.4276-0.1094 0.7549-0.3533 0.9492-0.705 0.4064-0.7352 0.0872-1.6891 0.0506-1.7937-0.0914-0.2623-0.386-0.4192-0.6583-0.3156-0.2716 0.0878-0.4175 0.3734-0.3272 0.6378 0.0567 0.1642 0.1807 0.699 0.0158 0.9963-0.0388 0.0708-0.1077 0.157-0.2974 0.2054-0.739 0.1891-1.2577-0.9112-1.2637-0.923-0.1168-0.254-0.4227-0.3725-0.6847-0.2569-0.2629 0.1113-0.3811 0.4075-0.2665 0.6615 0.3212 0.7083 1.2059 1.8194 2.4822 1.4932z" fill="#212120"/>
<path d="m61.727 39.076l-3.6748 0.9395-1.9542-7.0999 1.1972-0.3078 4.4318 6.4682z" fill="#74483C"/>
<path d="m60.623 49.559c-1.6113 0.4904-3.2578-0.581-3.6763-2.3963l5.8394-1.7773c0.4175 1.8141-0.5507 3.682-2.1631 4.1736z" fill="#1400F9"/>
<path d="m40.782 38.639s4.2184-2.0587 6.7184-8.0586c2.5-3.5001 3.5-6.5001 3.5-6.5001 3.5 4.5 5 4.0001 11.5 8.0001h3.5s-0.3636-0.7709-1.2234-6.5314c-0.8604-5.7601-7.2833-18.026-21.279-13.309-13.995 4.7166-13.344 19.35-5.4979 27.841l2.7816-1.4413z" fill="#3C3C3C"/>
<path d="m37.549 37.362c-3.0459 0.8665-4.9657-0.3561-5.0833-0.4341-0.364-0.241-0.4914-0.7459-0.2852-1.1276 0.2047-0.3789 0.6627-0.4947 1.0263-0.2586 0.1541 0.0973 3.4774 2.092 8.5532-2.6183 5.37-4.9837 7.7131-16.806 7.7361-16.925 0.0587-0.3011 0.2699-0.5236 0.5511-0.5965 0.279-0.0635 0.5753 0.0512 0.7631 0.296 2.3114 3.0032 9.0864 10.39 12.63 8.5296 0.372-0.191 0.8276-0.02 1.025 0.3878 0.197 0.4076 0.058 0.8951-0.311 1.0891-4.4036 2.3102-10.963-4.742-13.511-7.7846-0.8365 3.4777-3.2717 12.002-7.8647 16.265-1.9619 1.8201-3.7319 2.7513-5.2294 3.1773z" fill="#212120"/>
<path d="m36.712 34.352c-2.1457 0.6104-3.4761 0.3715-3.5671 0.3534-0.41-0.0795-0.6893-0.4899-0.6238-0.9152 0.0653-0.4263 0.453-0.707 0.861-0.627 0.0274 0.0049 3.2238 0.528 7.7981-2.8484 4.6788-3.4533 8.2331-15.34 8.268-15.46 0.122-0.4108 0.5416-0.6323 0.939-0.4951 0.397 0.1379 0.6205 0.582 0.4994 0.9931-0.1506 0.5087-3.7404 12.504-8.8167 16.251-2.0721 1.5297-3.9027 2.3346-5.3579 2.7485z" fill="#212120"/>
<path d="m33.337 34.229c-0.079 0.0225-0.1638 0.0313-0.2508 0.0249-0.408-0.0312-0.7201-0.3966-0.6971-0.816 0.2476-4.5137 2.6017-12.922 8.0732-17.583 5.4523-4.6457 10.3-0.7665 10.348-0.7264 0.3223 0.2646 0.3791 0.7442 0.1275 1.0711-0.251 0.3272-0.7147 0.3762-1.037 0.1136-0.1692-0.1366-3.9749-3.1194-8.4833 0.722-5.1142 4.3579-7.3181 12.264-7.5509 16.516-0.0182 0.3299-0.2382 0.5952-0.5296 0.6781z" fill="#212120"/>
<path d="m33.805 31.931c-0.4034 0.1148-0.8261-0.1075-0.9504-0.5042-0.1265-0.4036 0.1029-0.8345 0.5124-0.9622 9.235-2.8882 15.301-14.321 15.361-14.436 0.1977-0.3779 0.6663-0.5271 1.0464-0.3363 0.3809 0.1917 0.5291 0.6531 0.3323 1.0302-0.2584 0.4935-6.432 12.122-16.282 15.202-0.0065 0.0024-0.0135 0.0044-0.0202 0.0063z" fill="#212120"/>
<path d="m37.892 27.52c-0.1857 0.0529-0.3948 0.0192-0.5771-0.1123-0.3428-0.2471-0.4616-0.7457-0.2656-1.1133 2.2246-4.1673 10.681-10.052 11.04-10.301 0.3235-0.2252 0.7699-0.0986 0.995 0.2839 0.2246 0.3814 0.1425 0.8733-0.1825 1.0983-0.0852 0.0588-8.5475 5.9472-10.611 9.8128-0.0917 0.1723-0.236 0.2853-0.399 0.3316z" fill="#212120"/>
<path d="m64.34 27.575c-6.4501 1.8349-14.15-8.4134-14.477-8.8547-0.2572-0.3466-0.1859-0.8363 0.159-1.0934 0.3442-0.2571 0.8334-0.1858 1.091 0.1611 0.0737 0.0992 7.38 9.8246 12.797 8.2837 0.0455-0.0129 0.0897-0.0263 0.1345-0.0408 0.0084-0.0026 0.017-0.0051 0.0255-0.0075 0.4028-0.1146 0.8267 0.111 0.9556 0.514 0.1321 0.4114-0.0933 0.8513-0.5029 0.983-0.0603 0.0189-0.1213 0.0373-0.182 0.0546z" fill="#212120"/>
<path d="m61.955 22.84c-5.645 1.6059-11.697-7.0616-11.97-7.4589-0.2392-0.3469-0.1491-0.821 0.2-1.0602 0.3511-0.2397 0.8269-0.1511 1.0656 0.1951 0.0645 0.0931 6.4546 9.246 11.195 6.4649 0.367-0.2166 0.8355-0.095 1.0494 0.2675 0.215 0.3623 0.0926 0.83-0.2725 1.0446-0.418 0.2464-0.8415 0.4259-1.2673 0.547z" fill="#212120"/>
<path d="m60.773 22.094c-0.2905 0.0826-0.618-0.0137-0.8288-0.273-2.2435-2.7588-8.5857-6.3424-8.6498-6.3781-0.3893-0.2189-0.5413-0.7203-0.3395-1.1198 0.2028-0.3989 0.6815-0.5452 1.0711-0.3266 0.2718 0.1527 6.6809 3.7753 9.1226 6.7781 0.286 0.3521 0.2483 0.8718-0.0842 1.1609-0.0875 0.0762-0.1872 0.1288-0.2914 0.1585z" fill="#212120"/>
<path d="m36.383 39.858c-0.4485 0.1275-0.9068 0.2401-1.3789 0.337-0.4148 0.0855-0.8198-0.1805-0.9041-0.5929-0.0845-0.4129 0.1767-0.8194 0.5979-0.9018 13.023-2.6787 16.087-18.583 16.116-18.743 0.0759-0.4145 0.4734-0.6913 0.8915-0.6159 0.4162 0.0739 0.6927 0.4701 0.6168 0.8855-0.0297 0.164-3.0552 15.966-15.94 19.631z" fill="#000"/>
<path d="m35.667 38.98c-0.8751 0.2489-1.5855 0.2645-2.1411 0.0508-0.7381-0.2844-0.9214-0.8599-0.9501-0.9724-0.106-0.4061 0.1414-0.8369 0.5414-0.9251 0.3717-0.097 0.7512 0.1015 0.892 0.4493 0.1082 0.0659 1.1914 0.555 5.3137-2.1782 5.5005-3.646 10.616-16.347 10.92-17.402 0.0258-0.2355 0.1605-0.4551 0.3826-0.5795 0.3633-0.2027 0.8259-0.0736 1.0308 0.2928 0.1864 0.334 0.2429 0.435-0.8497 3.0032-0.5192 1.2207-1.3778 3.1314-2.519 5.3029-1.9361 3.6842-4.9178 8.5218-8.1284 10.65-1.8154 1.2038-3.3055 1.9704-4.4925 2.3081z" fill="#000"/>
<path d="m33.909 28.653c-0.0893 0.0254-0.1852 0.0335-0.2837 0.021-0.4032-0.0501-0.6952-0.4256-0.6517-0.8381 0.0392-0.3767 1.0318-9.2765 7.1415-14.102 2.1865-1.7265 4.329-2.4476 6.37-2.1442 2.6019 0.3871 4.0359 2.3204 4.0957 2.4025 0.2444 0.3352 0.1802 0.806-0.1434 1.051-0.3233 0.2455-0.7811 0.1728-1.0256-0.1608-0.0191-0.0246-1.1573-1.5224-3.1381-1.807-1.6292-0.2344-3.395 0.3897-5.2514 1.8557-5.6284 4.4448-6.5804 13.001-6.5895 13.087-0.0328 0.3117-0.2469 0.5553-0.5238 0.6343z" fill="#000"/>
<path d="m33.351 34.225c-0.1332 0.0379-0.2785 0.0377-0.4224-0.0085-0.4024-0.1296-0.6357-0.5727-0.5221-0.9891 0.0946-0.3457 2.3715-8.5361 7.4132-14.817 5.3579-6.673 10.96-3.0364 11.016-2.9988 0.3556 0.2387 0.4664 0.7279 0.2476 1.0936-0.2192 0.3643-0.6836 0.4677-1.0393 0.2306-0.1951-0.1278-4.5643-2.8842-9.0529 2.7082-4.8445 6.0344-7.1057 14.172-7.1279 14.253-0.0736 0.2676-0.2725 0.4591-0.5122 0.5273z" fill="#000"/>
<path d="m33.665 35.218c-0.105 0.0299-0.2177 0.0383-0.3331 0.021-0.4263-0.0647-0.7189-0.4591-0.653-0.8833 0.0248-0.1607 0.6586-4.0164 4.9295-11.056 4.4087-7.2661 12.527-7.65 12.87-7.6621 0.433-0.0164 0.7948 0.3188 0.8093 0.7483 0.0147 0.4298-0.3243 0.7898-0.756 0.8067-0.0881 0.0034-7.6253 0.3864-11.583 6.9063-4.0841 6.7312-4.7166 10.452-4.7224 10.489-0.0494 0.3094-0.2766 0.5485-0.5618 0.6296z" fill="#000"/>
<path d="m35.495 33.615c-0.4033 0.1147-0.8128 0.208-1.2314 0.2795-0.4108 0.0698-0.8142-0.2425-0.9014-0.698-0.0875-0.4553 0.1664-0.8811 0.5845-0.9506 9.2342-1.5767 14.756-16.014 14.81-16.16 0.1566-0.4171 0.5999-0.5962 0.9879-0.3997 0.3896 0.1961 0.5786 0.6926 0.4225 1.1095-0.2256 0.601-5.4137 14.185-14.672 16.819z" fill="#000"/>
<path d="m35.235 29.359c-0.3161 0.0899-0.667-0.0293-0.8565-0.317-0.2331-0.354-0.1322-0.8306 0.2248-1.0636 6.7751-4.4196 14.19-12.056 14.264-12.132 0.2957-0.3064 0.7848-0.3165 1.0915-0.023 0.3071 0.2933 0.3156 0.7794 0.0195 1.0857-0.0753 0.0778-7.6123 7.8394-14.532 12.354-0.0671 0.0436-0.1381 0.0759-0.2119 0.0969z" fill="#000"/>
<path d="m66.914 32.256c-0.2556 0.0727-0.5385 0.0286-0.7412-0.14-0.0172-0.0136-2.1341-1.6786-7.7189-2.4229-6.3209-0.8425-8.7705-7.6818-8.872-7.9726-0.1285-0.3691 0.1024-0.7806 0.5161-0.9193 0.4088-0.1386 0.8536 0.0472 0.9826 0.4161 0.0225 0.0631 2.282 6.3413 7.6888 7.0614 6.095 0.8126 8.4013 2.6771 8.4966 2.7561 0.3108 0.2579 0.3178 0.709 0.0165 1.0076-0.1048 0.1036-0.2329 0.1751-0.3685 0.2136z" fill="#000"/>
<path d="m66.385 30.241c-0.0552 0.0158-0.1131 0.0257-0.1733 0.0288-0.0894 0.0043-2.2545 0.0869-7.697-1.7159-5.6271-1.8645-8.0946-7.8126-8.1969-8.0647-0.1509-0.3725 0.0387-0.7984 0.4238-0.9515 0.388-0.1502 0.8191 0.025 0.9701 0.397 0.0372 0.0911 2.3457 5.5947 7.3056 7.2379 5.0992 1.6891 7.1288 1.6416 7.149 1.6408 0.4112-0.014 0.7545 0.297 0.7648 0.6973 0.01 0.3412-0.222 0.6381-0.5461 0.7303z" fill="#000"/>
<path d="m65.481 28.333c-7.4359 2.1153-15.034-8.2257-15.358-8.6734-0.2436-0.3368-0.15-0.806 0.2096-1.0482 0.3585-0.2435 0.8487-0.1671 1.0926 0.1698 0.0738 0.102 7.4736 10.177 13.902 8.0342 0.4134-0.1342 0.8567 0.0661 0.9902 0.4575 0.1329 0.3916-0.0941 0.8204-0.5079 0.959-0.1089 0.0361-0.2185 0.07-0.3279 0.1011z" fill="#000"/>
<path d="m61.788 21.805c-0.0211 0.0061-0.043 0.0115-0.065 0.0159-5.274 1.0432-11.442-6.1016-11.702-6.4065-0.2699-0.3158-0.2183-0.7888 0.1149-1.0561 0.3348-0.2663 0.8223-0.2275 1.0921 0.0881 1.6116 1.8858 6.5884 6.6234 10.214 5.906 0.4219-0.0831 0.8266 0.178 0.9041 0.5831 0.073 0.3841-0.1739 0.7601-0.5587 0.8695z" fill="#000"/>
<path d="m61.483 20.809c-0.3188 0.0907-0.6708-0.0132-0.8652-0.2822-3.9662-5.4876-8.877-5.1349-8.9263-5.1303-0.438 0.0374-0.8135-0.2686-0.8394-0.6841-0.0254-0.415 0.3079-0.7811 0.7473-0.8195 0.2376-0.0202 5.8707-0.4269 10.338 5.7528 0.2447 0.3385 0.1475 0.8099-0.2167 1.0535-0.075 0.0498-0.155 0.0863-0.2375 0.1098z" fill="#000"/>
<path d="m32.785 32.221c-0.0171 0.0049-0.0344 9e-3 -0.052 0.013-0.4091 0.0866-0.8085-0.1682-0.892-0.5695-1.4955-7.1529-1.125-11.708 5.0486-16.752 5.617-4.5897 11.404-2.6895 12.506-2.2619 0.7062 0.2739 1.0518 0.4816 1.1025 0.9193 0.048 0.4071-0.2505 0.7788-0.6651 0.829-0.2295 0.0284-0.4467-0.0475-0.6026-0.1901-0.9304-0.5445-6.3484-2.2709-11.382 1.8421-5.645 4.6125-5.9588 8.448-4.5263 15.3 0.0798 0.3835-0.1586 0.7623-0.5373 0.87z" fill="#000"/>
<path d="m65.24 26.236c-0.0015 5e-4 -0.0034 1e-3 -0.0047 0.0014-0.4003 0.111-0.8213-0.1473-0.9408-0.5768-1.5376-5.531-4.0066-9.3479-7.3385-11.344-4.024-2.4106-7.9287-1.2784-7.9666-1.2677-0.4163 0.1184-0.8232-0.1291-0.9512-0.5561-0.1274-0.4272 0.0911-0.8703 0.4884-0.9902 0.1908-0.0497 4.5487-1.325 9.1345 1.4217 3.7046 2.2197 6.424 6.3697 8.0823 12.334 0.1193 0.4277-0.1063 0.8639-0.5034 0.9768z" fill="#000"/>
<path d="m37.265 40.69c-1.0194 0.29-2.0801 0.4628-3.1795 0.5154-0.4258 0.0204-0.7811-0.2959-0.7931-0.7074-0.0122-0.4112 0.3245-0.7624 0.7488-0.7814 12.371-0.5972 15.008-17.982 15.033-18.157 0.0589-0.4088 0.4488-0.7014 0.8701-0.6529 0.4221 0.0477 0.7164 0.4183 0.6575 0.8274-0.027 0.1904-0.696 4.7162-3.0204 9.3941-2.5336 5.0982-6.0605 8.3516-10.316 9.5622z" fill="#000"/>
<path d="m34.944 38.103c-0.5383 0.1532-1.0773 0.2602-1.6174 0.3216-0.4056 0.0463-0.7764-0.256-0.8285-0.6744-0.0518-0.4185 0.2344-0.7974 0.6405-0.8409 4.8487-0.5519 9.7593-5.4182 14.588-14.467 0.4626-0.867 0.5338-1 0.7308-1.1358 0.337-0.2314 0.7987-0.1349 1.0294 0.2166 0.1973 0.299 0.164 0.687-0.0589 0.9383-0.0664 0.1073-0.2362 0.4251-0.4002 0.7328-4.5572 8.5402-9.2879 13.545-14.084 14.909z" fill="#000"/>
<path d="m65.942 32.532c-0.0484 0.0137-0.0995 0.0234-0.1517 0.0278-8.0896 0.7092-14.324-7.9018-16.042-10.558l-0.0642-0.0984c-0.2435-0.3123-0.158-0.7505 0.1809-0.9916 0.3386-0.2397 0.8197-0.1725 1.0631 0.1395 0.0132 0.0169 0.0539 0.0759 0.1176 0.1744 1.6079 2.4857 7.4165 10.546 14.658 9.9115 0.4166-0.0368 0.7744 0.2522 0.7982 0.6452 0.0211 0.344-0.2198 0.653-0.5593 0.7496z" fill="#000"/>
</svg>
