<svg width="73" height="238" viewBox="0 0 73 238" fill="none" xmlns="http://www.w3.org/2000/svg">
<path d="M28.4569 65.6879C28.4569 65.6879 30.3434 96.3209 59.1936 123.404C59.1936 123.404 66.4335 130.346 70.1685 125.429C73.905 120.51 66.3244 115.408 60.9398 111.663C55.5547 107.917 35.9452 79.9094 40.0647 68.2408C40.0647 68.2408 39.028 65.0957 28.4569 65.6879Z" fill="#74483C"/>
<path d="M26.9916 236.276C26.773 234.585 22.7699 233.74 19.3535 232.556C15.937 231.371 18.3295 225.453 19.3535 217.166C19.5327 215.718 19.7908 213.088 20.0937 209.741C17.4516 210.657 13.5776 209.679 11.4785 209C11.6854 220.231 11.7174 229.472 11.1564 231.202C9.61828 235.938 8.42258 237.798 15.7802 237.953C23.1368 238.106 27.2103 237.967 26.9916 236.276Z" fill="#212120"/>
<path d="M60.9887 234.306C60.4683 231.445 50.3986 230.908 50.3986 230.908C50.545 226.056 50.2967 218.182 49.863 209.355C47.3868 210.667 43.3993 209.76 41 209C42.9526 222.467 44.2904 233.697 44.1495 235.593C43.8026 240.281 61.5091 237.165 60.9887 234.306Z" fill="#212120"/>
<path d="M20.209 210.624C21.6085 194.65 24 162.42 24 162.42C24 162.42 12.4621 157.464 11.2904 161.736C10.5489 164.446 11.4199 190.188 11.7739 209.875C13.8302 210.561 17.6222 211.549 20.209 210.624Z" fill="#8E5F51"/>
<path d="M50 211.365C48.8526 189.661 46.4452 161.934 46.4452 161.934C46.4452 161.934 25.9126 150.833 30.733 161.934C33.6043 168.544 37.9284 192.099 40.8844 211.026C43.352 211.751 47.4532 212.618 50 211.365Z" fill="#8E5F51"/>
<path d="M44.1591 75.3006C44.1591 75.3006 43.4666 72.0375 43.5563 69.3913C43.645 66.7452 38.7653 55.3685 28.741 55.0149C18.7167 54.6623 12.4187 60.5716 5.94343 73.8012C5.94343 73.8012 13.5722 78.0337 14.371 80.5918C15.1688 83.1498 12.8619 82.3566 12.6857 85.3542C12.5085 88.3539 14.2813 105.641 14.7256 108.816C14.7256 108.816 8.51626 113.137 7.45145 121.428C6.38664 129.719 0 162 0 162H55L47.3702 124.764C47.3702 124.764 45.5962 114.901 40.4506 110.669L42.2046 87.7359C42.2046 87.7359 50.1735 81.9148 44.1591 75.3006Z" fill="#133250"/>
<path d="M27.6382 63.534C31.18 65.1072 35.7318 62.4547 38 59.2022C35.6901 56.9171 32.6588 55.1518 28.892 55.0139C27.2825 54.9552 25.7773 55.084 24.3456 55.3688C23.7451 57.6935 23.452 61.6738 27.6382 63.534Z" fill="#1367A4"/>
<path d="M26 45L35 45.782V57.9769C35 60.1994 32.9848 62 30.5 62C28.0152 62 26 60.1994 26 57.9769C26 57.8335 26.0304 57.6974 26.048 57.5582L26 57.5069V45Z" fill="#74483C"/>
<path d="M47.9156 17C47.9156 17 55.4971 33.7576 50.0016 38.5642C44.5061 43.3719 13 35.0336 13 29.3306C13 23.6265 47.9156 17 47.9156 17Z" fill="#212120"/>
<path d="M26.5362 43.1748C24.4472 50.8441 11.2638 52.044 8.84091 46.8051C6.41804 41.5674 10.1868 39.0212 10.1868 39.0212C-1.92529 25.3386 3.86181 3.61861 26.5362 0.443357C49.2094 -2.73189 57.8284 11.9545 50.3906 18.8338C42.9527 25.7143 24.8563 18.8338 24.8563 18.8338C24.8563 18.8338 25.7988 30.9101 15.9739 31.8929L26.5362 43.1748Z" fill="#212120"/>
<path d="M25.1814 19C25.1814 19 38.2827 24.1705 46.3339 20.9839L49.4 30.9851C51.7117 38.5295 47.1396 46.7026 39.1888 49.2432C31.2347 51.7817 22.9157 47.7267 20.603 40.1833L18 31.691C25.9871 29.8085 25.1814 19 25.1814 19Z" fill="#8E5F51"/>
<path d="M19.6554 31.4857C18.793 30.9973 17.7134 30.8438 16.651 31.1798C14.7022 31.7975 13.5804 33.7833 14.147 35.6144C14.7147 37.4479 16.755 38.4327 18.705 37.8162C19.7662 37.4802 20.5682 36.7332 21 35.8338L19.6554 31.4857Z" fill="#8E5F51"/>
<path d="M32.822 28.918C33.2795 28.7874 33.6241 28.524 33.8182 28.1569C34.2228 27.3893 33.8323 26.4323 33.7876 26.3264C33.6735 26.063 33.3536 25.9346 33.0572 26.0331C32.7667 26.1369 32.6221 26.4334 32.7338 26.6978C32.8032 26.8637 32.9631 27.4033 32.7985 27.7137C32.7585 27.7865 32.6879 27.8786 32.4845 27.9364C31.6918 28.1622 31.0778 27.0629 31.0708 27.0522C30.932 26.7984 30.5956 26.6935 30.3134 26.8199C30.0358 26.9462 29.9205 27.2534 30.0581 27.5071C30.4392 28.2147 31.4518 29.3087 32.822 28.918Z" fill="#212120"/>
<path d="M44.8215 25.9185C45.2802 25.7882 45.6236 25.5254 45.8177 25.1591C46.2234 24.3933 45.8318 23.4373 45.7871 23.3326C45.6753 23.0699 45.3484 22.9236 45.0579 23.041C44.7674 23.1425 44.6227 23.4394 44.7333 23.7043C44.8027 23.8688 44.9626 24.4071 44.7979 24.7169C44.7591 24.7906 44.6886 24.8814 44.4851 24.9391C43.6924 25.1644 43.0773 24.0686 43.0702 24.0568C42.9314 23.8037 42.5939 23.6969 42.3151 23.8261C42.0352 23.9511 41.9211 24.2576 42.0576 24.5107C42.4398 25.2168 43.4525 26.3073 44.8215 25.9185Z" fill="#212120"/>
<path d="M44 30.8057L40.3045 32L38 24.3909L39.2038 24L44 30.8057Z" fill="#74483C"/>
<path d="M42.8459 40.8589C41.2291 41.3662 39.5067 40.4631 39 38.8386L44.8594 37C45.365 38.6234 44.4638 40.3504 42.8459 40.8589Z" fill="#E84646"/>
<path d="M42.7732 9.26682C43.0055 9.19552 43.2094 9.10047 43.4057 9.00001L47 20.384C38.7743 23.5435 25.386 18.417 25.386 18.417C25.386 18.417 26.2105 29.1345 18.048 31L14 18.1826L42.7732 9.26682Z" fill="#212120"/>
<path d="M14 104C14.2416 106.335 14.4496 108.199 14.5664 109.063C14.5664 109.063 14.4799 109.126 14.345 109.234C21.5502 110.312 40.6606 111 40.6606 111L41 106.419C34.604 107.961 19.4227 105.113 14 104Z" fill="#444444"/>
<path d="M32.7422 74.9493C35.5589 75.1994 39.7789 74.4645 44 74.0492C43.7989 72.8805 43.5364 70.9856 43.5944 69.3332C43.6171 68.6722 43.3103 67.4535 42.6751 66C37.6996 66.1913 32.0843 65.5521 28.7029 67.6905C24.2715 70.479 29.5221 74.6667 32.7422 74.9493Z" fill="#1367A4"/>
<path d="M13 91.2699C13.285 94.9363 13.718 99.4753 14.0925 103.083C14.256 103.151 14.4007 103.233 14.5775 103.293C16.1064 103.815 18.4416 103.111 19.9915 102.845C23.163 102.28 26.4119 103.238 29.5845 103.611C33.2035 104.038 36.6313 104.731 40.1011 105.817C40.3043 105.88 40.5175 105.941 40.7329 106L42 89.2787C40.7528 88.5979 39.5134 87.6522 38.1491 86.5912C35.7188 84.6842 33.1504 82.224 31.4315 85.8982C30.1689 88.6157 33.9458 91.5969 35.4957 93.0782C41.7249 99.064 32.291 101.577 28.1087 97.9354C25.8596 95.9863 26.5168 92.0027 25.9965 89.3496C24.7449 82.948 17.411 86.7719 14.5874 89.4139C14.0274 89.9372 13.4927 90.5736 13 91.2699Z" fill="#1367A4"/>
<path d="M7.80074 136.503C18.8452 135.53 16.6973 124.981 13.0616 118.236C12.4584 117.114 11.5962 115.602 10.5364 114C9.30756 115.938 8.22771 118.372 7.82794 121.313C7.42226 124.308 6.28801 130.406 5 137C5.96985 136.749 6.9397 136.578 7.80074 136.503Z" fill="#1367A4"/>
<path d="M33.2202 127.722C31.6826 126.294 30.7139 124.008 29.7462 122.167C28.567 119.946 26.8399 117.173 23.9971 117.575C20.9648 118 22.2185 124.452 22.4705 126.125C23.1873 130.949 27.2191 133.247 29.63 137.045C31.2936 139.657 31.778 143.382 35.3155 143.953C37.9906 144.377 41.275 141.869 42.623 139.774C43.8427 137.881 44.6329 135.7 46.5715 134.389C47.3419 133.867 48.1627 133.576 49 133.447L47.1436 124.286C47.1436 124.286 45.8055 116.777 42.0827 112.052C38.6547 111.826 35.4065 112.28 33.6837 114.443C32.3358 116.135 33.5994 118.379 34.8739 119.617C36.5572 121.268 38.7588 121.987 40.2219 123.956C40.3687 125.331 40.5276 126.696 40.6745 128.061C37.938 130.495 35.4525 130.379 33.2202 127.722Z" fill="#1367A4"/>
<path d="M55 162L52.3255 148.691C52.3221 148.685 52.3176 148.679 52.3142 148.674C51.2102 146.973 48.2652 142.507 45.4848 144.504C43.1145 146.205 44.2185 149.486 44.5216 151.955C44.9227 155.326 44.9339 158.681 44.4146 162H55Z" fill="#1367A4"/>
<path d="M33.6793 162C34.9457 160.523 36.2356 159.201 36.9137 158.301C37.9387 156.936 39.6744 154.399 38.7257 152.546C37.4739 150.107 35.9325 149.089 33.3324 150.216C31.4126 151.04 23.4315 160.599 23.0329 153.641C22.9454 152.209 24.6181 148.016 22.2774 147.3C15.0395 145.089 17.1647 155.7 17.726 159.448C17.8641 160.371 17.8967 161.214 17.8495 162H33.6793Z" fill="#1367A4"/>
<path d="M6.50094 154.504C7.49844 151.849 6.97127 149.914 5.18205 147.88C4.58433 147.204 3.91411 146.595 3.23114 146C2.34633 150.825 1.51835 155.248 1 158C3.20665 157.524 5.6808 156.697 6.50094 154.504Z" fill="#1367A4"/>
<path d="M10.9889 77C12.5965 75.4639 14.3163 74.071 15.4849 72.1657C17.0243 69.6505 14.8005 66.1072 12.9211 63C10.5235 65.7869 8.27109 69.3895 6 73.8886C6 73.8886 8.65621 75.3207 10.9889 77Z" fill="#1367A4"/>
<path d="M6.44492 74C6.44492 74 -6.84672 101.604 4.74588 139.424C4.74588 139.424 7.58418 149.042 13.1853 146.604C18.7887 144.165 14.7619 135.982 11.9608 130.063C9.15967 124.144 5.95292 90.0788 15.1708 81.9519C15.1708 81.9519 15.8115 78.7017 6.44492 74Z" fill="#8E5F51"/>
</svg>
