<svg width="430" height="209" viewBox="0 0 830 509" fill="none" xmlns="http://www.w3.org/2000/svg">
<path d="M588.147 243.195C588.382 238.787 590 199.837 590 177.003C590 150.314 585.005 133.645 571.451 129.839C557.898 126.034 538.106 119.072 538.106 119.072V120.06C538.088 122.703 537.051 125.23 535.223 127.09C533.395 128.95 530.924 129.99 528.351 129.984H513.625C511.044 129.984 508.569 128.931 506.744 127.056C504.919 125.181 503.894 122.639 503.894 119.988V119C503.894 119 484.102 126.034 470.549 129.767C456.995 133.501 452 150.241 452 176.93C452 201.5 452.75 236.282 452.75 236.282C452.75 236.282 452.047 247.747 472.471 249H565.706C567.947 249.003 570.176 248.662 572.319 247.988L588.147 243.195Z" fill="#FA1212"/>
<path d="M555 73V84.5886C555 85.059 555 85.5295 555 86C556.488 85.4432 557.752 84.5325 558.64 83.3786C559.527 82.2246 560 80.8771 560 79.5C560 78.1229 559.527 76.7754 558.64 75.6214C557.752 74.4675 556.488 73.5568 555 73Z" fill="url(#paint0_linear)"/>
<path d="M519.014 122.727C513.061 122.709 507.209 121.143 502 118.175V128.43C501.972 132.695 503.551 136.806 506.405 139.896C509.259 142.987 513.166 144.816 517.303 145H522.697C526.832 144.81 530.736 142.979 533.588 139.89C536.441 136.801 538.022 132.694 538 128.43V117C532.323 120.716 525.74 122.702 519.014 122.727Z" fill="url(#paint1_linear)"/>
<path fill-rule="evenodd" clip-rule="evenodd" d="M554.675 45.8275H517.386C491.173 45.8275 484.509 44.2726 483.255 42H483V64.9173V82.8349C483 104.939 499.253 123 519.012 123C538.77 123 555 104.915 555 82.8349L554.675 45.8275Z" fill="url(#paint2_linear)"/>
<path d="M562 57.6219C561.994 50.1416 560.055 42.7962 556.379 36.3317H555.969C555.969 36.2082 555.969 36.06 556.138 35.9365C555.241 34.3922 554.25 32.9073 553.171 31.4907C553.352 30.9926 553.45 30.4664 553.46 29.9347C553.459 28.7828 553.037 27.6728 552.278 26.8227C552.424 26.602 552.538 26.3607 552.616 26.1064C553.025 25.5163 553.295 24.8363 553.402 24.1207C553.509 23.4052 553.451 22.6738 553.233 21.9851C553.015 21.2964 552.643 20.6694 552.146 20.1542C551.65 19.639 551.042 19.2499 550.372 19.0179C550.574 18.4732 550.68 17.8963 550.686 17.3137C550.699 16.6904 550.59 16.0707 550.365 15.4912C550.14 14.9118 549.804 14.3843 549.377 13.94C548.949 13.4957 548.439 13.1435 547.877 12.9042C547.315 12.665 546.711 12.5435 546.102 12.5469H545.933C545.883 12.1986 545.769 11.8633 545.596 11.559C545.596 11.559 545.596 11.4108 545.596 11.3614C545.596 10.1233 545.115 8.93599 544.26 8.06056C543.405 7.18514 542.245 6.69333 541.036 6.69333C540.613 6.70067 540.192 6.7587 539.782 6.86622C539.655 6.72256 539.508 6.59785 539.347 6.49574C539.147 5.86729 538.818 5.29014 538.381 4.80328C537.944 4.31643 537.411 3.93121 536.816 3.67366C536.222 3.41611 535.58 3.29222 534.935 3.31038C534.289 3.32853 533.655 3.4883 533.075 3.77889C532.725 2.93603 532.14 2.2173 531.394 1.71225C530.647 1.20719 529.772 0.938116 528.878 0.938548C528.154 0.952172 527.444 1.13822 526.803 1.48192C526.033 0.652865 524.99 0.145891 523.876 0.0591947C522.761 -0.0275013 521.655 0.312252 520.772 1.01265H520.169C519.896 0.987008 519.621 0.987008 519.349 1.01265C518.544 0.363175 517.551 0.00684608 516.526 0C515.914 0.00628882 515.309 0.136049 514.746 0.381855C514.183 0.627661 513.673 0.98469 513.245 1.43252C512.603 1.09653 511.892 0.918925 511.171 0.913851C510.272 0.908555 509.392 1.17535 508.64 1.68071C507.889 2.18606 507.301 2.90744 506.949 3.75419C506.34 3.44871 505.672 3.28828 504.995 3.28492C503.957 3.28659 502.95 3.64916 502.139 4.31324C501.328 4.97732 500.761 5.90356 500.532 6.94031C499.843 6.69081 499.105 6.61466 498.381 6.71828C497.657 6.8219 496.968 7.10225 496.372 7.5357C495.776 7.96914 495.29 8.54297 494.956 9.20879C494.622 9.8746 494.449 10.6129 494.453 11.3614C494.415 11.7143 494.415 12.0704 494.453 12.4234C494.453 12.4234 494.453 12.5469 494.453 12.5963H493.874C492.664 12.5963 491.505 13.0881 490.65 13.9635C489.795 14.839 489.314 16.0263 489.314 17.2643C489.317 17.8496 489.431 18.4286 489.652 18.9685C488.748 19.2743 487.961 19.8635 487.403 20.6525C486.844 21.4415 486.542 22.3905 486.54 23.3649C486.542 24.3264 486.828 25.2649 487.36 26.057C487.456 26.3079 487.578 26.5479 487.722 26.7733C487.162 27.388 486.781 28.1514 486.623 28.9765C486.465 29.8017 486.537 30.6557 486.829 31.4413C481.127 38.9027 478.02 48.0987 478 57.5725V57.696C478.068 66.6702 479.635 75.5664 482.632 84V63.0309C489.297 65.1385 496.234 66.2043 503.21 66.1923H528.998L524.511 49.99C524.511 49.743 524.511 49.6195 524.511 49.6195V49.99C525.235 52.4599 530.422 65.0068 557.296 66.1182V83.9506C560.267 75.5098 561.833 66.6182 561.928 57.6466L562 57.6219Z" fill="black"/>
<path d="M482.972 85.931V73C480.973 73.4383 479.206 74.4115 477.945 75.768C476.684 77.1245 476 78.7882 476 80.5C476 82.2118 476.684 83.8755 477.945 85.232C479.206 86.5885 480.973 87.5617 482.972 88C483.035 87.25 482.972 86.6034 482.972 85.931Z" fill="url(#paint3_linear)"/>
<path d="M504.877 79.882C504.369 79.0026 503.723 78.2883 502.985 77.7915C502.247 77.2946 501.436 77.0278 500.612 77.0107C499.676 76.9379 498.745 77.2385 497.935 77.8751C497.124 78.5117 496.469 79.4564 496.051 80.5921C495.983 80.8411 495.983 81.1149 496.051 81.3639C496.084 81.4927 496.138 81.6097 496.209 81.706C496.28 81.8023 496.366 81.8754 496.462 81.9197C496.643 82.0236 496.848 82.0268 497.031 81.9286C497.215 81.8305 497.362 81.6388 497.442 81.3948C497.745 80.6378 498.203 80.016 498.762 79.605C499.321 79.194 499.955 79.0113 500.589 79.0793C501.174 79.0825 501.75 79.2647 502.276 79.6122C502.801 79.9598 503.261 80.4636 503.622 81.0861C503.679 81.1956 503.751 81.2889 503.835 81.3606C503.918 81.4323 504.012 81.481 504.109 81.5039C504.206 81.5268 504.306 81.5236 504.403 81.4942C504.499 81.4649 504.59 81.4102 504.671 81.3331C504.835 81.1717 504.948 80.9319 504.986 80.6624C505.024 80.393 504.985 80.1139 504.877 79.882Z" fill="black"/>
<path d="M543.777 79.8753C543.157 79.0023 542.371 78.2926 541.476 77.797C540.581 77.3014 539.599 77.0321 538.599 77.0086C537.465 76.9439 536.337 77.2473 535.354 77.882C534.371 78.5168 533.575 79.4555 533.062 80.5843C532.979 80.833 532.979 81.1063 533.062 81.355C533.102 81.4836 533.167 81.6004 533.254 81.6965C533.34 81.7927 533.445 81.8656 533.56 81.9098C533.669 81.9655 533.787 81.996 533.906 81.9996C534.026 82.0033 534.145 81.9799 534.256 81.9309C534.367 81.8819 534.469 81.8084 534.554 81.7147C534.639 81.621 534.706 81.5091 534.751 81.3858C535.118 80.63 535.675 80.0092 536.353 79.5988C537.032 79.1884 537.802 79.0061 538.572 79.0739C539.278 79.0726 539.976 79.2528 540.609 79.6003C541.243 79.9478 541.797 80.4533 542.227 81.0775C542.289 81.2094 542.376 81.3248 542.482 81.4161C542.588 81.5074 542.71 81.5725 542.841 81.6071C542.971 81.6416 543.106 81.6448 543.238 81.6164C543.369 81.588 543.494 81.5287 543.603 81.4424C543.712 81.3562 543.804 81.2449 543.871 81.1162C543.939 80.9874 543.981 80.8441 543.995 80.6957C544.009 80.5474 543.994 80.3975 543.952 80.256C543.909 80.1145 543.84 79.9848 543.749 79.8753H543.777Z" fill="black"/>
<path d="M519.571 97C518.624 97 517.716 96.5963 517.046 95.8776C516.376 95.1589 516 94.1842 516 93.1679V88.4599C516.005 88.3359 516.055 88.2189 516.138 88.1333C516.222 88.0476 516.333 87.9999 516.449 88C516.505 88 516.561 88.0119 516.613 88.035C516.665 88.0581 516.712 88.092 516.752 88.1347C516.792 88.1774 516.823 88.2281 516.845 88.2839C516.866 88.3397 516.877 88.3995 516.877 88.4599V93.1679C516.877 93.9345 517.161 94.6697 517.666 95.2118C518.172 95.7539 518.857 96.0584 519.571 96.0584C519.629 96.0583 519.686 96.0709 519.74 96.0954C519.793 96.1198 519.841 96.1557 519.881 96.2007C519.922 96.2458 519.953 96.2991 519.973 96.3574C519.993 96.4158 520.002 96.4779 520 96.5401C520 96.6621 519.954 96.7791 519.874 96.8653C519.794 96.9515 519.685 97 519.571 97Z" fill="#734139"/>
<path d="M519.434 103.353H518.543C515.285 103.258 512.061 102.463 509 101C509.535 102.584 510.367 103.967 511.42 105.021C513.594 106.979 516.176 108.018 518.817 108H519.205C521.84 108.018 524.414 106.978 526.58 105.021C527.646 103.985 528.481 102.597 529 101C525.933 102.47 522.7 103.265 519.434 103.353Z" fill="white"/>
<path opacity="0.2" d="M541.943 86.0006C540.767 86.0006 539.601 86.1818 538.514 86.5338C537.427 86.8858 536.44 87.4017 535.609 88.052C534.779 88.7022 534.12 89.474 533.673 90.3231C533.225 91.1722 532.996 92.0819 533 93H551C551.004 92.0744 550.772 91.1574 550.317 90.3025C549.862 89.4476 549.194 88.6719 548.351 88.0204C547.508 87.369 546.507 86.8549 545.407 86.5082C544.307 86.1614 543.13 85.9888 541.943 86.0006Z" fill="#F39B9B"/>
<path opacity="0.2" d="M496.987 86C494.867 86.0058 492.835 86.7459 491.338 88.058C489.841 89.3702 489 91.1473 489 93H505C505 91.1435 504.156 89.363 502.653 88.0503C501.151 86.7375 499.112 86 496.987 86Z" fill="#F39B9B"/>
<path d="M562 339L587.62 509H597L570.096 339H562Z" fill="#023042"/>
<path d="M471.904 339L445 509H454.38L480 339H471.904Z" fill="#023042"/>
<path d="M615 283.983C615 332.963 560.488 350 524.488 350C488.488 350 434 332.963 434 283.983C434 235.003 488.488 145 524.488 145C560.488 145 615 235.027 615 283.983Z" fill="#EF774E"/>
<path d="M459.083 304.112L441.095 484.834C440.872 486.736 441.043 488.665 441.597 490.493C442.151 492.322 443.076 494.008 444.311 495.442C445.545 496.875 447.061 498.023 448.758 498.808C450.455 499.594 452.295 500 454.156 500H450.856C456.782 500 460.663 495.933 462.243 490.025L510.001 314.733C510.658 312.286 510.994 309.76 511 307.222C511 298.276 508.258 280 485.808 280H485.158C478.708 280.076 472.506 282.564 467.708 287.001C462.91 291.438 459.844 297.52 459.083 304.112Z" fill="#2362AC"/>
<path d="M576.144 254.182C576.144 254.182 565.952 238 524.731 238C480.782 238 460.95 258.009 442.48 276.269C424.011 294.53 372 409.433 372 409.433L394.345 419L474.06 302.019H569.565C569.565 302.019 592.436 279.458 576.144 254.182Z" fill="#4979BC"/>
<path d="M575.974 254.177C575.974 254.177 565.486 238 523.069 238C519.573 238 516.225 238.142 513 238.378C546.653 240.739 555.368 254.177 555.368 254.177C572.133 279.447 548.475 302 548.475 302H569.204C569.204 302 592.739 279.447 575.974 254.177Z" fill="#2362AC"/>
<path d="M540.336 242C540.112 242.994 539.557 243.883 538.764 244.52C537.97 245.157 536.984 245.506 535.967 245.508H506.033C505.016 245.506 504.03 245.157 503.236 244.52C502.443 243.883 501.888 242.994 501.664 242H427V246.5C427.006 247.692 427.481 248.832 428.322 249.675C429.163 250.517 430.301 250.994 431.49 251H610.51C611.1 251 611.684 250.884 612.228 250.657C612.773 250.431 613.268 250.1 613.685 249.682C614.102 249.264 614.433 248.768 614.658 248.222C614.884 247.676 615 247.091 615 246.5V242H540.336Z" fill="black"/>
<path d="M443 249V147.295C443.006 146.154 443.472 145.061 444.295 144.257C445.118 143.452 446.232 143 447.393 143H592.631C593.788 143.006 594.896 143.461 595.713 144.265C596.531 145.069 596.994 146.158 597 147.295V249H443Z" fill="#023042"/>
<path d="M519 212C524.523 212 529 206.851 529 200.5C529 194.149 524.523 189 519 189C513.477 189 509 194.149 509 200.5C509 206.851 513.477 212 519 212Z" fill="#CBCDD8"/>
<path d="M442.928 203C436.164 213.872 413.643 224.887 405.584 226.024L391.936 228.132C383.648 229.118 375.56 231.346 367.951 234.74C367.951 234.74 357.446 239.265 359.197 245.163C359.407 246.031 359.829 246.835 360.427 247.504C361.025 248.173 361.78 248.687 362.627 249C365.433 241.349 375.89 236.47 385.196 236.47C393.087 236.47 401.794 239.975 405.967 245.708C422.013 245.708 435.565 236.92 443 230.974L442.928 203Z" fill="url(#paint4_linear)"/>
<path d="M465.398 483H440.576C440.576 483 434 495.024 434 502H471.999C472.075 495.024 465.398 483 465.398 483Z" fill="url(#paint5_linear)"/>
<path d="M458.914 494H447.039C439.914 494 434 498.458 434 507H472C471.929 498.034 466.062 494 458.914 494Z" fill="#023042"/>
<path d="M393.814 419.408L382.55 414.495L372.215 410C372.215 410 361.74 419.605 359 426.63L375.095 433.631L392.095 441C394.835 434.147 393.814 419.408 393.814 419.408Z" fill="url(#paint6_linear)"/>
<path d="M383.321 429.204L372.116 424.325C365.346 421.368 358.147 423.213 355 431.353L390.758 447C394.191 438.456 390.115 432.187 383.321 429.204Z" fill="#023042"/>
<path d="M408 251C408 242.021 395.422 236 384.488 236C373.554 236 361 241.979 361 251H408Z" fill="black"/>
<path d="M407.887 85.0819L407.885 85.1107V85.1396V192.86V192.889L407.887 192.918C408.004 195.158 407.214 197.357 405.68 199.039C404.153 200.714 402.008 201.743 399.705 201.898H219.272C216.971 201.744 214.83 200.714 213.306 199.039C211.776 197.356 210.991 195.158 211.114 192.921L211.116 192.891V192.86V85.1396V85.1106L211.114 85.0817C210.997 82.8457 211.784 80.6496 213.313 78.9677C214.836 77.2935 216.974 76.2621 219.273 76.1017H399.705C402.008 76.2566 404.153 77.2857 405.68 78.9609C407.214 80.6434 408.004 82.8425 407.887 85.0819Z" fill="#C4C4C4" stroke="#D2D4D5" stroke-width="2.20346"/>
<path d="M285.218 242.001H331.828C332.379 241.997 332.925 242.125 333.434 242.377C333.943 242.628 334.405 242.999 334.793 243.468C335.181 243.936 335.488 244.492 335.695 245.104C335.902 245.716 336.006 246.371 336 247.031V251H281V247.031C280.994 246.366 281.099 245.706 281.309 245.091C281.519 244.475 281.83 243.916 282.223 243.447C282.616 242.978 283.084 242.609 283.599 242.36C284.113 242.112 284.664 241.989 285.218 242.001Z" fill="#023042"/>
<path fill-rule="evenodd" clip-rule="evenodd" d="M326.831 178H285.409L285 242H327L326.831 178ZM306.144 221.546C304.239 221.546 302.377 220.988 300.793 219.944C299.209 218.9 297.974 217.416 297.245 215.68C296.516 213.943 296.325 212.033 296.697 210.189C297.068 208.346 297.986 206.653 299.333 205.324C300.68 203.995 302.397 203.09 304.265 202.723C306.134 202.356 308.071 202.545 309.831 203.264C311.591 203.983 313.096 205.201 314.154 206.764C315.213 208.326 315.778 210.164 315.778 212.043C315.778 214.563 314.763 216.98 312.956 218.762C311.15 220.545 308.699 221.546 306.144 221.546Z" fill="#999EA3"/>
<path d="M308.5 145C313.747 145 318 140.075 318 134C318 127.925 313.747 123 308.5 123C303.253 123 299 127.925 299 134C299 140.075 303.253 145 308.5 145Z" fill="white"/>
<path d="M917.221 271H105.779C99.8262 271 95 266.523 95 261C95 255.477 99.8257 251 105.779 251H917.221C923.174 251 928 255.477 928 261C928 266.523 923.174 271 917.221 271Z" fill="#0A609E"/>
<path d="M917.918 271H708.082C702.514 271 698 266.523 698 261C698 255.477 702.514 251 708.082 251H917.918C923.486 251 928 255.477 928 261C928 266.523 923.486 271 917.918 271Z" fill="#074978"/>
<path d="M884 271H117V297H884V271Z" fill="#074978"/>
<path d="M901 271H720V297H901V271Z" fill="#06416B"/>
<path d="M315 297H134V509H315V297Z" fill="#0A609E"/>
<path d="M408 297H262V509H408V297Z" fill="#074978"/>
<path d="M408 297H262L408 375V297Z" fill="#064069"/>
<path d="M793 297H613V509H793V297Z" fill="#0A609E"/>
<path d="M886 297H740V509H886V297Z" fill="#074978"/>
<path d="M886 297H740L886 375V297Z" fill="#074470"/>
<path d="M107.535 378.774C106.859 374.599 105.104 370.148 101.444 368.425C98.076 366.839 94.1501 368.041 90.7599 369.573C94.462 363.098 94.6023 354.52 91.1141 347.914C90.2818 346.337 89.2046 344.82 87.6837 343.998C86.1627 343.176 84.1197 343.229 82.9208 344.515C83.6772 338.671 82.8055 332.635 80.576 327.232C79.7679 324.705 78.7195 322.263 77.446 319.959C76.0963 317.517 73.9011 314.966 71.3237 315.201C71.2084 315.162 71.0927 315.124 70.9732 315.096C68.2076 314.455 65.8005 317.135 64.341 319.699C62.7917 322.422 61.5619 325.345 60.6719 328.381C58.7065 333.466 57.928 339.067 58.5666 344.522C57.3834 343.219 55.3412 343.139 53.8106 343.94C52.2794 344.741 51.184 346.244 50.3326 347.809C46.7648 354.367 46.8013 362.947 50.4241 369.471C47.053 367.893 43.1419 366.638 39.7551 368.178C36.075 369.852 34.265 374.279 33.5391 378.444C31.2956 391.319 36.2783 404.73 44.3344 414.672C48.1255 419.351 52.8198 423.55 58.4836 425L82.0275 424.988C87.7083 423.615 92.4533 419.48 96.3008 414.853C104.477 405.02 109.622 391.678 107.535 378.774Z" fill="#3BBF64"/>
<path d="M35.3849 427C29.8976 424.461 24.2053 421.764 20.4394 417.054C16.6735 412.343 15.5153 404.983 19.5029 400.456C11.6019 398.164 5.17918 391.414 3.31528 383.443C2.21949 378.756 3.25162 372.819 7.6834 370.887C2.85856 368.191 1.14431 362.179 0.405117 356.726C-0.0390671 353.447 -0.286728 350.064 0.575659 346.869C1.43805 343.674 3.58938 340.664 6.71375 339.526C9.35832 338.563 12.3289 339.041 14.9726 340.005C23.0698 342.959 29.2163 350.638 30.2932 359.147C32.4768 355.35 37.9466 353.882 41.7557 356.069C45.7764 358.377 47.1504 363.463 47.5481 368.063C47.9491 372.7 47.7354 377.388 46.9149 381.969C48.4897 379.181 52.2618 378.091 55.3359 379.032C58.41 379.973 60.7583 382.579 62.0506 385.508C63.3429 388.437 63.7075 391.681 63.8801 394.875C64.4534 405.488 63.014 416.332 58.6183 426.02" fill="#53D47B"/>
<path d="M7.08916 344.584C11.4035 349.592 15.1228 355.046 18.8765 360.463C22.6255 365.874 26.3245 371.328 29.796 376.916C36.8005 388.192 42.2459 400.127 46.6587 412.597C49.11 419.523 51.1538 426.581 53.5885 433.51C53.8864 434.359 55.2169 434.02 54.9695 433.136C53.1909 426.771 51.0511 420.474 48.8667 414.233C46.6824 407.993 44.3084 401.813 41.5817 395.781C36.1028 383.659 28.8921 372.482 21.1733 361.64C16.9146 355.659 12.8171 349.312 7.57675 344.105C7.25973 343.789 6.80609 344.256 7.08916 344.584Z" fill="#2DA151"/>
<path d="M101.404 430C107.234 427.259 113.282 424.348 117.283 419.262C121.285 414.176 122.515 406.231 118.279 401.344C126.673 398.87 133.497 391.582 135.478 382.978C136.642 377.918 135.546 371.508 130.837 369.423C135.963 366.513 137.784 360.023 138.57 354.136C139.041 350.596 139.305 346.944 138.388 343.495C137.472 340.045 135.186 336.796 131.867 335.568C129.057 334.528 125.9 335.044 123.092 336.085C114.488 339.273 107.958 347.564 106.814 356.749C104.493 352.651 98.6819 351.065 94.6354 353.426C90.3634 355.919 88.9035 361.409 88.4807 366.375C88.0545 371.38 88.2816 376.441 89.1532 381.387C87.48 378.377 83.4724 377.201 80.2057 378.217C76.9389 379.233 74.4441 382.046 73.0714 385.208C71.6986 388.37 71.3105 391.872 71.1274 395.32C70.5181 406.777 72.0476 418.484 76.7181 428.942" fill="#53D47B"/>
<path d="M131.411 339.106C126.368 344.109 122.388 350.093 118.264 355.817C114.061 361.651 109.932 367.532 106.102 373.609C98.446 385.754 92.4657 398.622 87.6081 412.064C84.8621 419.661 82.2309 427.355 80.0313 435.123C79.7778 436.018 81.1379 436.366 81.4416 435.503C83.7721 428.868 85.759 422.119 88.0665 415.475C90.4134 408.717 92.9575 402.017 95.9058 395.486C101.73 382.584 109.426 370.69 117.491 359.038C122.076 352.414 126.598 345.692 131.909 339.594C132.199 339.26 131.733 338.786 131.411 339.106Z" fill="#2DA151"/>
<path d="M108 425H29V450H108V425Z" fill="#00B4EC"/>
<path d="M95.5932 507H39.4064L33 450H102L95.5932 507Z" fill="#0093C2"/>
<defs>
<linearGradient id="paint0_linear" x1="554.912" y1="79.4876" x2="559.972" y2="79.4876" gradientUnits="userSpaceOnUse">
<stop stop-color="#8E5F51"/>
<stop offset="0.39" stop-color="#885A4C"/>
<stop offset="0.89" stop-color="#794C40"/>
<stop offset="1" stop-color="#74483C"/>
</linearGradient>
<linearGradient id="paint1_linear" x1="519.988" y1="145" x2="519.988" y2="117" gradientUnits="userSpaceOnUse">
<stop stop-color="#8E5F51"/>
<stop offset="0.44" stop-color="#825447"/>
<stop offset="0.79" stop-color="#74483C"/>
</linearGradient>
<linearGradient id="paint2_linear" x1="11334.1" y1="3729.12" x2="13566.8" y2="3729.12" gradientUnits="userSpaceOnUse">
<stop stop-color="#8E5F51"/>
<stop offset="0.39" stop-color="#885A4C"/>
<stop offset="0.89" stop-color="#794C40"/>
<stop offset="1" stop-color="#74483C"/>
</linearGradient>
<linearGradient id="paint3_linear" x1="1514.66" y1="736.15" x2="1531.39" y2="736.15" gradientUnits="userSpaceOnUse">
<stop stop-color="#8E5F51"/>
<stop offset="0.39" stop-color="#885A4C"/>
<stop offset="0.89" stop-color="#794C40"/>
<stop offset="1" stop-color="#74483C"/>
</linearGradient>
<linearGradient id="paint4_linear" x1="8663.24" y1="5040.36" x2="11605.8" y2="5040.36" gradientUnits="userSpaceOnUse">
<stop stop-color="#8E5F51"/>
<stop offset="0.39" stop-color="#885A4C"/>
<stop offset="0.89" stop-color="#794C40"/>
<stop offset="1" stop-color="#74483C"/>
</linearGradient>
<linearGradient id="paint5_linear" x1="5393.76" y1="4601.25" x2="5969.08" y2="4601.25" gradientUnits="userSpaceOnUse">
<stop stop-color="#8E5F51"/>
<stop offset="0.39" stop-color="#885A4C"/>
<stop offset="0.89" stop-color="#794C40"/>
<stop offset="1" stop-color="#74483C"/>
</linearGradient>
<linearGradient id="paint6_linear" x1="3817" y1="6253.19" x2="4344.45" y2="6253.19" gradientUnits="userSpaceOnUse">
<stop stop-color="#8E5F51"/>
<stop offset="0.39" stop-color="#885A4C"/>
<stop offset="0.89" stop-color="#794C40"/>
<stop offset="1" stop-color="#74483C"/>
</linearGradient>
</defs>
</svg>
