<svg width="68" height="241" viewBox="0 0 68 241" fill="none" xmlns="http://www.w3.org/2000/svg">
<path d="M61.7005 108.266C61.7005 108.266 63.8709 149.006 56.5268 148.164C49.1818 147.323 50.6839 88.4007 61.7005 108.266Z" fill="#8E5F51"/>
<path d="M57.1358 68.177C57.1358 68.177 63 92.6081 63 109.177H51C51 109.177 54.3898 68.7683 57.1358 68.177Z" fill="#53585B"/>
<path d="M1 108.194C1 108.194 2.82992 140.633 7.60058 148.659C12.3723 156.685 16 130.265 16 130.265L10.2406 103.177L1 108.194Z" fill="#8E5F51"/>
<path d="M5.87784 70.177C5.87784 70.177 0 95.1776 0 109.177H11L6.5 68.177L5.87784 70.177Z" fill="#53585B"/>
<path d="M57 141.177V68.3091C57 68.3091 56.9665 53.177 33.3483 53.177C9.72908 53.177 6 65.934 6 72.5586C6 79.1833 8.90063 141.177 8.90063 141.177H57Z" fill="#788996"/>
<path d="M25 45.177V54.3775C25 57.5801 27.9097 60.177 31.4996 60.177C35.0895 60.177 38 57.5801 38 54.3775V45.177H25Z" fill="#8E5F51"/>
<path d="M22 237.177H13V174.177H22V237.177Z" fill="#8E5F51"/>
<path d="M12 240.177V234.177H31.471C31.471 234.177 38 234.268 38 240.177H12Z" fill="#212120"/>
<path d="M52 237.177H43V174.177H52V237.177Z" fill="#8E5F51"/>
<path d="M42 240.177V234.177H61.471C61.471 234.177 68 234.268 68 240.177H42Z" fill="#212120"/>
<path d="M26.745 176.177C28.3728 155.413 28.0474 150.748 31.6483 150.298C35.699 149.791 38.4609 150.803 38.4609 164.23C38.4609 166.63 38.8155 170.86 39.3951 176.177H58L57.1505 141.177H9.04498L9 176.177H26.745Z" fill="#A56B37"/>
<path d="M28 179.177H7V175.177H28V179.177Z" fill="#B27542"/>
<path d="M59 179.177H37V175.177H59V179.177Z" fill="#B27542"/>
<path d="M49 17.1768H23V6.17677H49V17.1768Z" fill="#8E5F51"/>
<path d="M18 23.9897V32.3644C18 32.3644 18.0556 35.1768 20.5644 35.1768C23.0715 35.1768 21.5327 23.1768 21.5327 23.1768L18 23.9897Z" fill="#212120"/>
<path d="M20.0001 11.1768V36.9798C20.0001 45.3731 27.3868 52.1768 36.4991 52.1768C45.6123 52.1768 53.0001 45.3731 53.0001 36.9798V11.1768H20.0001Z" fill="#8E5F51"/>
<path d="M37 24.6767C37 25.5047 36.3274 26.1767 35.4995 26.1767C34.6716 26.1767 34 25.5047 34 24.6767C34 23.8487 34.6716 23.1767 35.4995 23.1767C36.3274 23.1767 37 23.8487 37 24.6767Z" fill="#212120"/>
<path d="M49 24.6767C49 25.5047 48.3282 26.1767 47.5 26.1767C46.6718 26.1767 46 25.5047 46 24.6767C46 23.8487 46.6718 23.1767 47.5 23.1767C48.3282 23.1767 49 23.8487 49 24.6767Z" fill="#212120"/>
<path d="M40 18.1768V34.1768H46L41.9198 18.1768H40Z" fill="#74483C"/>
<path d="M50.1792 41.3233C49.104 41.3838 49.082 39.8936 49.1211 39.2598C48.8588 35.4766 43.195 35.6163 43.195 35.6163C36.5301 35.6163 35.7713 41.8418 35.7713 41.8418C26.4948 41.8418 25.3896 26.4346 25.3896 26.4346L20.0001 23.1768V37.1651C20.0001 45.4561 27.4137 52.1768 36.5591 52.1768C45.0569 52.1768 52.0491 46.3731 53.0001 38.9014C53.0001 38.9014 51.5406 41.2452 50.1792 41.3233Z" fill="#212120"/>
<path d="M43.001 43.1768C44.656 43.1768 46 41.8334 46 40.1768H40C40 41.8334 41.343 43.1768 43.001 43.1768Z" fill="white"/>
<path d="M38.5 0.177016C36.5269 -0.189286 18 -1.32444 18 13.6493V23.2991L22.0849 27.9663C22.0849 27.9663 21.7405 29.1685 23.5463 29.1685C23.5463 29.1685 25.4829 29.4497 25.4829 26.736C25.4829 24.0222 25.9341 22.575 27.4175 22.0929C28.9019 21.6098 31 11.677 31 11.677C31 11.677 34 11.177 45 11.677C49.4954 11.8814 53 12.177 53 12.177L53.5 10.677V9.17702C53.5 9.17702 55 6.17702 50 3.67683L44.5 1.67689C44.5 1.67689 40.4731 0.543319 38.5 0.177016Z" fill="#212120"/>
<path d="M22 23.383C21.2658 22.6497 20.2015 22.1768 19 22.1768C16.7922 22.1768 15 23.7437 15 25.6773C15 27.6098 16.7922 29.1768 19 29.1768C20.2015 29.1768 21.2658 28.7038 22 27.9705V23.383Z" fill="#8E5F51"/>
<path d="M53 21.177C53 21.177 53.7992 18.6133 53.8893 15.6256C54.1339 12.9134 53.8968 7.74864 53.8968 7.74864C53.8968 7.74864 53.8968 7.74864 53.6597 7.23191C53.2548 6.62477 52.7046 11.2523 52 11.364C53 13.677 53 21.177 53 21.177Z" fill="#212120"/>
</svg>
