<svg width="429" height="232" viewBox="0 0 429 232" fill="none" xmlns="http://www.w3.org/2000/svg">
<path d="M304.154 110.365C304.261 108.365 305 90.6878 305 80.3242C305 68.2116 302.72 60.6467 296.532 58.9194C290.345 57.1921 281.309 54.0328 281.309 54.0328V54.481C281.301 55.6804 280.828 56.8276 279.993 57.6717C279.159 58.5157 278.031 58.9879 276.856 58.985H270.133C268.955 58.985 267.825 58.507 266.992 57.6562C266.159 56.8054 265.691 55.6514 265.691 54.4482V54C265.691 54 256.655 57.1921 250.468 58.8866C244.28 60.5811 242 68.1788 242 80.2915C242 91.4421 242.343 107.228 242.343 107.228C242.343 107.228 242.021 112.432 251.346 113H293.909C294.933 113.002 295.95 112.847 296.928 112.541L304.154 110.365Z" fill="#FA1212"/>
<path d="M289 33V38.3486C289 38.5657 289 38.7829 289 39C289.595 38.743 290.101 38.3227 290.456 37.7901C290.811 37.2575 291 36.6356 291 36C291 35.3644 290.811 34.7425 290.456 34.2099C290.101 33.6773 289.595 33.257 289 33Z" fill="url(#paint0_linear)"/>
<path d="M272.562 55.6591C269.916 55.6507 267.315 54.9237 265 53.5455V58.3068C264.988 60.2871 265.689 62.1955 266.958 63.6304C268.226 65.0653 269.963 65.9147 271.801 66H274.199C276.037 65.9119 277.771 65.0616 279.039 63.6274C280.307 62.1931 281.01 60.2863 281 58.3068V53C278.477 54.7254 275.551 55.6472 272.562 55.6591Z" fill="url(#paint1_linear)"/>
<path fill-rule="evenodd" clip-rule="evenodd" d="M288.851 20.7484H271.76C259.746 20.7484 256.692 20.0381 256.117 19H256V29.4684V37.653C256 47.7499 263.449 56 272.505 56C281.561 56 289 47.7389 289 37.653L288.851 20.7484Z" fill="url(#paint2_linear)"/>
<path d="M292 26.067C291.997 22.6831 291.12 19.3602 289.457 16.4358H289.272C289.272 16.3799 289.272 16.3128 289.348 16.257C288.942 15.5584 288.494 14.8866 288.006 14.2458C288.088 14.0205 288.132 13.7824 288.137 13.5419C288.136 13.0208 287.945 12.5187 287.602 12.1341C287.668 12.0342 287.719 11.9251 287.755 11.8101C287.94 11.5431 288.062 11.2355 288.11 10.9118C288.159 10.588 288.133 10.2572 288.034 9.94564C287.936 9.63408 287.767 9.35044 287.542 9.11738C287.318 8.88432 287.043 8.70829 286.74 8.60335C286.831 8.35695 286.879 8.09594 286.882 7.8324C286.888 7.5504 286.838 7.27007 286.736 7.00794C286.635 6.74581 286.483 6.5072 286.289 6.3062C286.096 6.1052 285.865 5.94587 285.611 5.83763C285.357 5.72939 285.084 5.67442 284.808 5.67598H284.732C284.709 5.5184 284.657 5.36671 284.579 5.22905C284.579 5.22905 284.579 5.16201 284.579 5.13967C284.579 4.5796 284.362 4.04247 283.975 3.64645C283.588 3.25042 283.063 3.02793 282.516 3.02793C282.325 3.03126 282.134 3.05751 281.949 3.10615C281.891 3.04116 281.825 2.98474 281.752 2.93855C281.662 2.65425 281.513 2.39316 281.315 2.17291C281.118 1.95267 280.876 1.7784 280.607 1.66189C280.338 1.54538 280.048 1.48934 279.756 1.49755C279.464 1.50576 279.177 1.57804 278.915 1.7095C278.757 1.3282 278.492 1.00307 278.154 0.774587C277.817 0.546109 277.421 0.424386 277.016 0.424581C276.689 0.430745 276.367 0.514907 276.078 0.670391C275.729 0.295344 275.257 0.0659981 274.753 0.0267785C274.249 -0.0124411 273.749 0.141257 273.349 0.458101H273.076C272.953 0.446504 272.829 0.446504 272.705 0.458101C272.341 0.164294 271.892 0.00309703 271.428 0C271.152 0.00284494 270.878 0.061546 270.623 0.172744C270.369 0.283942 270.138 0.445455 269.944 0.648045C269.654 0.496051 269.332 0.415704 269.006 0.413409C268.599 0.411013 268.201 0.531705 267.861 0.760319C267.521 0.988934 267.255 1.31527 267.096 1.69832C266.821 1.56013 266.518 1.48755 266.212 1.48603C265.742 1.48679 265.287 1.65081 264.92 1.95123C264.553 2.25164 264.297 2.67066 264.193 3.13967C263.881 3.02679 263.547 2.99234 263.22 3.03922C262.892 3.0861 262.581 3.21292 262.311 3.40901C262.041 3.60509 261.822 3.86468 261.671 4.16588C261.52 4.46708 261.441 4.80107 261.443 5.13967C261.426 5.29935 261.426 5.46043 261.443 5.62011C261.443 5.62011 261.443 5.67598 261.443 5.69832H261.181C260.634 5.69832 260.109 5.92081 259.722 6.31684C259.336 6.71286 259.118 7.24999 259.118 7.81006C259.119 8.0748 259.171 8.33674 259.271 8.58101C258.862 8.71935 258.506 8.98586 258.254 9.3428C258.001 9.69974 257.864 10.129 257.863 10.5698C257.864 11.0048 257.994 11.4294 258.234 11.7877C258.278 11.9012 258.333 12.0098 258.398 12.1117C258.145 12.3898 257.972 12.7351 257.901 13.1084C257.83 13.4817 257.862 13.868 257.994 14.2235C255.415 17.5988 254.009 21.7589 254 26.0447V26.1006C254.031 30.1603 254.739 34.1848 256.095 38V28.514C259.11 29.4674 262.249 29.9496 265.404 29.9441H277.071L275.041 22.6145C275.041 22.5028 275.041 22.4469 275.041 22.4469V22.6145C275.368 23.7318 277.715 29.4078 289.872 29.9106V37.9776C291.216 34.1592 291.924 30.1368 291.967 26.0782L292 26.067Z" fill="black"/>
<path d="M255.988 39.0345V33C255.131 33.2045 254.374 33.6587 253.834 34.2917C253.293 34.9248 253 35.7012 253 36.5C253 37.2988 253.293 38.0752 253.834 38.7083C254.374 39.3413 255.131 39.7955 255.988 40C256.015 39.65 255.988 39.3483 255.988 39.0345Z" fill="url(#paint3_linear)"/>
<path d="M265.945 36.1528C265.72 35.8011 265.432 35.5153 265.104 35.3166C264.776 35.1178 264.416 35.0111 264.05 35.0043C263.634 34.9752 263.22 35.0954 262.86 35.35C262.5 35.6047 262.208 35.9826 262.023 36.4368C261.992 36.5364 261.992 36.646 262.023 36.7456C262.037 36.7971 262.061 36.8439 262.093 36.8824C262.124 36.9209 262.163 36.9502 262.205 36.9679C262.286 37.0094 262.377 37.0107 262.458 36.9715C262.54 36.9322 262.605 36.8555 262.641 36.7579C262.775 36.4551 262.979 36.2064 263.228 36.042C263.476 35.8776 263.758 35.8045 264.04 35.8317C264.299 35.833 264.556 35.9059 264.789 36.0449C265.023 36.1839 265.227 36.3854 265.388 36.6344C265.413 36.6782 265.445 36.7155 265.482 36.7442C265.519 36.7729 265.561 36.7924 265.604 36.8016C265.647 36.8107 265.692 36.8094 265.735 36.7977C265.777 36.786 265.818 36.7641 265.854 36.7332C265.927 36.6687 265.977 36.5728 265.994 36.465C266.011 36.3572 265.993 36.2456 265.945 36.1528Z" fill="black"/>
<path d="M283.899 36.1501C283.617 35.8009 283.26 35.517 282.853 35.3188C282.446 35.1205 282 35.0129 281.545 35.0034C281.029 34.9775 280.517 35.0989 280.07 35.3528C279.623 35.6067 279.261 35.9822 279.028 36.4337C278.991 36.5332 278.991 36.6425 279.028 36.742C279.046 36.7934 279.076 36.8402 279.115 36.8786C279.155 36.9171 279.202 36.9463 279.255 36.9639C279.304 36.9862 279.358 36.9984 279.412 36.9999C279.466 37.0013 279.52 36.9919 279.571 36.9724C279.622 36.9528 279.668 36.9234 279.706 36.8859C279.745 36.8484 279.775 36.8037 279.796 36.7543C279.963 36.452 280.216 36.2037 280.524 36.0395C280.833 35.8754 281.183 35.8024 281.533 35.8296C281.854 35.8291 282.171 35.9011 282.459 36.0401C282.747 36.1791 282.998 36.3813 283.194 36.631C283.222 36.6837 283.262 36.7299 283.31 36.7664C283.358 36.803 283.414 36.829 283.473 36.8428C283.532 36.8566 283.594 36.8579 283.654 36.8466C283.713 36.8352 283.77 36.8115 283.82 36.777C283.869 36.7425 283.911 36.698 283.942 36.6465C283.972 36.595 283.991 36.5376 283.998 36.4783C284.004 36.419 283.997 36.359 283.978 36.3024C283.959 36.2458 283.927 36.1939 283.886 36.1501H283.899Z" fill="black"/>
<path d="M272.785 44C272.312 44 271.858 43.8206 271.523 43.5012C271.188 43.1817 271 42.7485 271 42.2968V40.2044C271.003 40.1493 271.027 40.0973 271.069 40.0592C271.111 40.0212 271.167 39.9999 271.224 40C271.253 40 271.28 40.0053 271.306 40.0156C271.332 40.0258 271.356 40.0409 271.376 40.0599C271.396 40.0788 271.412 40.1014 271.422 40.1262C271.433 40.151 271.439 40.1775 271.439 40.2044V42.2968C271.439 42.6376 271.581 42.9643 271.833 43.2052C272.086 43.4462 272.428 43.5815 272.785 43.5815C272.815 43.5815 272.843 43.5871 272.87 43.5979C272.897 43.6088 272.921 43.6247 272.941 43.6448C272.961 43.6648 272.976 43.6885 272.986 43.7144C272.997 43.7403 273.001 43.768 273 43.7956C273 43.8498 272.977 43.9018 272.937 43.9401C272.897 43.9785 272.842 44 272.785 44Z" fill="#734139"/>
<path d="M272.695 47.0085H272.295C270.828 46.9676 269.377 46.6269 268 46C268.241 46.679 268.615 47.2717 269.089 47.7233C270.067 48.5623 271.229 49.0079 272.418 48.9999H272.592C273.778 49.0077 274.936 48.562 275.911 47.7233C276.391 47.2792 276.767 46.6844 277 46C275.62 46.6298 274.165 46.9706 272.695 47.0085Z" fill="white"/>
<path opacity="0.2" d="M282.975 39.0002C282.452 39.0002 281.934 39.0779 281.451 39.2288C280.968 39.3796 280.529 39.6007 280.16 39.8794C279.79 40.1581 279.498 40.4889 279.299 40.8528C279.1 41.2166 278.998 41.6065 279 42H287C287.002 41.6033 286.898 41.2103 286.696 40.8439C286.494 40.4776 286.197 40.1451 285.823 39.8659C285.448 39.5867 285.003 39.3664 284.514 39.2178C284.025 39.0692 283.502 38.9952 282.975 39.0002Z" fill="#F39B9B"/>
<path opacity="0.2" d="M262.494 39C261.567 39.0025 260.678 39.3197 260.023 39.882C259.368 40.4444 259 41.206 259 42H266C266 41.2044 265.631 40.4413 264.973 39.8787C264.316 39.3161 263.424 39 262.494 39Z" fill="#F39B9B"/>
<path d="M292 154L303.712 231H308L295.701 154H292Z" fill="#023042"/>
<path d="M251.299 154L239 231H243.288L255 154H251.299Z" fill="#023042"/>
<path d="M316 129.051C316 151.271 291.304 159 274.994 159C258.685 159 234 151.271 234 129.051C234 106.831 258.685 66 274.994 66C291.304 66 316 106.842 316 129.051Z" fill="#EF774E"/>
<path d="M245.266 137.96L237.044 220.106C236.941 220.971 237.02 221.848 237.273 222.679C237.526 223.51 237.949 224.277 238.513 224.928C239.078 225.58 239.771 226.101 240.547 226.458C241.322 226.816 242.163 227 243.014 227H241.506C244.215 227 245.989 225.152 246.711 222.466L268.543 142.788C268.844 141.676 268.997 140.527 269 139.374C269 135.307 267.746 127 257.484 127H257.186C254.238 127.034 251.403 128.165 249.209 130.182C247.016 132.199 245.614 134.964 245.266 137.96Z" fill="#2362AC"/>
<path d="M298.351 115.331C298.351 115.331 293.74 108 275.093 108C255.211 108 246.239 117.065 237.884 125.338C229.529 133.61 206 185.666 206 185.666L216.108 190L252.17 137.003H295.374C295.374 137.003 305.721 126.782 298.351 115.331Z" fill="#4979BC"/>
<path d="M298.293 115.33C298.293 115.33 293.581 108 274.524 108C272.953 108 271.449 108.064 270 108.171C285.12 109.241 289.035 115.33 289.035 115.33C296.567 126.78 285.938 137 285.938 137H295.251C295.251 137 305.825 126.78 298.293 115.33Z" fill="#2362AC"/>
<path d="M282.242 110C282.141 110.442 281.89 110.837 281.531 111.12C281.173 111.403 280.727 111.558 280.267 111.559H266.733C266.273 111.558 265.827 111.403 265.469 111.12C265.11 110.837 264.859 110.442 264.758 110H231V112C231.003 112.53 231.218 113.037 231.598 113.411C231.978 113.786 232.493 113.997 233.03 114H313.97C314.237 114 314.501 113.948 314.747 113.848C314.993 113.747 315.217 113.6 315.405 113.414C315.594 113.228 315.743 113.008 315.845 112.765C315.947 112.523 316 112.263 316 112V110H282.242Z" fill="black"/>
<path d="M238 113V66.9449C238.003 66.4281 238.214 65.9335 238.589 65.569C238.963 65.2046 239.469 65 239.997 65H306.014C306.54 65.0028 307.043 65.2086 307.415 65.5727C307.787 65.9369 307.997 66.43 308 66.9449V113H238Z" fill="#023042"/>
<path d="M272.5 96C274.985 96 277 93.7614 277 91C277 88.2386 274.985 86 272.5 86C270.015 86 268 88.2386 268 91C268 93.7614 270.015 96 272.5 96Z" fill="#CBCDD8"/>
<path d="M237.967 92C234.908 96.9634 224.719 101.992 221.074 102.511L214.9 103.473C211.15 103.923 207.491 104.941 204.049 106.49C204.049 106.49 199.297 108.556 200.089 111.248C200.184 111.645 200.375 112.012 200.646 112.317C200.916 112.622 201.258 112.857 201.641 113C202.91 109.507 207.641 107.28 211.851 107.28C215.421 107.28 219.359 108.88 221.247 111.497C228.506 111.497 234.636 107.485 238 104.771L237.967 92Z" fill="url(#paint4_linear)"/>
<path d="M248.047 219H236.942C236.942 219 234 224.696 234 228H251C251.033 224.696 248.047 219 248.047 219Z" fill="url(#paint5_linear)"/>
<path d="M245.146 224H239.833C236.646 224 234 226.057 234 230H251C250.968 225.862 248.344 224 245.146 224Z" fill="#023042"/>
<path d="M215.915 190.249L210.766 188.03L206.041 186C206.041 186 201.253 190.338 200 193.51L207.358 196.672L215.129 200C216.382 196.905 215.915 190.249 215.915 190.249Z" fill="url(#paint6_linear)"/>
<path d="M211.012 194.843L205.864 192.607C202.754 191.252 199.446 192.098 198 195.828L214.43 203C216.007 199.084 214.134 196.211 211.012 194.843Z" fill="#023042"/>
<path d="M222 114C222 109.81 216.38 107 211.495 107C206.609 107 201 109.79 201 114H222Z" fill="black"/>
<path d="M394.495 38.5684L394.494 38.5814V38.5945V87.4055V87.4186L394.495 87.4317C394.548 88.4465 394.191 89.4429 393.497 90.205C392.806 90.9639 391.837 91.4299 390.796 91.5H309.193C308.154 91.4299 307.186 90.9637 306.497 90.2048C305.805 89.4426 305.45 88.4465 305.506 87.433L305.506 87.4193V87.4055V38.5945V38.5814L305.506 38.5683C305.453 37.555 305.809 36.56 306.5 35.7981C307.189 35.0396 308.155 34.5726 309.194 34.5H390.796C391.837 34.5701 392.806 35.0361 393.497 35.795C394.191 36.5571 394.548 37.5535 394.495 38.5684Z" fill="#C4C4C4" stroke="#D2D4D5"/>
<path d="M338.917 110H360.104C360.354 109.999 360.602 110.055 360.833 110.167C361.065 110.279 361.275 110.444 361.451 110.652C361.628 110.86 361.767 111.108 361.861 111.38C361.956 111.651 362.003 111.943 362 112.236V114H337V112.236C336.997 111.941 337.045 111.647 337.14 111.374C337.236 111.1 337.377 110.852 337.556 110.643C337.735 110.435 337.947 110.271 338.181 110.16C338.415 110.05 338.665 109.995 338.917 110Z" fill="#023042"/>
<path fill-rule="evenodd" clip-rule="evenodd" d="M357.924 81H339.185L339 110H358L357.924 81ZM348.565 100.732C347.703 100.732 346.861 100.479 346.144 100.006C345.428 99.5328 344.869 98.8603 344.539 98.0735C344.209 97.2867 344.123 96.421 344.291 95.5857C344.459 94.7505 344.874 93.9832 345.484 93.3811C346.093 92.7789 346.87 92.3688 347.715 92.2026C348.561 92.0365 349.437 92.1218 350.233 92.4477C351.029 92.7736 351.71 93.3255 352.189 94.0335C352.668 94.7416 352.923 95.5741 352.923 96.4258C352.923 97.5677 352.464 98.663 351.647 99.4705C350.83 100.278 349.721 100.732 348.565 100.732Z" fill="#999EA3"/>
<path d="M349.5 66C351.985 66 354 63.7614 354 61C354 58.2386 351.985 56 349.5 56C347.015 56 345 58.2386 345 61C345 63.7614 347.015 66 349.5 66Z" fill="white"/>
<path d="M414.789 171.988C414.483 170.09 413.687 168.067 412.028 167.284C410.501 166.563 408.721 167.109 407.184 167.806C408.863 164.863 408.926 160.963 407.345 157.961C406.968 157.244 406.479 156.554 405.79 156.181C405.1 155.807 404.174 155.831 403.631 156.416C403.974 153.76 403.578 151.016 402.568 148.56C402.201 147.411 401.726 146.301 401.149 145.254C400.537 144.144 399.542 142.984 398.373 143.091C398.321 143.073 398.269 143.056 398.214 143.044C396.961 142.752 395.869 143.97 395.208 145.136C394.505 146.374 393.948 147.702 393.544 149.082C392.653 151.393 392.301 153.94 392.59 156.419C392.054 155.827 391.128 155.79 390.434 156.155C389.74 156.519 389.243 157.202 388.857 157.913C387.24 160.894 387.256 164.794 388.899 167.76C387.371 167.042 385.598 166.472 384.062 167.172C382.394 167.933 381.573 169.945 381.244 171.838C380.227 177.69 382.486 183.786 386.138 188.306C387.857 190.432 389.985 192.341 392.552 193L403.226 192.995C405.801 192.37 407.952 190.491 409.696 188.388C413.403 183.918 415.735 177.854 414.789 171.988Z" fill="#3BBF64"/>
<path d="M382.034 194C379.547 192.846 376.968 191.62 375.261 189.479C373.555 187.338 373.03 183.992 374.837 181.934C371.257 180.893 368.347 177.824 367.502 174.201C367.006 172.071 367.473 169.372 369.481 168.494C367.295 167.269 366.518 164.536 366.183 162.057C365.982 160.567 365.87 159.029 366.261 157.577C366.651 156.124 367.626 154.756 369.042 154.239C370.24 153.801 371.586 154.019 372.784 154.457C376.453 155.799 379.239 159.29 379.726 163.158C380.716 161.432 383.194 160.764 384.92 161.759C386.742 162.808 387.365 165.12 387.545 167.21C387.727 169.318 387.63 171.449 387.258 173.531C387.972 172.264 389.681 171.769 391.074 172.196C392.467 172.624 393.531 173.809 394.117 175.14C394.702 176.472 394.867 177.946 394.946 179.398C395.205 184.222 394.553 189.151 392.561 193.555" fill="#53D47B"/>
<path d="M369.041 156.266C371.018 158.547 372.723 161.032 374.443 163.5C376.162 165.965 377.857 168.449 379.448 170.995C382.658 176.132 385.154 181.569 387.177 187.25C388.3 190.405 389.237 193.62 390.353 196.777C390.489 197.164 391.099 197.009 390.986 196.606C390.171 193.707 389.19 190.838 388.189 187.995C387.188 185.152 386.1 182.337 384.85 179.589C382.339 174.067 379.034 168.975 375.496 164.036C373.544 161.311 371.666 158.42 369.264 156.048C369.119 155.904 368.911 156.116 369.041 156.266Z" fill="#2DA151"/>
<path d="M411.861 195C414.518 193.759 417.276 192.442 419.1 190.14C420.924 187.838 421.485 184.241 419.553 182.029C423.38 180.909 426.491 177.611 427.394 173.716C427.925 171.426 427.425 168.525 425.278 167.581C427.615 166.264 428.446 163.326 428.804 160.661C429.019 159.059 429.139 157.406 428.721 155.845C428.303 154.284 427.261 152.813 425.748 152.257C424.467 151.786 423.028 152.02 421.748 152.491C417.826 153.934 414.848 157.687 414.327 161.844C413.269 159.989 410.62 159.272 408.775 160.34C406.827 161.468 406.162 163.954 405.969 166.201C405.775 168.467 405.878 170.758 406.276 172.996C405.513 171.634 403.686 171.101 402.197 171.561C400.707 172.021 399.57 173.295 398.944 174.726C398.318 176.157 398.141 177.742 398.058 179.303C397.78 184.488 398.477 189.788 400.607 194.521" fill="#53D47B"/>
<path d="M425.728 154.048C423.4 156.318 421.563 159.032 419.66 161.628C417.72 164.275 415.814 166.942 414.047 169.699C410.513 175.208 407.753 181.045 405.511 187.142C404.244 190.589 403.03 194.079 402.014 197.602C401.897 198.008 402.525 198.166 402.665 197.774C403.741 194.765 404.658 191.703 405.723 188.689C406.806 185.624 407.98 182.585 409.341 179.622C412.029 173.77 415.581 168.375 419.303 163.089C421.42 160.085 423.507 157.035 425.958 154.269C426.092 154.118 425.877 153.903 425.728 154.048Z" fill="#2DA151"/>
<path d="M415 193H379V204H415V193Z" fill="#00B4EC"/>
<path d="M409.121 230H383.878L381 204H412L409.121 230Z" fill="#0093C2"/>
<path d="M49.1688 143H101.831C106.343 143 110 139.295 110 134.725V63.2746C110 58.7046 106.343 55 101.831 55H49.1688C44.6572 55 41 58.7046 41 63.2746V134.725C41.0002 139.295 44.6574 143 49.1688 143Z" fill="black"/>
<path d="M116.5 142C117.328 142 118 141.41 118 140.681V114.319C118 113.591 117.328 113 116.5 113C115.671 113 115 113.59 115 114.319V140.681C115 141.409 115.671 142 116.5 142Z" fill="black"/>
<path d="M110 115H122V110.818C122 107.605 119.314 105 116 105C112.686 105 110 107.605 110 110.818V115H110Z" fill="black"/>
<path d="M80 215H71V166H80V215Z" fill="black"/>
<path d="M43 223H109V219.521C109 216.472 106.594 214 103.626 214H48.3735C45.4058 214 43 216.472 43 219.521V223Z" fill="black"/>
<path d="M84 189H68V151H84V189Z" fill="black"/>
<path d="M103.5 230C101.015 230 99 227.985 99 225.5C99 223.015 101.015 221 103.5 221C105.985 221 108 223.015 108 225.5C108 227.985 105.985 230 103.5 230Z" fill="black"/>
<path d="M48 230C45.7909 230 44 227.985 44 225.5C44 223.015 45.7909 221 48 221C50.2091 221 52 223.015 52 225.5C52 227.985 50.2091 230 48 230Z" fill="black"/>
<path d="M122 148.134V147.866C122 144.626 119.418 142 116.234 142H34.7661C31.5817 142 29 144.626 29 147.866V148.134C29 151.373 31.5815 154 34.7661 154H116.234C119.418 154 122 151.373 122 148.134Z" fill="black"/>
<path d="M34.9999 144C35.5522 144 36 143.416 36 142.696V115.304C36 114.584 35.5523 114 34.9999 114C34.4477 114 34 114.584 34 115.304V142.696C34 143.416 34.4477 144 34.9999 144Z" fill="black"/>
<path d="M87 71L104.535 109.873C106.422 114.057 111.81 115.328 115.403 112.436C117.719 110.572 118.594 107.465 117.587 104.684L115.63 99.2848L105.613 76.3882" fill="#8E5F51"/>
<path d="M106.977 103.355C107.363 102.7 108.271 102.418 109.109 102.267C112.253 101.699 115.517 102.136 118.67 102.668C120.428 102.964 122.179 103.289 123.922 103.643C124.043 103.667 124.17 103.695 124.26 103.767C124.36 103.848 124.397 103.969 124.429 104.083C124.782 105.375 124.983 106.698 124.999 108.024C125.01 108.958 124.916 109.931 124.366 110.737C123.819 111.538 122.868 112.091 121.85 112.406C120.832 112.722 119.742 112.821 118.662 112.888C115.358 113.093 112.03 113.016 108.743 112.66C107.52 112.527 106.161 112.282 105.477 111.403C104.951 110.727 104.972 109.853 105.027 109.042C105.171 106.903 105.459 104.657 106.912 102.913" fill="#74483C"/>
<path d="M119.99 102.194C121.623 101.548 123.337 101.052 125.091 101.004C126.845 100.955 128.65 101.385 130.054 102.443C131.441 103.489 132.357 105.095 132.751 106.794C133.144 108.493 133.042 110.281 132.656 111.982C132.604 112.213 132.532 112.465 132.336 112.597C132.2 112.688 132.029 112.704 131.867 112.717C127.338 113.071 122.785 113.093 118.253 112.782C117.856 111.086 117.927 109.282 118.456 107.623" fill="#DF9A6A"/>
<path d="M104.352 66C106.234 71.8102 108.117 77.6203 110 83.4303C107.897 83.3594 95.6951 87.2775 93.7268 88L86 69.5018L104.352 66Z" fill="#00A1D0"/>
<path d="M133.872 128.359L109.7 120.553C103.822 118.655 97.4915 121.799 95.5601 127.576C93.6877 133.176 96.6632 139.203 102.2 141.296L125.964 150.231C132.057 152.521 138.886 149.524 141.217 143.536C143.548 137.548 140.498 130.837 134.405 128.546C134.242 128.484 134.037 128.413 133.872 128.359Z" fill="#053151"/>
<path d="M120.026 136.314L95.4182 209.415C93.998 213.634 96.3119 218.19 100.587 219.591C104.572 220.898 108.87 218.966 110.582 215.285L142.894 145.166C145.706 139.064 142.973 131.867 136.79 129.092C130.606 126.317 123.314 129.014 120.502 135.116C120.322 135.507 120.161 135.916 120.026 136.314Z" fill="#053151"/>
<path d="M111.19 213L123.346 225.977C124.714 227.436 123.812 229.785 121.794 230.02L113.771 230.954C112.111 231.147 110.437 230.728 109.08 229.78L97.5242 221.706C96.4093 220.928 95.6925 219.722 95.5559 218.395L95 213H111.19V213Z" fill="#442418"/>
<path d="M112 215L106 216" stroke="#2E1910" stroke-width="1.36213" stroke-miterlimit="10" stroke-linecap="round" stroke-linejoin="round"/>
<path d="M114 218L108 219" stroke="#2E1910" stroke-width="1.36213" stroke-miterlimit="10" stroke-linecap="round" stroke-linejoin="round"/>
<path d="M115 219L110 220" stroke="#2E1910" stroke-width="1.36213" stroke-miterlimit="10" stroke-linecap="round" stroke-linejoin="round"/>
<path d="M89.7602 125.252L74.4731 120.508C68.6005 118.685 62.3485 121.924 60.5085 127.741C58.7576 133.277 61.6727 139.168 67.0161 141.294L81.8974 147.17C87.9252 149.55 94.7592 146.638 97.1617 140.667C99.5643 134.696 96.6254 127.927 90.5976 125.547C90.3288 125.441 90.0317 125.337 89.7602 125.252Z" fill="#053151"/>
<path d="M77.2124 136.532L73.0129 212.434C72.7656 216.904 76.0933 220.733 80.4454 220.987C84.4966 221.223 88.0133 218.239 88.6789 214.225L100.837 139.233C101.916 132.574 97.5347 126.277 91.0504 125.168C84.566 124.059 78.4344 128.559 77.3548 135.218C77.2843 135.653 77.2372 136.101 77.2124 136.532Z" fill="#053151"/>
<path d="M88.6314 214L100.369 226.977C101.689 228.436 100.818 230.785 98.8696 231.02L91.1239 231.954C89.521 232.147 87.9044 231.728 86.5944 230.78L75.4371 222.706C74.3607 221.928 73.6687 220.722 73.5367 219.395L73 214H88.6314V214Z" fill="#442418"/>
<path d="M90 217L84 218" stroke="#2E1910" stroke-width="1.36213" stroke-miterlimit="10" stroke-linecap="round" stroke-linejoin="round"/>
<path d="M92 219H85" stroke="#2E1910" stroke-width="1.36213" stroke-miterlimit="10" stroke-linecap="round" stroke-linejoin="round"/>
<path d="M94 221L88 222" stroke="#2E1910" stroke-width="1.36213" stroke-miterlimit="10" stroke-linecap="round" stroke-linejoin="round"/>
<path d="M50.3564 114C50.0279 106.316 49.6392 98.0184 49.3107 90.3348C49.0715 84.7402 48.8321 79.134 49.1605 73.5438C49.4501 68.6131 50.4403 63.2253 54.2845 60.0858C56.2191 58.5059 58.6705 57.6905 61.1102 57.1218C65.2574 56.1554 69.5511 55.8093 73.8012 56.0994L91.2235 57.4442C93.7452 57.764 96.2995 58.0918 98.6556 59.0386C101.012 59.9855 103.187 61.6379 104.206 63.948C105.051 65.8654 105.033 68.034 104.978 70.1261C104.656 82.3945 103.487 101.245 103.826 113.513L50.3564 114Z" fill="#44B4E3"/>
<path d="M70.5968 142H118L114.207 121.529L101.674 113H62V131.581C62 136.421 65.8489 142 70.5968 142Z" fill="#053151"/>
<path d="M84 73V83" stroke="#00A1D0" stroke-width="0.908084" stroke-miterlimit="10" stroke-linecap="round" stroke-linejoin="round"/>
<path d="M81.5 76C81.2238 76 81 75.5523 81 75C81 74.4477 81.2238 74 81.5 74C81.7761 74 82 74.4477 82 75C82 75.5523 81.7761 76 81.5 76Z" fill="#00A1D0"/>
<path d="M81.5 79C81.2238 79 81 78.5523 81 78C81 77.4477 81.2238 77 81.5 77C81.7761 77 82 77.4477 82 78C82 78.5523 81.7761 79 81.5 79Z" fill="#00A1D0"/>
<path d="M81.5 82C81.2238 82 81 81.7761 81 81.5C81 81.2239 81.2238 81 81.5 81C81.7761 81 82 81.2239 82 81.5C82 81.7761 81.7761 82 81.5 82Z" fill="#00A1D0"/>
<path d="M92 51.703C91.4289 55.1613 90.5682 60.8241 89.7502 64.2309C89.5831 64.927 83.6445 74 83.6445 74L73 62.9478C73.607 57.7095 74.4698 47.2677 74.7311 42" fill="#8E5F51"/>
<path d="M75 43L92 51.841C91.6986 53.5306 91.3176 55.7792 90.9048 58C84.1212 54.8145 78.1652 49.4855 75 43Z" fill="#74483C"/>
<path d="M73.4531 55.2219L77 67.5997L71.2945 72L69 56.4257C69 56.4257 71.3579 55.08 72.0926 55" fill="#00A1D0"/>
<path d="M90.9461 57L94 58.1924L92.2148 71L88 66.5521L90.9461 57Z" fill="#00A1D0"/>
<path d="M93.7122 8C99.9461 8 105 13.1485 105 19.4994L105 38.2989C105.013 39.7163 104.686 41.1155 104.047 42.375L98.6605 53.0033C98.039 54.2296 96.7975 55 95.4427 55H90.0051C89.2425 55 88.4993 54.7547 87.8816 54.2993L74.644 44.5374C73.344 43.5787 72.5161 42.0924 72.375 40.4636L71.0266 20.2804C70.5827 13.6375 75.7524 8.00019 82.2881 8.00019H93.7122V8Z" fill="#8E5F51"/>
<path d="M96 43.979C95.4032 46.1206 93.2453 47.4147 91.104 46.8792C88.9626 46.3437 87.6401 44.1794 88.0865 42L96 43.979Z" fill="white"/>
<path d="M94.6441 5.0388C94.6441 5.0388 101.926 6.60888 104.888 11.2347C105.257 11.7059 107.194 14.9993 104.888 15.8916C100.503 18.5426 95.0201 18.1305 89.936 17.634C86.0346 17.2529 82.133 16.8721 78.2316 16.491C77.947 16.4632 77.6491 16.4309 77.4116 16.2696C77.1917 16.1201 77.0521 15.8793 76.9233 15.6452C76.3745 14.6478 75.2115 11.9233 74.4318 10.0576C64.5088 14.9208 74.2144 7.48316 75.1529 6.60888C79.7648 2.31277 93.4046 4.48973 94.6441 5.0388Z" fill="black"/>
<path d="M75.2199 10C73.6577 10.1045 72.1127 10.4935 70.6737 11.1446C70.4664 11.2384 70.2503 11.347 70.125 11.5452C69.9638 11.7999 69.9922 12.1338 70.0269 12.4381C70.5414 16.9586 71.0558 21.4794 71.5704 26C72.7976 25.8577 74.0352 25.815 75.2685 25.8725C75.1211 24.1884 75.0546 22.4963 75.0694 20.8051C75.0731 20.3777 75.108 19.8915 75.4239 19.6249C75.6284 19.4523 75.9041 19.4162 76.1644 19.3866C77.1096 19.2791 78.0548 19.1717 79 19.0642C78.2675 16.9869 77.5351 14.9094 76.8026 12.8321" fill="black"/>
<path d="M73 34C70.7909 34 69 31.9853 69 29.5C69 27.0147 70.7909 25 73 25C75.2091 25 77 27.0147 77 29.5C77 31.9853 75.2091 34 73 34Z" fill="#8E5F51"/>
<path d="M73.9023 29.9902C73.6684 29.8354 73.5392 29.5766 73.3453 29.3726C73.1181 29.1333 72.8572 28.9301 72.5657 28.7772C72.0865 28.526 71.636 28.5417 71.1254 28.4577C70.9704 28.4322 70.9623 28.2029 71.0834 28.1312C72.0042 27.5851 74.0947 28.8522 73.9967 29.9352C73.9926 29.9801 73.9455 30.0188 73.9023 29.9902Z" fill="#74483C"/>
<path d="M104.857 25.9569C103.699 26.1519 102.391 25.6284 101.226 25.5215C99.9713 25.4063 98.6471 25.622 97.4165 25.3686C96.8395 25.2498 96.8833 24.298 97.4165 24.1489C98.652 23.8037 100.13 24.1365 101.37 24.3635C102.509 24.5719 104.05 24.7446 104.944 25.6007C105.047 25.6997 105.002 25.9326 104.857 25.9569Z" fill="black"/>
<path d="M84.0633 25.6007C85.064 24.7494 86.8128 24.5709 88.0836 24.3641C89.4847 24.1362 91.1369 23.8033 92.5313 24.1496C93.1308 24.2984 93.1811 25.2498 92.5313 25.3687C91.1466 25.622 89.6571 25.4063 88.2459 25.5215C86.9317 25.6288 85.4662 26.1521 84.1607 25.9567C83.9982 25.9327 83.9466 25.6999 84.0633 25.6007Z" fill="black"/>
<path d="M101 30C100.448 30 100 29.5523 100 29C100 28.4477 100.448 28 101 28C101.552 28 102 28.4477 102 29C102 29.5523 101.552 30 101 30Z" fill="black"/>
<path d="M88.5 30C88.2239 30 88 29.5523 88 29C88 28.4477 88.2239 28 88.5 28C88.7761 28 89 28.4477 89 29C89 29.5523 88.7761 30 88.5 30Z" fill="black"/>
<path d="M95.8468 26L98 39H94" stroke="#74483C" stroke-width="0.908084" stroke-miterlimit="10" stroke-linecap="round" stroke-linejoin="round"/>
<path d="M373.109 123H4.89133C2.19004 123 0 120.985 0 118.5C0 116.015 2.18983 114 4.89133 114H373.109C375.81 114 378 116.015 378 118.5C378 120.985 375.81 123 373.109 123Z" fill="#0A609E"/>
<path d="M373.441 123H278.559C276.041 123 274 120.985 274 118.5C274 116.015 276.041 114 278.559 114H373.441C375.959 114 378 116.015 378 118.5C378 120.985 375.959 123 373.441 123Z" fill="#074978"/>
<path d="M358 123H10V135H358V123Z" fill="#074978"/>
<path d="M366 123H284V135H366V123Z" fill="#06416B"/>
<path d="M100 135H18V231H100V135Z" fill="#0A609E"/>
<path d="M142 135H76V231H142V135Z" fill="#074978"/>
<path d="M142 135H76L142 170V135Z" fill="#064069"/>
<path d="M317 135H235V231H317V135Z" fill="#0A609E"/>
<path d="M359 135H293V231H359V135Z" fill="#074978"/>
<path d="M359 135H293L359 170V135Z" fill="#074470"/>
<path d="M51.8383 64L41.2222 105.299C40.0794 109.745 43.4907 114.058 48.1038 113.999C51.0778 113.962 53.704 112.062 54.6562 109.259L56.5047 103.818L63 79.6834" fill="#8E5F51"/>
<path d="M67.5763 103L47.4665 103.239C44.3248 103.276 41.8453 105.846 42.0075 108.897C42.1605 111.772 44.6131 114.02 47.5735 114L68 113.859L67.5763 103Z" fill="#74483C"/>
<path d="M66.5897 108.565L46.4801 108.784C44.9271 108.801 43.5367 109.389 42.5464 110.316C42.2368 109.741 42.0467 109.103 42.0075 108.427C41.8453 105.619 44.3248 103.254 47.4665 103.22L67.5761 103L68 112.992L66.7779 113L66.5897 108.565Z" fill="#8E5F51"/>
<path d="M66.9491 113H80V107.5C80 104.463 77.2591 102 73.8778 102H69.1222C65.7411 102 63 104.463 63 107.5V109.452C63 111.411 64.768 113 66.9491 113Z" fill="#74483C"/>
<path d="M69.1222 102H73.8778C77.2589 102 80 104.557 80 107.711V109.84C78.924 108.2 76.9868 107.106 74.7753 107.106H70.0196C66.89 107.106 63.3106 107.041 63 108.892C63 108.892 63 110.649 63 109.738V107.711C63 104.557 65.7409 102 69.1222 102Z" fill="#8E5F51"/>
<path d="M46 83.4059L61.5723 88L66.6901 70.1743C67.7393 66.5361 66.057 62.6709 62.6604 60.9157C58.1255 58.5725 52.5522 60.9181 51.1289 65.7692L46 83.4059Z" fill="#44B4E3"/>
<path d="M192.937 55H120.84C120.253 55 119.777 55.4824 119.777 56.0775L112 111H186.223L194 56.0775C194 55.4824 193.524 55 192.937 55Z" fill="#1E2E34"/>
<path d="M194.937 55H122.84C122.253 55 121.777 55.4824 121.777 56.0775L114 111H188.223L196 56.0775C196 55.4824 195.524 55 194.937 55Z" fill="#2F4148"/>
<path d="M155.5 88C153.567 88 152 86.2091 152 84C152 81.7909 153.567 80 155.5 80C157.433 80 159 81.7909 159 84C159 86.2091 157.433 88 155.5 88Z" fill="#233036"/>
<path d="M169.805 114H76.1947C74.4304 114 73 112.558 73 110.779V109H173V110.779C173 112.558 171.57 114 169.805 114Z" fill="#1E2E34"/>
<path d="M185.788 114H114V109H189V110.779C189 112.558 187.562 114 185.788 114Z" fill="#233036"/>
<path d="M106 14.7563L105.889 14L104.5 16L105 21V24L106 14.7563Z" fill="black"/>
<defs>
<linearGradient id="paint0_linear" x1="288.965" y1="35.9943" x2="290.989" y2="35.9943" gradientUnits="userSpaceOnUse">
<stop stop-color="#8E5F51"/>
<stop offset="0.39" stop-color="#885A4C"/>
<stop offset="0.89" stop-color="#794C40"/>
<stop offset="1" stop-color="#74483C"/>
</linearGradient>
<linearGradient id="paint1_linear" x1="272.995" y1="66" x2="272.995" y2="53" gradientUnits="userSpaceOnUse">
<stop stop-color="#8E5F51"/>
<stop offset="0.44" stop-color="#825447"/>
<stop offset="0.79" stop-color="#74483C"/>
</linearGradient>
<linearGradient id="paint2_linear" x1="5229.43" y1="1703.24" x2="6252.76" y2="1703.24" gradientUnits="userSpaceOnUse">
<stop stop-color="#8E5F51"/>
<stop offset="0.39" stop-color="#885A4C"/>
<stop offset="0.89" stop-color="#794C40"/>
<stop offset="1" stop-color="#74483C"/>
</linearGradient>
<linearGradient id="paint3_linear" x1="698.14" y1="342.47" x2="705.31" y2="342.47" gradientUnits="userSpaceOnUse">
<stop stop-color="#8E5F51"/>
<stop offset="0.39" stop-color="#885A4C"/>
<stop offset="0.89" stop-color="#794C40"/>
<stop offset="1" stop-color="#74483C"/>
</linearGradient>
<linearGradient id="paint4_linear" x1="3956.68" y1="2300.36" x2="5287.82" y2="2300.36" gradientUnits="userSpaceOnUse">
<stop stop-color="#8E5F51"/>
<stop offset="0.39" stop-color="#885A4C"/>
<stop offset="0.89" stop-color="#794C40"/>
<stop offset="1" stop-color="#74483C"/>
</linearGradient>
<linearGradient id="paint5_linear" x1="2452.84" y1="2169.75" x2="2710.22" y2="2169.75" gradientUnits="userSpaceOnUse">
<stop stop-color="#8E5F51"/>
<stop offset="0.39" stop-color="#885A4C"/>
<stop offset="0.89" stop-color="#794C40"/>
<stop offset="1" stop-color="#74483C"/>
</linearGradient>
<linearGradient id="paint6_linear" x1="1780.8" y1="2824.86" x2="2021.92" y2="2824.86" gradientUnits="userSpaceOnUse">
<stop stop-color="#8E5F51"/>
<stop offset="0.39" stop-color="#885A4C"/>
<stop offset="0.89" stop-color="#794C40"/>
<stop offset="1" stop-color="#74483C"/>
</linearGradient>
</defs>
</svg>
