<?xml version="1.0" encoding="UTF-8"?>
<svg fill="none" viewBox="0 0 508 239" xmlns="http://www.w3.org/2000/svg">
<path d="m28.457 65.688s1.8865 30.633 30.737 57.716c0 0 7.2399 6.942 10.975 2.025 3.7365-4.919-3.8441-10.021-9.2287-13.766-5.3851-3.746-24.995-31.754-20.875-43.422 0 0-1.0367-3.1451-11.608-2.5529z" fill="#74483C"/>
<path d="m26.992 236.28c-0.2186-1.691-4.2217-2.536-7.6381-3.72-3.4165-1.185-1.024-7.103 0-15.39 0.1792-1.448 0.4373-4.078 0.7402-7.425-2.6421 0.916-6.5161-0.062-8.6152-0.741 0.2069 11.231 0.2389 20.472-0.3221 22.202-1.5381 4.736-2.7338 6.596 4.6238 6.751 7.3566 0.153 11.43 0.014 11.211-1.677z" fill="#212120"/>
<path d="m60.989 234.31c-0.5204-2.861-10.59-3.398-10.59-3.398 0.1464-4.852-0.1019-12.726-0.5356-21.553-2.4762 1.312-6.4637 0.405-8.863-0.355 1.9526 13.467 3.2904 24.697 3.1495 26.593-0.3469 4.688 17.36 1.572 16.839-1.287z" fill="#212120"/>
<path d="m20.209 210.62c1.3995-15.974 3.791-48.204 3.791-48.204s-11.538-4.956-12.71-0.684c-0.7415 2.71 0.1295 28.452 0.4835 48.139 2.0563 0.686 5.8483 1.674 8.4351 0.749z" fill="#8E5F51"/>
<path d="m50 211.36c-1.1474-21.704-3.5548-49.431-3.5548-49.431s-20.533-11.101-15.712 0c2.8713 6.61 7.1954 30.165 10.151 49.092 2.4676 0.725 6.5688 1.592 9.1156 0.339z" fill="#8E5F51"/>
<path d="m44.159 75.301s-0.6925-3.2631-0.6028-5.9093c0.0887-2.6461-4.791-14.023-14.815-14.376-10.024-0.3526-16.322 5.5567-22.798 18.786 0 0 7.6288 4.2325 8.4276 6.7906 0.7978 2.558-1.5091 1.7648-1.6853 4.7624-0.1772 2.9997 1.5956 20.287 2.0399 23.462 0 0-6.2093 4.321-7.2742 12.612s-7.4514 40.572-7.4514 40.572h55l-7.6298-37.236s-1.774-9.863-6.9196-14.095l1.754-22.933s7.9689-5.8211 1.9545-12.435z" fill="#133250"/>
<path d="m27.638 63.534c3.5418 1.5732 8.0936-1.0793 10.362-4.3318-2.3099-2.2851-5.3412-4.0504-9.108-4.1883-1.6095-0.0587-3.1147 0.0701-4.5464 0.3549-0.6005 2.3247-0.8936 6.305 3.2926 8.1652z" fill="#1367A4"/>
<path d="m26 45l9 0.782v12.195c0 2.2225-2.0152 4.0231-4.5 4.0231s-4.5-1.8006-4.5-4.0231c0-0.1434 0.0304-0.2795 0.048-0.4187l-0.048-0.0513v-12.507z" fill="#74483C"/>
<path d="m47.916 17s7.5815 16.758 2.086 21.564c-5.4955 4.8077-37.002-3.5306-37.002-9.2336 0-5.7041 34.916-12.331 34.916-12.331z" fill="#212120"/>
<path d="m26.536 43.175c-2.089 7.6693-15.272 8.8692-17.695 3.6303-2.4229-5.2377 1.3459-7.7839 1.3459-7.7839-12.112-13.683-6.325-35.403 16.349-38.578 22.673-3.1752 31.292 11.511 23.854 18.39-7.4379 6.8805-25.534 0-25.534 0s0.9425 12.076-8.8824 13.059l10.562 11.282z" fill="#212120"/>
<path d="m25.181 19s13.101 5.1705 21.152 1.9839l3.0661 10.001c2.3117 7.5444-2.2604 15.718-10.211 18.258-7.9541 2.5385-16.273-1.5165-18.586-9.0599l-2.603-8.4923c7.9871-1.8825 7.1814-12.691 7.1814-12.691z" fill="#8E5F51"/>
<path d="m19.655 31.486c-0.8624-0.4884-1.942-0.6419-3.0044-0.3059-1.9488 0.6177-3.0706 2.6035-2.504 4.4346 0.5677 1.8335 2.608 2.8183 4.558 2.2018 1.0612-0.336 1.8632-1.083 2.295-1.9824l-1.3446-4.3481z" fill="#8E5F51"/>
<path d="m32.822 28.918c0.4575-0.1306 0.8021-0.394 0.9962-0.7611 0.4046-0.7676 0.0141-1.7246-0.0306-1.8305-0.1141-0.2634-0.434-0.3918-0.7304-0.2933-0.2905 0.1038-0.4351 0.4003-0.3234 0.6647 0.0694 0.1659 0.2293 0.7055 0.0647 1.0159-0.04 0.0728-0.1106 0.1649-0.314 0.2227-0.7927 0.2258-1.4067-0.8735-1.4137-0.8842-0.1388-0.2538-0.4752-0.3587-0.7574-0.2323-0.2776 0.1263-0.3929 0.4335-0.2553 0.6872 0.3811 0.7076 1.3937 1.8016 2.7639 1.4109z" fill="#212120"/>
<path d="m44.822 25.918c0.4587-0.1303 0.8021-0.3931 0.9962-0.7594 0.4057-0.7658 0.0141-1.7218-0.0306-1.8265-0.1118-0.2627-0.4387-0.409-0.7292-0.2916-0.2905 0.1015-0.4352 0.3984-0.3246 0.6633 0.0694 0.1645 0.2293 0.7028 0.0646 1.0126-0.0388 0.0737-0.1093 0.1645-0.3128 0.2222-0.7927 0.2253-1.4078-0.8705-1.4149-0.8823-0.1388-0.2531-0.4763-0.3599-0.7551-0.2307-0.2799 0.125-0.394 0.4315-0.2575 0.6846 0.3822 0.7061 1.3949 1.7966 2.7639 1.4078z" fill="#212120"/>
<path d="M44 30.8057L40.3045 32L38 24.3909L39.2038 24L44 30.8057Z" fill="#74483C"/>
<path d="m42.846 40.859c-1.6168 0.5073-3.3392-0.3958-3.8459-2.0203l5.8594-1.8386c0.5056 1.6234-0.3956 3.3504-2.0135 3.8589z" fill="#E84646"/>
<path d="m42.773 9.2668c0.2323-0.0713 0.4362-0.16635 0.6325-0.26681l3.5943 11.384c-8.2257 3.1595-21.614-1.967-21.614-1.967s0.8245 10.718-7.338 12.583l-4.048-12.817 28.773-8.9158z" fill="#212120"/>
<path d="m14 104c0.2416 2.335 0.4496 4.199 0.5664 5.063 0 0-0.0865 0.063-0.2214 0.171 7.2052 1.078 26.316 1.766 26.316 1.766l0.3394-4.581c-6.396 1.542-21.577-1.306-27-2.419z" fill="#444"/>
<path d="m32.742 74.949c2.8167 0.2501 7.0367-0.4848 11.258-0.9001-0.2011-1.1687-0.4636-3.0636-0.4056-4.716 0.0227-0.661-0.2841-1.8797-0.9193-3.3332-4.9755 0.1913-10.591-0.4479-13.972 1.6905-4.4314 2.7885 0.8192 6.9762 4.0393 7.2588z" fill="#1367A4"/>
<path d="m13 91.27c0.285 3.6664 0.718 8.2054 1.0925 11.813 0.1635 0.068 0.3082 0.15 0.485 0.21 1.5289 0.522 3.8641-0.182 5.414-0.448 3.1715-0.565 6.4204 0.393 9.593 0.766 3.619 0.427 7.0468 1.12 10.517 2.206 0.2032 0.063 0.4164 0.124 0.6318 0.183l1.2671-16.721c-1.2472-0.6808-2.4866-1.6265-3.8509-2.6875-2.4303-1.907-4.9987-4.3672-6.7176-0.693-1.2626 2.7175 2.5143 5.6987 4.0642 7.18 6.2292 5.9858-3.2047 8.4988-7.387 4.8572-2.2491-1.9491-1.5919-5.9327-2.1122-8.5858-1.2516-6.4016-8.5855-2.5777-11.409 0.0643-0.56 0.5233-1.0947 1.1597-1.5874 1.856z" fill="#1367A4"/>
<path d="m7.8007 136.5c11.044-0.973 8.8966-11.522 5.2609-18.267-0.6032-1.122-1.4654-2.634-2.5252-4.236-1.2288 1.938-2.3087 4.372-2.7085 7.313-0.40568 2.995-1.5399 9.093-2.8279 15.687 0.96985-0.251 1.9397-0.422 2.8007-0.497z" fill="#1367A4"/>
<path d="m33.22 127.72c-1.5376-1.428-2.5063-3.714-3.474-5.555-1.1792-2.221-2.9063-4.994-5.7491-4.592-3.0323 0.425-1.7786 6.877-1.5266 8.55 0.7168 4.824 4.7486 7.122 7.1595 10.92 1.6636 2.612 2.148 6.337 5.6855 6.908 2.6751 0.424 5.9595-2.084 7.3075-4.179 1.2197-1.893 2.0099-4.074 3.9485-5.385 0.7704-0.522 1.5912-0.813 2.4285-0.942l-1.8564-9.161s-1.3381-7.509-5.0609-12.234c-3.428-0.226-6.6762 0.228-8.399 2.391-1.3479 1.692-0.0843 3.936 1.1902 5.174 1.6833 1.651 3.8849 2.37 5.348 4.339 0.1468 1.375 0.3057 2.74 0.4526 4.105-2.7365 2.434-5.222 2.318-7.4543-0.339z" fill="#1367A4"/>
<path d="m55 162l-2.6745-13.309c-0.0034-6e-3 -0.0079-0.012-0.0113-0.017-1.104-1.701-4.049-6.167-6.8294-4.17-2.3703 1.701-1.2663 4.982-0.9632 7.451 0.4011 3.371 0.4123 6.726-0.107 10.045h10.585z" fill="#1367A4"/>
<path d="m33.679 162c1.2664-1.477 2.5563-2.799 3.2344-3.699 1.025-1.365 2.7607-3.902 1.812-5.755-1.2518-2.439-2.7932-3.457-5.3933-2.33-1.9198 0.824-9.9009 10.383-10.3 3.425-0.0875-1.432 1.5852-5.625-0.7555-6.341-7.2379-2.211-5.1127 8.4-4.5514 12.148 0.1381 0.923 0.1707 1.766 0.1235 2.552h15.83z" fill="#1367A4"/>
<path d="m6.5009 154.5c0.9975-2.655 0.47033-4.59-1.3189-6.624-0.59772-0.676-1.2679-1.285-1.9509-1.88-0.88481 4.825-1.7128 9.248-2.2311 12 2.2066-0.476 4.6808-1.303 5.5009-3.496z" fill="#1367A4"/>
<path d="m10.989 77c1.6076-1.5361 3.3274-2.929 4.496-4.8343 1.5394-2.5152-0.6844-6.0585-2.5638-9.1657-2.3976 2.7869-4.65 6.3895-6.9211 10.889 0 0 2.6562 1.4321 4.9889 3.1114z" fill="#1367A4"/>
<path d="m6.4449 74s-13.292 27.604-1.699 65.424c0 0 2.8383 9.618 8.4394 7.18 5.6034-2.439 1.5766-10.622-1.2245-16.541-2.8011-5.919-6.0079-39.984 3.21-48.111 0 0 0.6407-3.2502-8.7259-7.9519z" fill="#8E5F51"/>
<path d="m383.15 117.36c0.107-2 0.846-19.677 0.846-30.041 0-12.113-2.28-19.678-8.468-21.405-6.187-1.7273-15.223-4.8866-15.223-4.8866v0.4482c-8e-3 1.1994-0.481 2.3466-1.316 3.1907-0.834 0.844-1.962 1.3162-3.137 1.3133h-6.723c-1.178 0-2.308-0.478-3.141-1.3288s-1.301-2.0048-1.301-3.208v-0.4482s-9.036 3.1921-15.223 4.8866c-6.188 1.6945-8.468 9.2922-8.468 21.405 0 11.151 0.343 26.936 0.343 26.936s-0.322 5.204 9.003 5.772h42.563c1.024 2e-3 2.041-0.153 3.019-0.459l7.226-2.176z" fill="#FA1212"/>
<path d="m368 40v5.3486 0.6514c0.595-0.257 1.101-0.6773 1.456-1.2099s0.544-1.1545 0.544-1.7901-0.189-1.2575-0.544-1.7901-0.861-0.9529-1.456-1.2099z" fill="url(#g)"/>
<path d="m351.56 62.659c-2.646-0.0084-5.247-0.7354-7.562-2.1136v4.7613c-0.012 1.9803 0.689 3.8887 1.958 5.3236 1.268 1.4349 3.005 2.2843 4.843 2.3696h2.398c1.838-0.0881 3.572-0.9384 4.84-2.3726 1.268-1.4343 1.971-3.3411 1.961-5.3206v-5.3068c-2.523 1.7254-5.449 2.6472-8.438 2.6591z" fill="url(#f)"/>
<path d="m367.85 27.748h-17.091c-12.014 0-15.068-0.7103-15.643-1.7484h-0.117v18.653c0 10.097 7.449 18.347 16.505 18.347s16.495-8.2611 16.495-18.347l-0.149-16.905z" clip-rule="evenodd" fill="url(#e)" fill-rule="evenodd"/>
<path d="m371 33.067c-3e-3 -3.3839-0.88-6.7068-2.543-9.6312h-0.185c0-0.0559 0-0.123 0.076-0.1788-0.406-0.6986-0.854-1.3704-1.342-2.0112 0.082-0.2253 0.126-0.4634 0.131-0.7039-1e-3 -0.5211-0.192-1.0232-0.535-1.4078 0.066-0.0999 0.117-0.209 0.153-0.324 0.185-0.267 0.307-0.5746 0.355-0.8983 0.049-0.3238 0.023-0.6546-0.076-0.9662-0.098-0.3115-0.267-0.5952-0.492-0.8282-0.224-0.2331-0.499-0.4091-0.802-0.514 0.091-0.2465 0.139-0.5075 0.142-0.771 6e-3 -0.282-0.044-0.5623-0.146-0.8245-0.101-0.2621-0.253-0.5007-0.447-0.7017-0.193-0.201-0.424-0.3603-0.678-0.4686-0.254-0.1082-0.527-0.1632-0.803-0.1616h-0.076c-0.023-0.1576-0.075-0.3093-0.153-0.4469v-0.0894c0-0.5601-0.217-1.0972-0.604-1.4933-0.387-0.396-0.912-0.6185-1.459-0.6185-0.191 0.0034-0.382 0.0296-0.567 0.0782-0.058-0.0649-0.124-0.12136-0.197-0.16755-0.09-0.2843-0.239-0.54539-0.437-0.76564-0.197-0.22024-0.439-0.39451-0.708-0.51102s-0.559-0.17255-0.851-0.16434-0.579 0.08049-0.841 0.21195c-0.158-0.3813-0.423-0.70643-0.761-0.93491-0.337-0.22848-0.733-0.3502-1.138-0.35001-0.327 0.00616-0.649 0.09033-0.938 0.24581-0.349-0.37505-0.821-0.60439-1.325-0.64361s-1.004 0.11448-1.404 0.43132h-0.273c-0.123-0.0116-0.247-0.0116-0.371 0-0.364-0.29381-0.813-0.455-1.277-0.4581-0.276 0.00284-0.55 0.06155-0.805 0.17274-0.254 0.1112-0.485 0.27271-0.679 0.4753-0.29-0.15199-0.612-0.23234-0.938-0.23463-0.407-0.0024-0.805 0.11829-1.145 0.34691-0.34 0.22861-0.606 0.55495-0.765 0.938-0.275-0.13819-0.578-0.21077-0.884-0.21229-0.47 7.6e-4 -0.925 0.16478-1.292 0.4652-0.367 0.30041-0.623 0.71943-0.727 1.1885-0.312-0.1129-0.646-0.14736-0.973-0.1005-0.328 0.0469-0.639 0.1737-0.909 0.3698s-0.489 0.4557-0.64 0.7569-0.23 0.6352-0.228 0.9738c-0.017 0.1596-0.017 0.3207 0 0.4804v0.0782h-0.262c-0.547 0-1.072 0.2225-1.459 0.6185-0.386 0.3961-0.604 0.9332-0.604 1.4933 1e-3 0.2647 0.053 0.5266 0.153 0.7709-0.409 0.1383-0.765 0.4049-1.017 0.7618-0.253 0.3569-0.39 0.7862-0.391 1.227 1e-3 0.435 0.131 0.8596 0.371 1.2179 0.044 0.1135 0.099 0.2221 0.164 0.324-0.253 0.2781-0.426 0.6234-0.497 0.9967s-0.039 0.7596 0.093 1.1151c-2.579 3.3753-3.985 7.5354-3.994 11.821v0.0559c0.031 4.0597 0.739 8.0842 2.095 11.899v-9.486c3.015 0.9534 6.154 1.4356 9.309 1.4301h11.667l-2.03-7.3296v-0.1676 0.1676c0.327 1.1173 2.674 6.7933 14.831 7.2961v8.067c1.344-3.8184 2.052-7.8408 2.095-11.899l0.033-0.0112z" fill="#000"/>
<path d="m334.99 46.034v-6.0345c-0.857 0.2045-1.614 0.6587-2.154 1.2917-0.541 0.6331-0.834 1.4095-0.834 2.2083s0.293 1.5752 0.834 2.2083c0.54 0.633 1.297 1.0872 2.154 1.2917 0.027-0.35 0-0.6517 0-0.9655z" fill="url(#d)"/>
<path d="m344.94 43.153c-0.225-0.3517-0.513-0.6375-0.841-0.8362-0.328-0.1988-0.688-0.3055-1.054-0.3123-0.416-0.0291-0.83 0.0911-1.19 0.3457-0.36 0.2547-0.652 0.6326-0.837 1.0868-0.031 0.0996-0.031 0.2092 0 0.3088 0.014 0.0515 0.038 0.0983 0.07 0.1368 0.031 0.0385 0.07 0.0678 0.112 0.0855 0.081 0.0415 0.172 0.0428 0.253 0.0036 0.082-0.0393 0.147-0.116 0.183-0.2136 0.134-0.3028 0.338-0.5515 0.587-0.7159 0.248-0.1644 0.53-0.2375 0.812-0.2103 0.259 0.0013 0.516 0.0742 0.749 0.2132 0.234 0.139 0.438 0.3405 0.599 0.5895 0.025 0.0438 0.057 0.0811 0.094 0.1098s0.079 0.0482 0.122 0.0574c0.043 0.0091 0.088 0.0078 0.131-0.0039 0.042-0.0117 0.083-0.0336 0.119-0.0645 0.073-0.0645 0.123-0.1604 0.14-0.2682s-1e-3 -0.2194-0.049-0.3122z" fill="#000"/>
<path d="m362.9 43.15c-0.282-0.3492-0.639-0.6331-1.046-0.8313-0.407-0.1983-0.853-0.3059-1.308-0.3154-0.516-0.0259-1.028 0.0955-1.475 0.3494s-0.809 0.6294-1.042 1.0809c-0.037 0.0995-0.037 0.2088 0 0.3083 0.018 0.0514 0.048 0.0982 0.087 0.1366 0.04 0.0385 0.087 0.0677 0.14 0.0853 0.049 0.0223 0.103 0.0345 0.157 0.036 0.054 0.0014 0.108-8e-3 0.159-0.0275 0.051-0.0196 0.097-0.049 0.135-0.0865 0.039-0.0375 0.069-0.0822 0.09-0.1316 0.167-0.3023 0.42-0.5506 0.728-0.7148 0.309-0.1641 0.659-0.2371 1.009-0.2099 0.321-5e-4 0.638 0.0715 0.926 0.2105s0.539 0.3412 0.735 0.5909c0.028 0.0527 0.068 0.0989 0.116 0.1354 0.048 0.0366 0.104 0.0626 0.163 0.0764s0.121 0.0151 0.181 0.0038c0.059-0.0114 0.116-0.0351 0.166-0.0696 0.049-0.0345 0.091-0.079 0.122-0.1305 0.03-0.0515 0.049-0.1089 0.056-0.1682 6e-3 -0.0593-1e-3 -0.1193-0.02-0.1759s-0.051-0.1085-0.092-0.1523h0.013z" fill="#000"/>
<path d="m351.78 51c-0.473 0-0.927-0.1794-1.262-0.4988-0.335-0.3195-0.523-0.7527-0.523-1.2044v-2.0924c3e-3 -0.0551 0.027-0.1071 0.069-0.1452 0.042-0.038 0.098-0.0593 0.155-0.0592 0.029 0 0.056 0.0053 0.082 0.0156 0.026 0.0102 0.05 0.0253 0.07 0.0443 0.02 0.0189 0.036 0.0415 0.046 0.0663 0.011 0.0248 0.017 0.0513 0.017 0.0782v2.0924c0 0.3408 0.142 0.6675 0.394 0.9084 0.253 0.241 0.595 0.3763 0.952 0.3763 0.03 0 0.058 0.0056 0.085 0.0164 0.027 0.0109 0.051 0.0268 0.071 0.0469 0.02 0.02 0.035 0.0437 0.045 0.0696 0.011 0.0259 0.015 0.0536 0.014 0.0812 0 0.0542-0.023 0.1062-0.063 0.1445-0.04 0.0384-0.095 0.0599-0.152 0.0599z" fill="#734139"/>
<path d="m351.7 54.008h-0.4c-1.467-0.0409-2.918-0.3816-4.295-1.0085 0.241 0.679 0.615 1.2717 1.089 1.7233 0.978 0.839 2.14 1.2846 3.329 1.2766h0.174c1.186 0.0078 2.344-0.4379 3.319-1.2766 0.48-0.4441 0.856-1.0389 1.089-1.7233-1.38 0.6298-2.835 0.9706-4.305 1.0085z" fill="#fff"/>
<path d="m361.98 46c-0.523 0-1.041 0.0777-1.524 0.2286-0.483 0.1508-0.922 0.3719-1.291 0.6506-0.37 0.2787-0.662 0.6095-0.861 0.9734-0.199 0.3638-0.301 0.7537-0.299 1.1472h8c2e-3 -0.3967-0.102-0.7897-0.304-1.1561-0.202-0.3663-0.499-0.6988-0.873-0.978-0.375-0.2792-0.82-0.4995-1.309-0.6481s-1.012-0.2226-1.539-0.2176z" fill="#F39B9B" opacity=".2"/>
<path d="m341.49 46c-0.927 0.0025-1.816 0.3197-2.471 0.882-0.655 0.5624-1.023 1.324-1.023 2.118h7c0-0.7956-0.369-1.5587-1.027-2.1213-0.657-0.5626-1.549-0.8787-2.479-0.8787z" fill="#F39B9B" opacity=".2"/>
<path d="M371 161L382.712 238H387L374.701 161H371Z" fill="#023042"/>
<path d="m330.3 161l-12.299 77h4.288l11.712-77h-3.701z" fill="#023042"/>
<path d="m395 136.05c0 22.22-24.696 29.949-41.006 29.949-16.309 0-40.994-7.729-40.994-29.949s24.685-63.051 40.994-63.051c16.31 0 41.006 40.842 41.006 63.051z" fill="#EF774E"/>
<path d="m324.27 144.96l-8.222 82.146c-0.103 0.865-0.024 1.742 0.229 2.573s0.676 1.598 1.24 2.249c0.565 0.652 1.258 1.173 2.034 1.53 0.775 0.358 1.616 0.542 2.467 0.542h-1.508c2.709 0 4.483-1.848 5.205-4.534l21.832-79.678c0.301-1.112 0.454-2.261 0.457-3.414 0-4.067-1.254-12.374-11.516-12.374h-0.298c-2.948 0.034-5.783 1.165-7.977 3.182-2.193 2.017-3.595 4.782-3.943 7.778z" fill="#2362AC"/>
<path d="m377.35 122.33s-4.611-7.331-23.258-7.331c-19.882 0-28.854 9.065-37.209 17.338-8.355 8.272-31.884 60.328-31.884 60.328l10.108 4.334 36.062-52.997h43.204s10.347-10.221 2.977-21.672z" fill="#4979BC"/>
<path d="m377.29 122.33s-4.712-7.33-23.769-7.33c-1.571 0-3.075 0.064-4.524 0.171 15.12 1.07 19.035 7.159 19.035 7.159 7.532 11.45-3.097 21.67-3.097 21.67h9.313s10.574-10.22 3.042-21.67z" fill="#2362AC"/>
<path d="m361.24 117c-0.101 0.442-0.352 0.837-0.711 1.12-0.358 0.283-0.804 0.438-1.264 0.439h-13.534c-0.46-1e-3 -0.906-0.156-1.264-0.439-0.359-0.283-0.61-0.678-0.711-1.12h-33.758v2c3e-3 0.53 0.218 1.037 0.598 1.411 0.38 0.375 0.895 0.586 1.432 0.589h80.94c0.267 0 0.531-0.052 0.777-0.152 0.246-0.101 0.47-0.248 0.658-0.434 0.189-0.186 0.338-0.406 0.44-0.649 0.102-0.242 0.155-0.502 0.155-0.765v-2h-33.758z" fill="#000"/>
<path d="m317 120v-46.055c3e-3 -0.5168 0.214-1.0114 0.589-1.3759 0.374-0.3644 0.88-0.569 1.408-0.569h66.017c0.526 0.0028 1.029 0.2086 1.401 0.5727 0.372 0.3642 0.582 0.8573 0.585 1.3722v46.055h-70z" fill="#023042"/>
<path d="m351.5 103c2.485 0 4.5-2.239 4.5-5 0-2.7614-2.015-5-4.5-5s-4.5 2.2386-4.5 5c0 2.761 2.015 5 4.5 5z" fill="#CBCDD8"/>
<path d="m316.97 99c-3.059 4.963-13.248 9.992-16.893 10.511l-6.174 0.962c-3.75 0.45-7.409 1.468-10.851 3.017 0 0-4.752 2.066-3.96 4.758 0.095 0.397 0.286 0.764 0.557 1.069 0.27 0.305 0.612 0.54 0.995 0.683 1.269-3.493 6-5.72 10.21-5.72 3.57 0 7.508 1.6 9.396 4.217 7.259 0 13.389-4.012 16.753-6.726l-0.033-12.771z" fill="url(#c)"/>
<path d="m327.05 226h-11.105s-2.942 5.696-2.942 9h17c0.033-3.304-2.953-9-2.953-9z" fill="url(#b)"/>
<path d="m324.15 231h-5.313c-3.187 0-5.833 2.057-5.833 6h17c-0.032-4.138-2.656-6-5.854-6z" fill="#023042"/>
<path d="m294.92 197.25l-5.149-2.219-4.725-2.03s-4.788 4.338-6.041 7.51l7.358 3.162 7.771 3.328c1.253-3.095 0.786-9.751 0.786-9.751z" fill="url(#a)"/>
<path d="m290.01 201.84l-5.148-2.236c-3.11-1.355-6.418-0.509-7.864 3.221l16.43 7.172c1.577-3.916-0.296-6.789-3.418-8.157z" fill="#023042"/>
<path d="m301 121c0-4.19-5.62-7-10.505-7-4.886 0-10.495 2.79-10.495 7h21z" fill="#000"/>
<path d="m473.5 45.568l-1e-3 0.013v48.837l1e-3 0.0131c0.053 1.0148-0.304 2.0112-0.998 2.7733-0.691 0.7589-1.66 1.2249-2.701 1.295h-81.603c-1.039-0.0701-2.007-0.5363-2.696-1.2952-0.692-0.7622-1.047-1.7583-0.991-2.7718v-0.0137-48.838-0.0131c-0.053-1.0133 0.303-2.0083 0.994-2.7702 0.689-0.7585 1.655-1.2255 2.694-1.2981h81.602c1.041 0.0701 2.01 0.5361 2.701 1.295 0.694 0.7621 1.051 1.7585 0.998 2.7734z" fill="#C4C4C4" stroke="#D2D4D5"/>
<path d="m417.92 117h21.187c0.25-1e-3 0.498 0.055 0.729 0.167 0.232 0.112 0.442 0.277 0.618 0.485 0.177 0.208 0.316 0.456 0.41 0.728 0.095 0.271 0.142 0.563 0.139 0.856v1.764h-25v-1.764c-3e-3 -0.295 0.045-0.589 0.14-0.862 0.096-0.274 0.237-0.522 0.416-0.731 0.179-0.208 0.391-0.372 0.625-0.483 0.234-0.11 0.484-0.165 0.736-0.16z" fill="#023042"/>
<path d="m436.92 88h-18.739l-0.185 29h19l-0.076-29zm-9.359 19.732c-0.862 0-1.704-0.253-2.421-0.726-0.716-0.473-1.275-1.146-1.605-1.932-0.33-0.787-0.416-1.653-0.248-2.488 0.168-0.836 0.583-1.603 1.193-2.205 0.609-0.6021 1.386-1.0122 2.231-1.1784 0.846-0.1661 1.722-0.0808 2.518 0.2451s1.477 0.8773 1.956 1.5863c0.479 0.708 0.734 1.54 0.734 2.392 0 1.142-0.459 2.237-1.276 3.044-0.817 0.808-1.926 1.262-3.082 1.262z" clip-rule="evenodd" fill="#999EA3" fill-rule="evenodd"/>
<path d="m428.5 73c2.485 0 4.5-2.2386 4.5-5s-2.015-5-4.5-5-4.5 2.2386-4.5 5 2.015 5 4.5 5z" fill="#fff"/>
<path d="m493.79 178.99c-0.306-1.898-1.102-3.921-2.761-4.704-1.527-0.721-3.307-0.175-4.844 0.522 1.679-2.943 1.742-6.843 0.161-9.845-0.377-0.717-0.866-1.407-1.555-1.78-0.69-0.374-1.616-0.35-2.159 0.235 0.343-2.656-0.053-5.4-1.063-7.856-0.367-1.149-0.842-2.259-1.419-3.306-0.612-1.11-1.607-2.27-2.776-2.163-0.052-0.018-0.104-0.035-0.159-0.047-1.253-0.292-2.345 0.926-3.006 2.092-0.703 1.238-1.26 2.566-1.664 3.946-0.891 2.311-1.243 4.858-0.954 7.337-0.536-0.592-1.462-0.629-2.156-0.264-0.694 0.364-1.191 1.047-1.577 1.758-1.617 2.981-1.601 6.881 0.042 9.847-1.528-0.718-3.301-1.288-4.837-0.588-1.668 0.761-2.489 2.773-2.818 4.666-1.017 5.852 1.242 11.948 4.894 16.468 1.719 2.126 3.847 4.035 6.414 4.694l10.674-5e-3c2.575-0.625 4.726-2.504 6.47-4.607 3.707-4.47 6.039-10.534 5.093-16.4z" fill="#3BBF64"/>
<path d="m461.03 201c-2.487-1.154-5.066-2.38-6.773-4.521-1.706-2.141-2.231-5.487-0.424-7.545-3.58-1.041-6.49-4.11-7.335-7.733-0.496-2.13-0.029-4.829 1.979-5.707-2.186-1.225-2.963-3.958-3.298-6.437-0.201-1.49-0.313-3.028 0.078-4.48 0.39-1.453 1.365-2.821 2.781-3.338 1.198-0.438 2.544-0.22 3.742 0.218 3.669 1.342 6.455 4.833 6.942 8.701 0.99-1.726 3.468-2.394 5.194-1.399 1.822 1.049 2.445 3.361 2.625 5.451 0.182 2.108 0.085 4.239-0.287 6.321 0.714-1.267 2.423-1.762 3.816-1.335 1.393 0.428 2.457 1.613 3.043 2.944 0.585 1.332 0.75 2.806 0.829 4.258 0.259 4.824-0.393 9.753-2.385 14.157" fill="#53D47B"/>
<path d="m448.04 163.27c1.977 2.281 3.682 4.766 5.402 7.234 1.719 2.465 3.414 4.949 5.005 7.495 3.21 5.137 5.706 10.574 7.729 16.255 1.123 3.155 2.06 6.37 3.176 9.527 0.136 0.387 0.746 0.232 0.633-0.171-0.815-2.899-1.796-5.768-2.797-8.611s-2.089-5.658-3.339-8.406c-2.511-5.522-5.816-10.614-9.354-15.553-1.952-2.725-3.83-5.616-6.232-7.988-0.145-0.144-0.353 0.068-0.223 0.218z" fill="#2DA151"/>
<path d="m490.86 202c2.657-1.241 5.415-2.558 7.239-4.86s2.385-5.899 0.453-8.111c3.827-1.12 6.938-4.418 7.841-8.313 0.531-2.29 0.031-5.191-2.116-6.135 2.337-1.317 3.168-4.255 3.526-6.92 0.215-1.602 0.335-3.255-0.083-4.816s-1.46-3.032-2.973-3.588c-1.281-0.471-2.72-0.237-4 0.234-3.922 1.443-6.9 5.196-7.421 9.353-1.058-1.855-3.707-2.572-5.552-1.504-1.948 1.128-2.613 3.614-2.806 5.861-0.194 2.266-0.091 4.557 0.307 6.795-0.763-1.362-2.59-1.895-4.079-1.435-1.49 0.46-2.627 1.734-3.253 3.165s-0.803 3.016-0.886 4.577c-0.278 5.185 0.419 10.485 2.549 15.218" fill="#53D47B"/>
<path d="m504.73 161.05c-2.328 2.27-4.165 4.984-6.068 7.58-1.94 2.647-3.846 5.314-5.613 8.071-3.534 5.509-6.294 11.346-8.536 17.443-1.267 3.447-2.481 6.937-3.497 10.46-0.117 0.406 0.511 0.564 0.651 0.172 1.076-3.009 1.993-6.071 3.058-9.085 1.083-3.065 2.257-6.104 3.618-9.067 2.688-5.852 6.24-11.247 9.962-16.533 2.117-3.004 4.204-6.054 6.655-8.82 0.134-0.151-0.081-0.366-0.23-0.221z" fill="#2DA151"/>
<path d="m494 200h-36v11h36v-11z" fill="#00B4EC"/>
<path d="m488.12 237h-25.243l-2.878-26h31l-2.879 26z" fill="#0093C2"/>
<path d="m128.17 150h52.662c4.512 0 8.169-3.705 8.169-8.275v-71.45c0-4.57-3.657-8.2746-8.169-8.2746h-52.662c-4.512 0-8.169 3.7046-8.169 8.2746v71.45c0 4.57 3.657 8.275 8.169 8.275z" fill="#000"/>
<path d="m195.5 149c0.828 0 1.5-0.59 1.5-1.319v-26.362c0-0.728-0.672-1.319-1.5-1.319-0.829 0-1.5 0.59-1.5 1.319v26.362c0 0.728 0.671 1.319 1.5 1.319z" fill="#000"/>
<path d="m189 122h12v-4.182c0-3.213-2.686-5.818-6-5.818s-6 2.605-6 5.818v4.182z" fill="#000"/>
<path d="m159 222h-9v-49h9v49z" fill="#000"/>
<path d="m122 230h66v-3.479c0-3.049-2.406-5.521-5.374-5.521h-55.252c-2.968 0-5.374 2.472-5.374 5.521v3.479z" fill="#000"/>
<path d="m163 196h-16v-38h16v38z" fill="#000"/>
<path d="m182.5 237c-2.485 0-4.5-2.015-4.5-4.5s2.015-4.5 4.5-4.5 4.5 2.015 4.5 4.5-2.015 4.5-4.5 4.5z" fill="#000"/>
<path d="m127 237c-2.209 0-4-2.015-4-4.5s1.791-4.5 4-4.5 4 2.015 4 4.5-1.791 4.5-4 4.5z" fill="#000"/>
<path d="m201 155.13v-0.268c0-3.24-2.582-5.866-5.766-5.866h-81.468c-3.184 0-5.766 2.626-5.766 5.866v0.268c0 3.239 2.582 5.866 5.766 5.866h81.468c3.184 0 5.766-2.627 5.766-5.866z" fill="#000"/>
<path d="m114 151c0.552 0 1-0.584 1-1.304v-27.392c0-0.72-0.448-1.304-1-1.304s-1 0.584-1 1.304v27.392c0 0.72 0.448 1.304 1 1.304z" fill="#000"/>
<path d="m166 78l17.535 38.873c1.887 4.184 7.275 5.455 10.868 2.563 2.316-1.864 3.191-4.971 2.184-7.752l-1.957-5.399-10.017-22.897" fill="#8E5F51"/>
<path d="m185.98 110.36c0.386-0.655 1.294-0.937 2.132-1.088 3.144-0.568 6.408-0.131 9.561 0.401 1.758 0.296 3.509 0.621 5.252 0.975 0.121 0.024 0.248 0.052 0.338 0.124 0.1 0.081 0.137 0.202 0.169 0.316 0.353 1.292 0.554 2.615 0.57 3.941 0.011 0.934-0.083 1.907-0.633 2.713-0.547 0.801-1.498 1.354-2.516 1.669-1.018 0.316-2.108 0.415-3.188 0.482-3.304 0.205-6.632 0.128-9.919-0.228-1.223-0.133-2.582-0.378-3.266-1.257-0.526-0.676-0.505-1.55-0.45-2.361 0.144-2.139 0.432-4.385 1.885-6.129" fill="#74483C"/>
<path d="m198.99 109.19c1.633-0.646 3.347-1.142 5.101-1.19 1.754-0.049 3.559 0.381 4.963 1.439 1.387 1.046 2.303 2.652 2.697 4.351 0.393 1.699 0.291 3.487-0.095 5.188-0.052 0.231-0.124 0.483-0.32 0.615-0.136 0.091-0.307 0.107-0.469 0.12-4.529 0.354-9.082 0.376-13.614 0.065-0.397-1.696-0.326-3.5 0.203-5.159" fill="#DF9A6A"/>
<path d="m183.35 73c1.882 5.8102 3.765 11.62 5.648 17.43-2.103-0.0709-14.305 3.8472-16.273 4.5697l-7.727-18.498 18.352-3.5018z" fill="#00A1D0"/>
<path d="m212.87 135.36l-24.172-7.806c-5.878-1.898-12.208 1.246-14.14 7.023-1.872 5.6 1.103 11.627 6.64 13.72l23.764 8.935c6.093 2.29 12.922-0.707 15.253-6.695s-0.719-12.699-6.812-14.99c-0.163-0.062-0.368-0.133-0.533-0.187z" fill="#053151"/>
<path d="m199.03 143.31l-24.608 73.101c-1.42 4.219 0.894 8.775 5.169 10.176 3.985 1.307 8.283-0.625 9.995-4.306l32.312-70.119c2.812-6.102 0.079-13.299-6.104-16.074-6.184-2.775-13.476-0.078-16.288 6.024-0.18 0.391-0.341 0.8-0.476 1.198z" fill="#053151"/>
<path d="m190.19 220l12.156 12.977c1.368 1.459 0.466 3.808-1.552 4.043l-8.023 0.934c-1.66 0.193-3.334-0.226-4.691-1.174l-11.556-8.074c-1.115-0.778-1.831-1.984-1.968-3.311l-0.556-5.395h16.19z" fill="#442418"/>
<path d="m191 222l-6 1" stroke="#2E1910" stroke-linecap="round" stroke-linejoin="round" stroke-miterlimit="10" stroke-width="1.3621"/>
<path d="m193 225l-6 1" stroke="#2E1910" stroke-linecap="round" stroke-linejoin="round" stroke-miterlimit="10" stroke-width="1.3621"/>
<path d="m194 226l-5 1" stroke="#2E1910" stroke-linecap="round" stroke-linejoin="round" stroke-miterlimit="10" stroke-width="1.3621"/>
<path d="m168.76 132.25l-15.287-4.744c-5.872-1.823-12.125 1.416-13.964 7.233-1.751 5.536 1.164 11.427 6.507 13.553l14.881 5.876c6.028 2.38 12.862-0.532 15.265-6.503 2.402-5.971-0.537-12.74-6.564-15.12-0.269-0.106-0.566-0.21-0.838-0.295z" fill="#053151"/>
<path d="m156.21 143.53l-4.199 75.902c-0.247 4.47 3.08 8.299 7.432 8.553 4.052 0.236 7.568-2.748 8.234-6.762l12.158-74.992c1.079-6.659-3.302-12.956-9.787-14.065-6.484-1.109-12.616 3.391-13.695 10.05-0.071 0.435-0.118 0.883-0.143 1.314z" fill="#053151"/>
<path d="m167.63 221l11.738 12.977c1.32 1.459 0.449 3.808-1.499 4.043l-7.746 0.934c-1.603 0.193-3.22-0.226-4.53-1.174l-11.157-8.074c-1.076-0.778-1.768-1.984-1.9-3.311l-0.537-5.395h15.631z" fill="#442418"/>
<path d="m169 224l-6 1" stroke="#2E1910" stroke-linecap="round" stroke-linejoin="round" stroke-miterlimit="10" stroke-width="1.3621"/>
<path d="m171 226h-7" stroke="#2E1910" stroke-linecap="round" stroke-linejoin="round" stroke-miterlimit="10" stroke-width="1.3621"/>
<path d="m173 228l-6 1" stroke="#2E1910" stroke-linecap="round" stroke-linejoin="round" stroke-miterlimit="10" stroke-width="1.3621"/>
<path d="m129.36 121c-0.328-7.684-0.717-15.982-1.045-23.665-0.239-5.5946-0.479-11.201-0.151-16.791 0.29-4.9307 1.28-10.318 5.125-13.458 1.934-1.5799 4.385-2.3953 6.825-2.964 4.147-0.9664 8.441-1.3125 12.691-1.0224l17.422 1.3448c2.522 0.3198 5.076 0.6476 7.433 1.5944 2.356 0.9469 4.531 2.5993 5.55 4.9094 0.845 1.9174 0.827 4.086 0.772 6.1781-0.322 12.268-1.491 31.119-1.152 43.387l-53.47 0.487z" fill="#44B4E3"/>
<path d="m149.6 149h47.403l-3.793-20.471-12.533-8.529h-39.674v18.581c0 4.84 3.849 10.419 8.597 10.419z" fill="#053151"/>
<path d="m163 80v10" stroke="#00A1D0" stroke-linecap="round" stroke-linejoin="round" stroke-miterlimit="10" stroke-width=".90808"/>
<path d="m160.5 83c-0.276 0-0.5-0.4477-0.5-1s0.224-1 0.5-1 0.5 0.4477 0.5 1-0.224 1-0.5 1z" fill="#00A1D0"/>
<path d="m160.5 86c-0.276 0-0.5-0.4477-0.5-1s0.224-1 0.5-1 0.5 0.4477 0.5 1-0.224 1-0.5 1z" fill="#00A1D0"/>
<path d="m160.5 89c-0.276 0-0.5-0.2239-0.5-0.5s0.224-0.5 0.5-0.5 0.5 0.2239 0.5 0.5-0.224 0.5-0.5 0.5z" fill="#00A1D0"/>
<path d="m171 58.703c-0.571 3.4583-1.432 9.1211-2.25 12.528-0.167 0.6961-6.106 9.7691-6.106 9.7691l-10.644-11.052c0.607-5.2383 1.47-15.68 1.731-20.948" fill="#8E5F51"/>
<path d="m154 50l17 8.841c-0.301 1.6896-0.682 3.9382-1.095 6.159-6.784-3.1855-12.74-8.5145-15.905-15z" fill="#74483C"/>
<path d="m152.45 62.222l3.547 12.378-5.706 4.4003-2.294-15.574s2.358-1.3457 3.093-1.4257" fill="#00A1D0"/>
<path d="M169.946 64L173 65.1924L171.215 78L167 73.5521L169.946 64Z" fill="#00A1D0"/>
<path d="m172.71 15c6.234 0 11.288 5.1485 11.288 11.499v18.8c0.013 1.4174-0.314 2.8166-0.953 4.0761l-5.387 10.628c-0.621 1.2263-1.862 1.9967-3.217 1.9967h-5.438c-0.763 0-1.506-0.2453-2.123-0.7007l-13.238-9.7619c-1.3-0.9587-2.128-2.445-2.269-4.0738l-1.348-20.183c-0.444-6.6429 4.725-12.28 11.261-12.28h11.424v-2e-4z" fill="#8E5F51"/>
<path d="m175 50.979c-0.597 2.1416-2.755 3.4357-4.896 2.9002s-3.464-2.6998-3.017-4.8792l7.913 1.979z" fill="#fff"/>
<path d="m173.64 12.039s7.282 1.5701 10.244 6.1959c0.369 0.4712 2.306 3.7646 0 4.6569-4.385 2.651-9.868 2.2389-14.952 1.7424-3.901-0.3811-7.803-0.7619-11.704-1.143-0.285-0.0278-0.583-0.0601-0.82-0.2214-0.22-0.1495-0.36-0.3903-0.489-0.6244-0.549-0.9974-1.711-3.7219-2.491-5.5876-9.923 4.8632-0.218-2.5744 0.721-3.4487 4.612-4.2961 18.252-2.1192 19.491-1.5701z" fill="#000"/>
<path d="m154.22 17c-1.562 0.1045-3.107 0.4935-4.546 1.1446-0.208 0.0938-0.424 0.2024-0.549 0.4006-0.161 0.2547-0.133 0.5886-0.098 0.8929 0.514 4.5205 1.029 9.0413 1.543 13.562 1.228-0.1423 2.465-0.185 3.698-0.1275-0.147-1.6841-0.213-3.3762-0.199-5.0674 4e-3 -0.4274 0.039-0.9136 0.355-1.1802 0.204-0.1726 0.48-0.2087 0.74-0.2383 0.946-0.1075 1.891-0.2149 2.836-0.3224-0.733-2.0773-1.465-4.1548-2.197-6.2321" fill="#000"/>
<path d="m152 41c-2.209 0-4-2.0147-4-4.5s1.791-4.5 4-4.5 4 2.0147 4 4.5-1.791 4.5-4 4.5z" fill="#8E5F51"/>
<path d="m152.9 36.99c-0.234-0.1548-0.363-0.4136-0.557-0.6176-0.227-0.2393-0.488-0.4425-0.779-0.5954-0.479-0.2512-0.93-0.2355-1.441-0.3195-0.155-0.0255-0.163-0.2548-0.042-0.3265 0.921-0.5461 3.012 0.721 2.914 1.804-4e-3 0.0449-0.051 0.0836-0.095 0.055z" fill="#74483C"/>
<path d="m183.86 32.957c-1.158 0.195-2.466-0.3285-3.631-0.4354-1.255-0.1152-2.579 0.1005-3.81-0.1529-0.576-0.1188-0.533-1.0706 0-1.2197 1.236-0.3452 2.714-0.0124 3.954 0.2146 1.139 0.2084 2.68 0.3811 3.574 1.2372 0.103 0.099 0.058 0.3319-0.087 0.3562z" fill="#000"/>
<path d="m163.06 32.601c1.001-0.8513 2.75-1.0298 4.021-1.2366 1.401-0.2279 3.053-0.5608 4.447-0.2145 0.6 0.1488 0.65 1.1002 0 1.2191-1.384 0.2533-2.874 0.0376-4.285 0.1528-1.314 0.1073-2.78 0.6306-4.085 0.4352-0.163-0.024-0.214-0.2568-0.098-0.356z" fill="#000"/>
<path d="m180 37c-0.552 0-1-0.4477-1-1s0.448-1 1-1 1 0.4477 1 1-0.448 1-1 1z" fill="#000"/>
<path d="m167.5 37c-0.276 0-0.5-0.4477-0.5-1s0.224-1 0.5-1 0.5 0.4477 0.5 1-0.224 1-0.5 1z" fill="#000"/>
<path d="m174.85 33l2.153 13h-4" stroke="#74483C" stroke-linecap="round" stroke-linejoin="round" stroke-miterlimit="10" stroke-width=".90808"/>
<path d="m452.11 130h-368.22c-2.7013 0-4.8913-2.015-4.8913-4.5s2.1898-4.5 4.8913-4.5h368.22c2.701 0 4.891 2.015 4.891 4.5s-2.19 4.5-4.891 4.5z" fill="#0A609E"/>
<path d="m452.44 130h-94.882c-2.518 0-4.559-2.015-4.559-4.5s2.041-4.5 4.559-4.5h94.882c2.518 0 4.559 2.015 4.559 4.5s-2.041 4.5-4.559 4.5z" fill="#074978"/>
<path d="M437 130H89V142H437V130Z" fill="#074978"/>
<path d="m445 130h-82v12h82v-12z" fill="#06416B"/>
<path d="m179 142h-82v96h82v-96z" fill="#0A609E"/>
<path d="m221 142h-66v96h66v-96z" fill="#074978"/>
<path d="m221 142h-66l66 35v-35z" fill="#064069"/>
<path d="m396 142h-82v96h82v-96z" fill="#0A609E"/>
<path d="m438 142h-66v96h66v-96z" fill="#074978"/>
<path d="m438 142h-66l66 35v-35z" fill="#074470"/>
<path d="m130.84 71l-10.616 41.299c-1.143 4.446 2.269 8.759 6.882 8.7 2.974-0.037 5.6-1.937 6.552-4.74l1.849-5.441 6.495-24.135" fill="#8E5F51"/>
<path d="m146.58 110l-20.109 0.239c-3.142 0.037-5.622 2.607-5.459 5.658 0.152 2.875 2.605 5.123 5.566 5.103l20.426-0.141-0.424-10.859z" fill="#74483C"/>
<path d="m145.59 115.56l-20.11 0.219c-1.553 0.017-2.943 0.605-3.934 1.532-0.309-0.575-0.499-1.213-0.538-1.889-0.163-2.808 2.317-5.173 5.458-5.207l20.11-0.22 0.424 9.992-1.222 8e-3 -0.188-4.435z" fill="#8E5F51"/>
<path d="m145.95 120h13.051v-5.5c0-3.037-2.741-5.5-6.122-5.5h-4.756c-3.381 0-6.122 2.463-6.122 5.5v1.952c0 1.959 1.768 3.548 3.949 3.548z" fill="#74483C"/>
<path d="m148.12 109h4.756c3.381 0 6.122 2.557 6.122 5.711v2.129c-1.076-1.64-3.013-2.734-5.225-2.734h-4.755c-3.13 0-6.709-0.065-7.02 1.786v0.846-2.027c0-3.154 2.741-5.711 6.122-5.711z" fill="#8E5F51"/>
<path d="m125 90.406l15.572 4.5941 5.118-17.826c1.049-3.6382-0.633-7.5034-4.03-9.2586-4.534-2.3432-10.108 0.0024-11.531 4.8535l-5.129 17.637z" fill="#44B4E3"/>
<path d="m271.94 62h-72.097c-0.587 0-1.063 0.4824-1.063 1.0775l-7.777 54.922h74.223l7.777-54.922c0-0.5951-0.476-1.0775-1.063-1.0775z" fill="#1E2E34"/>
<path d="m273.94 62h-72.097c-0.587 0-1.063 0.4824-1.063 1.0775l-7.777 54.922h74.223l7.777-54.922c0-0.5951-0.476-1.0775-1.063-1.0775z" fill="#2F4148"/>
<path d="m234.5 95c-1.933 0-3.5-1.7909-3.5-4s1.567-4 3.5-4 3.5 1.7909 3.5 4-1.567 4-3.5 4z" fill="#233036"/>
<path d="m248.8 121h-93.61c-1.765 0-3.195-1.442-3.195-3.221v-1.779h100v1.779c0 1.779-1.43 3.221-3.195 3.221z" fill="#1E2E34"/>
<path d="m264.79 121h-71.788v-5h75v1.779c0 1.779-1.438 3.221-3.212 3.221z" fill="#233036"/>
<path d="m185 21.756l-0.111-0.7563-1.389 2 0.5 5v3l1-9.2437z" fill="#000"/>
<defs>
<linearGradient id="g" x1="367.96" x2="369.99" y1="42.994" y2="42.994" gradientUnits="userSpaceOnUse">
<stop stop-color="#8E5F51" offset="0"/>
<stop stop-color="#885A4C" offset=".39"/>
<stop stop-color="#794C40" offset=".89"/>
<stop stop-color="#74483C" offset="1"/>
</linearGradient>
<linearGradient id="f" x1="352" x2="352" y1="73" y2="60" gradientUnits="userSpaceOnUse">
<stop stop-color="#8E5F51" offset="0"/>
<stop stop-color="#825447" offset=".44"/>
<stop stop-color="#74483C" offset=".79"/>
</linearGradient>
<linearGradient id="e" x1="5308.4" x2="6331.8" y1="1710.2" y2="1710.2" gradientUnits="userSpaceOnUse">
<stop stop-color="#8E5F51" offset="0"/>
<stop stop-color="#885A4C" offset=".39"/>
<stop stop-color="#794C40" offset=".89"/>
<stop stop-color="#74483C" offset="1"/>
</linearGradient>
<linearGradient id="d" x1="777.14" x2="784.31" y1="349.47" y2="349.47" gradientUnits="userSpaceOnUse">
<stop stop-color="#8E5F51" offset="0"/>
<stop stop-color="#885A4C" offset=".39"/>
<stop stop-color="#794C40" offset=".89"/>
<stop stop-color="#74483C" offset="1"/>
</linearGradient>
<linearGradient id="c" x1="4035.7" x2="5366.8" y1="2307.4" y2="2307.4" gradientUnits="userSpaceOnUse">
<stop stop-color="#8E5F51" offset="0"/>
<stop stop-color="#885A4C" offset=".39"/>
<stop stop-color="#794C40" offset=".89"/>
<stop stop-color="#74483C" offset="1"/>
</linearGradient>
<linearGradient id="b" x1="2531.8" x2="2789.2" y1="2176.8" y2="2176.8" gradientUnits="userSpaceOnUse">
<stop stop-color="#8E5F51" offset="0"/>
<stop stop-color="#885A4C" offset=".39"/>
<stop stop-color="#794C40" offset=".89"/>
<stop stop-color="#74483C" offset="1"/>
</linearGradient>
<linearGradient id="a" x1="1859.8" x2="2100.9" y1="2831.9" y2="2831.9" gradientUnits="userSpaceOnUse">
<stop stop-color="#8E5F51" offset="0"/>
<stop stop-color="#885A4C" offset=".39"/>
<stop stop-color="#794C40" offset=".89"/>
<stop stop-color="#74483C" offset="1"/>
</linearGradient>
</defs>
</svg>
