<svg width="164" height="164" viewBox="0 0 164 164" fill="none" xmlns="http://www.w3.org/2000/svg">
<circle opacity="0.1" cx="82" cy="82" r="82" fill="#32A636"/>
<path d="M82 4.99939C82 2.2383 84.2404 -0.0158914 86.9964 0.152304C103.156 1.13852 118.704 6.89124 131.648 16.7387C145.922 27.5975 156.242 42.8365 161.027 60.1209C165.813 77.4054 164.799 95.782 158.142 112.436C151.486 129.089 139.553 143.101 124.172 152.325C108.791 161.548 90.81 165.475 72.9841 163.503C55.1582 161.531 38.4703 153.769 25.4772 141.407C12.484 129.044 3.90211 112.763 1.04627 95.0573C-1.54356 79.0007 0.705175 62.5756 7.44655 47.8563C8.59627 45.346 11.64 44.4314 14.0757 45.7319C16.5113 47.0324 17.4142 50.0552 16.2857 52.5752C10.5624 65.3567 8.67596 79.5681 10.9175 93.4652C13.4251 109.012 20.9605 123.308 32.3693 134.163C43.7782 145.018 58.4312 151.833 74.0834 153.565C89.7357 155.296 105.524 151.848 119.03 143.749C132.535 135.65 143.013 123.347 148.858 108.724C154.703 94.1015 155.593 77.9656 151.391 62.7888C147.189 47.6119 138.128 34.2311 125.594 24.6964C114.391 16.1734 100.966 11.1437 86.9957 10.1722C84.2413 9.9807 82 7.76048 82 4.99939Z" fill="#32A636"/>
<path d="M45.9 77.95C44.9667 77.9833 44.05 77.8833 43.15 77.65C42.25 77.4167 41.45 77.0333 40.75 76.5C40.05 75.9667 39.4833 75.2833 39.05 74.45C38.6167 73.6167 38.4 72.6167 38.4 71.45C38.4 70.45 38.6 69.5667 39 68.8C39.4333 68.0333 40 67.4 40.7 66.9C41.4 66.4 42.2 66.0167 43.1 65.75C44 65.4833 44.9333 65.35 45.9 65.35C46.9667 65.35 47.95 65.4833 48.85 65.75C49.75 66.0167 50.5333 66.4 51.2 66.9C51.8667 67.4 52.3833 68.0333 52.75 68.8C53.15 69.5667 53.35 70.45 53.35 71.45C53.35 72.5833 53.1333 73.5667 52.7 74.4C52.3 75.2333 51.75 75.9167 51.05 76.45C50.3833 76.9833 49.6 77.3833 48.7 77.65C47.8 77.8833 46.8667 77.9833 45.9 77.95ZM56.5 71.45C56.5 69.95 56.1833 68.65 55.55 67.55C54.95 66.45 54.1333 65.55 53.1 64.85C52.1 64.1167 50.9667 63.5833 49.7 63.25C48.4333 62.8833 47.15 62.7 45.85 62.7C44.55 62.7 43.2667 62.8833 42 63.25C40.7333 63.5833 39.6 64.1167 38.6 64.85C37.6 65.55 36.7833 66.45 36.15 67.55C35.55 68.65 35.25 69.95 35.25 71.45C35.25 73.3833 35.7333 75.0167 36.7 76.35C37.7 77.65 39.1167 78.5833 40.95 79.15V79.25C38.75 79.65 37.0333 80.6667 35.8 82.3C34.5667 83.9333 33.9167 85.9 33.85 88.2C33.85 89.9667 34.1667 91.5167 34.8 92.85C35.4333 94.15 36.3 95.2333 37.4 96.1C38.5 96.9667 39.7833 97.6167 41.25 98.05C42.7167 98.4833 44.2667 98.7 45.9 98.7C47.5667 98.7 49.1167 98.4833 50.55 98.05C52.0167 97.6167 53.3 96.9667 54.4 96.1C55.5 95.2333 56.3667 94.15 57 92.85C57.6333 91.5167 57.95 89.9667 57.95 88.2C57.95 85.8 57.3333 83.8333 56.1 82.3C54.8667 80.7333 53.1 79.7167 50.8 79.25V79.15C52.6 78.6167 54 77.6833 55 76.35C56 74.9833 56.5 73.35 56.5 71.45ZM45.9 96.1C44.6667 96.1 43.5 95.9333 42.4 95.6C41.3333 95.2667 40.4 94.7833 39.6 94.15C38.8 93.4833 38.1667 92.65 37.7 91.65C37.2333 90.65 37 89.5 37 88.2C37 86.9333 37.2333 85.8167 37.7 84.85C38.2 83.8833 38.85 83.0833 39.65 82.45C40.45 81.7833 41.3833 81.3 42.45 81C43.55 80.7 44.7 80.5667 45.9 80.6C47.0667 80.5667 48.1833 80.7167 49.25 81.05C50.35 81.35 51.3 81.8333 52.1 82.5C52.9333 83.1333 53.5833 83.9333 54.05 84.9C54.55 85.8333 54.8 86.9333 54.8 88.2C54.8 89.5333 54.5667 90.7 54.1 91.7C53.6333 92.7 53 93.5333 52.2 94.2C51.4 94.8333 50.45 95.3167 49.35 95.65C48.2833 95.95 47.1333 96.1 45.9 96.1ZM65.4832 89.6H62.3332C62.6999 92.7 63.7999 95 65.6332 96.5C67.4665 97.9667 69.9499 98.7 73.0832 98.7C74.9832 98.7 76.6165 98.3667 77.9832 97.7C79.3499 97.0333 80.4832 96.1833 81.3832 95.15C82.3165 94.0833 83.0499 92.9 83.5832 91.6C84.1499 90.2667 84.5832 88.9667 84.8832 87.7C85.1832 86.4 85.3665 85.1833 85.4332 84.05C85.5332 82.9167 85.5832 82 85.5832 81.3C85.5832 77.9 85.3332 75.0167 84.8332 72.65C84.3665 70.2833 83.6332 68.3667 82.6332 66.9C81.6332 65.4 80.3665 64.3333 78.8332 63.7C77.2999 63.0333 75.4665 62.7 73.3332 62.7C71.5999 62.7 69.9999 63 68.5332 63.6C67.0999 64.2 65.8499 65.0333 64.7832 66.1C63.7499 67.1333 62.9332 68.3833 62.3332 69.85C61.7665 71.2833 61.4832 72.85 61.4832 74.55C61.4832 76.25 61.7499 77.8167 62.2832 79.25C62.8499 80.6833 63.6332 81.9167 64.6332 82.95C65.6332 83.9833 66.8499 84.8 68.2832 85.4C69.7165 85.9667 71.2999 86.25 73.0332 86.25C75.0332 86.25 76.8665 85.7167 78.5332 84.65C80.2332 83.5833 81.4999 82.1833 82.3332 80.45H82.4332C82.4332 82.05 82.3165 83.7667 82.0832 85.6C81.8499 87.4 81.3832 89.0833 80.6832 90.65C79.9832 92.2167 78.9999 93.5167 77.7332 94.55C76.4999 95.5833 74.8499 96.1 72.7832 96.1C70.7499 96.1 69.0832 95.5 67.7832 94.3C66.5165 93.1 65.7499 91.5333 65.4832 89.6ZM73.0832 83.6C71.7499 83.6 70.5499 83.3667 69.4832 82.9C68.4499 82.4 67.5665 81.7333 66.8332 80.9C66.1332 80.0667 65.5832 79.0833 65.1832 77.95C64.8165 76.8167 64.6332 75.6167 64.6332 74.35C64.6332 73.15 64.8332 72 65.2332 70.9C65.6332 69.8 66.1999 68.85 66.9332 68.05C67.6999 67.2167 68.5999 66.5667 69.6332 66.1C70.6665 65.6 71.7999 65.35 73.0332 65.35C74.5665 65.35 75.8832 65.5833 76.9832 66.05C78.0832 66.5167 78.9832 67.1667 79.6832 68C80.4165 68.8 80.9499 69.75 81.2832 70.85C81.6165 71.9167 81.7832 73.0833 81.7832 74.35C81.7832 75.65 81.5832 76.8667 81.1832 78C80.8165 79.1 80.2499 80.0667 79.4832 80.9C78.7499 81.7333 77.8332 82.4 76.7332 82.9C75.6665 83.3667 74.4499 83.6 73.0832 83.6ZM98.9664 62.7C97.5664 62.7 96.3497 62.95 95.3164 63.45C94.3164 63.9167 93.4997 64.5833 92.8664 65.45C92.2331 66.2833 91.7664 67.2833 91.4664 68.45C91.1664 69.5833 91.0164 70.8167 91.0164 72.15C91.0164 73.4833 91.1664 74.7333 91.4664 75.9C91.7664 77.0333 92.2331 78.0333 92.8664 78.9C93.4997 79.7333 94.3164 80.4 95.3164 80.9C96.3497 81.3667 97.5664 81.6 98.9664 81.6C100.366 81.6 101.566 81.3667 102.566 80.9C103.6 80.4 104.433 79.7333 105.066 78.9C105.7 78.0333 106.166 77.0333 106.466 75.9C106.766 74.7333 106.916 73.4833 106.916 72.15C106.916 70.8167 106.766 69.5833 106.466 68.45C106.166 67.2833 105.7 66.2833 105.066 65.45C104.433 64.5833 103.6 63.9167 102.566 63.45C101.566 62.95 100.366 62.7 98.9664 62.7ZM120.916 82.1C121.95 82.1 122.8 82.3333 123.466 82.8C124.166 83.2333 124.716 83.8167 125.116 84.55C125.516 85.25 125.8 86.0333 125.966 86.9C126.133 87.7333 126.216 88.55 126.216 89.35C126.216 90.15 126.133 90.9667 125.966 91.8C125.8 92.6333 125.516 93.4 125.116 94.1C124.716 94.8 124.166 95.3833 123.466 95.85C122.8 96.2833 121.95 96.5 120.916 96.5C119.85 96.5 118.966 96.2833 118.266 95.85C117.6 95.3833 117.066 94.8 116.666 94.1C116.266 93.4 115.983 92.6333 115.816 91.8C115.683 90.9667 115.616 90.15 115.616 89.35C115.616 88.55 115.683 87.7333 115.816 86.9C115.983 86.0333 116.266 85.25 116.666 84.55C117.066 83.8167 117.6 83.2333 118.266 82.8C118.966 82.3333 119.85 82.1 120.916 82.1ZM120.916 79.85C119.516 79.85 118.3 80.1 117.266 80.6C116.266 81.0667 115.45 81.7333 114.816 82.6C114.183 83.4333 113.716 84.4333 113.416 85.6C113.116 86.7333 112.966 87.9667 112.966 89.3C112.966 90.6333 113.116 91.8833 113.416 93.05C113.716 94.1833 114.183 95.1833 114.816 96.05C115.45 96.8833 116.266 97.5333 117.266 98C118.3 98.4667 119.516 98.7 120.916 98.7C122.316 98.7 123.516 98.4667 124.516 98C125.55 97.5333 126.383 96.8833 127.016 96.05C127.65 95.1833 128.116 94.1833 128.416 93.05C128.716 91.8833 128.866 90.6333 128.866 89.3C128.866 87.9667 128.716 86.7333 128.416 85.6C128.116 84.4333 127.65 83.4333 127.016 82.6C126.383 81.7333 125.55 81.0667 124.516 80.6C123.516 80.1 122.316 79.85 120.916 79.85ZM119.716 61.75L97.0664 99.65H99.4664L122.066 61.75H119.716ZM98.9664 64.95C99.9997 64.95 100.85 65.1833 101.516 65.65C102.216 66.0833 102.766 66.6667 103.166 67.4C103.566 68.1 103.85 68.8833 104.016 69.75C104.183 70.5833 104.266 71.4 104.266 72.2C104.266 73 104.183 73.8167 104.016 74.65C103.85 75.4833 103.566 76.25 103.166 76.95C102.766 77.65 102.216 78.2333 101.516 78.7C100.85 79.1333 99.9997 79.35 98.9664 79.35C97.8997 79.35 97.0164 79.1333 96.3164 78.7C95.6497 78.2333 95.1164 77.65 94.7164 76.95C94.3164 76.25 94.0331 75.4833 93.8664 74.65C93.7331 73.8167 93.6664 73 93.6664 72.2C93.6664 71.4 93.7331 70.5833 93.8664 69.75C94.0331 68.8833 94.3164 68.1 94.7164 67.4C95.1164 66.6667 95.6497 66.0833 96.3164 65.65C97.0164 65.1833 97.8997 64.95 98.9664 64.95Z" fill="#333333"/>
</svg>
