<svg width="77" height="77" viewBox="0 0 77 77" fill="none" xmlns="http://www.w3.org/2000/svg">
<circle opacity="0.1" cx="38.5" cy="38.5" r="38.5" fill="#00AEFF"/>
<g clip-path="url(#clip0)">
<path d="M56.1095 17H27.875C27.0789 17 26.431 17.6479 26.431 18.444V23.4119H21.0529C20.2568 23.4119 19.6089 24.0594 19.6089 24.8556V58.641C19.6089 59.4371 20.2568 60.085 21.0529 60.085H49.2874C50.0835 60.085 50.7314 59.4371 50.7314 58.641V53.6731H56.1095C56.9056 53.6731 57.5535 53.0256 57.5535 52.2294V18.444C57.5535 17.6479 56.9056 17 56.1095 17V17ZM22.1334 57.5605V25.9364H41.605V31.1284C41.605 31.8913 42.226 32.5123 42.9889 32.5123H48.2065V52.4102V52.4109V52.4119V57.5605H22.1334ZM44.1299 27.7141L46.4118 29.9874H44.1299V27.7141ZM55.029 51.1486H50.7314V31.3273C50.7314 30.942 50.5815 30.5794 50.307 30.3046L43.813 23.8343C43.5401 23.5618 43.1776 23.4119 42.7923 23.4119H28.9558V19.5245H55.0286V51.1486H55.029Z" fill="#00AEFF"/>
</g>
<defs>
<clipPath id="clip0">
<rect width="43.085" height="43.085" fill="white" transform="translate(17 17)"/>
</clipPath>
</defs>
</svg>
