<svg width="112" height="114" viewBox="0 0 131 141" fill="none" xmlns="http://www.w3.org/2000/svg">
<path d="M117 35C123.075 35 128 30.299 128 24.5C128 18.701 123.075 14 117 14C110.925 14 106 18.701 106 24.5C106 30.299 110.925 35 117 35Z" fill="white"/>
<path d="M123.997 40.1807H98.4171L82.5773 29.3917C79.934 27.6165 76.2889 28.5074 74.8025 31.4274H64.4871V12.077C64.4871 10.927 63.5584 9.9945 62.4124 9.9945H42.4944V2.98028C42.4942 1.33455 41.1647 0 39.5249 0H12.5313C10.8915 0 9.562 1.33455 9.562 2.98056V21.174C9.562 22.82 10.8915 24.1546 12.5313 24.1546H39.5251C41.1649 24.1546 42.4944 22.82 42.4944 21.174V14.1598H60.3378V31.4274H48.9157C47.2759 31.4274 45.9463 32.7619 45.9463 34.4079V52.6014C45.9463 54.2474 47.2759 55.5819 48.9157 55.5819H60.3378V74.8612H32.9324V67.847C32.9324 66.201 31.6029 64.8665 29.9631 64.8665H2.96932C1.32951 64.8665 -8.37257e-09 66.201 -8.37257e-09 67.847V86.0405C-8.37257e-09 87.6865 1.32951 89.021 2.96932 89.021H15.8159V104.534C15.8159 105.684 16.7446 106.616 17.8905 106.616H41.5391V113.63C41.5391 115.276 42.8687 116.611 44.5085 116.611H71.5023C73.1421 116.611 74.4716 115.276 74.4716 113.63V95.4368C74.4716 93.7908 73.1421 92.4562 71.5023 92.4562H44.5085C42.8687 92.4562 41.5391 93.7908 41.5391 95.4368V102.451H19.9652V89.021H29.9631C31.6029 89.021 32.9324 87.6865 32.9324 86.0405V79.0262H62.4124C63.5584 79.0262 64.4871 78.0938 64.4871 76.9437V55.5819H75.9092C77.549 55.5819 78.8785 54.2474 78.8785 52.6014V39.8904L93.7341 49.8684C94.58 50.4365 95.5696 50.9454 96.5869 50.9713H104.172V63.95L109.213 61.1443L114.384 46.2555L112.939 64.2939L97.7581 72.709C95.7649 73.8139 94.9054 76.2368 95.7539 78.3576C96.7644 80.8829 99.7504 81.9484 102.122 80.6298L119.411 71.0179C121.042 70.1096 121.713 68.3683 121.713 67.4306L123.309 47.5116L126.213 66.7466C126.667 69.4724 125.396 72.9076 121.617 75.0127C115.127 78.6294 104.172 84.4914 104.172 84.4914V134.922C104.172 138.279 106.882 140.999 110.225 141C110.226 141 110.226 141 110.226 141C113.569 141 116.28 138.279 116.28 134.923V86.4893H118.892V134.94C118.901 138.291 121.61 141 124.946 141H124.963C128.307 140.991 131.01 138.262 131 134.906V47.2098C130.999 43.3278 127.865 40.184 123.997 40.1807Z" fill="white"/>
</svg>
