<svg width="112" height="114" viewBox="0 0 142 144" fill="none" xmlns="http://www.w3.org/2000/svg">
<path d="M14.5 25C21.4036 25 27 19.4036 27 12.5C27 5.59644 21.4036 0 14.5 0C7.59644 0 2 5.59644 2 12.5C2 19.4036 7.59644 25 14.5 25Z" fill="white"/>
<path d="M36.9787 41.1454L28.3881 32.4479C26.8413 30.8818 24.7288 30 22.5242 30H8.05914C3.61384 30 0.0102477 33.8428 0.0102477 38.5834C0.0102477 40.0404 0.00581626 44.9111 -1.00371e-08 53.0941L6.74161 38.6489L2.36611 59.6405C1.9936 61.4287 2.58686 63.218 3.7839 64.4264L18.6542 79.4337C20.7344 81.5331 24.0954 81.4961 26.1433 79.479C28.2239 77.4296 28.2444 74.0861 26.1887 72.0118L13.3143 59.0186L17.2765 40.009L18.1288 56.9046C30.5011 69.391 30.624 69.6578 30.6249 69.663V49.9019L33.3452 52.8199C35.1447 54.6406 37.9044 54.9027 39.9838 53.6506V40.9595C39.9838 39.3989 40.3502 37.9228 41 36.6097L36.9787 41.1454Z" fill="white"/>
<path d="M28.9949 82.5085C25.0304 86.5239 18.7018 86.406 14.862 82.421C-0.987802 65.976 0.324207 67.3462 0.017891 67C0.00894552 83.6292 1.51259e-08 107.144 1.51259e-08 137.269C-0.000271061 140.986 2.93955 144 6.56546 144C10.1914 144 13.1312 140.986 13.1312 137.269V86.5022H16.8685V137.269C16.8685 140.986 19.8083 144 23.4343 144C27.0602 144 30 140.986 30 137.269C30 112.801 30 94.6099 30 81.3222C29.6994 81.7374 29.3643 82.1342 28.9949 82.5085Z" fill="white"/>
<path d="M56.174 26.177C53.9275 24.4601 50.4973 24.643 48.5119 26.5856L44 31C45.5669 30.1077 47.4405 29.5868 49.4527 29.5868H58C57.9663 28.3251 57.3536 27.0786 56.174 26.177Z" fill="white"/>
<path d="M142 65.1121V39.7024C142 36.553 139.381 34 136.151 34H47.8489C44.6186 34 42 36.553 42 39.7024V65.1121C42 67.8302 43.9522 70.1 46.5634 70.6718C43.8837 71.2586 42 73.5999 42 76.2314V101.641C42 104.481 44.131 106.829 46.9172 107.265C44.131 107.701 42 110.049 42 112.888V138.298C42 141.447 44.6186 144 47.8489 144H136.151C139.381 144 142 141.447 142 138.298V112.888C142 110.049 139.869 107.701 137.082 107.265C139.869 106.829 142 104.481 142 101.641V76.2317C142 73.5999 140.116 71.2586 137.436 70.6721C140.048 70.1006 142 67.8305 142 65.1121ZM81.2389 41.9741H123.378C124.59 41.9741 125.573 42.9322 125.573 44.114C125.573 45.2958 124.59 46.2539 123.378 46.2539H81.2389C80.0267 46.2539 79.044 45.2958 79.044 44.114C79.044 42.9322 80.0264 41.9741 81.2389 41.9741ZM81.2389 50.248H123.378C124.59 50.248 125.573 51.206 125.573 52.3878C125.573 53.5697 124.59 54.5277 123.378 54.5277H81.2389C80.0267 54.5277 79.044 53.5697 79.044 52.3878C79.044 51.206 80.0264 50.248 81.2389 50.248ZM81.2389 58.5218H123.378C124.59 58.5218 125.573 59.4799 125.573 60.6617C125.573 61.8435 124.59 62.8016 123.378 62.8016H81.2389C80.0267 62.8016 79.044 61.8435 79.044 60.6617C79.044 59.4799 80.0264 58.5218 81.2389 58.5218ZM81.2389 78.5032H123.378C124.59 78.5032 125.573 79.4613 125.573 80.6431C125.573 81.8249 124.59 82.783 123.378 82.783H81.2389C80.0267 82.783 79.044 81.8249 79.044 80.6431C79.044 79.4613 80.0264 78.5032 81.2389 78.5032ZM59.3932 132.765C55.2564 132.765 51.9029 129.496 51.9029 125.463C51.9029 121.43 55.2564 118.161 59.3929 118.161C63.5297 118.161 66.8829 121.43 66.8829 125.463C66.8832 129.496 63.53 132.765 59.3932 132.765ZM59.3932 96.2391C55.2564 96.2391 51.9032 92.9696 51.9032 88.9367C51.9032 84.9039 55.2567 81.6344 59.3932 81.6344C63.53 81.6344 66.8832 84.9039 66.8832 88.9367C66.8832 92.9699 63.53 96.2391 59.3932 96.2391ZM59.3932 59.71C55.2564 59.71 51.9032 56.4405 51.9032 52.4077C51.9032 48.3745 55.2567 45.1053 59.3932 45.1053C63.53 45.1053 66.8832 48.3748 66.8832 52.4077C66.8832 56.4405 63.53 59.71 59.3932 59.71ZM123.378 135.857H81.2389C80.0267 135.857 79.044 134.899 79.044 133.717C79.044 132.535 80.0267 131.577 81.2389 131.577H123.378C124.59 131.577 125.573 132.535 125.573 133.717C125.573 134.899 124.59 135.857 123.378 135.857ZM123.378 127.583H81.2389C80.0267 127.583 79.044 126.625 79.044 125.443C79.044 124.261 80.0267 123.303 81.2389 123.303H123.378C124.59 123.303 125.573 124.261 125.573 125.443C125.573 126.625 124.59 127.583 123.378 127.583ZM123.378 119.309H81.2389C80.0267 119.309 79.044 118.351 79.044 117.169C79.044 115.988 80.0267 115.029 81.2389 115.029H123.378C124.59 115.029 125.573 115.988 125.573 117.169C125.573 118.351 124.59 119.309 123.378 119.309ZM123.378 99.3309H81.2389C80.0267 99.3309 79.044 98.3728 79.044 97.191C79.044 96.0092 80.0267 95.0511 81.2389 95.0511H123.378C124.59 95.0511 125.573 96.0092 125.573 97.191C125.573 98.3728 124.59 99.3309 123.378 99.3309ZM123.378 91.0568H81.2389C80.0267 91.0568 79.044 90.0987 79.044 88.9169C79.044 87.7354 80.0267 86.777 81.2389 86.777H123.378C124.59 86.777 125.573 87.7351 125.573 88.9169C125.573 90.0987 124.59 91.0568 123.378 91.0568Z" fill="white"/>
</svg>
