<svg width="1440" height="390" viewBox="0 0 1440 390" fill="none" xmlns="http://www.w3.org/2000/svg">
<mask id="mask0" mask-type="alpha" maskUnits="userSpaceOnUse" x="0" y="0" width="1440" height="390">
<rect x="0.5" y="0.5" width="1439" height="389" fill="#084482" stroke="black"/>
</mask>
<g mask="url(#mask0)">
<rect x="0.5" y="0.5" width="1439" height="389" fill="#084482" stroke="black"/>
<g opacity="0.2">
<path d="M-72.4144 86.2662C71.3502 53.4616 -12.3108 248.039 310.072 240.829C452.703 237.64 726.041 -63.0761 633.404 -186.623" stroke="#00AEFF" stroke-width="3"/>
<path d="M-63.2828 126.285C80.5378 93.4675 -6.54428 311.512 319.429 281.247C465.474 267.687 802.365 -81.7445 709.646 -205.542" stroke="#00AEFF" stroke-width="3"/>
<path d="M-57.3409 152.325C86.4797 119.508 -0.602383 337.552 325.371 307.287C471.416 293.728 808.307 -55.7042 715.588 -179.501" stroke="#00AEFF" stroke-width="3"/>
<path d="M-51.0688 179.812C92.7518 146.995 5.66971 365.039 331.643 334.774C477.688 321.215 814.579 -28.2171 721.86 -152.014" stroke="#00AEFF" stroke-width="3"/>
<path d="M-45.1269 205.853C98.6937 173.035 11.6116 391.08 337.585 360.815C483.63 347.255 820.521 -2.17676 727.802 -125.974" stroke="#00AEFF" stroke-width="3"/>
<path d="M-39.185 231.893C104.636 199.076 17.5536 417.12 343.527 386.855C489.572 373.295 826.463 23.8636 733.744 -99.9334" stroke="#00AEFF" stroke-width="3"/>
<path d="M-32.9129 259.38C110.908 226.563 23.8257 444.607 349.799 414.342C495.844 400.782 832.735 51.3506 740.016 -72.4464" stroke="#00AEFF" stroke-width="3"/>
<path d="M-26.971 285.42C116.85 252.603 29.7676 470.647 355.741 440.382C501.786 426.823 838.677 77.391 745.958 -46.406" stroke="#00AEFF" stroke-width="3"/>
</g>
</g>
</svg>
