<svg width="131" height="55" viewBox="0 0 131 55" fill="none" xmlns="http://www.w3.org/2000/svg">
<path fill-rule="evenodd" clip-rule="evenodd" d="M131 28.165C131 18.8495 126.488 11.4989 117.864 11.4989C109.203 11.4989 103.963 18.8495 103.963 28.0922C103.963 39.0453 110.149 44.5764 119.028 44.5764C123.358 44.5764 126.633 43.5939 129.108 42.2111V34.9333C126.633 36.1706 123.795 36.9347 120.193 36.9347C116.663 36.9347 113.533 35.6975 113.133 31.4036H130.927C130.927 30.9306 131 29.0383 131 28.165ZM113.024 24.7081C113.024 20.5961 115.535 18.8858 117.827 18.8858C120.047 18.8858 122.412 20.5961 122.412 24.7081H113.024Z" fill="#6772E5"/>
<path fill-rule="evenodd" clip-rule="evenodd" d="M89.917 11.4989C86.3509 11.4989 84.0584 13.1728 82.7848 14.3372L82.3117 12.0811H74.3062V54.5106L83.4034 52.582L83.4398 42.2839C84.7498 43.23 86.6784 44.5764 89.8806 44.5764C96.3942 44.5764 102.326 39.3364 102.326 27.8011C102.289 17.2483 96.2851 11.4989 89.917 11.4989ZM87.7337 36.5708C85.5867 36.5708 84.3131 35.8067 83.4398 34.8606L83.4034 21.3603C84.3495 20.305 85.6595 19.5772 87.7337 19.5772C91.0451 19.5772 93.3376 23.2889 93.3376 28.0558C93.3376 32.932 91.0815 36.5708 87.7337 36.5708Z" fill="#6772E5"/>
<path fill-rule="evenodd" clip-rule="evenodd" d="M61.7883 9.35194L70.9219 7.38694V0L61.7883 1.92861V9.35194Z" fill="#6772E5"/>
<path d="M70.9219 12.1175H61.7883V43.9578H70.9219V12.1175Z" fill="#6772E5"/>
<path fill-rule="evenodd" clip-rule="evenodd" d="M51.9998 14.8103L51.4176 12.1175H43.5576V43.9578H52.6548V22.3792C54.8017 19.5773 58.4406 20.0867 59.5687 20.487V12.1175C58.4042 11.6809 54.1467 10.8803 51.9998 14.8103Z" fill="#6772E5"/>
<path fill-rule="evenodd" clip-rule="evenodd" d="M33.8052 4.22113L24.9263 6.11335L24.89 35.2609C24.89 40.6464 28.9291 44.6128 34.3147 44.6128C37.2986 44.6128 39.4819 44.067 40.6827 43.412V36.025C39.5183 36.4981 33.7688 38.172 33.7688 32.7864V19.8684H40.6827V12.1175H33.7688L33.8052 4.22113Z" fill="#6772E5"/>
<path fill-rule="evenodd" clip-rule="evenodd" d="M9.20639 21.3603C9.20639 19.9411 10.3708 19.3953 12.2994 19.3953C15.065 19.3953 18.5583 20.2322 21.3239 21.7242V13.1728C18.3036 11.972 15.3197 11.4989 12.2994 11.4989C4.9125 11.4989 0 15.3561 0 21.797C0 31.8403 13.8278 30.2392 13.8278 34.5695C13.8278 36.2433 12.3722 36.7892 10.3344 36.7892C7.31417 36.7892 3.45694 35.552 0.400277 33.8781V42.5386C3.78444 43.9942 7.205 44.6128 10.3344 44.6128C17.9033 44.6128 23.1069 40.8647 23.1069 34.3511C23.0706 23.5072 9.20639 25.4358 9.20639 21.3603Z" fill="#6772E5"/>
</svg>
