<svg width="72" height="72" viewBox="0 0 72 72" fill="none" xmlns="http://www.w3.org/2000/svg">
<g filter="url(#filter0_d)">
<circle cx="36" cy="34" r="30" fill="white"/>
</g>
<path d="M44.2422 27.5156C45.2114 27.5156 46 26.7271 46 25.7578C46 24.7886 45.2114 24 44.2422 24C43.4783 24 42.827 24.4899 42.5852 25.1719H37.7188V24.5859C37.7188 24.2623 37.4564 24 37.1328 24H34.7891C34.4655 24 34.2031 24.2623 34.2031 24.5859V25.1719H29.4148C29.173 24.4899 28.5217 24 27.7578 24C26.7886 24 26 24.7886 26 25.7578C26 26.7271 26.7886 27.5156 27.7578 27.5156C28.5217 27.5156 29.173 27.0218 29.4148 26.3398H31.5751C30.7419 26.8203 29.9855 27.4421 29.3415 28.1788C27.9424 29.7793 27.1719 31.8328 27.1719 33.9609C27.1719 34.2845 27.4342 34.5469 27.7578 34.5469C28.0814 34.5469 28.3438 34.2845 28.3438 33.9609C28.3438 30.424 30.8191 27.35 34.2031 26.5479V26.9297C34.2031 27.2533 34.4655 27.5156 34.7891 27.5156H37.1328C37.4564 27.5156 37.7188 27.2533 37.7188 26.9297V26.5472C41.1473 27.3516 43.6562 30.4272 43.6562 33.9609C43.6562 34.2845 43.9186 34.5469 44.2422 34.5469C44.5658 34.5469 44.8281 34.2845 44.8281 33.9609C44.8281 30.757 43.0436 27.8799 40.3629 26.3438H42.5852C42.827 27.0257 43.4783 27.5156 44.2422 27.5156ZM44.2422 25.1719C44.5653 25.1719 44.8281 25.4347 44.8281 25.7578C44.8281 26.0809 44.5653 26.3438 44.2422 26.3438C43.9191 26.3438 43.6562 26.0809 43.6562 25.7578C43.6562 25.4347 43.9191 25.1719 44.2422 25.1719ZM27.7578 26.3438C27.4347 26.3438 27.1719 26.0809 27.1719 25.7578C27.1719 25.4347 27.4347 25.1719 27.7578 25.1719C28.0809 25.1719 28.3438 25.4347 28.3438 25.7578C28.3438 26.0809 28.0809 26.3438 27.7578 26.3438ZM36.5469 26.3438H35.375V25.1719H36.5469V26.3438Z" fill="#00AEFF"/>
<path d="M40.0546 34.8074L36.4601 28.9663C36.2332 28.5976 35.6919 28.5926 35.462 28.9663L31.8675 34.8074C31.0788 36.089 31.0521 37.7622 31.7995 39.0701L32.6076 40.4844H32.4454C32.1218 40.4844 31.8595 40.7467 31.8595 41.0703V43.414C31.8595 43.7376 32.1218 44 32.4454 44H39.4767C39.8003 44 40.0626 43.7376 40.0626 43.414V41.0703C40.0626 40.7467 39.8003 40.4844 39.4767 40.4844H39.3145L40.1226 39.0701C40.87 37.7622 40.8433 36.089 40.0546 34.8074ZM35.9611 35.7187C36.2841 35.7187 36.547 35.9816 36.547 36.3047C36.547 36.6278 36.2841 36.8906 35.9611 36.8906C35.638 36.8906 35.3751 36.6278 35.3751 36.3047C35.3751 35.9816 35.638 35.7187 35.9611 35.7187ZM38.8907 42.8281H33.0314V41.6562C33.1859 41.6562 38.7336 41.6562 38.8907 41.6562V42.8281ZM39.1052 38.4887L37.9648 40.4844H33.9574L32.817 38.4887C32.2874 37.5619 32.3069 36.3294 32.8656 35.4216L35.3751 31.3436V34.6477C34.6931 34.8896 34.2033 35.5408 34.2033 36.3047C34.2033 37.274 34.9918 38.0625 35.9611 38.0625C36.9303 38.0625 37.7189 37.274 37.7189 36.3047C37.7189 35.5408 37.229 34.8896 36.547 34.6477V31.3436L39.0566 35.4216C39.6152 36.3294 39.6347 37.5619 39.1052 38.4887Z" fill="#00AEFF"/>
<defs>
<filter id="filter0_d" x="0" y="0" width="72" height="72" filterUnits="userSpaceOnUse" color-interpolation-filters="sRGB">
<feFlood flood-opacity="0" result="BackgroundImageFix"/>
<feColorMatrix in="SourceAlpha" type="matrix" values="0 0 0 0 0 0 0 0 0 0 0 0 0 0 0 0 0 0 127 0"/>
<feOffset dy="2"/>
<feGaussianBlur stdDeviation="3"/>
<feColorMatrix type="matrix" values="0 0 0 0 0 0 0 0 0 0 0 0 0 0 0 0 0 0 0.25 0"/>
<feBlend mode="normal" in2="BackgroundImageFix" result="effect1_dropShadow"/>
<feBlend mode="normal" in="SourceGraphic" in2="effect1_dropShadow" result="shape"/>
</filter>
</defs>
</svg>
