<svg width="72" height="72" viewBox="0 0 72 72" fill="none" xmlns="http://www.w3.org/2000/svg">
<g filter="url(#filter0_d)">
<circle cx="36" cy="34" r="30" fill="white"/>
</g>
<g clip-path="url(#clip0)">
<path d="M45.3478 26.3913H26.6522C26.292 26.3913 26 26.6833 26 27.0435V40.9565C26 41.3167 26.292 41.6087 26.6522 41.6087H45.3479C45.708 41.6087 46 41.3167 46 40.9565V27.0435C46 26.6833 45.708 26.3913 45.3478 26.3913ZM44.6957 40.3044H27.3043V31.5947H44.6956V40.3044H44.6957ZM44.6957 30.2904H27.3043V27.6957H44.6956V30.2904H44.6957Z" fill="#00AEFF"/>
<path d="M43.3268 28.0331C42.8473 28.0331 42.4572 28.4232 42.4572 28.9027C42.4572 29.3822 42.8472 29.7722 43.3268 29.7722C43.8062 29.7722 44.1963 29.3822 44.1963 28.9027C44.1963 28.4232 43.8062 28.0331 43.3268 28.0331Z" fill="#00AEFF"/>
<path d="M40.958 28.0331C40.4785 28.0331 40.0884 28.4232 40.0884 28.9027C40.0884 29.3822 40.4785 29.7722 40.958 29.7722C41.4375 29.7722 41.8276 29.3822 41.8276 28.9027C41.8276 28.4232 41.4375 28.0331 40.958 28.0331Z" fill="#00AEFF"/>
<path d="M38.5893 28.0331C38.1098 28.0331 37.7197 28.4232 37.7197 28.9027C37.7197 29.3822 38.1098 29.7722 38.5893 29.7722C39.0688 29.7722 39.4589 29.3822 39.4589 28.9027C39.4589 28.4232 39.0688 28.0331 38.5893 28.0331Z" fill="#00AEFF"/>
<path d="M35.1971 35.4529L33.0623 33.6363C32.788 33.4029 32.3764 33.436 32.1429 33.7104C31.9095 33.9846 31.9427 34.3963 32.217 34.6297L33.7681 35.9496L32.217 37.2695C31.9427 37.5029 31.9095 37.9145 32.1429 38.1888C32.3763 38.4631 32.7879 38.4963 33.0623 38.2629L35.1971 36.4463C35.503 36.186 35.503 35.713 35.1971 35.4529Z" fill="#00AEFF"/>
<path d="M39.3602 37.1139H36.7838C36.4237 37.1139 36.1317 37.4059 36.1317 37.7661C36.1317 38.1263 36.4237 38.4183 36.7838 38.4183H39.3602C39.7203 38.4183 40.0124 38.1263 40.0124 37.7661C40.0124 37.4059 39.7203 37.1139 39.3602 37.1139Z" fill="#00AEFF"/>
</g>
<defs>
<filter id="filter0_d" x="0" y="0" width="72" height="72" filterUnits="userSpaceOnUse" color-interpolation-filters="sRGB">
<feFlood flood-opacity="0" result="BackgroundImageFix"/>
<feColorMatrix in="SourceAlpha" type="matrix" values="0 0 0 0 0 0 0 0 0 0 0 0 0 0 0 0 0 0 127 0"/>
<feOffset dy="2"/>
<feGaussianBlur stdDeviation="3"/>
<feColorMatrix type="matrix" values="0 0 0 0 0 0 0 0 0 0 0 0 0 0 0 0 0 0 0.25 0"/>
<feBlend mode="normal" in2="BackgroundImageFix" result="effect1_dropShadow"/>
<feBlend mode="normal" in="SourceGraphic" in2="effect1_dropShadow" result="shape"/>
</filter>
<clipPath id="clip0">
<rect width="20" height="20" fill="white" transform="translate(26 24)"/>
</clipPath>
</defs>
</svg>
